G75*
%MOIN*%
%OFA0B0*%
%FSLAX25Y25*%
%IPPOS*%
%LPD*%
%AMOC8*
5,1,8,0,0,1.08239X$1,22.5*
%
%ADD10C,0.00000*%
%ADD11OC8,0.05200*%
%ADD12C,0.05543*%
%ADD13C,0.07400*%
%ADD14C,0.06000*%
%ADD15C,0.01200*%
%ADD16C,0.01600*%
%ADD17C,0.02500*%
%ADD18C,0.02000*%
D10*
X0001800Y0001800D02*
X0001800Y0186761D01*
X0185501Y0186761D01*
X0185501Y0001800D01*
X0001800Y0001800D01*
D11*
X0036800Y0041800D03*
X0051800Y0041800D03*
X0051800Y0081800D03*
X0036800Y0081800D03*
X0046800Y0096800D03*
X0051800Y0104300D03*
X0056800Y0096800D03*
X0071800Y0096800D03*
X0076800Y0104300D03*
X0081800Y0096800D03*
X0096800Y0096800D03*
X0101800Y0104300D03*
X0106800Y0096800D03*
X0164300Y0121800D03*
X0171800Y0116800D03*
X0171800Y0126800D03*
X0171800Y0141800D03*
X0164300Y0146800D03*
X0171800Y0151800D03*
X0171800Y0166800D03*
X0164300Y0171800D03*
X0171800Y0176800D03*
D12*
X0099595Y0061800D03*
X0074005Y0061800D03*
D13*
X0071800Y0116800D03*
X0081800Y0116800D03*
X0091800Y0116800D03*
X0101800Y0116800D03*
X0111800Y0116800D03*
X0121800Y0116800D03*
X0131800Y0116800D03*
X0141800Y0116800D03*
X0151800Y0116800D03*
X0151800Y0176800D03*
X0141800Y0176800D03*
X0131800Y0176800D03*
X0121800Y0176800D03*
X0111800Y0176800D03*
X0101800Y0176800D03*
X0091800Y0176800D03*
X0081800Y0176800D03*
X0071800Y0176800D03*
X0061800Y0176800D03*
X0051800Y0176800D03*
X0041800Y0176800D03*
X0041800Y0116800D03*
X0051800Y0116800D03*
X0061800Y0116800D03*
D14*
X0019800Y0116800D02*
X0013800Y0116800D01*
X0013800Y0106800D02*
X0019800Y0106800D01*
X0019800Y0096800D02*
X0013800Y0096800D01*
X0013800Y0086800D02*
X0019800Y0086800D01*
X0019800Y0126800D02*
X0013800Y0126800D01*
X0013800Y0136800D02*
X0019800Y0136800D01*
X0019800Y0146800D02*
X0013800Y0146800D01*
X0013800Y0156800D02*
X0019800Y0156800D01*
X0019800Y0166800D02*
X0013800Y0166800D01*
X0013800Y0176800D02*
X0019800Y0176800D01*
X0133800Y0096800D02*
X0139800Y0096800D01*
X0139800Y0086800D02*
X0133800Y0086800D01*
X0133800Y0076800D02*
X0139800Y0076800D01*
X0139800Y0066800D02*
X0133800Y0066800D01*
X0133800Y0046800D02*
X0139800Y0046800D01*
X0139800Y0036800D02*
X0133800Y0036800D01*
X0133800Y0026800D02*
X0139800Y0026800D01*
X0139800Y0016800D02*
X0133800Y0016800D01*
X0168800Y0016800D02*
X0174800Y0016800D01*
X0174800Y0026800D02*
X0168800Y0026800D01*
X0168800Y0036800D02*
X0174800Y0036800D01*
X0174800Y0046800D02*
X0168800Y0046800D01*
X0168800Y0066800D02*
X0174800Y0066800D01*
X0174800Y0076800D02*
X0168800Y0076800D01*
X0168800Y0086800D02*
X0174800Y0086800D01*
X0174800Y0096800D02*
X0168800Y0096800D01*
X0066800Y0019800D02*
X0066800Y0013800D01*
X0056800Y0013800D02*
X0056800Y0019800D01*
X0046800Y0019800D02*
X0046800Y0013800D01*
X0036800Y0013800D02*
X0036800Y0019800D01*
X0026800Y0019800D02*
X0026800Y0013800D01*
X0016800Y0013800D02*
X0016800Y0019800D01*
X0013800Y0036800D02*
X0019800Y0036800D01*
X0019800Y0046800D02*
X0013800Y0046800D01*
D15*
X0021900Y0041775D02*
X0017175Y0037050D01*
X0016800Y0036800D01*
X0021900Y0041775D02*
X0036750Y0041775D01*
X0036800Y0041800D01*
X0016500Y0026925D02*
X0008400Y0035025D01*
X0008400Y0068100D01*
X0036075Y0095775D01*
X0036075Y0119400D01*
X0039450Y0122775D01*
X0075900Y0122775D01*
X0081300Y0117375D01*
X0081800Y0116800D01*
X0086025Y0111300D02*
X0091425Y0116700D01*
X0091800Y0116800D01*
X0086025Y0111300D02*
X0077250Y0111300D01*
X0070500Y0104550D01*
X0052275Y0104550D01*
X0051800Y0104300D01*
X0033375Y0113325D02*
X0033375Y0120750D01*
X0038100Y0125475D01*
X0123150Y0125475D01*
X0131250Y0117375D01*
X0131800Y0116800D01*
X0141375Y0116700D02*
X0141800Y0116800D01*
X0141375Y0116700D02*
X0100200Y0075525D01*
X0100200Y0062025D01*
X0099595Y0061800D01*
X0101800Y0104300D02*
X0102225Y0104550D01*
X0109650Y0104550D01*
X0121800Y0116700D01*
X0121800Y0116800D01*
X0111800Y0116800D02*
X0111675Y0116700D01*
X0106275Y0111300D01*
X0102225Y0111300D01*
X0095475Y0104550D01*
X0077250Y0104550D01*
X0076800Y0104300D01*
X0051600Y0082275D02*
X0051800Y0081800D01*
X0051600Y0082275D02*
X0037425Y0082275D01*
X0036800Y0081800D01*
X0017175Y0097125D02*
X0016800Y0096800D01*
X0017175Y0097125D02*
X0033375Y0113325D01*
X0019875Y0117375D02*
X0070500Y0168000D01*
X0113025Y0168000D01*
X0121800Y0176775D01*
X0121800Y0176800D01*
X0141800Y0176800D02*
X0142050Y0176775D01*
X0163650Y0155175D01*
X0163650Y0147075D01*
X0164300Y0146800D01*
X0164300Y0121800D02*
X0163650Y0121425D01*
X0156225Y0121425D01*
X0152175Y0117375D01*
X0151800Y0116800D01*
X0156900Y0172050D02*
X0152175Y0176775D01*
X0151800Y0176800D01*
X0156900Y0172050D02*
X0163650Y0172050D01*
X0164300Y0171800D01*
X0091800Y0176800D02*
X0091425Y0176775D01*
X0085350Y0170700D01*
X0069150Y0170700D01*
X0035400Y0136950D01*
X0017175Y0136950D01*
X0016800Y0136800D01*
X0017175Y0117375D02*
X0016800Y0116800D01*
X0017175Y0117375D02*
X0019875Y0117375D01*
X0016800Y0156800D02*
X0017175Y0157200D01*
X0021900Y0157200D01*
X0041475Y0176775D01*
X0041800Y0176800D01*
X0016500Y0026925D02*
X0016500Y0016800D01*
X0016800Y0016800D01*
D16*
X0011800Y0016075D02*
X0003600Y0016075D01*
X0003600Y0017673D02*
X0011800Y0017673D01*
X0011800Y0019272D02*
X0003600Y0019272D01*
X0003600Y0020870D02*
X0011831Y0020870D01*
X0011800Y0020795D02*
X0011800Y0012805D01*
X0012561Y0010968D01*
X0013968Y0009561D01*
X0015805Y0008800D01*
X0017795Y0008800D01*
X0019632Y0009561D01*
X0021039Y0010968D01*
X0021800Y0012805D01*
X0021800Y0020795D01*
X0021039Y0022632D01*
X0019632Y0024039D01*
X0019100Y0024259D01*
X0019100Y0027442D01*
X0018704Y0028398D01*
X0015302Y0031800D01*
X0020795Y0031800D01*
X0022632Y0032561D01*
X0024039Y0033968D01*
X0024800Y0035805D01*
X0024800Y0037795D01*
X0024228Y0039175D01*
X0032920Y0039175D01*
X0034895Y0037200D01*
X0038705Y0037200D01*
X0041400Y0039895D01*
X0041400Y0043705D01*
X0038705Y0046400D01*
X0034895Y0046400D01*
X0032870Y0044375D01*
X0023952Y0044375D01*
X0024248Y0044957D01*
X0024482Y0045676D01*
X0024600Y0046422D01*
X0024600Y0046600D01*
X0017000Y0046600D01*
X0017000Y0047000D01*
X0016600Y0047000D01*
X0016600Y0051600D01*
X0013422Y0051600D01*
X0012676Y0051482D01*
X0011957Y0051248D01*
X0011284Y0050905D01*
X0011000Y0050699D01*
X0011000Y0067023D01*
X0037548Y0093571D01*
X0038279Y0094302D01*
X0038675Y0095258D01*
X0038675Y0111925D01*
X0040666Y0111100D01*
X0042934Y0111100D01*
X0045029Y0111968D01*
X0046632Y0113571D01*
X0046800Y0113976D01*
X0046968Y0113571D01*
X0048571Y0111968D01*
X0050666Y0111100D01*
X0052934Y0111100D01*
X0055029Y0111968D01*
X0056632Y0113571D01*
X0056800Y0113976D01*
X0056968Y0113571D01*
X0058571Y0111968D01*
X0060666Y0111100D01*
X0062934Y0111100D01*
X0065029Y0111968D01*
X0066632Y0113571D01*
X0066919Y0114264D01*
X0067096Y0113917D01*
X0067605Y0113217D01*
X0068217Y0112605D01*
X0068917Y0112096D01*
X0069689Y0111703D01*
X0070512Y0111435D01*
X0071367Y0111300D01*
X0071600Y0111300D01*
X0071600Y0116600D01*
X0067500Y0116600D01*
X0067500Y0117000D01*
X0071600Y0117000D01*
X0071600Y0116600D01*
X0072000Y0116600D01*
X0072000Y0111300D01*
X0072233Y0111300D01*
X0073088Y0111435D01*
X0073911Y0111703D01*
X0074043Y0111770D01*
X0069423Y0107150D01*
X0055455Y0107150D01*
X0053705Y0108900D01*
X0049895Y0108900D01*
X0047200Y0106205D01*
X0047200Y0102395D01*
X0047895Y0101700D01*
X0044770Y0101700D01*
X0041900Y0098830D01*
X0041900Y0094770D01*
X0044770Y0091900D01*
X0048830Y0091900D01*
X0049144Y0092214D01*
X0075110Y0066248D01*
X0075075Y0066259D01*
X0074365Y0066372D01*
X0074091Y0066372D01*
X0074091Y0061886D01*
X0078576Y0061886D01*
X0078576Y0062160D01*
X0078464Y0062871D01*
X0078452Y0062906D01*
X0116302Y0025056D01*
X0117231Y0024127D01*
X0118444Y0023625D01*
X0129480Y0023625D01*
X0130798Y0022307D01*
X0132022Y0021800D01*
X0130798Y0021293D01*
X0129307Y0019802D01*
X0128500Y0017854D01*
X0128500Y0015746D01*
X0129108Y0014278D01*
X0126405Y0011575D01*
X0071053Y0011575D01*
X0071248Y0011957D01*
X0071482Y0012676D01*
X0071600Y0013422D01*
X0071600Y0016600D01*
X0067000Y0016600D01*
X0067000Y0017000D01*
X0066600Y0017000D01*
X0066600Y0024600D01*
X0066422Y0024600D01*
X0065676Y0024482D01*
X0064957Y0024248D01*
X0064284Y0023905D01*
X0063673Y0023461D01*
X0063139Y0022927D01*
X0062695Y0022316D01*
X0062352Y0021643D01*
X0062118Y0020924D01*
X0062000Y0020178D01*
X0062000Y0017000D01*
X0066600Y0017000D01*
X0066600Y0016600D01*
X0062000Y0016600D01*
X0062000Y0013422D01*
X0062118Y0012676D01*
X0062352Y0011957D01*
X0062547Y0011575D01*
X0061290Y0011575D01*
X0061800Y0012805D01*
X0061800Y0020795D01*
X0061039Y0022632D01*
X0059632Y0024039D01*
X0057795Y0024800D01*
X0055805Y0024800D01*
X0053968Y0024039D01*
X0052561Y0022632D01*
X0051800Y0020795D01*
X0051800Y0012805D01*
X0052310Y0011575D01*
X0051053Y0011575D01*
X0051248Y0011957D01*
X0051482Y0012676D01*
X0051600Y0013422D01*
X0051600Y0016600D01*
X0047000Y0016600D01*
X0047000Y0017000D01*
X0046600Y0017000D01*
X0046600Y0024600D01*
X0046422Y0024600D01*
X0045676Y0024482D01*
X0044957Y0024248D01*
X0044284Y0023905D01*
X0043673Y0023461D01*
X0043139Y0022927D01*
X0042695Y0022316D01*
X0042352Y0021643D01*
X0042118Y0020924D01*
X0042100Y0020809D01*
X0042100Y0020854D01*
X0041293Y0022802D01*
X0039802Y0024293D01*
X0037854Y0025100D01*
X0035746Y0025100D01*
X0033798Y0024293D01*
X0032307Y0022802D01*
X0031500Y0020854D01*
X0031500Y0020809D01*
X0031482Y0020924D01*
X0031248Y0021643D01*
X0030905Y0022316D01*
X0030461Y0022927D01*
X0029927Y0023461D01*
X0029316Y0023905D01*
X0028643Y0024248D01*
X0027924Y0024482D01*
X0027178Y0024600D01*
X0027000Y0024600D01*
X0027000Y0017000D01*
X0026600Y0017000D01*
X0026600Y0024600D01*
X0026422Y0024600D01*
X0025676Y0024482D01*
X0024957Y0024248D01*
X0024284Y0023905D01*
X0023673Y0023461D01*
X0023139Y0022927D01*
X0022695Y0022316D01*
X0022352Y0021643D01*
X0022118Y0020924D01*
X0022000Y0020178D01*
X0022000Y0017000D01*
X0026600Y0017000D01*
X0026600Y0016600D01*
X0027000Y0016600D01*
X0027000Y0009000D01*
X0027178Y0009000D01*
X0027924Y0009118D01*
X0028643Y0009352D01*
X0029316Y0009695D01*
X0029927Y0010139D01*
X0030461Y0010673D01*
X0030905Y0011284D01*
X0031248Y0011957D01*
X0031482Y0012676D01*
X0031500Y0012791D01*
X0031500Y0012746D01*
X0032307Y0010798D01*
X0033798Y0009307D01*
X0035746Y0008500D01*
X0037854Y0008500D01*
X0038438Y0008742D01*
X0041165Y0006014D01*
X0042164Y0005015D01*
X0043469Y0004475D01*
X0128581Y0004475D01*
X0129886Y0005015D01*
X0136370Y0011500D01*
X0140854Y0011500D01*
X0142802Y0012307D01*
X0143745Y0013250D01*
X0164855Y0013250D01*
X0165798Y0012307D01*
X0167746Y0011500D01*
X0175854Y0011500D01*
X0177802Y0012307D01*
X0179293Y0013798D01*
X0180100Y0015746D01*
X0180100Y0017854D01*
X0179829Y0018509D01*
X0183701Y0022380D01*
X0183701Y0003600D01*
X0003600Y0003600D01*
X0003600Y0184961D01*
X0183701Y0184961D01*
X0183701Y0100106D01*
X0183323Y0101019D01*
X0182394Y0101948D01*
X0175725Y0108617D01*
X0175725Y0113795D01*
X0176700Y0114770D01*
X0176700Y0118830D01*
X0173830Y0121700D01*
X0169770Y0121700D01*
X0168900Y0120830D01*
X0168900Y0123477D01*
X0169977Y0122400D01*
X0171800Y0122400D01*
X0173623Y0122400D01*
X0176200Y0124977D01*
X0176200Y0126800D01*
X0176200Y0128623D01*
X0173623Y0131200D01*
X0171800Y0131200D01*
X0171800Y0126800D01*
X0172425Y0126825D01*
X0172425Y0134925D01*
X0177150Y0139650D01*
X0177150Y0147075D01*
X0172425Y0151800D01*
X0171800Y0151800D01*
X0172425Y0152475D01*
X0177150Y0157200D01*
X0177150Y0168675D01*
X0172425Y0173400D01*
X0172425Y0176775D01*
X0171800Y0176800D01*
X0171075Y0176775D01*
X0165000Y0182850D01*
X0059700Y0182850D01*
X0054300Y0177450D01*
X0052275Y0177450D01*
X0051800Y0176800D01*
X0052000Y0177000D02*
X0051600Y0177000D01*
X0051600Y0182300D01*
X0051367Y0182300D01*
X0050512Y0182165D01*
X0049689Y0181897D01*
X0048917Y0181504D01*
X0048217Y0180995D01*
X0047605Y0180383D01*
X0047096Y0179683D01*
X0046919Y0179336D01*
X0046632Y0180029D01*
X0045029Y0181632D01*
X0042934Y0182500D01*
X0040666Y0182500D01*
X0038571Y0181632D01*
X0036968Y0180029D01*
X0036100Y0177934D01*
X0036100Y0175666D01*
X0036273Y0175250D01*
X0022229Y0161206D01*
X0020795Y0161800D01*
X0012805Y0161800D01*
X0010968Y0161039D01*
X0009561Y0159632D01*
X0008800Y0157795D01*
X0008800Y0155805D01*
X0009561Y0153968D01*
X0010968Y0152561D01*
X0012805Y0151800D01*
X0010968Y0151039D01*
X0009561Y0149632D01*
X0008800Y0147795D01*
X0008800Y0145805D01*
X0009561Y0143968D01*
X0010968Y0142561D01*
X0012805Y0141800D01*
X0020795Y0141800D01*
X0022632Y0142561D01*
X0024039Y0143968D01*
X0024800Y0145805D01*
X0024800Y0147795D01*
X0024039Y0149632D01*
X0022632Y0151039D01*
X0020795Y0151800D01*
X0012805Y0151800D01*
X0020795Y0151800D01*
X0022632Y0152561D01*
X0024039Y0153968D01*
X0024800Y0155805D01*
X0024800Y0156423D01*
X0039825Y0171448D01*
X0040666Y0171100D01*
X0042934Y0171100D01*
X0045029Y0171968D01*
X0046632Y0173571D01*
X0046919Y0174264D01*
X0047096Y0173917D01*
X0047605Y0173217D01*
X0048217Y0172605D01*
X0048917Y0172096D01*
X0049689Y0171703D01*
X0050512Y0171435D01*
X0051367Y0171300D01*
X0051600Y0171300D01*
X0051600Y0176600D01*
X0052000Y0176600D01*
X0052000Y0171300D01*
X0052233Y0171300D01*
X0053088Y0171435D01*
X0053911Y0171703D01*
X0054683Y0172096D01*
X0055383Y0172605D01*
X0055995Y0173217D01*
X0056504Y0173917D01*
X0056681Y0174264D01*
X0056968Y0173571D01*
X0058571Y0171968D01*
X0060666Y0171100D01*
X0062934Y0171100D01*
X0065029Y0171968D01*
X0066632Y0173571D01*
X0066800Y0173976D01*
X0066968Y0173571D01*
X0067656Y0172883D01*
X0066946Y0172173D01*
X0066946Y0172173D01*
X0034323Y0139550D01*
X0024073Y0139550D01*
X0024039Y0139632D01*
X0022632Y0141039D01*
X0020795Y0141800D01*
X0012805Y0141800D01*
X0010968Y0141039D01*
X0009561Y0139632D01*
X0008800Y0137795D01*
X0008800Y0135805D01*
X0009561Y0133968D01*
X0010968Y0132561D01*
X0012805Y0131800D01*
X0010968Y0131039D01*
X0009561Y0129632D01*
X0008800Y0127795D01*
X0008800Y0125805D01*
X0009561Y0123968D01*
X0010968Y0122561D01*
X0012805Y0121800D01*
X0010968Y0121039D01*
X0009561Y0119632D01*
X0008800Y0117795D01*
X0008800Y0115805D01*
X0009561Y0113968D01*
X0010968Y0112561D01*
X0012805Y0111800D01*
X0020795Y0111800D01*
X0022632Y0112561D01*
X0024039Y0113968D01*
X0024800Y0115805D01*
X0024800Y0117795D01*
X0024557Y0118380D01*
X0071577Y0165400D01*
X0113542Y0165400D01*
X0114498Y0165796D01*
X0120055Y0171353D01*
X0120666Y0171100D01*
X0122934Y0171100D01*
X0125029Y0171968D01*
X0126632Y0173571D01*
X0126800Y0173976D01*
X0126968Y0173571D01*
X0128571Y0171968D01*
X0130666Y0171100D01*
X0132934Y0171100D01*
X0135029Y0171968D01*
X0136632Y0173571D01*
X0136800Y0173976D01*
X0136968Y0173571D01*
X0138571Y0171968D01*
X0140666Y0171100D01*
X0142934Y0171100D01*
X0143722Y0171426D01*
X0161050Y0154098D01*
X0161050Y0150055D01*
X0159700Y0148705D01*
X0159700Y0144895D01*
X0162395Y0142200D01*
X0166205Y0142200D01*
X0166900Y0142895D01*
X0166900Y0139770D01*
X0169770Y0136900D01*
X0173830Y0136900D01*
X0176700Y0139770D01*
X0176700Y0143830D01*
X0173830Y0146700D01*
X0169770Y0146700D01*
X0168900Y0145830D01*
X0168900Y0148477D01*
X0169977Y0147400D01*
X0171800Y0147400D01*
X0173623Y0147400D01*
X0176200Y0149977D01*
X0176200Y0151800D01*
X0176200Y0153623D01*
X0173623Y0156200D01*
X0171800Y0156200D01*
X0171800Y0151800D01*
X0171800Y0151800D01*
X0176200Y0151800D01*
X0171800Y0151800D01*
X0171800Y0151800D01*
X0171800Y0151800D01*
X0167400Y0151800D01*
X0167400Y0153623D01*
X0169977Y0156200D01*
X0171800Y0156200D01*
X0171800Y0151800D01*
X0171800Y0147400D01*
X0171800Y0151800D01*
X0171800Y0151800D01*
X0167400Y0151800D01*
X0167400Y0150205D01*
X0166250Y0151355D01*
X0166250Y0155692D01*
X0165854Y0156648D01*
X0151402Y0171100D01*
X0152934Y0171100D01*
X0153810Y0171463D01*
X0155427Y0169846D01*
X0156383Y0169450D01*
X0160145Y0169450D01*
X0162395Y0167200D01*
X0166205Y0167200D01*
X0166900Y0167895D01*
X0166900Y0164770D01*
X0169770Y0161900D01*
X0173830Y0161900D01*
X0176700Y0164770D01*
X0176700Y0168830D01*
X0173830Y0171700D01*
X0169770Y0171700D01*
X0168900Y0170830D01*
X0168900Y0173477D01*
X0169977Y0172400D01*
X0171800Y0172400D01*
X0173623Y0172400D01*
X0176200Y0174977D01*
X0176200Y0176800D01*
X0176200Y0178623D01*
X0173623Y0181200D01*
X0171800Y0181200D01*
X0171800Y0176800D01*
X0171800Y0176800D01*
X0176200Y0176800D01*
X0171800Y0176800D01*
X0171800Y0176800D01*
X0171800Y0176800D01*
X0167400Y0176800D01*
X0167400Y0178623D01*
X0169977Y0181200D01*
X0171800Y0181200D01*
X0171800Y0176800D01*
X0171800Y0172400D01*
X0171800Y0176800D01*
X0171800Y0176800D01*
X0167400Y0176800D01*
X0167400Y0175205D01*
X0166205Y0176400D01*
X0162395Y0176400D01*
X0160645Y0174650D01*
X0157977Y0174650D01*
X0157342Y0175285D01*
X0157500Y0175666D01*
X0157500Y0177934D01*
X0156632Y0180029D01*
X0155029Y0181632D01*
X0152934Y0182500D01*
X0150666Y0182500D01*
X0148571Y0181632D01*
X0146968Y0180029D01*
X0146800Y0179624D01*
X0146632Y0180029D01*
X0145029Y0181632D01*
X0142934Y0182500D01*
X0140666Y0182500D01*
X0138571Y0181632D01*
X0136968Y0180029D01*
X0136800Y0179624D01*
X0136632Y0180029D01*
X0135029Y0181632D01*
X0132934Y0182500D01*
X0130666Y0182500D01*
X0128571Y0181632D01*
X0126968Y0180029D01*
X0126800Y0179624D01*
X0126632Y0180029D01*
X0125029Y0181632D01*
X0122934Y0182500D01*
X0120666Y0182500D01*
X0118571Y0181632D01*
X0116968Y0180029D01*
X0116800Y0179624D01*
X0116632Y0180029D01*
X0115029Y0181632D01*
X0112934Y0182500D01*
X0110666Y0182500D01*
X0108571Y0181632D01*
X0106968Y0180029D01*
X0106800Y0179624D01*
X0106632Y0180029D01*
X0105029Y0181632D01*
X0102934Y0182500D01*
X0100666Y0182500D01*
X0098571Y0181632D01*
X0096968Y0180029D01*
X0096800Y0179624D01*
X0096632Y0180029D01*
X0095029Y0181632D01*
X0092934Y0182500D01*
X0090666Y0182500D01*
X0088571Y0181632D01*
X0086968Y0180029D01*
X0086800Y0179624D01*
X0086632Y0180029D01*
X0085029Y0181632D01*
X0082934Y0182500D01*
X0080666Y0182500D01*
X0078571Y0181632D01*
X0076968Y0180029D01*
X0076800Y0179624D01*
X0076632Y0180029D01*
X0075029Y0181632D01*
X0072934Y0182500D01*
X0070666Y0182500D01*
X0068571Y0181632D01*
X0066968Y0180029D01*
X0066800Y0179624D01*
X0066632Y0180029D01*
X0065029Y0181632D01*
X0062934Y0182500D01*
X0060666Y0182500D01*
X0058571Y0181632D01*
X0056968Y0180029D01*
X0056681Y0179336D01*
X0056504Y0179683D01*
X0055995Y0180383D01*
X0055383Y0180995D01*
X0054683Y0181504D01*
X0053911Y0181897D01*
X0053088Y0182165D01*
X0052233Y0182300D01*
X0052000Y0182300D01*
X0052000Y0177000D01*
X0052000Y0177525D02*
X0051600Y0177525D01*
X0051600Y0179123D02*
X0052000Y0179123D01*
X0052000Y0180722D02*
X0051600Y0180722D01*
X0047943Y0180722D02*
X0045939Y0180722D01*
X0043368Y0182320D02*
X0060232Y0182320D01*
X0057661Y0180722D02*
X0055657Y0180722D01*
X0052000Y0175926D02*
X0051600Y0175926D01*
X0051600Y0174328D02*
X0052000Y0174328D01*
X0052000Y0172729D02*
X0051600Y0172729D01*
X0048093Y0172729D02*
X0045790Y0172729D01*
X0043008Y0171131D02*
X0060592Y0171131D01*
X0063008Y0171131D02*
X0065904Y0171131D01*
X0065790Y0172729D02*
X0067502Y0172729D01*
X0064305Y0169532D02*
X0037909Y0169532D01*
X0039507Y0171131D02*
X0040592Y0171131D01*
X0036310Y0167934D02*
X0062707Y0167934D01*
X0061108Y0166335D02*
X0034712Y0166335D01*
X0033113Y0164737D02*
X0059510Y0164737D01*
X0057911Y0163138D02*
X0031515Y0163138D01*
X0029916Y0161539D02*
X0056313Y0161539D01*
X0054714Y0159941D02*
X0028318Y0159941D01*
X0026719Y0158342D02*
X0053116Y0158342D01*
X0051517Y0156744D02*
X0025121Y0156744D01*
X0024527Y0155145D02*
X0049919Y0155145D01*
X0048320Y0153547D02*
X0023618Y0153547D01*
X0021153Y0151948D02*
X0046721Y0151948D01*
X0045123Y0150350D02*
X0023321Y0150350D01*
X0024404Y0148751D02*
X0043524Y0148751D01*
X0041926Y0147153D02*
X0024800Y0147153D01*
X0024696Y0145554D02*
X0040327Y0145554D01*
X0038729Y0143956D02*
X0024027Y0143956D01*
X0022140Y0142357D02*
X0037130Y0142357D01*
X0035532Y0140759D02*
X0022912Y0140759D01*
X0024197Y0134350D02*
X0033173Y0134350D01*
X0024800Y0125977D01*
X0024800Y0127795D01*
X0024039Y0129632D01*
X0022632Y0131039D01*
X0020795Y0131800D01*
X0012805Y0131800D01*
X0020795Y0131800D01*
X0022632Y0132561D01*
X0024039Y0133968D01*
X0024197Y0134350D01*
X0022837Y0132766D02*
X0031589Y0132766D01*
X0029991Y0131168D02*
X0022321Y0131168D01*
X0024065Y0129569D02*
X0028392Y0129569D01*
X0026794Y0127971D02*
X0024727Y0127971D01*
X0024800Y0126372D02*
X0025195Y0126372D01*
X0029352Y0123175D02*
X0032123Y0123175D01*
X0031171Y0122223D02*
X0030775Y0121267D01*
X0030775Y0114402D01*
X0024615Y0108242D01*
X0024039Y0109632D01*
X0022632Y0111039D01*
X0020795Y0111800D01*
X0012805Y0111800D01*
X0010968Y0111039D01*
X0009561Y0109632D01*
X0008800Y0107795D01*
X0008800Y0105805D01*
X0009561Y0103968D01*
X0010968Y0102561D01*
X0012805Y0101800D01*
X0010968Y0101039D01*
X0009561Y0099632D01*
X0008800Y0097795D01*
X0008800Y0095805D01*
X0009561Y0093968D01*
X0010968Y0092561D01*
X0012805Y0091800D01*
X0010968Y0091039D01*
X0009561Y0089632D01*
X0008800Y0087795D01*
X0008800Y0085805D01*
X0009561Y0083968D01*
X0010968Y0082561D01*
X0012805Y0081800D01*
X0018423Y0081800D01*
X0006196Y0069573D01*
X0005800Y0068617D01*
X0005800Y0034508D01*
X0006196Y0033552D01*
X0006927Y0032821D01*
X0013900Y0025848D01*
X0013900Y0023971D01*
X0012561Y0022632D01*
X0011800Y0020795D01*
X0012494Y0022469D02*
X0003600Y0022469D01*
X0003600Y0024068D02*
X0013900Y0024068D01*
X0013900Y0025666D02*
X0003600Y0025666D01*
X0003600Y0027265D02*
X0012484Y0027265D01*
X0010885Y0028863D02*
X0003600Y0028863D01*
X0003600Y0030462D02*
X0009286Y0030462D01*
X0007688Y0032060D02*
X0003600Y0032060D01*
X0003600Y0033659D02*
X0006152Y0033659D01*
X0005800Y0035257D02*
X0003600Y0035257D01*
X0003600Y0036856D02*
X0005800Y0036856D01*
X0005800Y0038454D02*
X0003600Y0038454D01*
X0003600Y0040053D02*
X0005800Y0040053D01*
X0005800Y0041651D02*
X0003600Y0041651D01*
X0003600Y0043250D02*
X0005800Y0043250D01*
X0005800Y0044848D02*
X0003600Y0044848D01*
X0003600Y0046447D02*
X0005800Y0046447D01*
X0005800Y0048045D02*
X0003600Y0048045D01*
X0003600Y0049644D02*
X0005800Y0049644D01*
X0005800Y0051242D02*
X0003600Y0051242D01*
X0003600Y0052841D02*
X0005800Y0052841D01*
X0005800Y0054439D02*
X0003600Y0054439D01*
X0003600Y0056038D02*
X0005800Y0056038D01*
X0005800Y0057636D02*
X0003600Y0057636D01*
X0003600Y0059235D02*
X0005800Y0059235D01*
X0005800Y0060833D02*
X0003600Y0060833D01*
X0003600Y0062432D02*
X0005800Y0062432D01*
X0005800Y0064030D02*
X0003600Y0064030D01*
X0003600Y0065629D02*
X0005800Y0065629D01*
X0005800Y0067227D02*
X0003600Y0067227D01*
X0003600Y0068826D02*
X0005886Y0068826D01*
X0007047Y0070424D02*
X0003600Y0070424D01*
X0003600Y0072023D02*
X0008646Y0072023D01*
X0010244Y0073621D02*
X0003600Y0073621D01*
X0003600Y0075220D02*
X0011843Y0075220D01*
X0013441Y0076818D02*
X0003600Y0076818D01*
X0003600Y0078417D02*
X0015040Y0078417D01*
X0016638Y0080015D02*
X0003600Y0080015D01*
X0003600Y0081614D02*
X0018237Y0081614D01*
X0022394Y0078417D02*
X0033678Y0078417D01*
X0034895Y0077200D02*
X0032200Y0079895D01*
X0032200Y0083705D01*
X0034895Y0086400D01*
X0038705Y0086400D01*
X0040230Y0084875D01*
X0048370Y0084875D01*
X0049895Y0086400D01*
X0053705Y0086400D01*
X0056400Y0083705D01*
X0056400Y0079895D01*
X0053705Y0077200D01*
X0049895Y0077200D01*
X0047420Y0079675D01*
X0041180Y0079675D01*
X0038705Y0077200D01*
X0034895Y0077200D01*
X0032200Y0080015D02*
X0023992Y0080015D01*
X0025591Y0081614D02*
X0032200Y0081614D01*
X0032200Y0083212D02*
X0027189Y0083212D01*
X0028788Y0084811D02*
X0033306Y0084811D01*
X0030386Y0086409D02*
X0054949Y0086409D01*
X0053625Y0087000D02*
X0073875Y0066750D01*
X0073875Y0062025D01*
X0074005Y0061800D01*
X0073200Y0062025D01*
X0053625Y0042450D01*
X0052275Y0042450D01*
X0051800Y0041800D01*
X0051600Y0041775D01*
X0051600Y0024900D01*
X0059025Y0024900D01*
X0062400Y0021525D01*
X0062400Y0020850D01*
X0066450Y0016800D01*
X0066800Y0016800D01*
X0067000Y0017000D02*
X0067000Y0024600D01*
X0067178Y0024600D01*
X0067924Y0024482D01*
X0068643Y0024248D01*
X0069316Y0023905D01*
X0069927Y0023461D01*
X0070461Y0022927D01*
X0070905Y0022316D01*
X0071248Y0021643D01*
X0071482Y0020924D01*
X0071600Y0020178D01*
X0071600Y0017000D01*
X0067000Y0017000D01*
X0067000Y0017673D02*
X0066600Y0017673D01*
X0066600Y0019272D02*
X0067000Y0019272D01*
X0067000Y0020870D02*
X0066600Y0020870D01*
X0066600Y0022469D02*
X0067000Y0022469D01*
X0067000Y0024068D02*
X0066600Y0024068D01*
X0064603Y0024068D02*
X0059563Y0024068D01*
X0061106Y0022469D02*
X0062806Y0022469D01*
X0062110Y0020870D02*
X0061769Y0020870D01*
X0061800Y0019272D02*
X0062000Y0019272D01*
X0062000Y0017673D02*
X0061800Y0017673D01*
X0061800Y0016075D02*
X0062000Y0016075D01*
X0062000Y0014476D02*
X0061800Y0014476D01*
X0061800Y0012878D02*
X0062086Y0012878D01*
X0071514Y0012878D02*
X0127707Y0012878D01*
X0129026Y0014476D02*
X0071600Y0014476D01*
X0071600Y0016075D02*
X0128500Y0016075D01*
X0128500Y0017673D02*
X0071600Y0017673D01*
X0071600Y0019272D02*
X0129087Y0019272D01*
X0130375Y0020870D02*
X0071490Y0020870D01*
X0070794Y0022469D02*
X0130636Y0022469D01*
X0136150Y0011279D02*
X0183701Y0011279D01*
X0183701Y0009681D02*
X0134551Y0009681D01*
X0132953Y0008082D02*
X0183701Y0008082D01*
X0183701Y0006484D02*
X0131354Y0006484D01*
X0129572Y0004885D02*
X0183701Y0004885D01*
X0183701Y0012878D02*
X0178373Y0012878D01*
X0179574Y0014476D02*
X0183701Y0014476D01*
X0183701Y0016075D02*
X0180100Y0016075D01*
X0180100Y0017673D02*
X0183701Y0017673D01*
X0183701Y0019272D02*
X0180592Y0019272D01*
X0182191Y0020870D02*
X0183701Y0020870D01*
X0165227Y0012878D02*
X0143373Y0012878D01*
X0117375Y0024068D02*
X0068997Y0024068D01*
X0054037Y0024068D02*
X0048997Y0024068D01*
X0049316Y0023905D02*
X0048643Y0024248D01*
X0047924Y0024482D01*
X0047178Y0024600D01*
X0047000Y0024600D01*
X0047000Y0017000D01*
X0051600Y0017000D01*
X0051600Y0020178D01*
X0051482Y0020924D01*
X0051248Y0021643D01*
X0050905Y0022316D01*
X0050461Y0022927D01*
X0049927Y0023461D01*
X0049316Y0023905D01*
X0050794Y0022469D02*
X0052494Y0022469D01*
X0051600Y0021525D02*
X0046875Y0016800D01*
X0046800Y0016800D01*
X0046600Y0017673D02*
X0047000Y0017673D01*
X0047000Y0019272D02*
X0046600Y0019272D01*
X0046600Y0020870D02*
X0047000Y0020870D01*
X0047000Y0022469D02*
X0046600Y0022469D01*
X0046600Y0024068D02*
X0047000Y0024068D01*
X0044603Y0024068D02*
X0040028Y0024068D01*
X0041431Y0022469D02*
X0042806Y0022469D01*
X0042110Y0020870D02*
X0042093Y0020870D01*
X0033572Y0024068D02*
X0028997Y0024068D01*
X0027000Y0024068D02*
X0026600Y0024068D01*
X0026600Y0022469D02*
X0027000Y0022469D01*
X0027000Y0020870D02*
X0026600Y0020870D01*
X0026600Y0019272D02*
X0027000Y0019272D01*
X0027000Y0017673D02*
X0026600Y0017673D01*
X0026600Y0016600D02*
X0022000Y0016600D01*
X0022000Y0013422D01*
X0022118Y0012676D01*
X0022352Y0011957D01*
X0022695Y0011284D01*
X0023139Y0010673D01*
X0023673Y0010139D01*
X0024284Y0009695D01*
X0024957Y0009352D01*
X0025676Y0009118D01*
X0026422Y0009000D01*
X0026600Y0009000D01*
X0026600Y0016600D01*
X0026600Y0016075D02*
X0027000Y0016075D01*
X0027000Y0014476D02*
X0026600Y0014476D01*
X0026600Y0012878D02*
X0027000Y0012878D01*
X0027000Y0011279D02*
X0026600Y0011279D01*
X0026600Y0009681D02*
X0027000Y0009681D01*
X0029289Y0009681D02*
X0033424Y0009681D01*
X0032107Y0011279D02*
X0030902Y0011279D01*
X0024311Y0009681D02*
X0019752Y0009681D01*
X0021168Y0011279D02*
X0022698Y0011279D01*
X0022086Y0012878D02*
X0021800Y0012878D01*
X0021800Y0014476D02*
X0022000Y0014476D01*
X0022000Y0016075D02*
X0021800Y0016075D01*
X0021800Y0017673D02*
X0022000Y0017673D01*
X0022000Y0019272D02*
X0021800Y0019272D01*
X0021769Y0020870D02*
X0022110Y0020870D01*
X0022806Y0022469D02*
X0021106Y0022469D01*
X0019563Y0024068D02*
X0024603Y0024068D01*
X0019100Y0025666D02*
X0115692Y0025666D01*
X0114094Y0027265D02*
X0019100Y0027265D01*
X0018239Y0028863D02*
X0112495Y0028863D01*
X0110897Y0030462D02*
X0016640Y0030462D01*
X0021422Y0032060D02*
X0109298Y0032060D01*
X0107700Y0033659D02*
X0023730Y0033659D01*
X0024573Y0035257D02*
X0106101Y0035257D01*
X0104502Y0036856D02*
X0024800Y0036856D01*
X0024527Y0038454D02*
X0033641Y0038454D01*
X0033343Y0044848D02*
X0024193Y0044848D01*
X0024600Y0046447D02*
X0094911Y0046447D01*
X0093313Y0048045D02*
X0024442Y0048045D01*
X0024482Y0047924D02*
X0024248Y0048643D01*
X0023905Y0049316D01*
X0023461Y0049927D01*
X0022927Y0050461D01*
X0022316Y0050905D01*
X0021643Y0051248D01*
X0020924Y0051482D01*
X0020178Y0051600D01*
X0017000Y0051600D01*
X0017000Y0047000D01*
X0024600Y0047000D01*
X0024600Y0047178D01*
X0024482Y0047924D01*
X0023667Y0049644D02*
X0091714Y0049644D01*
X0090116Y0051242D02*
X0021655Y0051242D01*
X0017000Y0051242D02*
X0016600Y0051242D01*
X0016600Y0049644D02*
X0017000Y0049644D01*
X0017000Y0048045D02*
X0016600Y0048045D01*
X0016600Y0046600D02*
X0017000Y0046600D01*
X0017000Y0042000D01*
X0018448Y0042000D01*
X0018248Y0041800D01*
X0012805Y0041800D01*
X0011000Y0041052D01*
X0011000Y0042901D01*
X0011284Y0042695D01*
X0011957Y0042352D01*
X0012676Y0042118D01*
X0013422Y0042000D01*
X0016600Y0042000D01*
X0016600Y0046600D01*
X0016600Y0046447D02*
X0017000Y0046447D01*
X0017000Y0044848D02*
X0016600Y0044848D01*
X0016600Y0043250D02*
X0017000Y0043250D01*
X0012446Y0041651D02*
X0011000Y0041651D01*
X0011000Y0051242D02*
X0011945Y0051242D01*
X0011000Y0052841D02*
X0088517Y0052841D01*
X0086919Y0054439D02*
X0011000Y0054439D01*
X0011000Y0056038D02*
X0085320Y0056038D01*
X0083722Y0057636D02*
X0075903Y0057636D01*
X0075760Y0057563D02*
X0076401Y0057890D01*
X0076983Y0058313D01*
X0077492Y0058822D01*
X0077915Y0059404D01*
X0078241Y0060045D01*
X0078464Y0060729D01*
X0078576Y0061440D01*
X0078576Y0061714D01*
X0074091Y0061714D01*
X0074091Y0061886D01*
X0073919Y0061886D01*
X0073919Y0066372D01*
X0073645Y0066372D01*
X0072934Y0066259D01*
X0072250Y0066037D01*
X0071609Y0065710D01*
X0071026Y0065287D01*
X0070518Y0064778D01*
X0070095Y0064196D01*
X0069768Y0063555D01*
X0069546Y0062871D01*
X0069433Y0062160D01*
X0069433Y0061886D01*
X0073919Y0061886D01*
X0073919Y0061714D01*
X0074091Y0061714D01*
X0074091Y0057228D01*
X0074365Y0057228D01*
X0075075Y0057341D01*
X0075760Y0057563D01*
X0074091Y0057636D02*
X0073919Y0057636D01*
X0073919Y0057228D02*
X0073919Y0061714D01*
X0069433Y0061714D01*
X0069433Y0061440D01*
X0069546Y0060729D01*
X0069768Y0060045D01*
X0070095Y0059404D01*
X0070518Y0058822D01*
X0071026Y0058313D01*
X0071609Y0057890D01*
X0072250Y0057563D01*
X0072934Y0057341D01*
X0073645Y0057228D01*
X0073919Y0057228D01*
X0072107Y0057636D02*
X0011000Y0057636D01*
X0011000Y0059235D02*
X0070218Y0059235D01*
X0069529Y0060833D02*
X0011000Y0060833D01*
X0011000Y0062432D02*
X0069476Y0062432D01*
X0070010Y0064030D02*
X0011000Y0064030D01*
X0011000Y0065629D02*
X0071497Y0065629D01*
X0073919Y0065629D02*
X0074091Y0065629D01*
X0074091Y0064030D02*
X0073919Y0064030D01*
X0073919Y0062432D02*
X0074091Y0062432D01*
X0074091Y0060833D02*
X0073919Y0060833D01*
X0073919Y0059235D02*
X0074091Y0059235D01*
X0077792Y0059235D02*
X0082123Y0059235D01*
X0080525Y0060833D02*
X0078480Y0060833D01*
X0078533Y0062432D02*
X0078926Y0062432D01*
X0074131Y0067227D02*
X0011204Y0067227D01*
X0012803Y0068826D02*
X0072532Y0068826D01*
X0070934Y0070424D02*
X0014401Y0070424D01*
X0016000Y0072023D02*
X0069335Y0072023D01*
X0067737Y0073621D02*
X0017598Y0073621D01*
X0019197Y0075220D02*
X0066138Y0075220D01*
X0064540Y0076818D02*
X0020795Y0076818D01*
X0024688Y0088065D02*
X0024039Y0089632D01*
X0022632Y0091039D01*
X0020795Y0091800D01*
X0012805Y0091800D01*
X0020795Y0091800D01*
X0022632Y0092561D01*
X0024039Y0093968D01*
X0024800Y0095805D01*
X0024800Y0097795D01*
X0024039Y0099632D01*
X0023699Y0099972D01*
X0033475Y0109748D01*
X0033475Y0096852D01*
X0024688Y0088065D01*
X0024049Y0089606D02*
X0026230Y0089606D01*
X0027828Y0091205D02*
X0022231Y0091205D01*
X0022875Y0092803D02*
X0029427Y0092803D01*
X0031025Y0094402D02*
X0024219Y0094402D01*
X0024800Y0096001D02*
X0032624Y0096001D01*
X0033475Y0097599D02*
X0024800Y0097599D01*
X0024219Y0099198D02*
X0033475Y0099198D01*
X0033475Y0100796D02*
X0024523Y0100796D01*
X0026121Y0102395D02*
X0033475Y0102395D01*
X0033475Y0103993D02*
X0027720Y0103993D01*
X0029319Y0105592D02*
X0033475Y0105592D01*
X0033475Y0107190D02*
X0030917Y0107190D01*
X0032516Y0108789D02*
X0033475Y0108789D01*
X0028359Y0111986D02*
X0021243Y0111986D01*
X0023284Y0110387D02*
X0026760Y0110387D01*
X0025162Y0108789D02*
X0024388Y0108789D01*
X0023655Y0113584D02*
X0029957Y0113584D01*
X0030775Y0115183D02*
X0024542Y0115183D01*
X0024800Y0116781D02*
X0030775Y0116781D01*
X0030775Y0118380D02*
X0024558Y0118380D01*
X0026155Y0119978D02*
X0030775Y0119978D01*
X0030903Y0121577D02*
X0027754Y0121577D01*
X0031171Y0122223D02*
X0035896Y0126948D01*
X0036627Y0127679D01*
X0037583Y0128075D01*
X0123667Y0128075D01*
X0124623Y0127679D01*
X0130055Y0122247D01*
X0130666Y0122500D01*
X0132934Y0122500D01*
X0135029Y0121632D01*
X0136632Y0120029D01*
X0136800Y0119624D01*
X0136968Y0120029D01*
X0138571Y0121632D01*
X0140666Y0122500D01*
X0142934Y0122500D01*
X0145029Y0121632D01*
X0146632Y0120029D01*
X0146800Y0119624D01*
X0146968Y0120029D01*
X0148571Y0121632D01*
X0150666Y0122500D01*
X0152934Y0122500D01*
X0153421Y0122298D01*
X0154752Y0123629D01*
X0155708Y0124025D01*
X0160020Y0124025D01*
X0162395Y0126400D01*
X0166205Y0126400D01*
X0167400Y0125205D01*
X0167400Y0126800D01*
X0171800Y0126800D01*
X0171800Y0126800D01*
X0176200Y0126800D01*
X0171800Y0126800D01*
X0171800Y0126800D01*
X0171800Y0126800D01*
X0171800Y0131200D01*
X0169977Y0131200D01*
X0167400Y0128623D01*
X0167400Y0126800D01*
X0171800Y0126800D01*
X0171800Y0122400D01*
X0171800Y0126800D01*
X0171800Y0126800D01*
X0171800Y0126372D02*
X0171800Y0126372D01*
X0171800Y0124774D02*
X0171800Y0124774D01*
X0171800Y0123175D02*
X0171800Y0123175D01*
X0174398Y0123175D02*
X0183701Y0123175D01*
X0183701Y0121577D02*
X0173953Y0121577D01*
X0175551Y0119978D02*
X0183701Y0119978D01*
X0183701Y0118380D02*
X0176700Y0118380D01*
X0176700Y0116781D02*
X0183701Y0116781D01*
X0183701Y0115183D02*
X0176700Y0115183D01*
X0175725Y0113584D02*
X0183701Y0113584D01*
X0183701Y0111986D02*
X0175725Y0111986D01*
X0175725Y0110387D02*
X0183701Y0110387D01*
X0183701Y0108789D02*
X0175725Y0108789D01*
X0177152Y0107190D02*
X0183701Y0107190D01*
X0183701Y0105592D02*
X0178750Y0105592D01*
X0180349Y0103993D02*
X0183701Y0103993D01*
X0183701Y0102395D02*
X0181947Y0102395D01*
X0182394Y0101948D02*
X0182394Y0101948D01*
X0183415Y0100796D02*
X0183701Y0100796D01*
X0169647Y0121577D02*
X0168900Y0121577D01*
X0168900Y0123175D02*
X0169202Y0123175D01*
X0167400Y0126372D02*
X0166233Y0126372D01*
X0167400Y0127971D02*
X0123919Y0127971D01*
X0125930Y0126372D02*
X0162367Y0126372D01*
X0160768Y0124774D02*
X0127528Y0124774D01*
X0129127Y0123175D02*
X0154298Y0123175D01*
X0148516Y0121577D02*
X0145084Y0121577D01*
X0146653Y0119978D02*
X0146947Y0119978D01*
X0138516Y0121577D02*
X0135084Y0121577D01*
X0136653Y0119978D02*
X0136947Y0119978D01*
X0130666Y0111100D02*
X0128571Y0111968D01*
X0126968Y0113571D01*
X0126800Y0113976D01*
X0126632Y0113571D01*
X0125029Y0111968D01*
X0122934Y0111100D01*
X0120666Y0111100D01*
X0120108Y0111331D01*
X0111123Y0102346D01*
X0110167Y0101950D01*
X0105955Y0101950D01*
X0105205Y0101200D01*
X0106800Y0101200D01*
X0106800Y0096800D01*
X0106275Y0096450D01*
X0103575Y0096450D01*
X0098850Y0091725D01*
X0086700Y0091725D01*
X0081975Y0096450D01*
X0081800Y0096800D01*
X0081800Y0096800D01*
X0081800Y0101200D01*
X0083623Y0101200D01*
X0086200Y0098623D01*
X0086200Y0096800D01*
X0081800Y0096800D01*
X0081800Y0096800D01*
X0081800Y0101200D01*
X0080205Y0101200D01*
X0080955Y0101950D01*
X0095992Y0101950D01*
X0096948Y0102346D01*
X0097200Y0102598D01*
X0097200Y0102395D01*
X0097895Y0101700D01*
X0094770Y0101700D01*
X0091900Y0098830D01*
X0091900Y0094770D01*
X0094770Y0091900D01*
X0098830Y0091900D01*
X0101700Y0094770D01*
X0101700Y0098830D01*
X0100830Y0099700D01*
X0103477Y0099700D01*
X0102400Y0098623D01*
X0102400Y0096800D01*
X0106800Y0096800D01*
X0106800Y0096800D01*
X0111200Y0096800D01*
X0111200Y0098623D01*
X0108623Y0101200D01*
X0106800Y0101200D01*
X0106800Y0096800D01*
X0106800Y0096800D01*
X0111200Y0096800D01*
X0111200Y0094977D01*
X0108623Y0092400D01*
X0106800Y0092400D01*
X0106800Y0096800D01*
X0106800Y0096800D01*
X0106800Y0096800D01*
X0106800Y0092400D01*
X0104977Y0092400D01*
X0102400Y0094977D01*
X0102400Y0096800D01*
X0106800Y0096800D01*
X0106800Y0097599D02*
X0106800Y0097599D01*
X0106800Y0096001D02*
X0106800Y0096001D01*
X0106800Y0094402D02*
X0106800Y0094402D01*
X0106800Y0092803D02*
X0106800Y0092803D01*
X0109026Y0092803D02*
X0113802Y0092803D01*
X0112203Y0091205D02*
X0075150Y0091205D01*
X0075150Y0092803D02*
X0079574Y0092803D01*
X0079977Y0092400D02*
X0077400Y0094977D01*
X0077400Y0096800D01*
X0081800Y0096800D01*
X0086200Y0096800D01*
X0086200Y0094977D01*
X0083623Y0092400D01*
X0081800Y0092400D01*
X0081800Y0096800D01*
X0081800Y0096800D01*
X0081800Y0096800D01*
X0081800Y0092400D01*
X0079977Y0092400D01*
X0081800Y0092803D02*
X0081800Y0092803D01*
X0081800Y0094402D02*
X0081800Y0094402D01*
X0081800Y0096001D02*
X0081800Y0096001D01*
X0081800Y0096800D02*
X0077400Y0096800D01*
X0077400Y0098623D01*
X0078477Y0099700D01*
X0075830Y0099700D01*
X0076700Y0098830D01*
X0076700Y0094770D01*
X0075150Y0093220D01*
X0075150Y0082967D01*
X0094983Y0063134D01*
X0095550Y0064503D01*
X0096892Y0065845D01*
X0097600Y0066138D01*
X0097600Y0075008D01*
X0097600Y0076042D01*
X0097996Y0076998D01*
X0132098Y0111100D01*
X0130666Y0111100D01*
X0131385Y0110387D02*
X0119164Y0110387D01*
X0117566Y0108789D02*
X0129787Y0108789D01*
X0128188Y0107190D02*
X0115967Y0107190D01*
X0114369Y0105592D02*
X0126590Y0105592D01*
X0124991Y0103993D02*
X0112770Y0103993D01*
X0111172Y0102395D02*
X0123393Y0102395D01*
X0121794Y0100796D02*
X0109026Y0100796D01*
X0106800Y0100796D02*
X0106800Y0100796D01*
X0106800Y0099198D02*
X0106800Y0099198D01*
X0102975Y0099198D02*
X0101332Y0099198D01*
X0101700Y0097599D02*
X0102400Y0097599D01*
X0102400Y0096001D02*
X0101700Y0096001D01*
X0101332Y0094402D02*
X0102975Y0094402D01*
X0104574Y0092803D02*
X0099733Y0092803D01*
X0093867Y0092803D02*
X0084026Y0092803D01*
X0085625Y0094402D02*
X0092268Y0094402D01*
X0091900Y0096001D02*
X0086200Y0096001D01*
X0086200Y0097599D02*
X0091900Y0097599D01*
X0092268Y0099198D02*
X0085625Y0099198D01*
X0084026Y0100796D02*
X0093866Y0100796D01*
X0096996Y0102395D02*
X0097200Y0102395D01*
X0110625Y0099198D02*
X0120196Y0099198D01*
X0118597Y0097599D02*
X0111200Y0097599D01*
X0111200Y0096001D02*
X0116999Y0096001D01*
X0115400Y0094402D02*
X0110625Y0094402D01*
X0110605Y0089606D02*
X0075150Y0089606D01*
X0075150Y0088008D02*
X0109006Y0088008D01*
X0107408Y0086409D02*
X0075150Y0086409D01*
X0075150Y0084811D02*
X0105809Y0084811D01*
X0104210Y0083212D02*
X0075150Y0083212D01*
X0076503Y0081614D02*
X0102612Y0081614D01*
X0101013Y0080015D02*
X0078101Y0080015D01*
X0079700Y0078417D02*
X0099415Y0078417D01*
X0097922Y0076818D02*
X0081298Y0076818D01*
X0082897Y0075220D02*
X0097600Y0075220D01*
X0097600Y0073621D02*
X0084496Y0073621D01*
X0086094Y0072023D02*
X0097600Y0072023D01*
X0097600Y0070424D02*
X0087693Y0070424D01*
X0089291Y0068826D02*
X0097600Y0068826D01*
X0097600Y0067227D02*
X0090890Y0067227D01*
X0092488Y0065629D02*
X0096676Y0065629D01*
X0095354Y0064030D02*
X0094087Y0064030D01*
X0096510Y0044848D02*
X0054974Y0044848D01*
X0056200Y0043623D02*
X0053623Y0046200D01*
X0051800Y0046200D01*
X0051800Y0041800D01*
X0051800Y0041800D01*
X0056200Y0041800D01*
X0056200Y0043623D01*
X0056200Y0043250D02*
X0098108Y0043250D01*
X0099707Y0041651D02*
X0056200Y0041651D01*
X0056200Y0041800D02*
X0051800Y0041800D01*
X0051800Y0041800D01*
X0051800Y0041800D01*
X0047400Y0041800D01*
X0047400Y0043623D01*
X0049977Y0046200D01*
X0051800Y0046200D01*
X0051800Y0041800D01*
X0051800Y0037400D01*
X0053623Y0037400D01*
X0056200Y0039977D01*
X0056200Y0041800D01*
X0056200Y0040053D02*
X0101305Y0040053D01*
X0102904Y0038454D02*
X0054677Y0038454D01*
X0051800Y0038454D02*
X0051800Y0038454D01*
X0051800Y0037400D02*
X0049977Y0037400D01*
X0047400Y0039977D01*
X0047400Y0041800D01*
X0051800Y0041800D01*
X0051800Y0041800D01*
X0051800Y0037400D01*
X0051800Y0040053D02*
X0051800Y0040053D01*
X0051800Y0041651D02*
X0051800Y0041651D01*
X0051800Y0043250D02*
X0051800Y0043250D01*
X0051800Y0044848D02*
X0051800Y0044848D01*
X0048626Y0044848D02*
X0040257Y0044848D01*
X0041400Y0043250D02*
X0047400Y0043250D01*
X0047400Y0041651D02*
X0041400Y0041651D01*
X0041400Y0040053D02*
X0047400Y0040053D01*
X0048923Y0038454D02*
X0039959Y0038454D01*
X0051600Y0024900D02*
X0051600Y0021525D01*
X0051490Y0020870D02*
X0051831Y0020870D01*
X0051800Y0019272D02*
X0051600Y0019272D01*
X0051600Y0017673D02*
X0051800Y0017673D01*
X0051800Y0016075D02*
X0051600Y0016075D01*
X0051600Y0014476D02*
X0051800Y0014476D01*
X0051800Y0012878D02*
X0051514Y0012878D01*
X0042478Y0004885D02*
X0003600Y0004885D01*
X0003600Y0006484D02*
X0040696Y0006484D01*
X0039097Y0008082D02*
X0003600Y0008082D01*
X0003600Y0009681D02*
X0013848Y0009681D01*
X0012432Y0011279D02*
X0003600Y0011279D01*
X0003600Y0012878D02*
X0011800Y0012878D01*
X0011800Y0014476D02*
X0003600Y0014476D01*
X0030794Y0022469D02*
X0032169Y0022469D01*
X0031507Y0020870D02*
X0031490Y0020870D01*
X0039922Y0078417D02*
X0048678Y0078417D01*
X0054922Y0078417D02*
X0062941Y0078417D01*
X0061343Y0080015D02*
X0056400Y0080015D01*
X0056400Y0081614D02*
X0059744Y0081614D01*
X0058146Y0083212D02*
X0056400Y0083212D01*
X0056547Y0084811D02*
X0055294Y0084811D01*
X0053625Y0087000D02*
X0049575Y0087000D01*
X0041475Y0095100D01*
X0041475Y0100500D01*
X0050250Y0109275D01*
X0062400Y0109275D01*
X0069825Y0116700D01*
X0071175Y0116700D01*
X0071800Y0116800D01*
X0071600Y0116781D02*
X0067500Y0116781D01*
X0067338Y0113584D02*
X0066638Y0113584D01*
X0065047Y0111986D02*
X0069134Y0111986D01*
X0071600Y0111986D02*
X0072000Y0111986D01*
X0072000Y0113584D02*
X0071600Y0113584D01*
X0071600Y0115183D02*
X0072000Y0115183D01*
X0072660Y0110387D02*
X0038675Y0110387D01*
X0038675Y0108789D02*
X0049783Y0108789D01*
X0048185Y0107190D02*
X0038675Y0107190D01*
X0038675Y0105592D02*
X0047200Y0105592D01*
X0047200Y0103993D02*
X0038675Y0103993D01*
X0038675Y0102395D02*
X0047200Y0102395D01*
X0043866Y0100796D02*
X0038675Y0100796D01*
X0038675Y0099198D02*
X0042268Y0099198D01*
X0041900Y0097599D02*
X0038675Y0097599D01*
X0038675Y0096001D02*
X0041900Y0096001D01*
X0042268Y0094402D02*
X0038320Y0094402D01*
X0036780Y0092803D02*
X0043867Y0092803D01*
X0050153Y0091205D02*
X0035182Y0091205D01*
X0033583Y0089606D02*
X0051752Y0089606D01*
X0053350Y0088008D02*
X0031985Y0088008D01*
X0018173Y0101800D02*
X0012805Y0101800D01*
X0018173Y0101800D01*
X0018173Y0101800D01*
X0011370Y0102395D02*
X0003600Y0102395D01*
X0003600Y0103993D02*
X0009551Y0103993D01*
X0008889Y0105592D02*
X0003600Y0105592D01*
X0003600Y0107190D02*
X0008800Y0107190D01*
X0009212Y0108789D02*
X0003600Y0108789D01*
X0003600Y0110387D02*
X0010316Y0110387D01*
X0012357Y0111986D02*
X0003600Y0111986D01*
X0003600Y0113584D02*
X0009945Y0113584D01*
X0009058Y0115183D02*
X0003600Y0115183D01*
X0003600Y0116781D02*
X0008800Y0116781D01*
X0009042Y0118380D02*
X0003600Y0118380D01*
X0003600Y0119978D02*
X0009907Y0119978D01*
X0012266Y0121577D02*
X0003600Y0121577D01*
X0003600Y0123175D02*
X0010354Y0123175D01*
X0009227Y0124774D02*
X0003600Y0124774D01*
X0003600Y0126372D02*
X0008800Y0126372D01*
X0008873Y0127971D02*
X0003600Y0127971D01*
X0003600Y0129569D02*
X0009535Y0129569D01*
X0011279Y0131168D02*
X0003600Y0131168D01*
X0003600Y0132766D02*
X0010763Y0132766D01*
X0009397Y0134365D02*
X0003600Y0134365D01*
X0003600Y0135963D02*
X0008800Y0135963D01*
X0008800Y0137562D02*
X0003600Y0137562D01*
X0003600Y0139160D02*
X0009366Y0139160D01*
X0010688Y0140759D02*
X0003600Y0140759D01*
X0003600Y0142357D02*
X0011460Y0142357D01*
X0009573Y0143956D02*
X0003600Y0143956D01*
X0003600Y0145554D02*
X0008904Y0145554D01*
X0008800Y0147153D02*
X0003600Y0147153D01*
X0003600Y0148751D02*
X0009196Y0148751D01*
X0010279Y0150350D02*
X0003600Y0150350D01*
X0003600Y0151948D02*
X0012447Y0151948D01*
X0009982Y0153547D02*
X0003600Y0153547D01*
X0003600Y0155145D02*
X0009073Y0155145D01*
X0008800Y0156744D02*
X0003600Y0156744D01*
X0003600Y0158342D02*
X0009027Y0158342D01*
X0009870Y0159941D02*
X0003600Y0159941D01*
X0003600Y0161539D02*
X0012177Y0161539D01*
X0012676Y0162118D02*
X0013422Y0162000D01*
X0016600Y0162000D01*
X0016600Y0166600D01*
X0017000Y0166600D01*
X0017000Y0167000D01*
X0016600Y0167000D01*
X0016600Y0171600D01*
X0013422Y0171600D01*
X0012676Y0171482D01*
X0011957Y0171248D01*
X0011284Y0170905D01*
X0010673Y0170461D01*
X0010139Y0169927D01*
X0009695Y0169316D01*
X0009352Y0168643D01*
X0009118Y0167924D01*
X0009000Y0167178D01*
X0009000Y0167000D01*
X0016600Y0167000D01*
X0016600Y0166600D01*
X0009000Y0166600D01*
X0009000Y0166422D01*
X0009118Y0165676D01*
X0009352Y0164957D01*
X0009695Y0164284D01*
X0010139Y0163673D01*
X0010673Y0163139D01*
X0011284Y0162695D01*
X0011957Y0162352D01*
X0012676Y0162118D01*
X0010674Y0163138D02*
X0003600Y0163138D01*
X0003600Y0164737D02*
X0009464Y0164737D01*
X0009014Y0166335D02*
X0003600Y0166335D01*
X0003600Y0167934D02*
X0009121Y0167934D01*
X0009852Y0169532D02*
X0003600Y0169532D01*
X0003600Y0171131D02*
X0011726Y0171131D01*
X0012805Y0171800D02*
X0010968Y0172561D01*
X0009561Y0173968D01*
X0008800Y0175805D01*
X0008800Y0177795D01*
X0009561Y0179632D01*
X0010968Y0181039D01*
X0012805Y0181800D01*
X0020795Y0181800D01*
X0022632Y0181039D01*
X0024039Y0179632D01*
X0024800Y0177795D01*
X0024800Y0175805D01*
X0024039Y0173968D01*
X0022632Y0172561D01*
X0020795Y0171800D01*
X0012805Y0171800D01*
X0010800Y0172729D02*
X0003600Y0172729D01*
X0003600Y0174328D02*
X0009412Y0174328D01*
X0008800Y0175926D02*
X0003600Y0175926D01*
X0003600Y0177525D02*
X0008800Y0177525D01*
X0009350Y0179123D02*
X0003600Y0179123D01*
X0003600Y0180722D02*
X0010651Y0180722D01*
X0003600Y0182320D02*
X0040232Y0182320D01*
X0037661Y0180722D02*
X0022949Y0180722D01*
X0024250Y0179123D02*
X0036593Y0179123D01*
X0036100Y0177525D02*
X0024800Y0177525D01*
X0024800Y0175926D02*
X0036100Y0175926D01*
X0035351Y0174328D02*
X0024188Y0174328D01*
X0022800Y0172729D02*
X0033752Y0172729D01*
X0032154Y0171131D02*
X0021874Y0171131D01*
X0021643Y0171248D02*
X0020924Y0171482D01*
X0020178Y0171600D01*
X0017000Y0171600D01*
X0017000Y0167000D01*
X0024600Y0167000D01*
X0024600Y0167178D01*
X0024482Y0167924D01*
X0024248Y0168643D01*
X0023905Y0169316D01*
X0023461Y0169927D01*
X0022927Y0170461D01*
X0022316Y0170905D01*
X0021643Y0171248D01*
X0023748Y0169532D02*
X0030555Y0169532D01*
X0028957Y0167934D02*
X0024479Y0167934D01*
X0024600Y0166600D02*
X0017000Y0166600D01*
X0017000Y0162000D01*
X0020178Y0162000D01*
X0020924Y0162118D01*
X0021643Y0162352D01*
X0022316Y0162695D01*
X0022927Y0163139D01*
X0023461Y0163673D01*
X0023905Y0164284D01*
X0024248Y0164957D01*
X0024482Y0165676D01*
X0024600Y0166422D01*
X0024600Y0166600D01*
X0024586Y0166335D02*
X0027358Y0166335D01*
X0025760Y0164737D02*
X0024136Y0164737D01*
X0024161Y0163138D02*
X0022926Y0163138D01*
X0022563Y0161539D02*
X0021423Y0161539D01*
X0017000Y0163138D02*
X0016600Y0163138D01*
X0016600Y0164737D02*
X0017000Y0164737D01*
X0017000Y0166335D02*
X0016600Y0166335D01*
X0016600Y0167934D02*
X0017000Y0167934D01*
X0017000Y0169532D02*
X0016600Y0169532D01*
X0016600Y0171131D02*
X0017000Y0171131D01*
X0003600Y0183919D02*
X0183701Y0183919D01*
X0183701Y0182320D02*
X0153368Y0182320D01*
X0155939Y0180722D02*
X0169499Y0180722D01*
X0167901Y0179123D02*
X0157007Y0179123D01*
X0157500Y0177525D02*
X0167400Y0177525D01*
X0167400Y0175926D02*
X0166679Y0175926D01*
X0168900Y0172729D02*
X0169648Y0172729D01*
X0169201Y0171131D02*
X0168900Y0171131D01*
X0171800Y0172729D02*
X0171800Y0172729D01*
X0171800Y0174328D02*
X0171800Y0174328D01*
X0171800Y0175926D02*
X0171800Y0175926D01*
X0171800Y0177525D02*
X0171800Y0177525D01*
X0171800Y0179123D02*
X0171800Y0179123D01*
X0171800Y0180722D02*
X0171800Y0180722D01*
X0174101Y0180722D02*
X0183701Y0180722D01*
X0183701Y0179123D02*
X0175699Y0179123D01*
X0176200Y0177525D02*
X0183701Y0177525D01*
X0183701Y0175926D02*
X0176200Y0175926D01*
X0175550Y0174328D02*
X0183701Y0174328D01*
X0183701Y0172729D02*
X0173952Y0172729D01*
X0174399Y0171131D02*
X0183701Y0171131D01*
X0183701Y0169532D02*
X0175998Y0169532D01*
X0176700Y0167934D02*
X0183701Y0167934D01*
X0183701Y0166335D02*
X0176700Y0166335D01*
X0176666Y0164737D02*
X0183701Y0164737D01*
X0183701Y0163138D02*
X0175068Y0163138D01*
X0168532Y0163138D02*
X0159364Y0163138D01*
X0160962Y0161539D02*
X0183701Y0161539D01*
X0183701Y0159941D02*
X0162561Y0159941D01*
X0164159Y0158342D02*
X0183701Y0158342D01*
X0183701Y0156744D02*
X0165758Y0156744D01*
X0166250Y0155145D02*
X0168923Y0155145D01*
X0167400Y0153547D02*
X0166250Y0153547D01*
X0166250Y0151948D02*
X0167400Y0151948D01*
X0167400Y0150350D02*
X0167255Y0150350D01*
X0168900Y0147153D02*
X0183701Y0147153D01*
X0183701Y0148751D02*
X0174974Y0148751D01*
X0176200Y0150350D02*
X0183701Y0150350D01*
X0183701Y0151948D02*
X0176200Y0151948D01*
X0176200Y0153547D02*
X0183701Y0153547D01*
X0183701Y0155145D02*
X0174677Y0155145D01*
X0171800Y0155145D02*
X0171800Y0155145D01*
X0171800Y0153547D02*
X0171800Y0153547D01*
X0171800Y0151948D02*
X0171800Y0151948D01*
X0171800Y0150350D02*
X0171800Y0150350D01*
X0171800Y0148751D02*
X0171800Y0148751D01*
X0174975Y0145554D02*
X0183701Y0145554D01*
X0183701Y0143956D02*
X0176574Y0143956D01*
X0176700Y0142357D02*
X0183701Y0142357D01*
X0183701Y0140759D02*
X0176700Y0140759D01*
X0176090Y0139160D02*
X0183701Y0139160D01*
X0183701Y0137562D02*
X0174491Y0137562D01*
X0169109Y0137562D02*
X0043739Y0137562D01*
X0045337Y0139160D02*
X0167510Y0139160D01*
X0166900Y0140759D02*
X0046936Y0140759D01*
X0048534Y0142357D02*
X0162237Y0142357D01*
X0160639Y0143956D02*
X0050133Y0143956D01*
X0051731Y0145554D02*
X0159700Y0145554D01*
X0159700Y0147153D02*
X0053330Y0147153D01*
X0054928Y0148751D02*
X0159746Y0148751D01*
X0161050Y0150350D02*
X0056527Y0150350D01*
X0058125Y0151948D02*
X0161050Y0151948D01*
X0161050Y0153547D02*
X0059724Y0153547D01*
X0061322Y0155145D02*
X0160003Y0155145D01*
X0158404Y0156744D02*
X0062921Y0156744D01*
X0064519Y0158342D02*
X0156806Y0158342D01*
X0155207Y0159941D02*
X0066118Y0159941D01*
X0067716Y0161539D02*
X0153609Y0161539D01*
X0152010Y0163138D02*
X0069315Y0163138D01*
X0070913Y0164737D02*
X0150412Y0164737D01*
X0148813Y0166335D02*
X0115037Y0166335D01*
X0116635Y0167934D02*
X0147215Y0167934D01*
X0145616Y0169532D02*
X0118234Y0169532D01*
X0119832Y0171131D02*
X0120592Y0171131D01*
X0123008Y0171131D02*
X0130592Y0171131D01*
X0133008Y0171131D02*
X0140592Y0171131D01*
X0143008Y0171131D02*
X0144017Y0171131D01*
X0137810Y0172729D02*
X0135790Y0172729D01*
X0127810Y0172729D02*
X0125790Y0172729D01*
X0125939Y0180722D02*
X0127661Y0180722D01*
X0130232Y0182320D02*
X0123368Y0182320D01*
X0120232Y0182320D02*
X0113368Y0182320D01*
X0115939Y0180722D02*
X0117661Y0180722D01*
X0110232Y0182320D02*
X0103368Y0182320D01*
X0100232Y0182320D02*
X0093368Y0182320D01*
X0095939Y0180722D02*
X0097661Y0180722D01*
X0090232Y0182320D02*
X0083368Y0182320D01*
X0085939Y0180722D02*
X0087661Y0180722D01*
X0080232Y0182320D02*
X0073368Y0182320D01*
X0070232Y0182320D02*
X0063368Y0182320D01*
X0065939Y0180722D02*
X0067661Y0180722D01*
X0075939Y0180722D02*
X0077661Y0180722D01*
X0057810Y0172729D02*
X0055507Y0172729D01*
X0042140Y0135963D02*
X0183701Y0135963D01*
X0183701Y0134365D02*
X0040542Y0134365D01*
X0038943Y0132766D02*
X0183701Y0132766D01*
X0183701Y0131168D02*
X0173655Y0131168D01*
X0171800Y0131168D02*
X0171800Y0131168D01*
X0171800Y0129569D02*
X0171800Y0129569D01*
X0171800Y0127971D02*
X0171800Y0127971D01*
X0175253Y0129569D02*
X0183701Y0129569D01*
X0183701Y0127971D02*
X0176200Y0127971D01*
X0176200Y0126372D02*
X0183701Y0126372D01*
X0183701Y0124774D02*
X0175996Y0124774D01*
X0169945Y0131168D02*
X0037345Y0131168D01*
X0035746Y0129569D02*
X0168347Y0129569D01*
X0166900Y0142357D02*
X0166363Y0142357D01*
X0166934Y0164737D02*
X0157765Y0164737D01*
X0156167Y0166335D02*
X0166900Y0166335D01*
X0161661Y0167934D02*
X0154568Y0167934D01*
X0152970Y0169532D02*
X0156185Y0169532D01*
X0154142Y0171131D02*
X0153008Y0171131D01*
X0157500Y0175926D02*
X0161921Y0175926D01*
X0150232Y0182320D02*
X0143368Y0182320D01*
X0145939Y0180722D02*
X0147661Y0180722D01*
X0140232Y0182320D02*
X0133368Y0182320D01*
X0135939Y0180722D02*
X0137661Y0180722D01*
X0107661Y0180722D02*
X0105939Y0180722D01*
X0126638Y0113584D02*
X0126962Y0113584D01*
X0128553Y0111986D02*
X0125047Y0111986D01*
X0081800Y0100796D02*
X0081800Y0100796D01*
X0081800Y0099198D02*
X0081800Y0099198D01*
X0081800Y0097599D02*
X0081800Y0097599D01*
X0077975Y0099198D02*
X0076332Y0099198D01*
X0076700Y0097599D02*
X0077400Y0097599D01*
X0077400Y0096001D02*
X0076700Y0096001D01*
X0076332Y0094402D02*
X0077975Y0094402D01*
X0072895Y0101700D02*
X0069770Y0101700D01*
X0066900Y0098830D01*
X0066900Y0094770D01*
X0068550Y0093120D01*
X0068550Y0082142D01*
X0058292Y0092400D01*
X0058623Y0092400D01*
X0061200Y0094977D01*
X0061200Y0096800D01*
X0061200Y0098623D01*
X0058623Y0101200D01*
X0056800Y0101200D01*
X0056800Y0096800D01*
X0056800Y0096800D01*
X0061200Y0096800D01*
X0056800Y0096800D01*
X0056800Y0096800D01*
X0056800Y0101200D01*
X0055205Y0101200D01*
X0055955Y0101950D01*
X0071017Y0101950D01*
X0071973Y0102346D01*
X0072200Y0102573D01*
X0072200Y0102395D01*
X0072895Y0101700D01*
X0072200Y0102395D02*
X0072021Y0102395D01*
X0068866Y0100796D02*
X0059026Y0100796D01*
X0056800Y0100796D02*
X0056800Y0100796D01*
X0056800Y0099198D02*
X0056800Y0099198D01*
X0056800Y0097599D02*
X0056800Y0097599D01*
X0060625Y0099198D02*
X0067268Y0099198D01*
X0066900Y0097599D02*
X0061200Y0097599D01*
X0061200Y0096001D02*
X0066900Y0096001D01*
X0067268Y0094402D02*
X0060625Y0094402D01*
X0059026Y0092803D02*
X0068550Y0092803D01*
X0068550Y0091205D02*
X0059487Y0091205D01*
X0061085Y0089606D02*
X0068550Y0089606D01*
X0068550Y0088008D02*
X0062684Y0088008D01*
X0064282Y0086409D02*
X0068550Y0086409D01*
X0068550Y0084811D02*
X0065881Y0084811D01*
X0067479Y0083212D02*
X0068550Y0083212D01*
X0069463Y0107190D02*
X0055415Y0107190D01*
X0053817Y0108789D02*
X0071062Y0108789D01*
X0058553Y0111986D02*
X0055047Y0111986D01*
X0056638Y0113584D02*
X0056962Y0113584D01*
X0048553Y0111986D02*
X0045047Y0111986D01*
X0046638Y0113584D02*
X0046962Y0113584D01*
X0035320Y0126372D02*
X0032549Y0126372D01*
X0033722Y0124774D02*
X0030951Y0124774D01*
X0034148Y0127971D02*
X0037331Y0127971D01*
X0020623Y0121800D02*
X0020623Y0121800D01*
X0012805Y0121800D01*
X0020623Y0121800D01*
X0010725Y0100796D02*
X0003600Y0100796D01*
X0003600Y0099198D02*
X0009381Y0099198D01*
X0008800Y0097599D02*
X0003600Y0097599D01*
X0003600Y0096001D02*
X0008800Y0096001D01*
X0009381Y0094402D02*
X0003600Y0094402D01*
X0003600Y0092803D02*
X0010725Y0092803D01*
X0011369Y0091205D02*
X0003600Y0091205D01*
X0003600Y0089606D02*
X0009551Y0089606D01*
X0008888Y0088008D02*
X0003600Y0088008D01*
X0003600Y0086409D02*
X0008800Y0086409D01*
X0009212Y0084811D02*
X0003600Y0084811D01*
X0003600Y0083212D02*
X0010316Y0083212D01*
D17*
X0036800Y0016800D02*
X0037425Y0016800D01*
X0037425Y0014775D01*
X0044175Y0008025D01*
X0127875Y0008025D01*
X0136650Y0016800D01*
X0136800Y0016800D01*
X0171800Y0016800D01*
X0172425Y0016125D01*
X0181200Y0024900D01*
X0181200Y0049200D01*
X0172425Y0057975D01*
X0172425Y0066075D01*
X0171800Y0066800D01*
X0171750Y0066750D01*
X0137325Y0066750D01*
X0136800Y0066800D01*
D18*
X0136800Y0076800D02*
X0137325Y0076875D01*
X0171075Y0076875D01*
X0171800Y0076800D01*
X0172425Y0076200D01*
X0180525Y0084300D01*
X0180525Y0099150D01*
X0172425Y0107250D01*
X0172425Y0116700D01*
X0171800Y0116800D01*
X0171750Y0047175D02*
X0137325Y0047175D01*
X0136800Y0046800D01*
X0136650Y0037050D02*
X0136800Y0036800D01*
X0137325Y0037050D01*
X0171750Y0037050D01*
X0171800Y0036800D01*
X0171750Y0026925D02*
X0171800Y0026800D01*
X0171750Y0026925D02*
X0137325Y0026925D01*
X0136800Y0026800D01*
X0136650Y0026925D01*
X0119100Y0026925D01*
X0049575Y0096450D01*
X0046875Y0096450D01*
X0046800Y0096800D01*
X0071800Y0096800D02*
X0071850Y0096450D01*
X0071850Y0081600D01*
X0116400Y0037050D01*
X0136650Y0037050D01*
X0171800Y0046800D02*
X0171750Y0047175D01*
M02*
