G75*
%MOIN*%
%OFA0B0*%
%FSLAX25Y25*%
%IPPOS*%
%LPD*%
%AMOC8*
5,1,8,0,0,1.08239X$1,22.5*
%
%ADD10C,0.00000*%
%ADD11C,0.00400*%
%ADD12R,0.02820X0.00060*%
%ADD13R,0.00840X0.00060*%
%ADD14R,0.00900X0.00060*%
%ADD15R,0.03780X0.00060*%
%ADD16R,0.02880X0.00060*%
%ADD17R,0.04080X0.00060*%
%ADD18R,0.00960X0.00060*%
%ADD19R,0.02820X0.00060*%
%ADD20R,0.03660X0.00060*%
%ADD21R,0.03900X0.00060*%
%ADD22R,0.03600X0.00060*%
%ADD23R,0.04140X0.00060*%
%ADD24R,0.01020X0.00060*%
%ADD25R,0.01080X0.00060*%
%ADD26R,0.03960X0.00060*%
%ADD27R,0.01200X0.00060*%
%ADD28R,0.01260X0.00060*%
%ADD29R,0.04320X0.00060*%
%ADD30R,0.04320X0.00060*%
%ADD31R,0.01380X0.00060*%
%ADD32R,0.04440X0.00060*%
%ADD33R,0.01440X0.00060*%
%ADD34R,0.04620X0.00060*%
%ADD35R,0.04560X0.00060*%
%ADD36R,0.01560X0.00060*%
%ADD37R,0.04620X0.00060*%
%ADD38R,0.04680X0.00060*%
%ADD39R,0.01620X0.00060*%
%ADD40R,0.04740X0.00060*%
%ADD41R,0.04800X0.00060*%
%ADD42R,0.01680X0.00060*%
%ADD43R,0.04860X0.00060*%
%ADD44R,0.01800X0.00060*%
%ADD45R,0.04920X0.00060*%
%ADD46R,0.01860X0.00060*%
%ADD47R,0.04920X0.00060*%
%ADD48R,0.01980X0.00060*%
%ADD49R,0.04980X0.00060*%
%ADD50R,0.02040X0.00060*%
%ADD51R,0.03840X0.00060*%
%ADD52R,0.02160X0.00060*%
%ADD53R,0.01020X0.00060*%
%ADD54R,0.02220X0.00060*%
%ADD55R,0.02280X0.00060*%
%ADD56R,0.02400X0.00060*%
%ADD57R,0.02460X0.00060*%
%ADD58R,0.02580X0.00060*%
%ADD59R,0.02640X0.00060*%
%ADD60R,0.02760X0.00060*%
%ADD61R,0.00120X0.00060*%
%ADD62R,0.03360X0.00060*%
%ADD63R,0.02340X0.00060*%
%ADD64R,0.03000X0.00060*%
%ADD65R,0.01740X0.00060*%
%ADD66R,0.00240X0.00060*%
%ADD67R,0.03720X0.00060*%
%ADD68R,0.03060X0.00060*%
%ADD69R,0.02640X0.00060*%
%ADD70R,0.00480X0.00060*%
%ADD71R,0.03420X0.00060*%
%ADD72R,0.04380X0.00060*%
%ADD73R,0.04500X0.00060*%
%ADD74R,0.00660X0.00060*%
%ADD75R,0.01740X0.00060*%
%ADD76R,0.04200X0.00060*%
%ADD77R,0.04020X0.00060*%
%ADD78R,0.01440X0.00060*%
%ADD79R,0.04260X0.00060*%
%ADD80R,0.01920X0.00060*%
%ADD81R,0.04440X0.00060*%
%ADD82R,0.02520X0.00060*%
%ADD83R,0.02940X0.00060*%
%ADD84R,0.02700X0.00060*%
%ADD85R,0.02520X0.00060*%
%ADD86R,0.01320X0.00060*%
%ADD87R,0.02100X0.00060*%
%ADD88R,0.02040X0.00060*%
%ADD89R,0.01920X0.00060*%
%ADD90R,0.01500X0.00060*%
%ADD91R,0.01140X0.00060*%
%ADD92R,0.00240X0.00060*%
%ADD93R,0.00420X0.00060*%
%ADD94R,0.00360X0.00060*%
%ADD95R,0.00780X0.00060*%
%ADD96R,0.00720X0.00060*%
%ADD97R,0.00720X0.00060*%
%ADD98R,0.00540X0.00060*%
%ADD99R,0.00840X0.00060*%
%ADD100R,0.00120X0.00060*%
%ADD101R,0.00600X0.00060*%
%ADD102R,0.00300X0.00060*%
%ADD103R,0.00060X0.00060*%
%ADD104R,0.01140X0.00060*%
%ADD105R,0.00180X0.00060*%
%ADD106R,0.00420X0.00060*%
%ADD107R,0.01320X0.00060*%
%ADD108R,0.03240X0.00060*%
%ADD109R,0.03300X0.00060*%
%ADD110R,0.02940X0.00060*%
%ADD111R,0.02220X0.00060*%
%ADD112R,0.01620X0.00060*%
%ADD113R,0.07320X0.00060*%
%ADD114R,0.07380X0.00060*%
%ADD115R,0.07320X0.00060*%
%ADD116R,0.07260X0.00060*%
%ADD117R,0.07200X0.00060*%
%ADD118R,0.07140X0.00060*%
%ADD119R,0.07080X0.00060*%
%ADD120R,0.07020X0.00060*%
%ADD121R,0.06960X0.00060*%
%ADD122R,0.06900X0.00060*%
%ADD123R,0.06840X0.00060*%
%ADD124R,0.06780X0.00060*%
%ADD125R,0.06660X0.00060*%
%ADD126R,0.06600X0.00060*%
%ADD127R,0.06540X0.00060*%
%ADD128R,0.06420X0.00060*%
%ADD129R,0.06360X0.00060*%
%ADD130R,0.06300X0.00060*%
%ADD131R,0.06180X0.00060*%
%ADD132R,0.06060X0.00060*%
%ADD133R,0.05940X0.00060*%
%ADD134R,0.05880X0.00060*%
%ADD135R,0.05760X0.00060*%
%ADD136R,0.05640X0.00060*%
%ADD137R,0.05520X0.00060*%
%ADD138R,0.05400X0.00060*%
%ADD139R,0.05280X0.00060*%
%ADD140R,0.05220X0.00060*%
%ADD141R,0.05100X0.00060*%
%ADD142R,0.03540X0.00060*%
%ADD143R,0.03480X0.00060*%
%ADD144R,0.03240X0.00060*%
%ADD145R,0.03120X0.00060*%
%ADD146R,0.00540X0.00060*%
%ADD147R,0.03180X0.00060*%
%ADD148R,0.03420X0.00060*%
%ADD149R,0.03720X0.00060*%
%ADD150R,0.02340X0.00060*%
%ADD151R,0.07620X0.00060*%
%ADD152R,0.05820X0.00060*%
%ADD153R,0.07560X0.00060*%
%ADD154R,0.07440X0.00060*%
%ADD155R,0.05700X0.00060*%
%ADD156R,0.05460X0.00060*%
%ADD157R,0.07020X0.00060*%
%ADD158R,0.05340X0.00060*%
%ADD159R,0.05160X0.00060*%
%ADD160R,0.06720X0.00060*%
%ADD161R,0.03120X0.00060*%
%ADD162R,0.05040X0.00060*%
%ADD163R,0.06540X0.00060*%
%ADD164R,0.06480X0.00060*%
%ADD165R,0.06120X0.00060*%
%ADD166R,0.05940X0.00060*%
%ADD167R,0.04020X0.00060*%
%ADD168R,0.05580X0.00060*%
%ADD169R,0.03540X0.00060*%
%ADD170R,0.05520X0.00060*%
%ADD171R,0.05340X0.00060*%
%ADD172R,0.05820X0.00060*%
%ADD173R,0.06000X0.00060*%
%ADD174R,0.06240X0.00060*%
%ADD175R,0.06720X0.00060*%
%ADD176R,0.07500X0.00060*%
%ADD177R,0.07620X0.00060*%
%ADD178R,0.07680X0.00060*%
%ADD179R,0.07440X0.00060*%
%ADD180R,0.07800X0.00060*%
%ADD181R,0.07920X0.00060*%
%ADD182R,0.07740X0.00060*%
%ADD183R,0.08040X0.00060*%
%ADD184R,0.08100X0.00060*%
%ADD185R,0.07860X0.00060*%
%ADD186R,0.08220X0.00060*%
%ADD187R,0.07980X0.00060*%
%ADD188R,0.08340X0.00060*%
%ADD189R,0.08160X0.00060*%
%ADD190R,0.08460X0.00060*%
%ADD191R,0.08520X0.00060*%
%ADD192R,0.08280X0.00060*%
%ADD193R,0.08640X0.00060*%
%ADD194R,0.08400X0.00060*%
%ADD195R,0.08760X0.00060*%
%ADD196R,0.08580X0.00060*%
%ADD197R,0.08880X0.00060*%
%ADD198R,0.08940X0.00060*%
%ADD199R,0.08700X0.00060*%
%ADD200R,0.09060X0.00060*%
%ADD201R,0.08820X0.00060*%
%ADD202R,0.09180X0.00060*%
%ADD203R,0.09240X0.00060*%
%ADD204R,0.09360X0.00060*%
%ADD205R,0.09000X0.00060*%
%ADD206R,0.09480X0.00060*%
%ADD207R,0.09120X0.00060*%
%ADD208R,0.09600X0.00060*%
%ADD209R,0.09660X0.00060*%
%ADD210R,0.09780X0.00060*%
%ADD211R,0.09240X0.00060*%
%ADD212R,0.09900X0.00060*%
%ADD213R,0.09300X0.00060*%
%ADD214R,0.09960X0.00060*%
%ADD215R,0.09420X0.00060*%
%ADD216R,0.10020X0.00060*%
%ADD217R,0.10080X0.00060*%
D10*
X0001800Y0001800D02*
X0001800Y0186761D01*
X0185501Y0186761D01*
X0185501Y0001800D01*
X0001800Y0001800D01*
D11*
X0112903Y0132000D02*
X0112036Y0132867D01*
X0112036Y0133735D01*
X0112903Y0134602D01*
X0115505Y0134602D01*
X0115505Y0132867D01*
X0114638Y0132000D01*
X0112903Y0132000D01*
X0115505Y0134602D02*
X0113770Y0136337D01*
X0112036Y0137204D01*
X0112068Y0140400D02*
X0110333Y0140400D01*
X0111200Y0140400D02*
X0111200Y0145604D01*
X0112068Y0145604D01*
X0114622Y0143870D02*
X0113754Y0143002D01*
X0113754Y0142135D01*
X0117224Y0142135D01*
X0117224Y0143002D02*
X0116357Y0143870D01*
X0114622Y0143870D01*
X0117224Y0143002D02*
X0117224Y0141267D01*
X0116357Y0140400D01*
X0114622Y0140400D01*
X0118927Y0140400D02*
X0120662Y0140400D01*
X0119794Y0140400D02*
X0119794Y0143870D01*
X0120662Y0143870D01*
X0122348Y0143002D02*
X0122348Y0140400D01*
X0124083Y0140400D02*
X0124083Y0143002D01*
X0123216Y0143870D01*
X0122348Y0143002D01*
X0124083Y0143002D02*
X0124951Y0143870D01*
X0125818Y0143870D01*
X0125818Y0140400D01*
X0127505Y0140400D02*
X0130974Y0140400D01*
X0130974Y0145604D01*
X0127505Y0145604D01*
X0129240Y0143002D02*
X0130974Y0143002D01*
X0130107Y0137204D02*
X0130974Y0136337D01*
X0130107Y0137204D02*
X0128372Y0137204D01*
X0127505Y0136337D01*
X0127505Y0135470D01*
X0130974Y0132000D01*
X0127505Y0132000D01*
X0125818Y0134602D02*
X0122348Y0134602D01*
X0120662Y0135470D02*
X0118927Y0137204D01*
X0118927Y0132000D01*
X0120662Y0132000D02*
X0117192Y0132000D01*
X0119794Y0145604D02*
X0119794Y0146472D01*
X0119794Y0148800D02*
X0117192Y0148800D01*
X0117192Y0151402D01*
X0118059Y0152270D01*
X0119794Y0152270D01*
X0119794Y0150535D02*
X0117192Y0150535D01*
X0115505Y0148800D02*
X0115505Y0152270D01*
X0112903Y0152270D01*
X0112036Y0151402D01*
X0112036Y0148800D01*
X0110349Y0149667D02*
X0110349Y0151402D01*
X0109481Y0152270D01*
X0106879Y0152270D01*
X0106879Y0154004D02*
X0106879Y0148800D01*
X0109481Y0148800D01*
X0110349Y0149667D01*
X0105192Y0149667D02*
X0104325Y0148800D01*
X0102590Y0148800D01*
X0101723Y0150535D02*
X0105192Y0150535D01*
X0105192Y0151402D02*
X0105192Y0149667D01*
X0105192Y0151402D02*
X0104325Y0152270D01*
X0102590Y0152270D01*
X0101723Y0151402D01*
X0101723Y0150535D01*
X0100036Y0148800D02*
X0100036Y0152270D01*
X0097434Y0152270D01*
X0096566Y0151402D01*
X0096566Y0148800D01*
X0095715Y0143870D02*
X0094848Y0143002D01*
X0094848Y0142135D01*
X0098317Y0142135D01*
X0098317Y0143002D02*
X0097450Y0143870D01*
X0095715Y0143870D01*
X0093161Y0143870D02*
X0090559Y0143870D01*
X0089691Y0143002D01*
X0089691Y0141267D01*
X0090559Y0140400D01*
X0093161Y0140400D01*
X0093161Y0138665D02*
X0093161Y0143870D01*
X0095715Y0140400D02*
X0097450Y0140400D01*
X0098317Y0141267D01*
X0098317Y0143002D01*
X0100004Y0141267D02*
X0100004Y0144737D01*
X0100871Y0145604D01*
X0103474Y0145604D01*
X0103474Y0140400D01*
X0100871Y0140400D01*
X0100004Y0141267D01*
X0089723Y0148800D02*
X0087121Y0148800D01*
X0086254Y0149667D01*
X0086254Y0153137D01*
X0087121Y0154004D01*
X0089723Y0154004D01*
X0089723Y0148800D01*
X0088004Y0143870D02*
X0088004Y0140400D01*
X0088004Y0142135D02*
X0086270Y0143870D01*
X0085402Y0143870D01*
X0083707Y0143002D02*
X0083707Y0141267D01*
X0082840Y0140400D01*
X0081105Y0140400D01*
X0080238Y0141267D01*
X0080238Y0143002D01*
X0081105Y0143870D01*
X0082840Y0143870D01*
X0083707Y0143002D01*
X0078551Y0143002D02*
X0077684Y0143870D01*
X0075081Y0143870D01*
X0073395Y0143870D02*
X0071660Y0143870D01*
X0072527Y0144737D02*
X0072527Y0141267D01*
X0071660Y0140400D01*
X0075081Y0141267D02*
X0075949Y0142135D01*
X0077684Y0142135D01*
X0078551Y0143002D01*
X0078551Y0140400D02*
X0075949Y0140400D01*
X0075081Y0141267D01*
X0074230Y0148800D02*
X0075965Y0148800D01*
X0076832Y0149667D01*
X0076832Y0151402D01*
X0075965Y0152270D01*
X0074230Y0152270D01*
X0073363Y0151402D01*
X0073363Y0150535D01*
X0076832Y0150535D01*
X0078535Y0148800D02*
X0080270Y0148800D01*
X0079402Y0148800D02*
X0079402Y0152270D01*
X0080270Y0152270D01*
X0081965Y0152270D02*
X0082832Y0152270D01*
X0084567Y0150535D01*
X0084567Y0148800D02*
X0084567Y0152270D01*
X0079402Y0154004D02*
X0079402Y0154872D01*
X0071676Y0151402D02*
X0070808Y0152270D01*
X0068206Y0152270D01*
X0066519Y0151402D02*
X0065652Y0152270D01*
X0063050Y0152270D01*
X0061363Y0151402D02*
X0061363Y0149667D01*
X0060496Y0148800D01*
X0057893Y0148800D01*
X0056207Y0148800D02*
X0056207Y0154004D01*
X0055339Y0152270D02*
X0053604Y0152270D01*
X0052737Y0151402D01*
X0052737Y0148800D01*
X0051050Y0149667D02*
X0051050Y0151402D01*
X0050183Y0152270D01*
X0048448Y0152270D01*
X0047581Y0151402D01*
X0047581Y0150535D01*
X0051050Y0150535D01*
X0051050Y0149667D02*
X0050183Y0148800D01*
X0048448Y0148800D01*
X0055339Y0152270D02*
X0056207Y0151402D01*
X0057893Y0152270D02*
X0060496Y0152270D01*
X0061363Y0151402D01*
X0063050Y0149667D02*
X0063917Y0150535D01*
X0065652Y0150535D01*
X0066519Y0151402D01*
X0068206Y0149667D02*
X0069074Y0150535D01*
X0070808Y0150535D01*
X0071676Y0151402D01*
X0071676Y0148800D02*
X0069074Y0148800D01*
X0068206Y0149667D01*
X0066519Y0148800D02*
X0063917Y0148800D01*
X0063050Y0149667D01*
X0098285Y0156333D02*
X0099153Y0155465D01*
X0100020Y0155465D01*
X0098285Y0156333D02*
X0098285Y0160670D01*
X0101755Y0160670D02*
X0101755Y0158067D01*
X0100887Y0157200D01*
X0098285Y0157200D01*
X0103442Y0158067D02*
X0103442Y0159802D01*
X0104309Y0160670D01*
X0106911Y0160670D01*
X0106911Y0162404D02*
X0106911Y0157200D01*
X0104309Y0157200D01*
X0103442Y0158067D01*
X0113754Y0157200D02*
X0116357Y0157200D01*
X0117224Y0158067D01*
X0117224Y0159802D01*
X0116357Y0160670D01*
X0113754Y0160670D01*
X0113754Y0162404D02*
X0113754Y0157200D01*
X0118911Y0158935D02*
X0122380Y0158935D01*
X0122380Y0159802D02*
X0121513Y0160670D01*
X0119778Y0160670D01*
X0118911Y0159802D01*
X0118911Y0158935D01*
X0119778Y0157200D02*
X0121513Y0157200D01*
X0122380Y0158067D01*
X0122380Y0159802D01*
X0124067Y0159802D02*
X0124067Y0157200D01*
X0124067Y0159802D02*
X0124935Y0160670D01*
X0127537Y0160670D01*
X0127537Y0157200D01*
X0129224Y0157200D02*
X0131826Y0157200D01*
X0132693Y0158067D01*
X0132693Y0159802D01*
X0131826Y0160670D01*
X0129224Y0160670D01*
X0129224Y0156333D01*
X0130091Y0155465D01*
X0130958Y0155465D01*
X0134396Y0157200D02*
X0136131Y0157200D01*
X0135263Y0157200D02*
X0135263Y0160670D01*
X0136131Y0160670D01*
X0137818Y0160670D02*
X0140420Y0160670D01*
X0141287Y0159802D01*
X0140420Y0158935D01*
X0138685Y0158935D01*
X0137818Y0158067D01*
X0138685Y0157200D01*
X0141287Y0157200D01*
X0142974Y0158935D02*
X0146444Y0158935D01*
X0146444Y0159802D02*
X0145576Y0160670D01*
X0143841Y0160670D01*
X0142974Y0159802D01*
X0142974Y0158935D01*
X0143841Y0157200D02*
X0145576Y0157200D01*
X0146444Y0158067D01*
X0146444Y0159802D01*
X0148130Y0158067D02*
X0148130Y0161537D01*
X0148998Y0162404D01*
X0151600Y0162404D01*
X0151600Y0157200D01*
X0148998Y0157200D01*
X0148130Y0158067D01*
X0148130Y0154004D02*
X0151600Y0154004D01*
X0149865Y0154004D02*
X0149865Y0148800D01*
X0146444Y0148800D02*
X0146444Y0154004D01*
X0145576Y0152270D02*
X0143841Y0152270D01*
X0142974Y0151402D01*
X0142974Y0148800D01*
X0141287Y0149667D02*
X0141287Y0151402D01*
X0140420Y0152270D01*
X0138685Y0152270D01*
X0137818Y0151402D01*
X0137818Y0150535D01*
X0141287Y0150535D01*
X0141287Y0149667D02*
X0140420Y0148800D01*
X0138685Y0148800D01*
X0136131Y0149667D02*
X0135263Y0148800D01*
X0133529Y0148800D01*
X0132661Y0149667D01*
X0132661Y0151402D01*
X0133529Y0152270D01*
X0135263Y0152270D01*
X0136131Y0151402D01*
X0136131Y0149667D01*
X0137818Y0145604D02*
X0137818Y0140400D01*
X0140420Y0140400D01*
X0141287Y0141267D01*
X0141287Y0143002D01*
X0140420Y0143870D01*
X0137818Y0143870D01*
X0142974Y0143002D02*
X0142974Y0140400D01*
X0142974Y0143002D02*
X0143841Y0143870D01*
X0146444Y0143870D01*
X0146444Y0140400D01*
X0148130Y0140400D02*
X0148130Y0143002D01*
X0148998Y0143870D01*
X0150733Y0143870D01*
X0150733Y0142135D02*
X0148130Y0142135D01*
X0148130Y0140400D02*
X0150733Y0140400D01*
X0151600Y0141267D01*
X0150733Y0142135D01*
X0149865Y0137204D02*
X0149865Y0132000D01*
X0151600Y0132000D02*
X0148130Y0132000D01*
X0146444Y0132867D02*
X0145576Y0132000D01*
X0143841Y0132000D01*
X0142974Y0132867D01*
X0142974Y0133735D01*
X0143841Y0134602D01*
X0144709Y0134602D01*
X0143841Y0134602D02*
X0142974Y0135470D01*
X0142974Y0136337D01*
X0143841Y0137204D01*
X0145576Y0137204D01*
X0146444Y0136337D01*
X0149865Y0137204D02*
X0151600Y0135470D01*
X0141287Y0134602D02*
X0137818Y0134602D01*
X0136131Y0132867D02*
X0132661Y0136337D01*
X0132661Y0132867D01*
X0133529Y0132000D01*
X0135263Y0132000D01*
X0136131Y0132867D01*
X0136131Y0136337D01*
X0135263Y0137204D01*
X0133529Y0137204D01*
X0132661Y0136337D01*
X0124083Y0148800D02*
X0122348Y0150535D01*
X0122348Y0154004D01*
X0125818Y0154004D02*
X0125818Y0150535D01*
X0124083Y0148800D01*
X0120662Y0149667D02*
X0119794Y0148800D01*
X0120662Y0149667D02*
X0119794Y0150535D01*
X0135263Y0162404D02*
X0135263Y0163272D01*
X0138685Y0154872D02*
X0140420Y0154004D01*
X0145576Y0152270D02*
X0146444Y0151402D01*
D12*
X0088320Y0127080D03*
X0074220Y0133440D03*
X0074280Y0136140D03*
X0062520Y0136140D03*
X0058140Y0136140D03*
X0058140Y0133440D03*
X0054180Y0133500D03*
X0054180Y0133560D03*
X0042420Y0127080D03*
X0037140Y0127080D03*
X0059040Y0146160D03*
X0059040Y0147540D03*
X0060120Y0149040D03*
X0059820Y0156300D03*
X0066240Y0168060D03*
D13*
X0065850Y0169800D03*
X0056970Y0169260D03*
X0056970Y0169200D03*
X0061290Y0161400D03*
X0062610Y0159960D03*
X0064590Y0159480D03*
X0064590Y0157740D03*
X0062310Y0157620D03*
X0060750Y0157680D03*
X0058050Y0159360D03*
X0058050Y0148320D03*
X0061170Y0148260D03*
X0061950Y0146220D03*
X0064590Y0145080D03*
X0064590Y0145020D03*
X0058050Y0143940D03*
X0053970Y0136680D03*
X0054990Y0135480D03*
X0056610Y0135120D03*
X0056670Y0135360D03*
X0056610Y0134460D03*
X0056670Y0134280D03*
X0056670Y0134220D03*
X0059550Y0134100D03*
X0059610Y0134160D03*
X0059610Y0134220D03*
X0059670Y0134400D03*
X0059670Y0134460D03*
X0059670Y0135180D03*
X0059670Y0135240D03*
X0059610Y0135360D03*
X0059610Y0135420D03*
X0059550Y0135480D03*
X0059550Y0135540D03*
X0061170Y0135480D03*
X0061290Y0135720D03*
X0062550Y0136680D03*
X0063810Y0135720D03*
X0063870Y0135600D03*
X0063870Y0133980D03*
X0063810Y0133920D03*
X0065670Y0133920D03*
X0065670Y0133980D03*
X0065670Y0134040D03*
X0065670Y0134100D03*
X0065670Y0134160D03*
X0065670Y0134220D03*
X0065670Y0134280D03*
X0065670Y0134340D03*
X0065670Y0134400D03*
X0065670Y0134460D03*
X0065670Y0134520D03*
X0065670Y0134580D03*
X0065670Y0134640D03*
X0065670Y0134700D03*
X0065670Y0134760D03*
X0065670Y0134820D03*
X0065670Y0134880D03*
X0065670Y0134940D03*
X0065670Y0135000D03*
X0065670Y0135060D03*
X0065670Y0135120D03*
X0065670Y0135180D03*
X0065670Y0135240D03*
X0065670Y0135300D03*
X0065670Y0133860D03*
X0065670Y0133800D03*
X0065670Y0133740D03*
X0065670Y0133680D03*
X0065670Y0133620D03*
X0065670Y0133560D03*
X0065670Y0133500D03*
X0065670Y0133440D03*
X0065670Y0133380D03*
X0065670Y0133320D03*
X0065670Y0133260D03*
X0065670Y0133200D03*
X0065670Y0133140D03*
X0065670Y0133080D03*
X0065670Y0133020D03*
X0068310Y0135000D03*
X0068310Y0135060D03*
X0068310Y0135120D03*
X0068310Y0135180D03*
X0068310Y0135240D03*
X0068310Y0135300D03*
X0068310Y0135360D03*
X0071070Y0136680D03*
X0072990Y0135660D03*
X0072870Y0135300D03*
X0071010Y0133860D03*
X0071010Y0133800D03*
X0070950Y0133740D03*
X0073710Y0130380D03*
X0075510Y0133860D03*
X0075570Y0133920D03*
X0075570Y0135660D03*
X0077490Y0135600D03*
X0080010Y0135420D03*
X0080010Y0135360D03*
X0080010Y0135300D03*
X0083070Y0135300D03*
X0083070Y0135360D03*
X0083070Y0135420D03*
X0083070Y0135480D03*
X0083070Y0135540D03*
X0083070Y0135600D03*
X0083070Y0135660D03*
X0083070Y0135720D03*
X0083070Y0135780D03*
X0083070Y0135840D03*
X0083070Y0135900D03*
X0083070Y0135960D03*
X0083070Y0136020D03*
X0083070Y0136080D03*
X0083070Y0136140D03*
X0083070Y0136200D03*
X0083070Y0136260D03*
X0083070Y0136320D03*
X0083070Y0136380D03*
X0083070Y0136440D03*
X0083070Y0136500D03*
X0083070Y0136560D03*
X0083070Y0136620D03*
X0083070Y0136680D03*
X0083070Y0136740D03*
X0083070Y0136800D03*
X0083070Y0136860D03*
X0083070Y0136920D03*
X0083070Y0136980D03*
X0083070Y0137040D03*
X0083070Y0135240D03*
X0083070Y0135180D03*
X0083070Y0135120D03*
X0083070Y0135060D03*
X0083070Y0135000D03*
X0083070Y0134940D03*
X0083070Y0134880D03*
X0083070Y0134820D03*
X0083070Y0134760D03*
X0083070Y0134700D03*
X0083070Y0134640D03*
X0083070Y0134580D03*
X0083070Y0134520D03*
X0083070Y0134460D03*
X0083070Y0134400D03*
X0083070Y0134340D03*
X0083070Y0134280D03*
X0083070Y0134220D03*
X0083070Y0134160D03*
X0083070Y0134100D03*
X0083070Y0134040D03*
X0083070Y0133980D03*
X0083070Y0133920D03*
X0083070Y0133860D03*
X0083070Y0133800D03*
X0083070Y0133740D03*
X0083070Y0133680D03*
X0083070Y0133620D03*
X0083070Y0133560D03*
X0083070Y0133500D03*
X0083070Y0133440D03*
X0083070Y0133380D03*
X0083070Y0133320D03*
X0083070Y0133260D03*
X0083070Y0133200D03*
X0083070Y0133140D03*
X0083070Y0133080D03*
X0083070Y0133020D03*
X0083910Y0129360D03*
X0083910Y0129300D03*
X0083910Y0129240D03*
X0083910Y0129180D03*
X0083910Y0129120D03*
X0083910Y0129060D03*
X0083910Y0129000D03*
X0083910Y0128940D03*
X0083910Y0128880D03*
X0083910Y0128820D03*
X0083910Y0128760D03*
X0083910Y0128700D03*
X0083910Y0128640D03*
X0083910Y0128580D03*
X0083910Y0128520D03*
X0083910Y0128460D03*
X0083910Y0128400D03*
X0083910Y0128340D03*
X0083910Y0128280D03*
X0083910Y0128220D03*
X0083910Y0128160D03*
X0083910Y0128100D03*
X0083910Y0128040D03*
X0083910Y0127980D03*
X0083910Y0127920D03*
X0083910Y0127860D03*
X0083910Y0127800D03*
X0083910Y0127740D03*
X0083910Y0127680D03*
X0083910Y0127620D03*
X0083910Y0127560D03*
X0083910Y0127500D03*
X0083910Y0127440D03*
X0083910Y0127380D03*
X0083910Y0127320D03*
X0083910Y0127260D03*
X0083910Y0127200D03*
X0083910Y0127140D03*
X0083910Y0127080D03*
X0085050Y0127080D03*
X0081750Y0128580D03*
X0079590Y0128580D03*
X0079590Y0128640D03*
X0079590Y0128700D03*
X0079590Y0128760D03*
X0079590Y0128820D03*
X0079590Y0128880D03*
X0079590Y0128940D03*
X0079590Y0129000D03*
X0079590Y0129060D03*
X0079590Y0129120D03*
X0079590Y0129180D03*
X0079590Y0129240D03*
X0079590Y0129360D03*
X0079590Y0128520D03*
X0079590Y0128460D03*
X0079590Y0128400D03*
X0079590Y0128340D03*
X0079590Y0128280D03*
X0079590Y0128220D03*
X0079590Y0128160D03*
X0079590Y0128100D03*
X0079590Y0128040D03*
X0079590Y0127980D03*
X0079590Y0127920D03*
X0079590Y0127860D03*
X0079590Y0127800D03*
X0079590Y0127740D03*
X0079590Y0127680D03*
X0079590Y0127620D03*
X0079590Y0127560D03*
X0079590Y0127500D03*
X0079590Y0127440D03*
X0079590Y0127380D03*
X0079590Y0127320D03*
X0079590Y0127260D03*
X0079590Y0127200D03*
X0079590Y0127140D03*
X0079590Y0127080D03*
X0053070Y0133800D03*
X0053070Y0134160D03*
X0047250Y0135360D03*
X0047250Y0135420D03*
X0044670Y0135420D03*
X0044670Y0135480D03*
X0044670Y0135360D03*
X0044670Y0135300D03*
X0044670Y0135240D03*
X0042990Y0135120D03*
X0042870Y0135480D03*
X0042990Y0134520D03*
X0042990Y0134460D03*
X0042870Y0134160D03*
X0045690Y0130380D03*
X0045690Y0127080D03*
X0046470Y0167400D03*
X0046470Y0167460D03*
X0076170Y0166260D03*
D14*
X0076140Y0166200D03*
X0076140Y0166140D03*
X0064560Y0157800D03*
X0060720Y0157620D03*
X0058080Y0157620D03*
X0061260Y0161460D03*
X0061260Y0161520D03*
X0056940Y0169140D03*
X0046500Y0167340D03*
X0062820Y0148320D03*
X0064560Y0147840D03*
X0064560Y0145140D03*
X0058080Y0144000D03*
X0058140Y0136680D03*
X0056880Y0135720D03*
X0056820Y0135660D03*
X0056820Y0135600D03*
X0056760Y0135540D03*
X0056760Y0134040D03*
X0056820Y0133980D03*
X0055020Y0133680D03*
X0054960Y0135420D03*
X0054900Y0135960D03*
X0053100Y0134220D03*
X0053160Y0133680D03*
X0055380Y0129540D03*
X0055380Y0129480D03*
X0055380Y0129420D03*
X0055380Y0129360D03*
X0055380Y0129300D03*
X0055380Y0129240D03*
X0055380Y0129180D03*
X0055380Y0128280D03*
X0055380Y0128220D03*
X0055380Y0128160D03*
X0055380Y0128100D03*
X0055380Y0128040D03*
X0055380Y0127980D03*
X0055380Y0127920D03*
X0059460Y0133920D03*
X0059460Y0133980D03*
X0059520Y0134040D03*
X0059520Y0135600D03*
X0059460Y0135660D03*
X0061320Y0135780D03*
X0061380Y0135840D03*
X0063720Y0135780D03*
X0063780Y0133860D03*
X0063720Y0133800D03*
X0065760Y0135660D03*
X0065820Y0135780D03*
X0068280Y0135480D03*
X0068280Y0135420D03*
X0070920Y0133680D03*
X0073020Y0135720D03*
X0073080Y0135780D03*
X0074280Y0136680D03*
X0075420Y0135840D03*
X0075480Y0135780D03*
X0075540Y0135720D03*
X0077460Y0135540D03*
X0077520Y0135660D03*
X0077520Y0135720D03*
X0079980Y0135540D03*
X0079980Y0135480D03*
X0079620Y0130260D03*
X0079620Y0129300D03*
X0078420Y0127080D03*
X0085080Y0127140D03*
X0085080Y0127200D03*
X0085080Y0127260D03*
X0085080Y0127320D03*
X0085080Y0127380D03*
X0085080Y0127440D03*
X0085080Y0127500D03*
X0085080Y0127560D03*
X0085080Y0127620D03*
X0085080Y0127680D03*
X0085080Y0127740D03*
X0085080Y0127800D03*
X0085080Y0127860D03*
X0085080Y0127920D03*
X0085080Y0127980D03*
X0085080Y0128040D03*
X0085080Y0128100D03*
X0085080Y0128160D03*
X0085080Y0128220D03*
X0085080Y0128280D03*
X0085080Y0128340D03*
X0085080Y0128400D03*
X0085080Y0128460D03*
X0085080Y0128520D03*
X0085080Y0128580D03*
X0085080Y0128640D03*
X0085080Y0128700D03*
X0085080Y0128760D03*
X0085080Y0128820D03*
X0085080Y0128880D03*
X0085080Y0128940D03*
X0085080Y0129000D03*
X0085080Y0129060D03*
X0085080Y0129120D03*
X0085080Y0129180D03*
X0085080Y0129240D03*
X0085080Y0129300D03*
X0085080Y0129360D03*
X0085080Y0129420D03*
X0085080Y0129480D03*
X0085080Y0129540D03*
X0085080Y0129600D03*
X0085080Y0129660D03*
X0085080Y0129720D03*
X0085080Y0129780D03*
X0085080Y0129840D03*
X0085080Y0129900D03*
X0085080Y0129960D03*
X0085080Y0130020D03*
X0085080Y0130080D03*
X0085080Y0130140D03*
X0085080Y0130200D03*
X0085080Y0130260D03*
X0085080Y0130320D03*
X0085080Y0130380D03*
X0069540Y0130380D03*
X0066060Y0130380D03*
X0067800Y0127080D03*
X0047220Y0135480D03*
X0047220Y0135540D03*
X0044760Y0135660D03*
X0044760Y0135720D03*
X0042900Y0135420D03*
X0042840Y0135540D03*
X0042780Y0135600D03*
X0042900Y0134220D03*
X0042840Y0134100D03*
X0041400Y0136680D03*
X0038700Y0133680D03*
X0038700Y0133140D03*
X0045660Y0130320D03*
X0045660Y0130260D03*
X0045660Y0130200D03*
X0045660Y0130140D03*
X0045660Y0130080D03*
X0045660Y0130020D03*
X0045660Y0129960D03*
X0045660Y0129900D03*
X0045660Y0129840D03*
X0045660Y0129780D03*
X0045660Y0129720D03*
X0045660Y0129660D03*
X0045660Y0129600D03*
X0045660Y0129540D03*
X0045660Y0129480D03*
X0045660Y0129420D03*
X0045660Y0129360D03*
X0045660Y0129300D03*
X0045660Y0129240D03*
X0045660Y0129180D03*
X0045660Y0129120D03*
X0045660Y0129060D03*
X0045660Y0129000D03*
X0045660Y0128940D03*
X0045660Y0128880D03*
X0045660Y0128820D03*
X0045660Y0128760D03*
X0045660Y0128700D03*
X0045660Y0128640D03*
X0045660Y0128580D03*
X0045660Y0128520D03*
X0045660Y0128460D03*
X0045660Y0128400D03*
X0045660Y0128340D03*
X0045660Y0128280D03*
X0045660Y0128220D03*
X0045660Y0128160D03*
X0045660Y0128100D03*
X0045660Y0128040D03*
X0045660Y0127980D03*
X0045660Y0127920D03*
X0045660Y0127860D03*
X0045660Y0127800D03*
X0045660Y0127740D03*
X0045660Y0127680D03*
X0045660Y0127620D03*
X0045660Y0127560D03*
X0045660Y0127500D03*
X0045660Y0127440D03*
X0045660Y0127380D03*
X0045660Y0127320D03*
X0045660Y0127260D03*
X0045660Y0127200D03*
X0045660Y0127140D03*
D15*
X0061800Y0144420D03*
X0059520Y0151320D03*
X0059520Y0151380D03*
X0059520Y0151440D03*
X0059520Y0151500D03*
X0059520Y0151560D03*
X0059520Y0151620D03*
X0059520Y0151680D03*
X0059520Y0151740D03*
X0059520Y0151800D03*
X0059520Y0151860D03*
X0059520Y0151920D03*
X0059520Y0151980D03*
X0059520Y0152040D03*
X0059520Y0152100D03*
X0059520Y0152160D03*
X0059520Y0152220D03*
X0059520Y0152280D03*
X0059520Y0152340D03*
X0059520Y0152400D03*
X0059520Y0152460D03*
X0059520Y0152520D03*
X0047940Y0163740D03*
X0056520Y0165960D03*
X0056520Y0166020D03*
X0072540Y0165540D03*
X0083100Y0137820D03*
X0083100Y0137760D03*
X0083100Y0137700D03*
X0083100Y0137640D03*
X0083100Y0137580D03*
X0083100Y0137520D03*
X0083100Y0137460D03*
X0083100Y0137400D03*
X0083100Y0137340D03*
X0083100Y0137280D03*
X0083100Y0137220D03*
X0083100Y0137160D03*
X0083100Y0137100D03*
X0072240Y0127080D03*
X0067800Y0128580D03*
D16*
X0062490Y0133440D03*
X0058650Y0130380D03*
X0058650Y0127080D03*
X0042450Y0130380D03*
X0041490Y0133500D03*
X0041550Y0136020D03*
X0041490Y0136080D03*
X0041430Y0136140D03*
X0031890Y0130380D03*
X0059070Y0146220D03*
X0061830Y0144960D03*
X0063570Y0152400D03*
X0063570Y0152460D03*
X0063570Y0152520D03*
X0063570Y0152580D03*
X0063570Y0152640D03*
X0063570Y0152700D03*
X0063570Y0152760D03*
X0063570Y0152820D03*
X0063570Y0152880D03*
X0063570Y0152940D03*
X0063570Y0153000D03*
X0063570Y0153060D03*
X0063570Y0153120D03*
X0063570Y0153180D03*
X0063570Y0153240D03*
X0063570Y0153300D03*
X0063570Y0153360D03*
X0063570Y0153420D03*
X0063570Y0153480D03*
X0063570Y0153540D03*
X0063570Y0153600D03*
X0063450Y0156060D03*
X0059790Y0156240D03*
X0061290Y0164520D03*
X0061290Y0164580D03*
X0056670Y0166980D03*
X0056670Y0167040D03*
X0051510Y0164700D03*
X0047490Y0164880D03*
X0066270Y0168000D03*
X0088290Y0130380D03*
D17*
X0076830Y0130140D03*
X0076830Y0128580D03*
X0053790Y0127860D03*
X0053790Y0127080D03*
X0053790Y0129600D03*
X0053790Y0130380D03*
X0056490Y0165660D03*
X0056490Y0165720D03*
X0061290Y0166380D03*
X0061290Y0166440D03*
X0066510Y0166920D03*
X0072510Y0165780D03*
D18*
X0076110Y0166020D03*
X0076110Y0166080D03*
X0065850Y0169680D03*
X0065850Y0169740D03*
X0056970Y0169080D03*
X0061290Y0161640D03*
X0061290Y0161580D03*
X0059910Y0159840D03*
X0058110Y0157680D03*
X0062370Y0157560D03*
X0064530Y0157860D03*
X0058110Y0148260D03*
X0058110Y0144060D03*
X0061950Y0146160D03*
X0064530Y0145200D03*
X0063690Y0135840D03*
X0065790Y0135720D03*
X0068250Y0135600D03*
X0068250Y0135540D03*
X0070890Y0133620D03*
X0073290Y0133620D03*
X0075390Y0133740D03*
X0075450Y0133800D03*
X0077550Y0135780D03*
X0077610Y0135840D03*
X0079950Y0135600D03*
X0079650Y0130200D03*
X0078390Y0129540D03*
X0078390Y0129480D03*
X0078390Y0129420D03*
X0078390Y0129360D03*
X0078390Y0129300D03*
X0078390Y0129240D03*
X0078390Y0129180D03*
X0078390Y0128280D03*
X0078390Y0128220D03*
X0078390Y0128160D03*
X0078390Y0128100D03*
X0078390Y0128040D03*
X0078390Y0127980D03*
X0078390Y0127920D03*
X0078390Y0127860D03*
X0078390Y0127800D03*
X0078390Y0127740D03*
X0078390Y0127680D03*
X0078390Y0127620D03*
X0078390Y0127560D03*
X0078390Y0127500D03*
X0078390Y0127440D03*
X0078390Y0127380D03*
X0078390Y0127320D03*
X0078390Y0127260D03*
X0078390Y0127200D03*
X0078390Y0127140D03*
X0074970Y0129180D03*
X0074970Y0129240D03*
X0074970Y0129300D03*
X0074970Y0129360D03*
X0074970Y0129420D03*
X0074970Y0129480D03*
X0074970Y0129540D03*
X0073710Y0129540D03*
X0073710Y0129600D03*
X0073710Y0129660D03*
X0073710Y0129720D03*
X0073710Y0129780D03*
X0073710Y0129840D03*
X0073710Y0129900D03*
X0073710Y0129960D03*
X0073710Y0130020D03*
X0073710Y0130080D03*
X0073710Y0130140D03*
X0073710Y0130200D03*
X0073710Y0130260D03*
X0073710Y0130320D03*
X0073710Y0129480D03*
X0073710Y0129420D03*
X0073710Y0129360D03*
X0073710Y0129300D03*
X0073710Y0129240D03*
X0073710Y0129180D03*
X0073710Y0129120D03*
X0073710Y0129060D03*
X0073710Y0129000D03*
X0073710Y0128940D03*
X0073710Y0128880D03*
X0073710Y0128820D03*
X0073710Y0128760D03*
X0073710Y0128700D03*
X0073710Y0128640D03*
X0073710Y0128580D03*
X0073710Y0128520D03*
X0073710Y0128460D03*
X0073710Y0128400D03*
X0073710Y0128340D03*
X0073710Y0128280D03*
X0073710Y0128220D03*
X0073710Y0128160D03*
X0073710Y0128100D03*
X0073710Y0128040D03*
X0073710Y0127980D03*
X0073710Y0127920D03*
X0069510Y0129180D03*
X0069510Y0129240D03*
X0069510Y0129300D03*
X0069510Y0129360D03*
X0069510Y0129420D03*
X0069510Y0129480D03*
X0069510Y0129540D03*
X0069510Y0129600D03*
X0069510Y0129660D03*
X0069510Y0129720D03*
X0069510Y0129780D03*
X0069510Y0129840D03*
X0069510Y0129900D03*
X0069510Y0129960D03*
X0069510Y0130020D03*
X0069510Y0130080D03*
X0069510Y0130140D03*
X0069510Y0130200D03*
X0069510Y0130260D03*
X0069510Y0130320D03*
X0067830Y0128280D03*
X0067830Y0128220D03*
X0067830Y0128160D03*
X0067830Y0128100D03*
X0067830Y0128040D03*
X0067830Y0127980D03*
X0067830Y0127920D03*
X0067830Y0127860D03*
X0067830Y0127800D03*
X0067830Y0127740D03*
X0067830Y0127680D03*
X0067830Y0127620D03*
X0067830Y0127560D03*
X0067830Y0127500D03*
X0067830Y0127440D03*
X0067830Y0127380D03*
X0067830Y0127320D03*
X0067830Y0127260D03*
X0067830Y0127200D03*
X0067830Y0127140D03*
X0066090Y0129180D03*
X0066090Y0129240D03*
X0066090Y0129300D03*
X0066090Y0129360D03*
X0066090Y0129420D03*
X0066090Y0129480D03*
X0066090Y0129540D03*
X0066090Y0129600D03*
X0066090Y0129660D03*
X0066090Y0129720D03*
X0066090Y0129780D03*
X0066090Y0129840D03*
X0066090Y0129900D03*
X0066090Y0129960D03*
X0066090Y0130020D03*
X0066090Y0130080D03*
X0066090Y0130140D03*
X0066090Y0130200D03*
X0066090Y0130260D03*
X0066090Y0130320D03*
X0060630Y0129540D03*
X0060630Y0127920D03*
X0061530Y0133620D03*
X0059370Y0133860D03*
X0059430Y0135720D03*
X0059370Y0135780D03*
X0056970Y0133800D03*
X0056910Y0133860D03*
X0056850Y0133920D03*
X0054870Y0135360D03*
X0054810Y0136020D03*
X0053130Y0134280D03*
X0053190Y0133620D03*
X0050910Y0130380D03*
X0050910Y0129120D03*
X0050910Y0129060D03*
X0050910Y0129000D03*
X0050910Y0128940D03*
X0050910Y0128880D03*
X0050910Y0128820D03*
X0050910Y0128760D03*
X0050910Y0128700D03*
X0050910Y0128640D03*
X0050910Y0128580D03*
X0050910Y0128520D03*
X0050910Y0128460D03*
X0050910Y0128400D03*
X0050910Y0128340D03*
X0050910Y0128280D03*
X0050910Y0128220D03*
X0050910Y0128160D03*
X0050910Y0128100D03*
X0050910Y0128040D03*
X0050910Y0127980D03*
X0050910Y0127920D03*
X0050910Y0127860D03*
X0050910Y0127800D03*
X0050910Y0127740D03*
X0050910Y0127680D03*
X0050910Y0127620D03*
X0050910Y0127560D03*
X0050910Y0127500D03*
X0050910Y0127440D03*
X0050910Y0127380D03*
X0050910Y0127320D03*
X0050910Y0127200D03*
X0050910Y0127080D03*
X0046950Y0127080D03*
X0044430Y0127920D03*
X0044430Y0127980D03*
X0044430Y0128040D03*
X0044430Y0128100D03*
X0044430Y0128160D03*
X0044430Y0128220D03*
X0044430Y0128280D03*
X0044430Y0128340D03*
X0044430Y0128400D03*
X0044430Y0128460D03*
X0044430Y0128520D03*
X0044430Y0128580D03*
X0044430Y0128640D03*
X0044430Y0128700D03*
X0044430Y0128760D03*
X0044430Y0128820D03*
X0044430Y0128880D03*
X0044430Y0128940D03*
X0044430Y0129000D03*
X0044430Y0129060D03*
X0044430Y0129120D03*
X0044430Y0129180D03*
X0044430Y0129240D03*
X0044430Y0129300D03*
X0044430Y0129360D03*
X0044430Y0129420D03*
X0044430Y0129480D03*
X0044430Y0129540D03*
X0046950Y0130380D03*
X0047190Y0135600D03*
X0047190Y0135660D03*
X0044850Y0135840D03*
X0044790Y0135780D03*
X0042750Y0135660D03*
X0042690Y0135720D03*
X0042810Y0134040D03*
X0042750Y0133980D03*
X0040530Y0133680D03*
X0038730Y0133620D03*
X0038730Y0133260D03*
X0038730Y0133200D03*
X0039150Y0130380D03*
X0039150Y0130320D03*
X0039150Y0130260D03*
X0039150Y0130200D03*
X0039150Y0130140D03*
X0039150Y0130080D03*
X0039150Y0130020D03*
X0039150Y0129960D03*
X0039150Y0129900D03*
X0039150Y0129840D03*
X0039150Y0129780D03*
X0039150Y0129720D03*
X0039150Y0129660D03*
X0039150Y0129600D03*
X0039150Y0129540D03*
X0039150Y0129480D03*
X0039150Y0129420D03*
X0039150Y0129360D03*
X0039150Y0129300D03*
X0039150Y0129240D03*
X0039150Y0129180D03*
X0039150Y0129120D03*
X0039150Y0129060D03*
X0039150Y0129000D03*
X0039150Y0128940D03*
X0039150Y0128880D03*
X0039150Y0128820D03*
X0039150Y0128760D03*
X0039150Y0128700D03*
X0039150Y0128640D03*
X0039150Y0128580D03*
X0039150Y0128520D03*
X0039150Y0128460D03*
X0039150Y0128400D03*
X0039150Y0128340D03*
X0039150Y0128280D03*
X0039150Y0128220D03*
X0039150Y0128160D03*
X0039150Y0128100D03*
X0039150Y0128040D03*
X0039150Y0127980D03*
X0035130Y0130380D03*
X0033870Y0129480D03*
X0033870Y0129420D03*
X0033870Y0129360D03*
X0033870Y0129300D03*
X0033870Y0129240D03*
X0033870Y0128100D03*
X0033870Y0128040D03*
X0033870Y0127980D03*
X0073110Y0135840D03*
X0073170Y0135900D03*
X0083850Y0130260D03*
X0086310Y0129480D03*
X0086310Y0129420D03*
X0086310Y0129360D03*
X0086310Y0128220D03*
X0086310Y0128160D03*
X0086310Y0128100D03*
X0086310Y0128040D03*
X0086310Y0127980D03*
X0046530Y0167280D03*
D19*
X0047460Y0164940D03*
X0061260Y0164460D03*
X0072600Y0164820D03*
X0072600Y0164880D03*
X0063600Y0152340D03*
X0063600Y0152280D03*
X0063600Y0152220D03*
X0063600Y0152160D03*
X0063600Y0152100D03*
X0063600Y0152040D03*
X0063600Y0151980D03*
X0063600Y0151920D03*
X0063600Y0151860D03*
X0063600Y0151800D03*
X0063600Y0151740D03*
X0063600Y0151680D03*
X0063600Y0151620D03*
X0063600Y0151560D03*
X0063600Y0151500D03*
X0063600Y0151440D03*
X0063600Y0151380D03*
X0063600Y0151320D03*
X0063600Y0151260D03*
X0063600Y0151200D03*
X0063600Y0151140D03*
X0063600Y0151080D03*
X0061860Y0145020D03*
X0031860Y0127080D03*
D20*
X0031860Y0130320D03*
X0042420Y0130320D03*
X0059460Y0147120D03*
X0061800Y0144480D03*
X0062580Y0135060D03*
X0059460Y0153900D03*
X0059460Y0153960D03*
X0059460Y0154020D03*
X0059460Y0154080D03*
X0059460Y0154140D03*
X0059460Y0154200D03*
X0059460Y0154260D03*
X0059460Y0154320D03*
X0059460Y0154380D03*
X0059460Y0154440D03*
X0059460Y0154500D03*
X0059460Y0154560D03*
X0059460Y0154620D03*
X0059460Y0154680D03*
X0059460Y0154740D03*
X0059460Y0154800D03*
X0059460Y0154860D03*
X0059460Y0154920D03*
X0059460Y0154980D03*
X0059460Y0155040D03*
X0059460Y0155100D03*
X0056520Y0166140D03*
X0047880Y0163920D03*
X0066420Y0167280D03*
X0066420Y0167340D03*
X0072540Y0165480D03*
X0088320Y0130320D03*
X0088320Y0127140D03*
D21*
X0088320Y0127200D03*
X0087780Y0128340D03*
X0088320Y0130260D03*
X0076920Y0130260D03*
X0076920Y0128460D03*
X0072240Y0127800D03*
X0072240Y0127740D03*
X0072240Y0127680D03*
X0072240Y0127620D03*
X0072240Y0127560D03*
X0072240Y0127500D03*
X0072240Y0127440D03*
X0072240Y0127380D03*
X0072240Y0127320D03*
X0072240Y0127260D03*
X0072240Y0127200D03*
X0072240Y0127140D03*
X0067800Y0128640D03*
X0061800Y0144300D03*
X0061800Y0144360D03*
X0059580Y0149460D03*
X0059580Y0149520D03*
X0059580Y0149580D03*
X0059580Y0149640D03*
X0059580Y0149700D03*
X0059580Y0149760D03*
X0059580Y0149820D03*
X0059580Y0149880D03*
X0059580Y0149940D03*
X0059580Y0150000D03*
X0056520Y0165900D03*
X0051420Y0165420D03*
X0066480Y0167100D03*
X0031860Y0130260D03*
X0032400Y0129120D03*
X0031320Y0128340D03*
X0031860Y0127200D03*
X0037140Y0127200D03*
X0042420Y0127200D03*
D22*
X0042450Y0127140D03*
X0037170Y0127140D03*
X0031890Y0127140D03*
X0058650Y0127140D03*
X0058650Y0130320D03*
X0067830Y0128520D03*
X0059430Y0147060D03*
X0059430Y0147240D03*
X0059730Y0149340D03*
X0059430Y0155160D03*
X0059430Y0155220D03*
X0059430Y0155280D03*
X0059430Y0155340D03*
X0059430Y0155400D03*
X0059430Y0155460D03*
X0059430Y0155520D03*
X0059430Y0155580D03*
X0059430Y0155640D03*
X0059430Y0155700D03*
X0061290Y0165600D03*
X0061290Y0165660D03*
X0061290Y0165720D03*
X0056550Y0166200D03*
X0051450Y0165240D03*
X0051450Y0165180D03*
X0047850Y0163980D03*
X0072570Y0165420D03*
D23*
X0066540Y0166860D03*
X0061320Y0166500D03*
X0056460Y0165600D03*
X0051420Y0165600D03*
X0061800Y0144180D03*
X0058620Y0130200D03*
X0058620Y0127260D03*
X0053760Y0127260D03*
X0053760Y0127320D03*
X0053760Y0127380D03*
X0053760Y0127440D03*
X0053760Y0127500D03*
X0053760Y0127560D03*
X0053760Y0127620D03*
X0053760Y0127680D03*
X0053760Y0127740D03*
X0053760Y0127800D03*
X0053760Y0127200D03*
X0053760Y0127140D03*
X0053760Y0129660D03*
X0053760Y0129780D03*
X0053760Y0129840D03*
X0053760Y0129900D03*
X0053760Y0129960D03*
X0053760Y0130020D03*
X0053760Y0130080D03*
X0053760Y0130140D03*
X0053760Y0130200D03*
X0053760Y0130260D03*
X0053760Y0130320D03*
X0042420Y0130200D03*
X0042420Y0127260D03*
X0037140Y0127260D03*
X0031860Y0127260D03*
X0031860Y0130200D03*
X0067800Y0128760D03*
X0076800Y0128640D03*
X0076800Y0130080D03*
X0088320Y0130200D03*
X0088320Y0127260D03*
D24*
X0086340Y0127920D03*
X0086340Y0128280D03*
X0086340Y0129540D03*
X0083820Y0130200D03*
X0079920Y0135660D03*
X0079920Y0135720D03*
X0068220Y0135660D03*
X0065880Y0135840D03*
X0061440Y0135900D03*
X0059280Y0135840D03*
X0056940Y0135780D03*
X0059280Y0133740D03*
X0059340Y0133800D03*
X0056640Y0129540D03*
X0056640Y0129480D03*
X0056640Y0129420D03*
X0056640Y0129360D03*
X0056640Y0128280D03*
X0056640Y0128220D03*
X0056640Y0128160D03*
X0056640Y0128100D03*
X0056640Y0128040D03*
X0056640Y0127980D03*
X0056640Y0127920D03*
X0050940Y0127260D03*
X0050940Y0127140D03*
X0046920Y0128340D03*
X0046920Y0128400D03*
X0046920Y0128460D03*
X0046920Y0128520D03*
X0046920Y0128580D03*
X0046920Y0128640D03*
X0046920Y0128700D03*
X0046920Y0128760D03*
X0046920Y0128820D03*
X0046920Y0128880D03*
X0046920Y0128940D03*
X0046920Y0129000D03*
X0046920Y0129060D03*
X0046920Y0129120D03*
X0046920Y0129180D03*
X0046920Y0129240D03*
X0046920Y0129300D03*
X0046920Y0129360D03*
X0046920Y0129420D03*
X0046920Y0129480D03*
X0046920Y0129540D03*
X0046920Y0129600D03*
X0046920Y0129660D03*
X0046920Y0129720D03*
X0046920Y0129780D03*
X0046920Y0129840D03*
X0046920Y0129900D03*
X0046920Y0129960D03*
X0046920Y0130020D03*
X0046920Y0130080D03*
X0046920Y0130140D03*
X0046920Y0130200D03*
X0046920Y0130260D03*
X0046920Y0130320D03*
X0042720Y0133920D03*
X0041520Y0132960D03*
X0040620Y0135960D03*
X0040440Y0129540D03*
X0040440Y0129480D03*
X0040440Y0129420D03*
X0040440Y0129360D03*
X0040440Y0129300D03*
X0040440Y0129240D03*
X0040440Y0129180D03*
X0040440Y0129120D03*
X0040440Y0129060D03*
X0040440Y0129000D03*
X0040440Y0128940D03*
X0040440Y0128880D03*
X0040440Y0128820D03*
X0040440Y0128760D03*
X0040440Y0128700D03*
X0040440Y0128640D03*
X0040440Y0128580D03*
X0040440Y0128520D03*
X0040440Y0128460D03*
X0040440Y0128400D03*
X0040440Y0128340D03*
X0040440Y0128280D03*
X0040440Y0128220D03*
X0040440Y0128160D03*
X0040440Y0128100D03*
X0040440Y0128040D03*
X0040440Y0127980D03*
X0040440Y0127920D03*
X0039120Y0127920D03*
X0033840Y0127920D03*
X0033840Y0129180D03*
X0033840Y0129540D03*
X0029880Y0129540D03*
X0029880Y0129480D03*
X0029880Y0129420D03*
X0029880Y0129360D03*
X0029880Y0128280D03*
X0029880Y0128220D03*
X0029880Y0128160D03*
X0029880Y0128100D03*
X0029880Y0128040D03*
X0029880Y0127980D03*
X0029880Y0127920D03*
X0058140Y0144120D03*
X0061080Y0148320D03*
X0062880Y0148380D03*
X0058140Y0157740D03*
X0058140Y0159300D03*
X0056940Y0169020D03*
X0065880Y0169620D03*
X0076080Y0165960D03*
D25*
X0076050Y0165900D03*
X0076050Y0165840D03*
X0065910Y0169560D03*
X0061290Y0161820D03*
X0061290Y0161760D03*
X0060630Y0157500D03*
X0064470Y0157920D03*
X0064470Y0147780D03*
X0064470Y0145380D03*
X0061950Y0146100D03*
X0058170Y0144180D03*
X0057090Y0135900D03*
X0059250Y0135900D03*
X0061530Y0135960D03*
X0063510Y0135960D03*
X0065910Y0135900D03*
X0068190Y0135720D03*
X0070230Y0133020D03*
X0075330Y0133680D03*
X0075270Y0135960D03*
X0077670Y0135900D03*
X0079710Y0130140D03*
X0081750Y0128640D03*
X0063570Y0133680D03*
X0059190Y0133680D03*
X0057030Y0133740D03*
X0054030Y0132960D03*
X0053190Y0134340D03*
X0050850Y0130320D03*
X0046950Y0127140D03*
X0042630Y0133800D03*
X0042570Y0135840D03*
X0044910Y0135900D03*
X0046590Y0167100D03*
X0046590Y0167160D03*
X0056910Y0168960D03*
D26*
X0056490Y0165840D03*
X0056490Y0165780D03*
X0061290Y0166140D03*
X0061290Y0166200D03*
X0061290Y0166260D03*
X0066510Y0167040D03*
X0072510Y0165660D03*
X0076890Y0130200D03*
X0076890Y0128520D03*
X0088830Y0129120D03*
X0058650Y0130260D03*
X0058650Y0127200D03*
X0042450Y0130260D03*
D27*
X0042450Y0133680D03*
X0040590Y0133620D03*
X0042510Y0135900D03*
X0044970Y0135960D03*
X0047070Y0135840D03*
X0050790Y0130200D03*
X0047010Y0127200D03*
X0057150Y0135960D03*
X0059130Y0135960D03*
X0061650Y0136020D03*
X0063450Y0133620D03*
X0074250Y0132960D03*
X0075210Y0133620D03*
X0075150Y0136020D03*
X0077730Y0135960D03*
X0079830Y0135840D03*
X0079770Y0130080D03*
X0081750Y0128700D03*
X0083730Y0130080D03*
X0064410Y0145560D03*
X0064410Y0147720D03*
X0062970Y0148440D03*
X0060990Y0148380D03*
X0058230Y0144360D03*
X0060570Y0157440D03*
X0062550Y0157320D03*
X0061290Y0161940D03*
X0061290Y0162000D03*
X0058230Y0159240D03*
X0058230Y0157860D03*
X0056910Y0168780D03*
X0056910Y0168840D03*
X0065910Y0169500D03*
X0075990Y0165660D03*
X0046650Y0166980D03*
D28*
X0046680Y0166920D03*
X0058260Y0157920D03*
X0059700Y0159960D03*
X0061260Y0162060D03*
X0062820Y0160080D03*
X0064380Y0159360D03*
X0064380Y0158040D03*
X0062580Y0157260D03*
X0060540Y0157380D03*
X0058260Y0148140D03*
X0058260Y0144420D03*
X0061920Y0145980D03*
X0064380Y0145620D03*
X0062520Y0136620D03*
X0063420Y0136020D03*
X0068100Y0135840D03*
X0073380Y0136020D03*
X0079800Y0130020D03*
X0057240Y0133620D03*
X0047040Y0127260D03*
X0072720Y0163740D03*
X0075960Y0165540D03*
X0075960Y0165600D03*
X0065940Y0169380D03*
X0065940Y0169440D03*
D29*
X0066570Y0166740D03*
X0066570Y0166680D03*
X0061290Y0166740D03*
X0061290Y0166800D03*
X0056430Y0165420D03*
X0051390Y0165720D03*
X0061770Y0144060D03*
X0067830Y0128940D03*
X0087990Y0128400D03*
X0088290Y0127320D03*
X0088290Y0130140D03*
X0037170Y0127320D03*
X0032190Y0129060D03*
X0031530Y0128400D03*
X0031890Y0127320D03*
X0031890Y0130140D03*
D30*
X0042450Y0130140D03*
X0042450Y0127320D03*
X0058650Y0127320D03*
X0058650Y0130140D03*
X0076710Y0129900D03*
X0076710Y0129840D03*
X0076710Y0128880D03*
X0076710Y0128820D03*
X0088650Y0129060D03*
D31*
X0083640Y0129960D03*
X0082680Y0129360D03*
X0082620Y0129300D03*
X0082500Y0129240D03*
X0081000Y0129240D03*
X0080880Y0129300D03*
X0079860Y0129960D03*
X0078420Y0136560D03*
X0066660Y0136560D03*
X0064320Y0145800D03*
X0061920Y0145860D03*
X0061920Y0145920D03*
X0058320Y0144540D03*
X0054660Y0135240D03*
X0050700Y0130080D03*
X0047100Y0127320D03*
X0045660Y0136560D03*
X0058320Y0157980D03*
X0058320Y0159180D03*
X0061260Y0162240D03*
X0061260Y0162300D03*
X0064320Y0158160D03*
X0062640Y0157200D03*
X0072720Y0163800D03*
X0075900Y0165360D03*
X0065940Y0169320D03*
X0056880Y0168660D03*
X0056880Y0168600D03*
X0046740Y0166740D03*
D32*
X0051390Y0165840D03*
X0051390Y0165780D03*
X0061290Y0166920D03*
X0061290Y0166980D03*
X0066570Y0166620D03*
X0072510Y0166020D03*
X0061770Y0144000D03*
X0058650Y0130080D03*
X0058650Y0127380D03*
X0042450Y0127380D03*
X0042450Y0130080D03*
X0037170Y0127380D03*
X0031890Y0127380D03*
X0088050Y0128460D03*
X0088290Y0127380D03*
D33*
X0047130Y0127380D03*
D34*
X0042420Y0127440D03*
X0042420Y0130020D03*
X0037140Y0127440D03*
X0031920Y0128820D03*
X0031740Y0128580D03*
X0061740Y0143880D03*
X0061320Y0167220D03*
X0072480Y0166140D03*
X0088320Y0130020D03*
X0088440Y0128880D03*
X0088380Y0128820D03*
X0088320Y0128760D03*
X0088320Y0127440D03*
D35*
X0088170Y0128580D03*
X0061770Y0143940D03*
X0058650Y0130020D03*
X0058650Y0127440D03*
X0032010Y0128880D03*
X0051390Y0165900D03*
X0061290Y0167100D03*
X0061290Y0167160D03*
X0066630Y0166500D03*
D36*
X0072690Y0163980D03*
X0072690Y0163920D03*
X0075810Y0165060D03*
X0064230Y0158280D03*
X0062730Y0157080D03*
X0060390Y0157140D03*
X0058410Y0158100D03*
X0058410Y0159120D03*
X0058410Y0163500D03*
X0058410Y0163560D03*
X0058410Y0163620D03*
X0061290Y0162540D03*
X0056850Y0168420D03*
X0051630Y0163740D03*
X0046830Y0166500D03*
X0046830Y0166560D03*
X0058410Y0148020D03*
X0058410Y0144720D03*
X0064230Y0146040D03*
X0062490Y0133020D03*
X0074250Y0133020D03*
X0079950Y0129840D03*
X0081750Y0128820D03*
X0083550Y0129840D03*
X0050610Y0129960D03*
X0047190Y0127440D03*
X0045630Y0136500D03*
D37*
X0031860Y0130020D03*
X0031860Y0128700D03*
X0031800Y0128640D03*
X0031860Y0127440D03*
X0056400Y0165060D03*
X0056400Y0165120D03*
X0088260Y0128640D03*
D38*
X0088290Y0128700D03*
X0088290Y0127500D03*
X0088290Y0129960D03*
X0058650Y0129960D03*
X0058650Y0127500D03*
X0042450Y0127500D03*
X0042450Y0129960D03*
X0037170Y0127500D03*
X0031890Y0127500D03*
X0031890Y0128760D03*
X0031890Y0129960D03*
X0051390Y0165960D03*
X0056370Y0165000D03*
X0061290Y0167280D03*
X0061290Y0167340D03*
X0066630Y0166440D03*
X0066630Y0166380D03*
X0072450Y0166200D03*
D39*
X0075780Y0165000D03*
X0075780Y0164940D03*
X0059520Y0160080D03*
X0058440Y0158160D03*
X0058440Y0163320D03*
X0058440Y0163380D03*
X0058440Y0163440D03*
X0056820Y0168360D03*
X0060780Y0148560D03*
X0061920Y0145740D03*
X0058440Y0144840D03*
X0058440Y0144780D03*
X0058140Y0136560D03*
X0053940Y0136560D03*
X0053580Y0134580D03*
X0047220Y0127500D03*
X0062520Y0136560D03*
X0074280Y0136560D03*
X0078420Y0136500D03*
X0079980Y0129780D03*
D40*
X0088320Y0129900D03*
X0088320Y0127560D03*
X0061740Y0143820D03*
X0042420Y0129900D03*
X0042420Y0127560D03*
X0037140Y0127560D03*
X0031860Y0127560D03*
X0031860Y0129900D03*
X0051360Y0166020D03*
X0061320Y0167400D03*
X0066660Y0166320D03*
D41*
X0061290Y0167460D03*
X0061290Y0167520D03*
X0061290Y0167580D03*
X0056370Y0164940D03*
X0056370Y0164880D03*
X0072450Y0166260D03*
X0061770Y0143760D03*
X0058650Y0129900D03*
X0058650Y0129840D03*
X0058650Y0127620D03*
X0058650Y0127560D03*
D42*
X0054450Y0135120D03*
X0050550Y0129900D03*
X0049050Y0128820D03*
X0048450Y0128400D03*
X0047250Y0127560D03*
X0041430Y0136560D03*
X0058470Y0144900D03*
X0063150Y0148620D03*
X0064170Y0146220D03*
X0062790Y0156960D03*
X0063090Y0160200D03*
X0061290Y0162720D03*
X0058470Y0163140D03*
X0058470Y0163200D03*
X0058470Y0163260D03*
X0058470Y0158220D03*
X0060330Y0157080D03*
X0064170Y0163380D03*
X0064170Y0163440D03*
X0064170Y0163500D03*
X0066030Y0169020D03*
X0072690Y0164040D03*
X0075750Y0164820D03*
X0075750Y0164880D03*
X0056850Y0168300D03*
X0046890Y0166380D03*
X0070230Y0133200D03*
X0083490Y0129780D03*
D43*
X0088320Y0129780D03*
X0088320Y0129840D03*
X0088320Y0127680D03*
X0088320Y0127620D03*
X0061740Y0143700D03*
X0042420Y0129840D03*
X0042420Y0129780D03*
X0042420Y0127680D03*
X0042420Y0127620D03*
X0037140Y0127620D03*
X0037140Y0127680D03*
X0031860Y0127680D03*
X0031860Y0127620D03*
X0031860Y0129780D03*
X0031860Y0129840D03*
X0056340Y0164820D03*
X0051360Y0166080D03*
X0051360Y0166140D03*
X0066660Y0166260D03*
X0072480Y0166320D03*
D44*
X0072690Y0164100D03*
X0075690Y0164640D03*
X0075690Y0164700D03*
X0066030Y0168960D03*
X0064110Y0163140D03*
X0064110Y0163080D03*
X0064110Y0163020D03*
X0061290Y0162900D03*
X0058530Y0162900D03*
X0058530Y0162840D03*
X0058530Y0162780D03*
X0064110Y0158460D03*
X0062850Y0156900D03*
X0058530Y0158280D03*
X0051570Y0163920D03*
X0046950Y0166200D03*
X0046950Y0166260D03*
X0060690Y0148620D03*
X0063210Y0148680D03*
X0064110Y0146400D03*
X0064110Y0146340D03*
X0061890Y0145620D03*
X0058530Y0145020D03*
X0054330Y0135060D03*
X0053790Y0134700D03*
X0054090Y0133080D03*
X0047310Y0127620D03*
X0062490Y0133080D03*
X0070230Y0133260D03*
X0070290Y0133320D03*
X0070290Y0133380D03*
X0070350Y0133440D03*
X0070410Y0133560D03*
X0074250Y0133080D03*
X0081750Y0128880D03*
D45*
X0058650Y0129660D03*
X0058650Y0129720D03*
X0058650Y0129780D03*
X0058650Y0127800D03*
X0058650Y0127740D03*
X0058650Y0127680D03*
X0042450Y0127740D03*
X0042450Y0129720D03*
X0072450Y0166380D03*
D46*
X0072660Y0164160D03*
X0075660Y0164520D03*
X0075660Y0164580D03*
X0066060Y0168900D03*
X0064080Y0162960D03*
X0064080Y0162900D03*
X0064080Y0162840D03*
X0061260Y0162960D03*
X0061260Y0163020D03*
X0058560Y0162720D03*
X0058560Y0162660D03*
X0058560Y0162600D03*
X0064080Y0158520D03*
X0062880Y0156840D03*
X0060240Y0156960D03*
X0058560Y0158340D03*
X0056820Y0168120D03*
X0046980Y0166140D03*
X0064080Y0146460D03*
X0058560Y0145080D03*
X0058140Y0136500D03*
X0054240Y0135000D03*
X0053880Y0134760D03*
X0053940Y0136500D03*
X0050460Y0129780D03*
X0047340Y0127680D03*
X0062520Y0136500D03*
X0070380Y0133500D03*
X0074280Y0136500D03*
X0080100Y0129660D03*
X0083400Y0129660D03*
D47*
X0088290Y0129720D03*
X0088290Y0127740D03*
X0056370Y0164760D03*
X0061290Y0167640D03*
X0061290Y0167700D03*
X0061290Y0167760D03*
X0066690Y0166200D03*
X0031890Y0129720D03*
X0031890Y0127740D03*
X0037170Y0127740D03*
D48*
X0041520Y0133140D03*
X0047400Y0127740D03*
X0050400Y0129660D03*
X0054120Y0133140D03*
X0054060Y0134880D03*
X0058140Y0133140D03*
X0058620Y0145200D03*
X0064020Y0146640D03*
X0060180Y0156840D03*
X0058620Y0158400D03*
X0058620Y0162180D03*
X0058620Y0162240D03*
X0058620Y0162300D03*
X0058620Y0162360D03*
X0061260Y0163200D03*
X0064020Y0162600D03*
X0064020Y0162540D03*
X0064020Y0162480D03*
X0064020Y0159180D03*
X0064020Y0158580D03*
X0072660Y0164220D03*
X0072660Y0164280D03*
X0075600Y0164340D03*
X0075600Y0164400D03*
X0066060Y0168780D03*
X0051600Y0164040D03*
X0047040Y0166020D03*
D49*
X0051360Y0166200D03*
X0056340Y0164700D03*
X0066720Y0166140D03*
X0061740Y0143640D03*
X0058620Y0129600D03*
X0058620Y0127860D03*
X0042420Y0127860D03*
X0042420Y0127800D03*
X0042420Y0129600D03*
X0042420Y0129660D03*
X0037140Y0127860D03*
X0037140Y0127800D03*
X0031860Y0127800D03*
X0031860Y0127860D03*
X0031860Y0129600D03*
X0031860Y0129660D03*
X0088320Y0129660D03*
X0088320Y0129600D03*
X0088320Y0127860D03*
X0088320Y0127800D03*
D50*
X0063330Y0160320D03*
X0045630Y0136320D03*
X0047430Y0127800D03*
D51*
X0059550Y0150060D03*
X0059550Y0150120D03*
X0059550Y0150180D03*
X0059550Y0150240D03*
X0059550Y0150300D03*
X0059550Y0150360D03*
X0059550Y0150420D03*
X0059550Y0150480D03*
X0059550Y0150540D03*
X0059550Y0150600D03*
X0059550Y0150660D03*
X0059550Y0150720D03*
X0059550Y0150780D03*
X0059550Y0150840D03*
X0059550Y0150900D03*
X0059550Y0150960D03*
X0059550Y0151020D03*
X0059550Y0151080D03*
X0059550Y0151140D03*
X0059550Y0151200D03*
X0059550Y0151260D03*
X0061290Y0165960D03*
X0061290Y0166020D03*
X0061290Y0166080D03*
X0066450Y0167160D03*
X0072510Y0165600D03*
X0051450Y0165360D03*
X0072270Y0127860D03*
D52*
X0081750Y0129000D03*
X0083250Y0129480D03*
X0078390Y0136260D03*
X0066690Y0136260D03*
X0061890Y0145440D03*
X0063930Y0146880D03*
X0063930Y0147300D03*
X0058710Y0145440D03*
X0060090Y0156720D03*
X0063030Y0156600D03*
X0063930Y0158700D03*
X0063930Y0159120D03*
X0063930Y0161940D03*
X0063930Y0162000D03*
X0063930Y0162060D03*
X0061290Y0163440D03*
X0061290Y0163500D03*
X0058710Y0161760D03*
X0058710Y0161700D03*
X0058710Y0161640D03*
X0051570Y0164160D03*
X0047130Y0165780D03*
X0041430Y0136440D03*
X0041490Y0133200D03*
X0047490Y0127860D03*
X0050310Y0129540D03*
X0075510Y0164040D03*
X0075510Y0164100D03*
D53*
X0064500Y0159420D03*
X0062700Y0160020D03*
X0061260Y0161700D03*
X0060660Y0157560D03*
X0062400Y0157500D03*
X0062460Y0157440D03*
X0064500Y0145320D03*
X0064500Y0145260D03*
X0063600Y0135900D03*
X0063660Y0133740D03*
X0060660Y0129480D03*
X0060660Y0129420D03*
X0060660Y0129360D03*
X0060660Y0129300D03*
X0060660Y0129240D03*
X0060660Y0129180D03*
X0060660Y0129120D03*
X0060660Y0129060D03*
X0060660Y0129000D03*
X0060660Y0128940D03*
X0060660Y0128880D03*
X0060660Y0128820D03*
X0060660Y0128760D03*
X0060660Y0128700D03*
X0060660Y0128640D03*
X0060660Y0128580D03*
X0060660Y0128520D03*
X0060660Y0128460D03*
X0060660Y0128400D03*
X0060660Y0128340D03*
X0060660Y0128280D03*
X0060660Y0128220D03*
X0060660Y0128160D03*
X0060660Y0128100D03*
X0060660Y0128040D03*
X0060660Y0127980D03*
X0057000Y0135840D03*
X0047160Y0135720D03*
X0042660Y0135780D03*
X0042660Y0133860D03*
X0038700Y0133560D03*
X0038700Y0133500D03*
X0038700Y0133440D03*
X0038700Y0133380D03*
X0038700Y0133320D03*
X0035160Y0130320D03*
X0035160Y0130260D03*
X0035160Y0130200D03*
X0035160Y0130140D03*
X0035160Y0130080D03*
X0035160Y0130020D03*
X0035160Y0129960D03*
X0035160Y0129900D03*
X0035160Y0129840D03*
X0035160Y0129780D03*
X0035160Y0129720D03*
X0035160Y0129660D03*
X0035160Y0129600D03*
X0035160Y0129540D03*
X0035160Y0129480D03*
X0035160Y0129420D03*
X0035160Y0129360D03*
X0035160Y0129300D03*
X0035160Y0129240D03*
X0035160Y0129180D03*
X0035160Y0129120D03*
X0035160Y0129060D03*
X0035160Y0129000D03*
X0035160Y0128940D03*
X0035160Y0128880D03*
X0035160Y0128820D03*
X0035160Y0128760D03*
X0035160Y0128700D03*
X0035160Y0128640D03*
X0035160Y0128580D03*
X0035160Y0128520D03*
X0035160Y0128460D03*
X0035160Y0128400D03*
X0035160Y0128340D03*
X0035160Y0128280D03*
X0035160Y0128220D03*
X0035160Y0128160D03*
X0035160Y0128100D03*
X0035160Y0128040D03*
X0035160Y0127980D03*
X0035160Y0127920D03*
X0073260Y0135960D03*
X0075360Y0135900D03*
X0090300Y0129540D03*
X0090300Y0129480D03*
X0090300Y0129420D03*
X0090300Y0129360D03*
X0090300Y0129300D03*
X0090300Y0129240D03*
X0090300Y0129180D03*
X0090300Y0128100D03*
X0090300Y0128040D03*
X0090300Y0127980D03*
X0090300Y0127920D03*
X0046560Y0167220D03*
D54*
X0051540Y0164220D03*
X0058740Y0161580D03*
X0058740Y0161520D03*
X0058740Y0161460D03*
X0058740Y0158580D03*
X0066120Y0168600D03*
X0075480Y0163980D03*
X0075480Y0163920D03*
X0063420Y0148860D03*
X0060420Y0148800D03*
X0058740Y0147780D03*
X0058740Y0145500D03*
X0062520Y0136380D03*
X0058140Y0133200D03*
X0054120Y0133200D03*
X0047520Y0127920D03*
X0074220Y0133200D03*
X0078420Y0136200D03*
X0080280Y0129420D03*
X0083220Y0129420D03*
D55*
X0074250Y0136380D03*
X0062490Y0133200D03*
X0058170Y0136380D03*
X0053910Y0136380D03*
X0050250Y0129480D03*
X0047550Y0127980D03*
X0041430Y0136380D03*
X0058770Y0145560D03*
X0061890Y0145320D03*
X0063870Y0147060D03*
X0063090Y0156540D03*
X0063870Y0158820D03*
X0063450Y0160380D03*
X0063870Y0161580D03*
X0063870Y0161640D03*
X0063870Y0161700D03*
X0061290Y0163620D03*
X0061290Y0163680D03*
X0058770Y0161400D03*
X0058770Y0161340D03*
X0058770Y0161280D03*
X0058770Y0158880D03*
X0058770Y0158640D03*
X0060030Y0156660D03*
X0056730Y0167640D03*
X0066150Y0168480D03*
X0066150Y0168540D03*
X0072630Y0164460D03*
X0075450Y0163860D03*
X0047190Y0165600D03*
X0047190Y0165660D03*
D56*
X0047250Y0165480D03*
X0051570Y0164340D03*
X0056730Y0167520D03*
X0061290Y0163860D03*
X0061290Y0163800D03*
X0063810Y0161340D03*
X0063810Y0161280D03*
X0063810Y0161220D03*
X0063810Y0159060D03*
X0063810Y0158880D03*
X0059970Y0156540D03*
X0058830Y0158700D03*
X0059010Y0160380D03*
X0058830Y0160920D03*
X0058830Y0160980D03*
X0058830Y0161040D03*
X0066150Y0168420D03*
X0072630Y0164580D03*
X0063810Y0147180D03*
X0061890Y0145260D03*
X0058830Y0145680D03*
X0062550Y0136320D03*
X0062490Y0133260D03*
X0066690Y0136080D03*
X0074250Y0136320D03*
X0078390Y0136080D03*
X0081750Y0129060D03*
X0054150Y0133260D03*
X0054090Y0136080D03*
X0054030Y0136140D03*
X0054030Y0136200D03*
X0053970Y0136260D03*
X0045630Y0136080D03*
X0047610Y0128040D03*
D57*
X0047640Y0128100D03*
X0050160Y0129360D03*
X0058140Y0136320D03*
X0061860Y0145200D03*
X0058860Y0145740D03*
X0063180Y0156420D03*
X0063780Y0158940D03*
X0063780Y0161040D03*
X0063780Y0161100D03*
X0063780Y0161160D03*
X0061260Y0163920D03*
X0058860Y0160860D03*
X0058860Y0160800D03*
X0058860Y0160740D03*
X0058860Y0158820D03*
X0058860Y0158760D03*
X0056700Y0167460D03*
X0051540Y0164400D03*
X0047280Y0165420D03*
X0066180Y0168360D03*
X0074220Y0133260D03*
D58*
X0074220Y0133320D03*
X0062460Y0133320D03*
X0062520Y0136260D03*
X0058140Y0136260D03*
X0054180Y0133320D03*
X0054540Y0129120D03*
X0054540Y0128340D03*
X0050100Y0129240D03*
X0047700Y0128160D03*
X0061860Y0145140D03*
X0058920Y0145860D03*
X0058920Y0145920D03*
X0059880Y0156420D03*
X0063240Y0156300D03*
X0063660Y0160500D03*
X0063720Y0160680D03*
X0063720Y0160740D03*
X0063720Y0160800D03*
X0061260Y0164100D03*
X0058920Y0160440D03*
X0056700Y0167280D03*
X0056700Y0167340D03*
X0051540Y0164460D03*
X0047340Y0165240D03*
D59*
X0063630Y0149040D03*
X0072630Y0164700D03*
X0041430Y0136260D03*
X0047730Y0128220D03*
D60*
X0047790Y0128280D03*
X0054210Y0133440D03*
X0062490Y0133380D03*
X0059010Y0146100D03*
X0063630Y0149820D03*
X0063630Y0149880D03*
X0063630Y0149940D03*
X0063630Y0150000D03*
X0063630Y0150060D03*
X0063630Y0150120D03*
X0063630Y0150180D03*
X0063630Y0150240D03*
X0063630Y0150300D03*
X0063630Y0150360D03*
X0063630Y0150420D03*
X0063630Y0150480D03*
X0063630Y0150540D03*
X0063630Y0150600D03*
X0063630Y0150660D03*
X0063630Y0150720D03*
X0063630Y0150780D03*
X0063630Y0150840D03*
X0063630Y0150900D03*
X0063630Y0150960D03*
X0063630Y0151020D03*
X0063390Y0156120D03*
X0063330Y0156180D03*
X0059850Y0156360D03*
X0061290Y0164340D03*
X0061290Y0164400D03*
X0056670Y0167100D03*
X0056670Y0167160D03*
X0051510Y0164640D03*
X0051510Y0164580D03*
X0047430Y0165000D03*
X0047430Y0165060D03*
X0041430Y0136200D03*
X0041490Y0133440D03*
X0081750Y0129180D03*
D61*
X0081750Y0128340D03*
X0064950Y0144060D03*
X0061410Y0133920D03*
X0040410Y0134040D03*
X0061050Y0158160D03*
X0061950Y0158160D03*
X0046110Y0168300D03*
X0046110Y0168360D03*
D62*
X0047730Y0164280D03*
X0061290Y0165240D03*
X0061290Y0165300D03*
X0061290Y0165360D03*
X0072570Y0165240D03*
X0059310Y0146760D03*
X0061830Y0144660D03*
X0077190Y0128340D03*
D63*
X0078420Y0136140D03*
X0066660Y0136140D03*
X0067800Y0128340D03*
X0058140Y0133260D03*
X0053940Y0136320D03*
X0050220Y0129420D03*
X0045660Y0136140D03*
X0041520Y0133260D03*
X0058800Y0145620D03*
X0058800Y0147720D03*
X0060360Y0148860D03*
X0063840Y0147240D03*
X0063840Y0147120D03*
X0063120Y0156480D03*
X0060000Y0156600D03*
X0058800Y0161100D03*
X0058800Y0161160D03*
X0058800Y0161220D03*
X0061260Y0163740D03*
X0063840Y0161520D03*
X0063840Y0161460D03*
X0063840Y0161400D03*
X0056760Y0167580D03*
X0051540Y0164280D03*
X0047220Y0165540D03*
X0072660Y0164520D03*
X0075420Y0163800D03*
X0075420Y0163740D03*
D64*
X0066270Y0167880D03*
X0061290Y0164820D03*
X0061290Y0164760D03*
X0061290Y0164700D03*
X0059730Y0156180D03*
X0063510Y0155940D03*
X0063510Y0155880D03*
X0063510Y0155820D03*
X0063510Y0155760D03*
X0063510Y0155700D03*
X0063510Y0155640D03*
X0063510Y0155580D03*
X0063510Y0155520D03*
X0063510Y0155460D03*
X0063510Y0155400D03*
X0063510Y0155340D03*
X0063510Y0155280D03*
X0063510Y0155220D03*
X0063510Y0155160D03*
X0063510Y0155100D03*
X0063510Y0155040D03*
X0063510Y0154980D03*
X0063510Y0154920D03*
X0059130Y0147480D03*
X0059130Y0146400D03*
X0059130Y0146340D03*
X0061830Y0144900D03*
X0062490Y0133560D03*
X0062490Y0133500D03*
X0058170Y0133560D03*
X0057630Y0129060D03*
X0057630Y0129000D03*
X0057630Y0128940D03*
X0057630Y0128880D03*
X0057630Y0128820D03*
X0057630Y0128760D03*
X0057630Y0128700D03*
X0057630Y0128640D03*
X0057630Y0128580D03*
X0057630Y0128520D03*
X0057630Y0128460D03*
X0057630Y0128400D03*
X0057630Y0128340D03*
X0041490Y0133560D03*
X0047550Y0164700D03*
X0047550Y0164760D03*
X0051510Y0164760D03*
X0074250Y0133560D03*
D65*
X0078420Y0136440D03*
X0080040Y0129720D03*
X0083460Y0129720D03*
X0066660Y0136440D03*
X0058500Y0144960D03*
X0061920Y0145680D03*
X0058500Y0147960D03*
X0064140Y0147480D03*
X0064140Y0146280D03*
X0060300Y0157020D03*
X0058500Y0159060D03*
X0059400Y0160140D03*
X0058500Y0162960D03*
X0058500Y0163020D03*
X0058500Y0163080D03*
X0061260Y0162840D03*
X0061260Y0162780D03*
X0064140Y0163200D03*
X0064140Y0163260D03*
X0064140Y0163320D03*
X0064140Y0159240D03*
X0064140Y0158400D03*
X0056820Y0168180D03*
X0056820Y0168240D03*
X0051600Y0163860D03*
X0046920Y0166320D03*
X0075720Y0164760D03*
X0053700Y0134640D03*
X0058140Y0133080D03*
X0050520Y0129840D03*
X0049500Y0129120D03*
X0049320Y0129000D03*
X0049200Y0128940D03*
X0049140Y0128880D03*
X0048960Y0128760D03*
X0048900Y0128700D03*
X0048720Y0128580D03*
X0048600Y0128520D03*
X0048540Y0128460D03*
X0048360Y0128340D03*
X0041520Y0133080D03*
X0045660Y0136440D03*
D66*
X0040410Y0133980D03*
X0057750Y0143220D03*
X0057750Y0143280D03*
X0061470Y0148020D03*
X0064890Y0148140D03*
X0064890Y0144240D03*
X0064890Y0144180D03*
X0061410Y0133860D03*
X0069690Y0133680D03*
X0073170Y0133860D03*
X0081750Y0128400D03*
X0064890Y0157320D03*
X0061290Y0160500D03*
X0076470Y0167280D03*
X0046170Y0168180D03*
D67*
X0047910Y0163860D03*
X0047910Y0163800D03*
X0051450Y0165300D03*
X0056550Y0166080D03*
X0066450Y0167220D03*
X0062550Y0135000D03*
X0062550Y0134940D03*
X0062550Y0134880D03*
X0062550Y0134820D03*
X0062550Y0134760D03*
X0062550Y0134700D03*
X0062550Y0134640D03*
X0062550Y0134580D03*
X0062550Y0134520D03*
X0074310Y0134520D03*
X0074310Y0134580D03*
X0074310Y0134640D03*
X0074310Y0134700D03*
X0074310Y0134760D03*
X0074310Y0134820D03*
X0074310Y0134880D03*
X0074310Y0134940D03*
X0074310Y0135000D03*
X0074310Y0135060D03*
X0077010Y0130320D03*
X0077010Y0128400D03*
D68*
X0067800Y0128400D03*
X0059160Y0146460D03*
X0059700Y0156120D03*
X0051480Y0164820D03*
X0047580Y0164640D03*
X0056640Y0166800D03*
X0056640Y0166860D03*
X0066300Y0167820D03*
X0072600Y0165000D03*
D69*
X0066210Y0168180D03*
X0066210Y0168240D03*
X0061290Y0164220D03*
X0061290Y0164160D03*
X0063690Y0160620D03*
X0063690Y0160560D03*
X0051510Y0164520D03*
X0047370Y0165180D03*
X0060210Y0148980D03*
X0058950Y0145980D03*
X0054210Y0133380D03*
X0054510Y0129060D03*
X0054510Y0129000D03*
X0054510Y0128940D03*
X0054510Y0128880D03*
X0054510Y0128820D03*
X0054510Y0128760D03*
X0054510Y0128700D03*
X0054510Y0128640D03*
X0054510Y0128580D03*
X0054510Y0128520D03*
X0054510Y0128460D03*
X0054510Y0128400D03*
X0041490Y0133380D03*
D70*
X0053190Y0135960D03*
X0057870Y0143520D03*
X0061950Y0146460D03*
X0062610Y0148140D03*
X0064770Y0148020D03*
X0064770Y0144540D03*
X0062550Y0132900D03*
X0074250Y0132900D03*
X0081750Y0128460D03*
X0064770Y0157500D03*
X0061290Y0160860D03*
X0060210Y0159660D03*
X0057870Y0159480D03*
X0057870Y0157320D03*
X0057030Y0169620D03*
X0046290Y0167880D03*
X0076350Y0166920D03*
X0076350Y0166860D03*
D71*
X0066360Y0167520D03*
X0047760Y0164220D03*
X0077160Y0130380D03*
X0067800Y0128460D03*
D72*
X0067800Y0129000D03*
X0067800Y0129060D03*
X0067800Y0129120D03*
X0076680Y0129120D03*
X0076680Y0129060D03*
X0076680Y0129000D03*
X0076680Y0128940D03*
X0076680Y0129600D03*
X0076680Y0129660D03*
X0076680Y0129720D03*
X0076680Y0129780D03*
X0088560Y0129000D03*
X0072480Y0165960D03*
X0061320Y0166860D03*
X0056460Y0165360D03*
X0031620Y0128460D03*
D73*
X0031680Y0128520D03*
X0032040Y0128940D03*
X0031860Y0130080D03*
X0056400Y0165180D03*
X0056400Y0165240D03*
X0061320Y0167040D03*
X0066600Y0166560D03*
X0072480Y0166080D03*
X0088320Y0130080D03*
X0088500Y0128940D03*
X0088140Y0128520D03*
D74*
X0081780Y0128520D03*
X0064680Y0144780D03*
X0061980Y0146340D03*
X0064680Y0147960D03*
X0057960Y0148380D03*
X0057960Y0143700D03*
X0064680Y0157620D03*
X0061260Y0161100D03*
X0061260Y0161160D03*
X0060120Y0159720D03*
X0057960Y0159420D03*
X0057000Y0169380D03*
X0057000Y0169440D03*
X0046380Y0167640D03*
X0076260Y0166620D03*
X0076260Y0166560D03*
D75*
X0049380Y0129060D03*
X0048780Y0128640D03*
D76*
X0053790Y0129720D03*
X0061770Y0144120D03*
X0076770Y0130020D03*
X0076770Y0128700D03*
X0072510Y0165840D03*
X0061290Y0166560D03*
X0061290Y0166620D03*
D77*
X0061800Y0144240D03*
X0067800Y0128700D03*
D78*
X0079890Y0129900D03*
X0081750Y0128760D03*
X0079710Y0135960D03*
X0064290Y0145860D03*
X0064290Y0145920D03*
X0058350Y0144600D03*
X0058350Y0148080D03*
X0060450Y0157260D03*
X0062670Y0157140D03*
X0062970Y0160140D03*
X0061290Y0162360D03*
X0059610Y0160020D03*
X0058350Y0158040D03*
X0065970Y0169260D03*
X0072690Y0163860D03*
X0075870Y0165240D03*
X0075870Y0165300D03*
X0046770Y0166680D03*
X0046950Y0135960D03*
X0041490Y0133020D03*
X0053490Y0134520D03*
X0054090Y0133020D03*
D79*
X0067800Y0128880D03*
X0067800Y0128820D03*
X0076740Y0128760D03*
X0076740Y0129960D03*
X0072480Y0165900D03*
X0066540Y0166800D03*
X0061320Y0166680D03*
X0056460Y0165540D03*
X0056460Y0165480D03*
X0051420Y0165660D03*
D80*
X0047010Y0166080D03*
X0059310Y0160200D03*
X0060210Y0156900D03*
X0062910Y0156780D03*
X0063210Y0160260D03*
X0064050Y0162660D03*
X0064050Y0162720D03*
X0064050Y0162780D03*
X0064050Y0147420D03*
X0064050Y0146580D03*
X0064050Y0146520D03*
X0054150Y0134940D03*
X0081750Y0128940D03*
D81*
X0056430Y0165300D03*
X0032130Y0129000D03*
D82*
X0059910Y0156480D03*
X0063210Y0156360D03*
X0063750Y0159000D03*
X0063750Y0160860D03*
X0063750Y0160920D03*
X0063750Y0160980D03*
X0066210Y0168300D03*
X0047310Y0165360D03*
X0047310Y0165300D03*
X0074250Y0136260D03*
X0081750Y0129120D03*
D83*
X0074220Y0133500D03*
X0062520Y0136080D03*
X0058140Y0136080D03*
X0058140Y0133500D03*
X0057660Y0129120D03*
X0059100Y0146280D03*
X0060060Y0149100D03*
X0063540Y0153660D03*
X0063540Y0153720D03*
X0063540Y0153780D03*
X0063540Y0153840D03*
X0063540Y0153900D03*
X0063540Y0153960D03*
X0063540Y0154020D03*
X0063540Y0154080D03*
X0063540Y0154140D03*
X0063540Y0154200D03*
X0063540Y0154260D03*
X0063540Y0154320D03*
X0063540Y0154380D03*
X0063540Y0154440D03*
X0063540Y0154500D03*
X0063540Y0154560D03*
X0063540Y0154620D03*
X0063540Y0154680D03*
X0063540Y0154740D03*
X0063540Y0154800D03*
X0063540Y0154860D03*
X0061260Y0164640D03*
X0056640Y0166920D03*
X0047520Y0164820D03*
X0066300Y0167940D03*
X0072600Y0164940D03*
D84*
X0072600Y0164760D03*
X0066240Y0168120D03*
X0061260Y0164280D03*
X0056700Y0167220D03*
X0047400Y0165120D03*
X0063300Y0156240D03*
X0063660Y0149760D03*
X0063660Y0149700D03*
X0063660Y0149640D03*
X0063660Y0149580D03*
X0063660Y0149520D03*
X0063660Y0149460D03*
X0063660Y0149400D03*
X0063660Y0149340D03*
X0063660Y0149280D03*
X0063660Y0149220D03*
X0063660Y0149160D03*
X0063660Y0149100D03*
X0058980Y0147600D03*
X0058980Y0146040D03*
X0061860Y0145080D03*
X0062520Y0136200D03*
X0058140Y0136200D03*
X0058140Y0133380D03*
X0050040Y0129180D03*
X0074220Y0133380D03*
X0074280Y0136200D03*
D85*
X0063570Y0148980D03*
X0060270Y0148920D03*
X0058890Y0147660D03*
X0058890Y0145800D03*
X0058170Y0133320D03*
X0050130Y0129300D03*
X0041490Y0133320D03*
X0041430Y0136320D03*
X0058890Y0160500D03*
X0058890Y0160560D03*
X0058890Y0160620D03*
X0058890Y0160680D03*
X0061290Y0163980D03*
X0061290Y0164040D03*
X0063570Y0160440D03*
X0056730Y0167400D03*
X0072630Y0164640D03*
D86*
X0075930Y0165420D03*
X0075930Y0165480D03*
X0061290Y0162180D03*
X0061290Y0162120D03*
X0060930Y0148440D03*
X0063030Y0148500D03*
X0058290Y0144480D03*
X0058170Y0136620D03*
X0059070Y0133620D03*
X0053370Y0134460D03*
X0053970Y0136620D03*
X0050730Y0130140D03*
X0042390Y0135960D03*
X0041430Y0136620D03*
X0068070Y0135900D03*
X0070230Y0133080D03*
X0079770Y0135900D03*
X0080790Y0129360D03*
X0083670Y0130020D03*
D87*
X0080220Y0129480D03*
X0074220Y0133140D03*
X0062520Y0136440D03*
X0058140Y0136440D03*
X0053940Y0136440D03*
X0050340Y0129600D03*
X0045660Y0136260D03*
X0058680Y0145320D03*
X0058680Y0145380D03*
X0060540Y0148740D03*
X0063360Y0148800D03*
X0063960Y0146820D03*
X0063960Y0146760D03*
X0063000Y0156660D03*
X0060120Y0156780D03*
X0058680Y0158520D03*
X0058680Y0158940D03*
X0059220Y0160260D03*
X0058680Y0161820D03*
X0058680Y0161880D03*
X0058680Y0161940D03*
X0061260Y0163380D03*
X0063960Y0162240D03*
X0063960Y0162180D03*
X0063960Y0162120D03*
X0056760Y0167820D03*
X0066120Y0168660D03*
X0072660Y0164340D03*
X0075540Y0164160D03*
X0047100Y0165840D03*
D88*
X0047070Y0165900D03*
X0047070Y0165960D03*
X0051570Y0164100D03*
X0056790Y0167880D03*
X0056790Y0167940D03*
X0061290Y0163320D03*
X0061290Y0163260D03*
X0063990Y0162420D03*
X0063990Y0162360D03*
X0063990Y0162300D03*
X0063990Y0158640D03*
X0062970Y0156720D03*
X0058650Y0158460D03*
X0058650Y0162000D03*
X0058650Y0162060D03*
X0058650Y0162120D03*
X0066090Y0168720D03*
X0075570Y0164280D03*
X0075570Y0164220D03*
X0063990Y0147360D03*
X0063990Y0146700D03*
X0061890Y0145500D03*
X0058650Y0145260D03*
X0058650Y0147840D03*
X0066690Y0136320D03*
X0062490Y0133140D03*
X0074250Y0136440D03*
X0078390Y0136320D03*
X0080190Y0129540D03*
X0083310Y0129540D03*
D89*
X0083370Y0129600D03*
X0080130Y0129600D03*
X0078390Y0136380D03*
X0066690Y0136380D03*
X0058590Y0145140D03*
X0061890Y0145560D03*
X0060630Y0148680D03*
X0058590Y0147900D03*
X0063270Y0148740D03*
X0058590Y0159000D03*
X0058590Y0162420D03*
X0058590Y0162480D03*
X0058590Y0162540D03*
X0061290Y0163080D03*
X0061290Y0163140D03*
X0056790Y0168000D03*
X0056790Y0168060D03*
X0051570Y0163980D03*
X0066090Y0168840D03*
X0075630Y0164460D03*
X0053970Y0134820D03*
X0050430Y0129720D03*
X0045630Y0136380D03*
X0041430Y0136500D03*
D90*
X0042300Y0133620D03*
X0050640Y0130020D03*
X0054540Y0135180D03*
X0057360Y0136020D03*
X0058920Y0136020D03*
X0058140Y0133020D03*
X0067980Y0135960D03*
X0070260Y0133140D03*
X0083580Y0129900D03*
X0064260Y0145980D03*
X0064260Y0147600D03*
X0063060Y0148560D03*
X0060840Y0148500D03*
X0061920Y0145800D03*
X0058380Y0144660D03*
X0060420Y0157200D03*
X0064260Y0158220D03*
X0064260Y0159300D03*
X0061260Y0162420D03*
X0061260Y0162480D03*
X0058380Y0163680D03*
X0056880Y0168480D03*
X0056880Y0168540D03*
X0066000Y0169200D03*
X0075840Y0165180D03*
X0075840Y0165120D03*
X0046800Y0166620D03*
D91*
X0046620Y0167040D03*
X0056940Y0168900D03*
X0061260Y0161880D03*
X0059820Y0159900D03*
X0058200Y0157800D03*
X0062520Y0157380D03*
X0064440Y0157980D03*
X0058200Y0148200D03*
X0058200Y0144300D03*
X0058200Y0144240D03*
X0061920Y0146040D03*
X0064440Y0145500D03*
X0064440Y0145440D03*
X0066660Y0136620D03*
X0066000Y0135960D03*
X0068160Y0135780D03*
X0062520Y0132960D03*
X0058140Y0132960D03*
X0057120Y0133680D03*
X0054960Y0133620D03*
X0050820Y0130260D03*
X0047100Y0135780D03*
X0045660Y0136620D03*
X0042540Y0133740D03*
X0076020Y0165720D03*
X0076020Y0165780D03*
X0078420Y0136620D03*
X0079860Y0135780D03*
X0083760Y0130140D03*
D92*
X0070230Y0132900D03*
X0038730Y0132900D03*
X0038730Y0133920D03*
D93*
X0040440Y0133860D03*
X0041520Y0132900D03*
X0055140Y0133860D03*
X0058140Y0132900D03*
X0061440Y0133800D03*
X0069720Y0133620D03*
X0057840Y0143460D03*
X0061980Y0146520D03*
X0061380Y0148080D03*
X0062340Y0159840D03*
X0076380Y0166980D03*
D94*
X0076410Y0167040D03*
X0076410Y0167100D03*
X0064830Y0159600D03*
X0064830Y0157380D03*
X0062070Y0157980D03*
X0060930Y0157980D03*
X0061290Y0160680D03*
X0057810Y0157260D03*
X0057810Y0148500D03*
X0057810Y0143400D03*
X0062550Y0148080D03*
X0064830Y0148080D03*
X0064830Y0144420D03*
X0064830Y0144360D03*
X0073170Y0133800D03*
X0054030Y0132900D03*
X0053130Y0135900D03*
X0046230Y0168000D03*
X0046230Y0168060D03*
X0057030Y0169680D03*
X0057030Y0169740D03*
D95*
X0065820Y0169860D03*
X0061260Y0161340D03*
X0061260Y0161280D03*
X0060000Y0159780D03*
X0058020Y0157560D03*
X0062280Y0157680D03*
X0062760Y0148260D03*
X0064620Y0147900D03*
X0064620Y0144960D03*
X0068340Y0138060D03*
X0068340Y0138000D03*
X0068340Y0137940D03*
X0068340Y0137880D03*
X0068340Y0137820D03*
X0068340Y0137760D03*
X0068340Y0137700D03*
X0068340Y0137640D03*
X0068340Y0137580D03*
X0068340Y0137520D03*
X0068340Y0137460D03*
X0068340Y0137400D03*
X0068340Y0137340D03*
X0068340Y0137280D03*
X0068340Y0137220D03*
X0068340Y0137160D03*
X0068340Y0137100D03*
X0068340Y0137040D03*
X0068340Y0136980D03*
X0068340Y0136920D03*
X0068340Y0136860D03*
X0068340Y0136800D03*
X0068340Y0136740D03*
X0068340Y0136680D03*
X0068340Y0136620D03*
X0068340Y0136560D03*
X0068340Y0136500D03*
X0068340Y0136440D03*
X0068340Y0136380D03*
X0068340Y0136320D03*
X0068340Y0136260D03*
X0068340Y0136200D03*
X0068340Y0136140D03*
X0068340Y0136080D03*
X0068340Y0134940D03*
X0068340Y0134880D03*
X0068340Y0134820D03*
X0068340Y0134760D03*
X0068340Y0134700D03*
X0068340Y0134640D03*
X0068340Y0134580D03*
X0068340Y0134520D03*
X0068340Y0134460D03*
X0068340Y0134400D03*
X0068340Y0134340D03*
X0068340Y0134280D03*
X0068340Y0134220D03*
X0068340Y0134160D03*
X0068340Y0134100D03*
X0068340Y0134040D03*
X0068340Y0133980D03*
X0068340Y0133920D03*
X0068340Y0133860D03*
X0068340Y0133800D03*
X0068340Y0133740D03*
X0068340Y0133680D03*
X0068340Y0133620D03*
X0068340Y0133560D03*
X0068340Y0133500D03*
X0068340Y0133440D03*
X0068340Y0133380D03*
X0068340Y0133320D03*
X0068340Y0133260D03*
X0068340Y0133200D03*
X0068340Y0133140D03*
X0068340Y0133080D03*
X0068340Y0133020D03*
X0070260Y0132960D03*
X0071040Y0133920D03*
X0071040Y0133980D03*
X0071040Y0134040D03*
X0071040Y0134100D03*
X0071040Y0134160D03*
X0071040Y0134220D03*
X0071040Y0134280D03*
X0071040Y0134340D03*
X0071040Y0134400D03*
X0071040Y0134460D03*
X0071040Y0134520D03*
X0071040Y0134580D03*
X0071040Y0134640D03*
X0071040Y0134700D03*
X0071040Y0134760D03*
X0071040Y0134820D03*
X0071040Y0134880D03*
X0071040Y0134940D03*
X0071040Y0135000D03*
X0071040Y0135060D03*
X0071040Y0135120D03*
X0071040Y0135180D03*
X0071040Y0135240D03*
X0071040Y0135300D03*
X0071040Y0135360D03*
X0071040Y0135420D03*
X0071040Y0135480D03*
X0071040Y0135540D03*
X0071040Y0135600D03*
X0071040Y0135660D03*
X0071040Y0135720D03*
X0071040Y0135780D03*
X0071040Y0135840D03*
X0071040Y0135900D03*
X0071040Y0135960D03*
X0071040Y0136020D03*
X0071040Y0136740D03*
X0071040Y0136800D03*
X0071040Y0136860D03*
X0071040Y0136920D03*
X0071040Y0136980D03*
X0071040Y0137040D03*
X0071040Y0137100D03*
X0071040Y0137160D03*
X0071040Y0137220D03*
X0071040Y0137280D03*
X0071040Y0137340D03*
X0071040Y0137400D03*
X0071040Y0137460D03*
X0071040Y0137520D03*
X0071040Y0137580D03*
X0071040Y0137640D03*
X0071040Y0137700D03*
X0071040Y0137760D03*
X0071040Y0137820D03*
X0072960Y0135600D03*
X0072900Y0135480D03*
X0072900Y0135420D03*
X0072900Y0135360D03*
X0072840Y0135240D03*
X0072840Y0135180D03*
X0072840Y0135120D03*
X0075600Y0135600D03*
X0075660Y0135540D03*
X0075660Y0135480D03*
X0075720Y0135360D03*
X0075720Y0135300D03*
X0075720Y0134460D03*
X0075720Y0134340D03*
X0075720Y0134280D03*
X0075720Y0134220D03*
X0075660Y0134160D03*
X0075660Y0134100D03*
X0075600Y0133980D03*
X0077400Y0133980D03*
X0077400Y0134040D03*
X0077400Y0134100D03*
X0077400Y0134160D03*
X0077400Y0134220D03*
X0077400Y0134280D03*
X0077400Y0134340D03*
X0077400Y0134400D03*
X0077400Y0134460D03*
X0077400Y0134520D03*
X0077400Y0134580D03*
X0077400Y0134640D03*
X0077400Y0134700D03*
X0077400Y0134760D03*
X0077400Y0134820D03*
X0077400Y0134880D03*
X0077400Y0134940D03*
X0077400Y0135000D03*
X0077400Y0135060D03*
X0077400Y0135120D03*
X0077400Y0135180D03*
X0077400Y0135240D03*
X0077400Y0133920D03*
X0077400Y0133860D03*
X0077400Y0133800D03*
X0077400Y0133740D03*
X0077400Y0133680D03*
X0077400Y0133620D03*
X0077400Y0133560D03*
X0077400Y0133500D03*
X0077400Y0133440D03*
X0077400Y0133380D03*
X0077400Y0133320D03*
X0077400Y0133260D03*
X0077400Y0133200D03*
X0077400Y0133140D03*
X0077400Y0133080D03*
X0077400Y0133020D03*
X0077400Y0132960D03*
X0080040Y0132960D03*
X0080040Y0133020D03*
X0080040Y0133080D03*
X0080040Y0133140D03*
X0080040Y0133200D03*
X0080040Y0133260D03*
X0080040Y0133320D03*
X0080040Y0133380D03*
X0080040Y0133440D03*
X0080040Y0133500D03*
X0080040Y0133560D03*
X0080040Y0133620D03*
X0080040Y0133680D03*
X0080040Y0133740D03*
X0080040Y0133800D03*
X0080040Y0133860D03*
X0080040Y0133920D03*
X0080040Y0133980D03*
X0080040Y0134040D03*
X0080040Y0134100D03*
X0080040Y0134160D03*
X0080040Y0134220D03*
X0080040Y0134280D03*
X0080040Y0134340D03*
X0080040Y0134400D03*
X0080040Y0134460D03*
X0080040Y0134520D03*
X0080040Y0134580D03*
X0080040Y0134640D03*
X0080040Y0134700D03*
X0080040Y0134760D03*
X0080040Y0134820D03*
X0080040Y0134880D03*
X0080040Y0134940D03*
X0080040Y0135000D03*
X0080040Y0135060D03*
X0080040Y0135120D03*
X0080040Y0135180D03*
X0080040Y0135240D03*
X0080040Y0136080D03*
X0080040Y0136140D03*
X0080040Y0136200D03*
X0080040Y0136260D03*
X0080040Y0136320D03*
X0080040Y0136380D03*
X0080040Y0136440D03*
X0080040Y0136500D03*
X0080040Y0136560D03*
X0080040Y0136620D03*
X0080040Y0136680D03*
X0080040Y0136740D03*
X0080040Y0136800D03*
X0080040Y0136860D03*
X0080040Y0136920D03*
X0080040Y0136980D03*
X0080040Y0137040D03*
X0080040Y0137100D03*
X0080040Y0137160D03*
X0080040Y0137220D03*
X0080040Y0137280D03*
X0080040Y0137340D03*
X0080040Y0137400D03*
X0080040Y0137460D03*
X0080040Y0137520D03*
X0080040Y0137580D03*
X0080040Y0137640D03*
X0080040Y0137700D03*
X0080040Y0137760D03*
X0080040Y0137820D03*
X0080040Y0137880D03*
X0080040Y0137940D03*
X0080040Y0138000D03*
X0080040Y0138060D03*
X0080040Y0138120D03*
X0083100Y0132960D03*
X0066660Y0136680D03*
X0065700Y0135420D03*
X0065700Y0135360D03*
X0064020Y0135240D03*
X0064020Y0135180D03*
X0064020Y0135120D03*
X0063960Y0135360D03*
X0063960Y0135420D03*
X0063900Y0135540D03*
X0063840Y0135660D03*
X0064020Y0134460D03*
X0064020Y0134400D03*
X0063960Y0134220D03*
X0063960Y0134160D03*
X0063900Y0134100D03*
X0063900Y0134040D03*
X0061140Y0135120D03*
X0061140Y0135180D03*
X0061140Y0135240D03*
X0061140Y0135300D03*
X0061140Y0135360D03*
X0061140Y0135420D03*
X0061200Y0135540D03*
X0059700Y0135120D03*
X0059700Y0135060D03*
X0059700Y0135000D03*
X0059700Y0134940D03*
X0059700Y0134880D03*
X0059700Y0134820D03*
X0059700Y0134760D03*
X0059700Y0134700D03*
X0059700Y0134640D03*
X0059700Y0134580D03*
X0059700Y0134520D03*
X0059640Y0134340D03*
X0059640Y0134280D03*
X0059640Y0135300D03*
X0056640Y0135300D03*
X0056640Y0135240D03*
X0056640Y0135180D03*
X0056580Y0135060D03*
X0056580Y0135000D03*
X0056580Y0134940D03*
X0056580Y0134880D03*
X0056580Y0134820D03*
X0056580Y0134760D03*
X0056580Y0134700D03*
X0056580Y0134640D03*
X0056580Y0134580D03*
X0056580Y0134520D03*
X0056640Y0134400D03*
X0056640Y0134340D03*
X0055020Y0135540D03*
X0055020Y0135600D03*
X0055020Y0135660D03*
X0055020Y0135720D03*
X0055020Y0135780D03*
X0054960Y0135900D03*
X0053040Y0134100D03*
X0053040Y0134040D03*
X0053040Y0133980D03*
X0053040Y0133920D03*
X0053040Y0133860D03*
X0049320Y0133860D03*
X0049320Y0133920D03*
X0049320Y0133980D03*
X0049320Y0134040D03*
X0049320Y0134100D03*
X0049320Y0134160D03*
X0049320Y0134220D03*
X0049320Y0134280D03*
X0049320Y0134340D03*
X0049320Y0134400D03*
X0049320Y0134460D03*
X0049320Y0134520D03*
X0049320Y0134580D03*
X0049320Y0134640D03*
X0049320Y0134700D03*
X0049320Y0134760D03*
X0049320Y0134820D03*
X0049320Y0134880D03*
X0049320Y0134940D03*
X0049320Y0135000D03*
X0049320Y0135060D03*
X0049320Y0135120D03*
X0049320Y0135180D03*
X0049320Y0135240D03*
X0049320Y0135300D03*
X0049320Y0135360D03*
X0049320Y0135420D03*
X0049320Y0135480D03*
X0049320Y0135540D03*
X0049320Y0135600D03*
X0049320Y0135660D03*
X0049320Y0135720D03*
X0049320Y0135780D03*
X0049320Y0135840D03*
X0049320Y0135900D03*
X0049320Y0135960D03*
X0049320Y0136020D03*
X0049320Y0136080D03*
X0049320Y0136140D03*
X0049320Y0136200D03*
X0049320Y0136260D03*
X0049320Y0136320D03*
X0049320Y0136380D03*
X0049320Y0136440D03*
X0049320Y0136500D03*
X0049320Y0136560D03*
X0049320Y0136620D03*
X0049320Y0136680D03*
X0049320Y0136740D03*
X0049320Y0136800D03*
X0049320Y0136860D03*
X0049320Y0136920D03*
X0049320Y0136980D03*
X0049320Y0137040D03*
X0049320Y0137100D03*
X0049320Y0137160D03*
X0049320Y0137220D03*
X0049320Y0137280D03*
X0049320Y0137340D03*
X0049320Y0137400D03*
X0049320Y0137460D03*
X0049320Y0137520D03*
X0049320Y0137580D03*
X0049320Y0137640D03*
X0049320Y0137700D03*
X0049320Y0137760D03*
X0049320Y0137820D03*
X0047280Y0136620D03*
X0047280Y0136560D03*
X0047280Y0136500D03*
X0047280Y0136440D03*
X0047280Y0136380D03*
X0047280Y0136320D03*
X0047280Y0136260D03*
X0047280Y0136200D03*
X0047280Y0136140D03*
X0047280Y0136080D03*
X0047280Y0135300D03*
X0047280Y0135240D03*
X0047280Y0135180D03*
X0047280Y0135120D03*
X0047280Y0135060D03*
X0047280Y0135000D03*
X0047280Y0134940D03*
X0047280Y0134880D03*
X0047280Y0134820D03*
X0047280Y0134760D03*
X0047280Y0134700D03*
X0047280Y0134640D03*
X0047280Y0134580D03*
X0047280Y0134520D03*
X0047280Y0134460D03*
X0047280Y0134400D03*
X0047280Y0134340D03*
X0047280Y0134280D03*
X0047280Y0134220D03*
X0047280Y0134160D03*
X0047280Y0134100D03*
X0047280Y0134040D03*
X0047280Y0133980D03*
X0047280Y0133920D03*
X0047280Y0133860D03*
X0047280Y0133800D03*
X0047280Y0133740D03*
X0047280Y0133680D03*
X0047280Y0133620D03*
X0047280Y0133560D03*
X0047280Y0133500D03*
X0047280Y0133440D03*
X0047280Y0133380D03*
X0047280Y0133320D03*
X0047280Y0133260D03*
X0047280Y0133200D03*
X0047280Y0133140D03*
X0047280Y0133080D03*
X0047280Y0133020D03*
X0047280Y0132960D03*
X0049320Y0132960D03*
X0049320Y0133020D03*
X0049320Y0133080D03*
X0049320Y0133140D03*
X0049320Y0133200D03*
X0049320Y0133260D03*
X0049320Y0133320D03*
X0049320Y0133380D03*
X0049320Y0133440D03*
X0049320Y0133500D03*
X0049320Y0133560D03*
X0049320Y0133620D03*
X0049320Y0133680D03*
X0049320Y0133740D03*
X0049320Y0133800D03*
X0044640Y0133800D03*
X0044640Y0133860D03*
X0044640Y0133920D03*
X0044640Y0133980D03*
X0044640Y0134040D03*
X0044640Y0134100D03*
X0044640Y0134160D03*
X0044640Y0134220D03*
X0044640Y0134280D03*
X0044640Y0134340D03*
X0044640Y0134400D03*
X0044640Y0134460D03*
X0044640Y0134520D03*
X0044640Y0134580D03*
X0044640Y0134640D03*
X0044640Y0134700D03*
X0044640Y0134760D03*
X0044640Y0134820D03*
X0044640Y0134880D03*
X0044640Y0134940D03*
X0044640Y0135000D03*
X0044640Y0135060D03*
X0044640Y0135120D03*
X0044640Y0135180D03*
X0044640Y0133740D03*
X0044640Y0133680D03*
X0044640Y0133620D03*
X0044640Y0133560D03*
X0044640Y0133500D03*
X0044640Y0133440D03*
X0044640Y0133380D03*
X0044640Y0133320D03*
X0044640Y0133260D03*
X0044640Y0133200D03*
X0044640Y0133140D03*
X0044640Y0133080D03*
X0044640Y0133020D03*
X0044640Y0132960D03*
X0042960Y0134400D03*
X0043020Y0134580D03*
X0043020Y0134640D03*
X0043020Y0134700D03*
X0043020Y0134760D03*
X0043020Y0134820D03*
X0043020Y0134880D03*
X0043020Y0134940D03*
X0043020Y0135000D03*
X0043020Y0135060D03*
X0042960Y0135180D03*
X0042960Y0135240D03*
X0040560Y0135900D03*
X0058020Y0143880D03*
X0046440Y0167520D03*
X0076200Y0166380D03*
X0076200Y0166320D03*
D96*
X0064650Y0157680D03*
X0062250Y0157740D03*
X0060750Y0157740D03*
X0061950Y0146280D03*
X0064650Y0144900D03*
X0064650Y0144840D03*
X0068310Y0138120D03*
X0068310Y0132960D03*
X0075750Y0134400D03*
X0075750Y0135120D03*
X0075750Y0135180D03*
X0075750Y0135240D03*
X0055110Y0133740D03*
X0053250Y0136020D03*
X0046410Y0167580D03*
D97*
X0056970Y0169320D03*
X0065790Y0169920D03*
X0061290Y0161220D03*
X0057990Y0157500D03*
X0061230Y0148200D03*
X0057990Y0143820D03*
X0057990Y0143760D03*
X0054990Y0135840D03*
X0061470Y0133680D03*
X0063990Y0134280D03*
X0063990Y0134340D03*
X0063990Y0135300D03*
X0063930Y0135480D03*
X0065670Y0132960D03*
X0073230Y0133680D03*
X0075690Y0135420D03*
X0078390Y0136680D03*
X0076230Y0166440D03*
X0076230Y0166500D03*
X0045630Y0136680D03*
X0040470Y0133740D03*
X0038730Y0133800D03*
X0038730Y0133020D03*
D98*
X0038700Y0132960D03*
X0038700Y0133860D03*
X0055140Y0133800D03*
X0061440Y0133740D03*
X0057900Y0143580D03*
X0057900Y0148440D03*
X0061320Y0148140D03*
X0064740Y0144660D03*
X0064740Y0144600D03*
X0073200Y0133740D03*
X0062160Y0157860D03*
X0060840Y0157860D03*
X0057900Y0157380D03*
X0061260Y0160920D03*
X0061260Y0160980D03*
X0057000Y0169500D03*
X0057000Y0169560D03*
X0046320Y0167820D03*
X0076320Y0166800D03*
X0076320Y0166740D03*
D99*
X0077430Y0135480D03*
X0077430Y0135420D03*
X0077430Y0135360D03*
X0077430Y0135300D03*
X0075630Y0134040D03*
X0072930Y0135540D03*
X0065730Y0135540D03*
X0065730Y0135600D03*
X0065730Y0135480D03*
X0061230Y0135600D03*
X0061230Y0135660D03*
X0056730Y0135480D03*
X0056730Y0135420D03*
X0056730Y0134160D03*
X0056730Y0134100D03*
X0053130Y0133740D03*
X0044730Y0135540D03*
X0044730Y0135600D03*
X0042930Y0135360D03*
X0042930Y0135300D03*
X0042930Y0134340D03*
X0042930Y0134280D03*
X0038730Y0133740D03*
X0038730Y0133080D03*
D100*
X0055230Y0133980D03*
X0057690Y0143100D03*
X0061530Y0147960D03*
X0057690Y0157080D03*
X0057690Y0159600D03*
X0061290Y0160320D03*
X0057090Y0169980D03*
X0076530Y0167520D03*
X0076530Y0167460D03*
X0073170Y0133920D03*
X0069690Y0133740D03*
D101*
X0064710Y0144720D03*
X0062670Y0148200D03*
X0057930Y0143640D03*
X0057930Y0157440D03*
X0060810Y0157800D03*
X0062190Y0157800D03*
X0062490Y0159900D03*
X0061290Y0161040D03*
X0064710Y0159540D03*
X0064710Y0157560D03*
X0076290Y0166680D03*
X0065790Y0169980D03*
X0046350Y0167760D03*
X0046350Y0167700D03*
X0040530Y0135840D03*
X0040470Y0133800D03*
D102*
X0040440Y0133920D03*
X0040500Y0135720D03*
X0055200Y0133920D03*
X0057780Y0143340D03*
X0061980Y0146580D03*
X0064860Y0144300D03*
X0062040Y0158040D03*
X0060960Y0158040D03*
X0060300Y0159600D03*
X0061260Y0160560D03*
X0061260Y0160620D03*
X0057780Y0159540D03*
X0057780Y0157200D03*
X0046200Y0168120D03*
X0057060Y0169800D03*
X0057060Y0169860D03*
X0076440Y0167220D03*
X0076440Y0167160D03*
D103*
X0076560Y0167580D03*
X0064920Y0159660D03*
X0064980Y0157200D03*
X0061920Y0158220D03*
X0061260Y0160200D03*
X0061260Y0160260D03*
X0057660Y0157020D03*
X0057660Y0148620D03*
X0061980Y0146700D03*
X0062400Y0147960D03*
X0064980Y0144000D03*
X0057660Y0143040D03*
X0073140Y0133980D03*
X0040440Y0135600D03*
X0046080Y0168420D03*
D104*
X0054780Y0135300D03*
X0053280Y0134400D03*
D105*
X0053100Y0135840D03*
X0057720Y0143160D03*
X0061980Y0146640D03*
X0062460Y0148020D03*
X0064920Y0144120D03*
X0057720Y0148560D03*
X0057720Y0157140D03*
X0061020Y0158100D03*
X0061980Y0158100D03*
X0062220Y0159780D03*
X0061260Y0160380D03*
X0061260Y0160440D03*
X0060420Y0159540D03*
X0064920Y0157260D03*
X0076500Y0167340D03*
X0076500Y0167400D03*
X0057060Y0169920D03*
X0046140Y0168240D03*
X0040440Y0135660D03*
D106*
X0040500Y0135780D03*
X0060900Y0157920D03*
X0062100Y0157920D03*
X0064800Y0157440D03*
X0061260Y0160740D03*
X0061260Y0160800D03*
X0046260Y0167940D03*
X0064800Y0144480D03*
D107*
X0064350Y0145680D03*
X0064350Y0145740D03*
X0064350Y0147660D03*
X0060510Y0157320D03*
X0064350Y0158100D03*
X0056910Y0168720D03*
X0046710Y0166860D03*
X0046710Y0166800D03*
X0047010Y0135900D03*
X0074250Y0136620D03*
D108*
X0078810Y0136020D03*
X0059250Y0146640D03*
X0059610Y0156000D03*
X0061290Y0165060D03*
X0061290Y0165120D03*
X0061290Y0165180D03*
X0056610Y0166620D03*
X0047670Y0164460D03*
X0047670Y0164400D03*
X0072570Y0165180D03*
X0046050Y0136020D03*
D109*
X0059280Y0146700D03*
X0059280Y0147360D03*
X0059880Y0149220D03*
X0059580Y0155940D03*
X0051480Y0165000D03*
X0047700Y0164340D03*
X0056580Y0166500D03*
X0056580Y0166560D03*
X0066360Y0167580D03*
X0066360Y0167640D03*
X0067080Y0136020D03*
D110*
X0074280Y0136080D03*
X0063480Y0156000D03*
D111*
X0063900Y0158760D03*
X0063900Y0161760D03*
X0063900Y0161820D03*
X0063900Y0161880D03*
X0061260Y0163560D03*
X0059100Y0160320D03*
X0056760Y0167700D03*
X0056760Y0167760D03*
X0047160Y0165720D03*
X0061860Y0145380D03*
X0063900Y0146940D03*
X0063900Y0147000D03*
X0066660Y0136200D03*
X0070800Y0136200D03*
X0070800Y0136260D03*
X0070800Y0136320D03*
X0070800Y0136380D03*
X0070800Y0136440D03*
X0070800Y0136500D03*
X0070800Y0136560D03*
X0070800Y0136620D03*
X0070800Y0136140D03*
X0070800Y0136080D03*
X0045660Y0136200D03*
X0072660Y0164400D03*
D112*
X0066000Y0169080D03*
X0066000Y0169140D03*
X0064200Y0163680D03*
X0064200Y0163620D03*
X0064200Y0163560D03*
X0061260Y0162660D03*
X0061260Y0162600D03*
X0064200Y0158340D03*
X0062760Y0157020D03*
X0064200Y0147540D03*
X0064200Y0146160D03*
X0064200Y0146100D03*
X0066660Y0136500D03*
X0051600Y0163800D03*
X0046860Y0166440D03*
D113*
X0072270Y0168060D03*
X0061290Y0140040D03*
D114*
X0061320Y0140100D03*
X0061320Y0140160D03*
X0061320Y0140220D03*
X0061320Y0140280D03*
X0061320Y0140340D03*
X0061320Y0140400D03*
X0061320Y0140460D03*
X0061320Y0140520D03*
X0061320Y0140580D03*
X0061320Y0140640D03*
X0061320Y0140700D03*
X0061320Y0140760D03*
X0061320Y0140820D03*
X0061320Y0140880D03*
X0061320Y0140940D03*
X0061320Y0141000D03*
X0061320Y0141060D03*
X0061320Y0141120D03*
X0061320Y0141180D03*
X0061320Y0141240D03*
X0061320Y0141300D03*
X0061320Y0141360D03*
X0061320Y0141420D03*
X0061320Y0141480D03*
X0061320Y0141540D03*
X0061320Y0141600D03*
X0061320Y0141660D03*
X0061320Y0141720D03*
X0061320Y0141780D03*
X0061320Y0141840D03*
X0067200Y0163980D03*
X0067200Y0164040D03*
X0072300Y0168120D03*
X0051180Y0167940D03*
X0051180Y0167880D03*
D115*
X0061350Y0141900D03*
D116*
X0061380Y0141960D03*
X0067200Y0164100D03*
X0051180Y0167820D03*
D117*
X0051210Y0167760D03*
X0067170Y0164160D03*
X0072270Y0168000D03*
X0061410Y0142020D03*
D118*
X0061440Y0142080D03*
X0067140Y0164220D03*
X0072300Y0167940D03*
D119*
X0051210Y0167700D03*
X0061470Y0142140D03*
D120*
X0061500Y0142200D03*
X0061500Y0142260D03*
X0072300Y0167880D03*
D121*
X0072330Y0167820D03*
X0067110Y0164400D03*
X0067110Y0164340D03*
X0051210Y0167580D03*
X0051210Y0167640D03*
X0061530Y0142320D03*
D122*
X0061560Y0142380D03*
X0072300Y0167760D03*
D123*
X0067110Y0164460D03*
X0051210Y0167520D03*
X0061590Y0142440D03*
D124*
X0061620Y0142500D03*
X0067080Y0164520D03*
X0072300Y0167700D03*
X0051240Y0167460D03*
D125*
X0051240Y0167400D03*
X0061620Y0142560D03*
D126*
X0061650Y0142620D03*
X0067050Y0164640D03*
X0067050Y0164700D03*
X0072330Y0167580D03*
D127*
X0061680Y0142680D03*
D128*
X0061680Y0142740D03*
X0051240Y0167220D03*
X0061320Y0169980D03*
D129*
X0061290Y0169920D03*
X0066990Y0164940D03*
X0066990Y0164880D03*
X0072330Y0167400D03*
X0051270Y0167160D03*
X0061650Y0142800D03*
D130*
X0061680Y0142860D03*
X0066960Y0165000D03*
X0072360Y0167340D03*
X0061320Y0169800D03*
X0061320Y0169860D03*
D131*
X0061320Y0169680D03*
X0061320Y0169620D03*
X0066960Y0165060D03*
X0072360Y0167280D03*
X0061680Y0142920D03*
D132*
X0061680Y0142980D03*
X0066900Y0165180D03*
X0072360Y0167160D03*
X0061320Y0169440D03*
X0061320Y0169500D03*
D133*
X0061680Y0143040D03*
D134*
X0061710Y0143100D03*
X0056190Y0163740D03*
X0061290Y0169140D03*
X0061290Y0169200D03*
X0066870Y0165360D03*
X0072390Y0167040D03*
D135*
X0072390Y0166980D03*
X0066870Y0165420D03*
X0061290Y0168960D03*
X0061290Y0169020D03*
X0056250Y0163860D03*
X0061710Y0143160D03*
D136*
X0061710Y0143220D03*
X0056250Y0163980D03*
X0056250Y0164040D03*
X0061290Y0168780D03*
X0061290Y0168840D03*
X0072390Y0166860D03*
D137*
X0066810Y0165660D03*
X0056250Y0164100D03*
X0061710Y0143340D03*
X0061710Y0143280D03*
D138*
X0061710Y0143400D03*
X0051330Y0166500D03*
X0061290Y0168420D03*
X0061290Y0168480D03*
D139*
X0061290Y0168300D03*
X0061290Y0168240D03*
X0066750Y0165900D03*
X0056310Y0164400D03*
X0051330Y0166380D03*
X0051330Y0166440D03*
X0061710Y0143460D03*
D140*
X0061740Y0143520D03*
X0072420Y0166560D03*
X0061320Y0168180D03*
D141*
X0061320Y0168000D03*
X0066720Y0166020D03*
X0072420Y0166500D03*
X0056340Y0164580D03*
X0051360Y0166260D03*
X0061740Y0143580D03*
D142*
X0061800Y0144540D03*
X0059400Y0147000D03*
X0059460Y0155760D03*
X0066420Y0167400D03*
X0072540Y0165360D03*
X0047820Y0164040D03*
D143*
X0047790Y0164100D03*
X0047790Y0164160D03*
X0051450Y0165120D03*
X0056550Y0166320D03*
X0061290Y0165540D03*
X0061290Y0165480D03*
X0061290Y0165420D03*
X0066390Y0167460D03*
X0059490Y0155820D03*
X0059370Y0146940D03*
X0059370Y0146880D03*
X0061830Y0144600D03*
D144*
X0061830Y0144720D03*
X0066330Y0167700D03*
D145*
X0066330Y0167760D03*
X0061290Y0165000D03*
X0061290Y0164940D03*
X0061290Y0164880D03*
X0059670Y0156060D03*
X0059970Y0149160D03*
X0059190Y0147420D03*
X0059190Y0146520D03*
X0061830Y0144840D03*
X0061830Y0144780D03*
X0072570Y0165060D03*
D146*
X0061980Y0146400D03*
D147*
X0059220Y0146580D03*
X0051480Y0164880D03*
X0051480Y0164940D03*
X0047640Y0164520D03*
X0072600Y0165120D03*
D148*
X0072540Y0165300D03*
X0059520Y0155880D03*
X0059820Y0149280D03*
X0059340Y0147300D03*
X0059340Y0146820D03*
X0051480Y0165060D03*
X0056580Y0166380D03*
X0056580Y0166440D03*
D149*
X0061290Y0165900D03*
X0061290Y0165840D03*
X0061290Y0165780D03*
X0059490Y0153840D03*
X0059490Y0153780D03*
X0059490Y0153720D03*
X0059490Y0153660D03*
X0059490Y0153600D03*
X0059490Y0153540D03*
X0059490Y0153480D03*
X0059490Y0153420D03*
X0059490Y0153360D03*
X0059490Y0153300D03*
X0059490Y0153240D03*
X0059490Y0153180D03*
X0059490Y0153120D03*
X0059490Y0153060D03*
X0059490Y0153000D03*
X0059490Y0152940D03*
X0059490Y0152880D03*
X0059490Y0152820D03*
X0059490Y0152760D03*
X0059490Y0152700D03*
X0059490Y0152640D03*
X0059490Y0152580D03*
X0059670Y0149400D03*
X0059490Y0147180D03*
D150*
X0063480Y0148920D03*
D151*
X0067260Y0163740D03*
X0067260Y0163800D03*
D152*
X0061320Y0169080D03*
X0056220Y0163800D03*
D153*
X0067230Y0163860D03*
X0072270Y0168240D03*
D154*
X0067230Y0163920D03*
D155*
X0066840Y0165480D03*
X0066840Y0165540D03*
X0072420Y0166920D03*
X0061320Y0168900D03*
X0056220Y0163920D03*
X0051300Y0166680D03*
X0051300Y0166740D03*
D156*
X0056280Y0164220D03*
X0056280Y0164160D03*
X0061320Y0168540D03*
X0066780Y0165720D03*
X0072420Y0166740D03*
D157*
X0067140Y0164280D03*
D158*
X0066780Y0165780D03*
X0066780Y0165840D03*
X0056280Y0164340D03*
X0056280Y0164280D03*
D159*
X0056310Y0164460D03*
X0056310Y0164520D03*
X0051330Y0166320D03*
X0061290Y0168060D03*
X0061290Y0168120D03*
X0066750Y0165960D03*
D160*
X0067050Y0164580D03*
D161*
X0056610Y0166680D03*
X0056610Y0166740D03*
X0047610Y0164580D03*
D162*
X0056310Y0164640D03*
X0061290Y0167820D03*
X0061290Y0167880D03*
X0061290Y0167940D03*
X0066690Y0166080D03*
X0072450Y0166440D03*
D163*
X0072360Y0167520D03*
X0067020Y0164760D03*
X0051240Y0167280D03*
X0051240Y0167340D03*
D164*
X0066990Y0164820D03*
X0072330Y0167460D03*
D165*
X0072390Y0167220D03*
X0066930Y0165120D03*
X0061290Y0169560D03*
X0051270Y0167040D03*
X0051270Y0166980D03*
D166*
X0051300Y0166860D03*
X0061320Y0169260D03*
X0066900Y0165300D03*
X0066900Y0165240D03*
X0072360Y0167100D03*
D167*
X0072540Y0165720D03*
X0066480Y0166980D03*
X0061320Y0166320D03*
X0051420Y0165540D03*
X0051420Y0165480D03*
D168*
X0051300Y0166620D03*
X0061320Y0168720D03*
X0066840Y0165600D03*
D169*
X0056580Y0166260D03*
D170*
X0061290Y0168600D03*
X0061290Y0168660D03*
X0051330Y0166560D03*
X0072390Y0166800D03*
D171*
X0072420Y0166680D03*
X0072420Y0166620D03*
X0061320Y0168360D03*
D172*
X0051300Y0166800D03*
D173*
X0051270Y0166920D03*
X0061290Y0169320D03*
X0061290Y0169380D03*
D174*
X0061290Y0169740D03*
X0051270Y0167100D03*
D175*
X0072330Y0167640D03*
D176*
X0051180Y0168000D03*
D177*
X0051180Y0168060D03*
X0072240Y0168300D03*
D178*
X0051150Y0168120D03*
D179*
X0072270Y0168180D03*
D180*
X0072270Y0168420D03*
X0051150Y0168240D03*
X0051150Y0168180D03*
D181*
X0051150Y0168300D03*
D182*
X0072240Y0168360D03*
D183*
X0072210Y0168600D03*
X0051150Y0168360D03*
D184*
X0051120Y0168420D03*
D185*
X0072240Y0168480D03*
D186*
X0051120Y0168480D03*
X0051120Y0168540D03*
D187*
X0072240Y0168540D03*
D188*
X0051120Y0168600D03*
D189*
X0072210Y0168660D03*
X0072210Y0168720D03*
D190*
X0072180Y0168900D03*
X0051120Y0168660D03*
D191*
X0051090Y0168720D03*
D192*
X0072210Y0168780D03*
D193*
X0051090Y0168780D03*
X0051090Y0168840D03*
D194*
X0072210Y0168840D03*
D195*
X0051090Y0168900D03*
D196*
X0072180Y0168960D03*
X0072180Y0169020D03*
D197*
X0072150Y0169200D03*
X0051090Y0168960D03*
D198*
X0051060Y0169020D03*
X0072120Y0169260D03*
X0072120Y0169320D03*
D199*
X0072180Y0169080D03*
D200*
X0072060Y0169440D03*
X0051060Y0169140D03*
X0051060Y0169080D03*
D201*
X0072180Y0169140D03*
D202*
X0072000Y0169560D03*
X0072000Y0169620D03*
X0051060Y0169200D03*
D203*
X0051030Y0169260D03*
D204*
X0051030Y0169320D03*
X0071910Y0169800D03*
D205*
X0072090Y0169380D03*
D206*
X0071850Y0169980D03*
X0051030Y0169440D03*
X0051030Y0169380D03*
D207*
X0072030Y0169500D03*
D208*
X0051030Y0169500D03*
D209*
X0051000Y0169560D03*
D210*
X0051000Y0169620D03*
D211*
X0071970Y0169680D03*
D212*
X0051000Y0169680D03*
X0051000Y0169740D03*
D213*
X0071940Y0169740D03*
D214*
X0051030Y0169800D03*
X0051030Y0169860D03*
D215*
X0071880Y0169860D03*
X0071880Y0169920D03*
D216*
X0051060Y0169920D03*
D217*
X0051090Y0169980D03*
M02*
