%
M48
M72
T01C0.03200
T02C0.03543
T03C0.04000
%
T01
X36800Y41800
X51800Y41800
X51800Y81800
X36800Y81800
X46800Y96800
X51800Y104300
X56800Y96800
X71800Y96800
X76800Y104300
X81800Y96800
X96800Y96800
X101800Y104300
X106800Y96800
X164300Y121800
X171800Y116800
X171800Y126800
X171800Y141800
X164300Y146800
X171800Y151800
X171800Y166800
X164300Y171800
X171800Y176800
T02
X74005Y61800
X99595Y61800
T03
X16800Y16800
X26800Y16800
X36800Y16800
X46800Y16800
X56800Y16800
X66800Y16800
X16800Y36800
X16800Y46800
X16800Y86800
X16800Y96800
X16800Y106800
X16800Y116800
X16800Y126800
X16800Y136800
X16800Y146800
X16800Y156800
X16800Y166800
X16800Y176800
X41800Y176800
X51800Y176800
X61800Y176800
X71800Y176800
X81800Y176800
X91800Y176800
X101800Y176800
X111800Y176800
X121800Y176800
X131800Y176800
X141800Y176800
X151800Y176800
X151800Y116800
X141800Y116800
X131800Y116800
X121800Y116800
X111800Y116800
X101800Y116800
X91800Y116800
X81800Y116800
X71800Y116800
X61800Y116800
X51800Y116800
X41800Y116800
X136800Y96800
X136800Y86800
X136800Y76800
X136800Y66800
X136800Y46800
X136800Y36800
X136800Y26800
X136800Y16800
X171800Y16800
X171800Y26800
X171800Y36800
X171800Y46800
X171800Y66800
X171800Y76800
X171800Y86800
X171800Y96800
M30
