G75*
%MOIN*%
%OFA0B0*%
%FSLAX25Y25*%
%IPPOS*%
%LPD*%
%AMOC8*
5,1,8,0,0,1.08239X$1,22.5*
%
%ADD10C,0.06000*%
%ADD11OC8,0.05200*%
%ADD12C,0.05543*%
%ADD13C,0.07400*%
%ADD14C,0.00600*%
%ADD15C,0.02400*%
D10*
X0021500Y0028106D02*
X0021500Y0034106D01*
X0031500Y0034106D02*
X0031500Y0028106D01*
X0041500Y0028106D02*
X0041500Y0034106D01*
X0116500Y0024106D02*
X0116500Y0018106D01*
X0126500Y0018106D02*
X0126500Y0024106D01*
X0136500Y0024106D02*
X0136500Y0018106D01*
X0146500Y0018106D02*
X0146500Y0024106D01*
X0156500Y0024106D02*
X0156500Y0018106D01*
X0166500Y0018106D02*
X0166500Y0024106D01*
X0176500Y0024106D02*
X0176500Y0018106D01*
X0176500Y0048106D02*
X0176500Y0054106D01*
X0166500Y0054106D02*
X0166500Y0048106D01*
X0166500Y0128106D02*
X0166500Y0134106D01*
X0156500Y0134106D02*
X0156500Y0128106D01*
X0146500Y0128106D02*
X0146500Y0134106D01*
X0126500Y0134106D02*
X0126500Y0128106D01*
X0116500Y0128106D02*
X0116500Y0134106D01*
X0106500Y0134106D02*
X0106500Y0128106D01*
X0096500Y0128106D02*
X0096500Y0134106D01*
X0096500Y0163106D02*
X0096500Y0169106D01*
X0106500Y0169106D02*
X0106500Y0163106D01*
X0116500Y0163106D02*
X0116500Y0169106D01*
X0126500Y0169106D02*
X0126500Y0163106D01*
X0146500Y0163106D02*
X0146500Y0169106D01*
X0156500Y0169106D02*
X0156500Y0163106D01*
X0166500Y0163106D02*
X0166500Y0169106D01*
X0176500Y0169106D02*
X0176500Y0163106D01*
X0176500Y0134106D02*
X0176500Y0128106D01*
D11*
X0171500Y0108606D03*
X0166500Y0101106D03*
X0176500Y0101106D03*
X0171500Y0083606D03*
X0166500Y0076106D03*
X0176500Y0076106D03*
X0156500Y0056106D03*
X0156500Y0041106D03*
X0141500Y0076106D03*
X0136500Y0083606D03*
X0131500Y0076106D03*
X0116500Y0056106D03*
X0116500Y0041106D03*
X0106500Y0076106D03*
X0101500Y0083606D03*
X0096500Y0076106D03*
X0096500Y0101106D03*
X0101500Y0108606D03*
X0106500Y0101106D03*
X0131500Y0101106D03*
X0136500Y0108606D03*
X0141500Y0101106D03*
D12*
X0099295Y0031106D03*
X0073705Y0031106D03*
D13*
X0076500Y0061106D03*
X0076500Y0071106D03*
X0076500Y0081106D03*
X0076500Y0091106D03*
X0076500Y0101106D03*
X0076500Y0111106D03*
X0076500Y0121106D03*
X0076500Y0131106D03*
X0076500Y0141106D03*
X0076500Y0151106D03*
X0076500Y0161106D03*
X0076500Y0171106D03*
X0016500Y0171106D03*
X0016500Y0161106D03*
X0016500Y0151106D03*
X0016500Y0141106D03*
X0016500Y0131106D03*
X0016500Y0121106D03*
X0016500Y0111106D03*
X0016500Y0101106D03*
X0016500Y0091106D03*
X0016500Y0081106D03*
X0016500Y0071106D03*
X0016500Y0061106D03*
D14*
X0010500Y0033106D02*
X0019500Y0024106D01*
X0023100Y0024106D01*
X0029700Y0030706D01*
X0031500Y0030706D01*
X0031500Y0031106D01*
X0021500Y0031106D02*
X0021300Y0031306D01*
X0021300Y0049306D01*
X0011700Y0058906D01*
X0011700Y0103306D01*
X0014700Y0106306D01*
X0019500Y0106306D01*
X0039300Y0126106D01*
X0091500Y0126106D01*
X0096500Y0131106D01*
X0096900Y0131506D01*
X0096900Y0165706D01*
X0096500Y0166106D01*
X0106500Y0166106D02*
X0106500Y0131106D01*
X0106500Y0130906D01*
X0096900Y0121306D01*
X0096900Y0101506D01*
X0096500Y0101106D01*
X0095100Y0097306D02*
X0081300Y0111106D01*
X0081300Y0112906D01*
X0077700Y0116506D01*
X0070500Y0116506D01*
X0069900Y0117106D01*
X0032100Y0117106D01*
X0016500Y0101506D01*
X0016500Y0101106D01*
X0016500Y0121106D02*
X0016500Y0121306D01*
X0060900Y0165706D01*
X0077700Y0165706D01*
X0085500Y0173506D01*
X0107700Y0173506D01*
X0110700Y0170506D01*
X0110700Y0126706D01*
X0101700Y0117706D01*
X0101700Y0108706D01*
X0101500Y0108606D01*
X0095100Y0097306D02*
X0132900Y0097306D01*
X0136500Y0100906D01*
X0136500Y0108606D01*
X0131100Y0101506D02*
X0131500Y0101106D01*
X0131100Y0101506D02*
X0131100Y0116506D01*
X0116500Y0131106D01*
X0116700Y0131506D01*
X0116700Y0165706D01*
X0116500Y0166106D01*
X0126500Y0166106D02*
X0126900Y0165706D01*
X0126900Y0131506D01*
X0126500Y0131106D01*
X0126900Y0130906D01*
X0156300Y0101506D01*
X0166500Y0101506D01*
X0166500Y0101106D01*
X0170100Y0099706D02*
X0170100Y0104506D01*
X0156900Y0117706D01*
X0156900Y0130906D01*
X0156500Y0131106D01*
X0156900Y0131506D01*
X0156900Y0165706D01*
X0156500Y0166106D01*
X0146700Y0165706D02*
X0146500Y0166106D01*
X0146700Y0165706D02*
X0146700Y0131506D01*
X0146500Y0131106D01*
X0166500Y0131106D02*
X0166500Y0166106D01*
X0176500Y0166106D02*
X0176700Y0165706D01*
X0176700Y0131506D01*
X0176500Y0131106D01*
X0180300Y0127306D01*
X0180300Y0087106D01*
X0169500Y0076306D01*
X0166500Y0076306D01*
X0166500Y0076106D01*
X0171500Y0083606D02*
X0171300Y0084106D01*
X0141300Y0084106D01*
X0138300Y0087106D01*
X0134700Y0087106D01*
X0120300Y0072706D01*
X0120300Y0039706D01*
X0117900Y0037306D01*
X0110100Y0037306D01*
X0076500Y0070906D01*
X0076500Y0071106D01*
X0076500Y0061106D02*
X0076500Y0060706D01*
X0101100Y0036106D01*
X0118500Y0036106D01*
X0136500Y0054106D01*
X0136500Y0083606D01*
X0123900Y0088306D02*
X0107700Y0072106D01*
X0095100Y0072106D01*
X0083700Y0083506D01*
X0083700Y0100906D01*
X0078900Y0105706D01*
X0074100Y0105706D01*
X0071700Y0103306D01*
X0071700Y0097906D01*
X0072900Y0096706D01*
X0076500Y0097906D02*
X0076500Y0101106D01*
X0076500Y0097906D02*
X0082500Y0091906D01*
X0082500Y0082906D01*
X0108900Y0056506D01*
X0116100Y0056506D01*
X0116500Y0056106D01*
X0116700Y0055906D01*
X0116700Y0041506D01*
X0116500Y0041106D01*
X0111300Y0034906D02*
X0092100Y0034906D01*
X0070500Y0056506D01*
X0070500Y0105106D01*
X0076500Y0111106D01*
X0069300Y0114706D02*
X0069300Y0055906D01*
X0104100Y0021106D01*
X0116500Y0021106D01*
X0125100Y0021106D02*
X0111300Y0034906D01*
X0125100Y0021106D02*
X0126500Y0021106D01*
X0130500Y0024106D02*
X0130500Y0016306D01*
X0128100Y0013906D01*
X0102300Y0013906D01*
X0035100Y0081106D01*
X0016500Y0081106D01*
X0016500Y0071106D02*
X0016500Y0070906D01*
X0043500Y0070906D01*
X0101700Y0012706D01*
X0146700Y0012706D01*
X0155100Y0021106D01*
X0156500Y0021106D01*
X0158100Y0028306D02*
X0134700Y0028306D01*
X0130500Y0024106D01*
X0158100Y0028306D02*
X0165300Y0021106D01*
X0166500Y0021106D01*
X0176500Y0021106D02*
X0176700Y0021106D01*
X0176700Y0042706D01*
X0181500Y0047506D01*
X0181500Y0169906D01*
X0176700Y0174706D01*
X0080100Y0174706D01*
X0076500Y0171106D01*
X0016500Y0131106D02*
X0016500Y0130906D01*
X0010500Y0124906D01*
X0010500Y0033106D01*
X0071700Y0058306D02*
X0071700Y0085906D01*
X0076500Y0090706D01*
X0076500Y0091106D01*
X0096500Y0076106D02*
X0096900Y0076306D01*
X0101700Y0076306D01*
X0121500Y0096106D01*
X0166500Y0096106D01*
X0170100Y0099706D01*
X0171300Y0099106D02*
X0160500Y0088306D01*
X0123900Y0088306D01*
X0156500Y0056106D02*
X0156900Y0055906D01*
X0161700Y0055906D01*
X0166500Y0051106D01*
X0171300Y0099106D02*
X0171300Y0108106D01*
X0171500Y0108606D01*
X0092700Y0037306D02*
X0071700Y0058306D01*
D15*
X0092700Y0037306D03*
X0072900Y0096706D03*
X0069300Y0114706D03*
M02*
