%
M48
M72
T01C0.01200
T02C0.03200
T03C0.03543
T04C0.04000
%
T01
X92700Y37306
X72900Y96706
X69300Y114706
T02
X96500Y101106
X101500Y108606
X106500Y101106
X101500Y83606
X96500Y76106
X106500Y76106
X116500Y56106
X116500Y41106
X131500Y76106
X136500Y83606
X141500Y76106
X156500Y56106
X156500Y41106
X166500Y76106
X171500Y83606
X176500Y76106
X176500Y101106
X171500Y108606
X166500Y101106
X141500Y101106
X136500Y108606
X131500Y101106
T03
X99295Y31106
X73705Y31106
T04
X21500Y31106
X31500Y31106
X41500Y31106
X16500Y61106
X16500Y71106
X16500Y81106
X16500Y91106
X16500Y101106
X16500Y111106
X16500Y121106
X16500Y131106
X16500Y141106
X16500Y151106
X16500Y161106
X16500Y171106
X76500Y171106
X76500Y161106
X76500Y151106
X76500Y141106
X76500Y131106
X76500Y121106
X76500Y111106
X76500Y101106
X76500Y91106
X76500Y81106
X76500Y71106
X76500Y61106
X116500Y21106
X126500Y21106
X136500Y21106
X146500Y21106
X156500Y21106
X166500Y21106
X176500Y21106
X176500Y51106
X166500Y51106
X166500Y131106
X156500Y131106
X146500Y131106
X126500Y131106
X116500Y131106
X106500Y131106
X96500Y131106
X96500Y166106
X106500Y166106
X116500Y166106
X126500Y166106
X146500Y166106
X156500Y166106
X166500Y166106
X176500Y166106
X176500Y131106
M30
