G75*
%MOIN*%
%OFA0B0*%
%FSLAX25Y25*%
%IPPOS*%
%LPD*%
%AMOC8*
5,1,8,0,0,1.08239X$1,22.5*
%
%ADD10C,0.06400*%
%ADD11OC8,0.05600*%
%ADD12C,0.05943*%
%ADD13C,0.07800*%
D10*
X0021500Y0028106D02*
X0021500Y0034106D01*
X0031500Y0034106D02*
X0031500Y0028106D01*
X0041500Y0028106D02*
X0041500Y0034106D01*
X0116500Y0024106D02*
X0116500Y0018106D01*
X0126500Y0018106D02*
X0126500Y0024106D01*
X0136500Y0024106D02*
X0136500Y0018106D01*
X0146500Y0018106D02*
X0146500Y0024106D01*
X0156500Y0024106D02*
X0156500Y0018106D01*
X0166500Y0018106D02*
X0166500Y0024106D01*
X0176500Y0024106D02*
X0176500Y0018106D01*
X0176500Y0048106D02*
X0176500Y0054106D01*
X0166500Y0054106D02*
X0166500Y0048106D01*
X0166500Y0128106D02*
X0166500Y0134106D01*
X0156500Y0134106D02*
X0156500Y0128106D01*
X0146500Y0128106D02*
X0146500Y0134106D01*
X0126500Y0134106D02*
X0126500Y0128106D01*
X0116500Y0128106D02*
X0116500Y0134106D01*
X0106500Y0134106D02*
X0106500Y0128106D01*
X0096500Y0128106D02*
X0096500Y0134106D01*
X0096500Y0163106D02*
X0096500Y0169106D01*
X0106500Y0169106D02*
X0106500Y0163106D01*
X0116500Y0163106D02*
X0116500Y0169106D01*
X0126500Y0169106D02*
X0126500Y0163106D01*
X0146500Y0163106D02*
X0146500Y0169106D01*
X0156500Y0169106D02*
X0156500Y0163106D01*
X0166500Y0163106D02*
X0166500Y0169106D01*
X0176500Y0169106D02*
X0176500Y0163106D01*
X0176500Y0134106D02*
X0176500Y0128106D01*
D11*
X0171500Y0108606D03*
X0166500Y0101106D03*
X0176500Y0101106D03*
X0171500Y0083606D03*
X0166500Y0076106D03*
X0176500Y0076106D03*
X0156500Y0056106D03*
X0156500Y0041106D03*
X0141500Y0076106D03*
X0136500Y0083606D03*
X0131500Y0076106D03*
X0116500Y0056106D03*
X0116500Y0041106D03*
X0106500Y0076106D03*
X0101500Y0083606D03*
X0096500Y0076106D03*
X0096500Y0101106D03*
X0101500Y0108606D03*
X0106500Y0101106D03*
X0131500Y0101106D03*
X0136500Y0108606D03*
X0141500Y0101106D03*
D12*
X0099295Y0031106D03*
X0073705Y0031106D03*
D13*
X0076500Y0061106D03*
X0076500Y0071106D03*
X0076500Y0081106D03*
X0076500Y0091106D03*
X0076500Y0101106D03*
X0076500Y0111106D03*
X0076500Y0121106D03*
X0076500Y0131106D03*
X0076500Y0141106D03*
X0076500Y0151106D03*
X0076500Y0161106D03*
X0076500Y0171106D03*
X0016500Y0171106D03*
X0016500Y0161106D03*
X0016500Y0151106D03*
X0016500Y0141106D03*
X0016500Y0131106D03*
X0016500Y0121106D03*
X0016500Y0111106D03*
X0016500Y0101106D03*
X0016500Y0091106D03*
X0016500Y0081106D03*
X0016500Y0071106D03*
X0016500Y0061106D03*
M02*
