G75*
%MOIN*%
%OFA0B0*%
%FSLAX25Y25*%
%IPPOS*%
%LPD*%
%AMOC8*
5,1,8,0,0,1.08239X$1,22.5*
%
%ADD10C,0.00000*%
%ADD11C,0.00300*%
%ADD12C,0.00600*%
%ADD13R,0.02400X0.03400*%
%ADD14C,0.00500*%
D10*
X0001800Y0001800D02*
X0001800Y0186761D01*
X0185501Y0186761D01*
X0185501Y0001800D01*
X0001800Y0001800D01*
D11*
X0006950Y0004450D02*
X0008802Y0004450D01*
X0009419Y0005067D01*
X0009419Y0007536D01*
X0008802Y0008153D01*
X0006950Y0008153D01*
X0006950Y0004450D01*
X0010633Y0004450D02*
X0013102Y0006919D01*
X0013102Y0007536D01*
X0012485Y0008153D01*
X0011250Y0008153D01*
X0010633Y0007536D01*
X0010633Y0004450D02*
X0013102Y0004450D01*
X0016950Y0005067D02*
X0017567Y0004450D01*
X0018802Y0004450D01*
X0019419Y0005067D01*
X0019419Y0006302D01*
X0018184Y0006302D01*
X0016950Y0007536D02*
X0016950Y0005067D01*
X0016950Y0007536D02*
X0017567Y0008153D01*
X0018802Y0008153D01*
X0019419Y0007536D01*
X0020633Y0008153D02*
X0020633Y0004450D01*
X0023102Y0004450D02*
X0020633Y0008153D01*
X0023102Y0008153D02*
X0023102Y0004450D01*
X0024316Y0004450D02*
X0026168Y0004450D01*
X0026785Y0005067D01*
X0026785Y0007536D01*
X0026168Y0008153D01*
X0024316Y0008153D01*
X0024316Y0004450D01*
X0029450Y0004450D02*
X0031919Y0004450D01*
X0033133Y0004450D02*
X0035602Y0006919D01*
X0035602Y0007536D01*
X0034985Y0008153D01*
X0033750Y0008153D01*
X0033133Y0007536D01*
X0030684Y0008153D02*
X0030684Y0004450D01*
X0033133Y0004450D02*
X0035602Y0004450D01*
X0036816Y0005684D02*
X0038051Y0004450D01*
X0039285Y0005684D01*
X0039285Y0008153D01*
X0036816Y0008153D02*
X0036816Y0005684D01*
X0041950Y0005067D02*
X0042567Y0004450D01*
X0043802Y0004450D01*
X0044419Y0005067D01*
X0044419Y0006302D01*
X0043184Y0006302D01*
X0044419Y0006302D01*
X0044419Y0005067D01*
X0043802Y0004450D01*
X0042567Y0004450D01*
X0041950Y0005067D01*
X0041950Y0007536D01*
X0042567Y0008153D01*
X0043802Y0008153D01*
X0044419Y0007536D01*
X0043802Y0008153D01*
X0042567Y0008153D01*
X0041950Y0007536D01*
X0041950Y0005067D01*
X0045633Y0004450D02*
X0045633Y0008153D01*
X0048102Y0004450D01*
X0048102Y0008153D01*
X0048102Y0004450D01*
X0045633Y0008153D01*
X0045633Y0004450D01*
X0049316Y0004450D02*
X0049316Y0008153D01*
X0051168Y0008153D01*
X0051785Y0007536D01*
X0051785Y0005067D01*
X0051168Y0004450D01*
X0049316Y0004450D01*
X0051168Y0004450D01*
X0051785Y0005067D01*
X0051785Y0007536D01*
X0051168Y0008153D01*
X0049316Y0008153D01*
X0049316Y0004450D01*
X0056950Y0005067D02*
X0057567Y0004450D01*
X0058802Y0004450D01*
X0059419Y0005067D01*
X0059419Y0006302D01*
X0058802Y0006919D01*
X0058184Y0006919D01*
X0056950Y0006302D01*
X0056950Y0008153D01*
X0059419Y0008153D01*
X0060633Y0008153D02*
X0060633Y0005684D01*
X0061868Y0004450D01*
X0063102Y0005684D01*
X0063102Y0008153D01*
X0066950Y0007536D02*
X0066950Y0005067D01*
X0067567Y0004450D01*
X0068802Y0004450D01*
X0069419Y0005067D01*
X0069419Y0006302D01*
X0068184Y0006302D01*
X0066950Y0007536D02*
X0067567Y0008153D01*
X0068802Y0008153D01*
X0069419Y0007536D01*
X0070633Y0008153D02*
X0070633Y0004450D01*
X0073102Y0004450D02*
X0073102Y0008153D01*
X0074316Y0008153D02*
X0076168Y0008153D01*
X0076785Y0007536D01*
X0076785Y0005067D01*
X0076168Y0004450D01*
X0074316Y0004450D01*
X0074316Y0008153D01*
X0070633Y0008153D02*
X0073102Y0004450D01*
X0114447Y0012084D02*
X0116916Y0012084D01*
X0118150Y0013318D01*
X0116916Y0014552D01*
X0114447Y0014552D01*
X0116298Y0015767D02*
X0116298Y0018236D01*
X0115064Y0017001D02*
X0117533Y0017001D01*
X0116916Y0062084D02*
X0114447Y0062084D01*
X0116916Y0062084D02*
X0118150Y0063318D01*
X0116916Y0064552D01*
X0114447Y0064552D01*
X0116298Y0065767D02*
X0116298Y0068236D01*
X0115064Y0067001D02*
X0117533Y0067001D01*
X0030684Y0008153D02*
X0029450Y0006919D01*
X0006919Y0028660D02*
X0006302Y0028043D01*
X0004450Y0028043D01*
X0006919Y0028660D02*
X0006919Y0030511D01*
X0004450Y0030511D01*
X0004450Y0031732D02*
X0004450Y0032967D01*
X0004450Y0032350D02*
X0006919Y0032350D01*
X0006919Y0032967D01*
X0008153Y0032350D02*
X0008770Y0032350D01*
X0008153Y0034181D02*
X0005684Y0034181D01*
X0004450Y0035416D01*
X0005684Y0036650D01*
X0008153Y0036650D01*
X0007536Y0046815D02*
X0005067Y0046815D01*
X0004450Y0047432D01*
X0004450Y0049284D01*
X0008153Y0049284D01*
X0008153Y0047432D01*
X0007536Y0046815D01*
X0008153Y0050498D02*
X0004450Y0050498D01*
X0008153Y0052967D01*
X0004450Y0052967D01*
X0005067Y0054181D02*
X0006302Y0054181D01*
X0006302Y0055416D01*
X0007536Y0056650D02*
X0005067Y0056650D01*
X0004450Y0056033D01*
X0004450Y0054798D01*
X0005067Y0054181D01*
X0007536Y0054181D02*
X0008153Y0054798D01*
X0008153Y0056033D01*
X0007536Y0056650D01*
X0006302Y0082998D02*
X0006302Y0085467D01*
X0008153Y0083615D01*
X0004450Y0083615D01*
X0005067Y0086681D02*
X0007536Y0086681D01*
X0008153Y0087298D01*
X0008153Y0089150D01*
X0004450Y0089150D01*
X0004450Y0087298D01*
X0005067Y0086681D01*
X0007536Y0092998D02*
X0005067Y0095467D01*
X0004450Y0095467D01*
X0005067Y0096681D02*
X0007536Y0096681D01*
X0008153Y0097298D01*
X0008153Y0099150D01*
X0004450Y0099150D01*
X0004450Y0097298D01*
X0005067Y0096681D01*
X0008153Y0095467D02*
X0008153Y0092998D01*
X0007536Y0092998D01*
X0007536Y0101815D02*
X0008153Y0102432D01*
X0008153Y0103667D01*
X0007536Y0104284D01*
X0008153Y0106732D02*
X0004450Y0106732D01*
X0004450Y0105498D02*
X0004450Y0107967D01*
X0005067Y0109181D02*
X0007536Y0109181D01*
X0008153Y0109798D01*
X0008153Y0111650D01*
X0004450Y0111650D01*
X0004450Y0109798D01*
X0005067Y0109181D01*
X0006919Y0107967D02*
X0008153Y0106732D01*
X0004450Y0104284D02*
X0006919Y0101815D01*
X0007536Y0101815D01*
X0004450Y0101815D02*
X0004450Y0104284D01*
X0005067Y0111815D02*
X0004450Y0112432D01*
X0004450Y0113667D01*
X0005067Y0114284D01*
X0004450Y0115498D02*
X0004450Y0117967D01*
X0004450Y0116732D02*
X0008153Y0116732D01*
X0006919Y0117967D01*
X0007536Y0119181D02*
X0005067Y0119181D01*
X0004450Y0119798D01*
X0004450Y0121650D01*
X0008153Y0121650D01*
X0008153Y0119798D01*
X0007536Y0119181D01*
X0004450Y0122998D02*
X0004450Y0125467D01*
X0004450Y0126681D02*
X0006919Y0126681D01*
X0008153Y0127916D01*
X0006919Y0129150D01*
X0004450Y0129150D01*
X0006302Y0129150D02*
X0006302Y0126681D01*
X0006919Y0125467D02*
X0008153Y0124232D01*
X0004450Y0124232D01*
X0004450Y0132998D02*
X0004450Y0135467D01*
X0006919Y0132998D01*
X0007536Y0132998D01*
X0008153Y0133615D01*
X0008153Y0134850D01*
X0007536Y0135467D01*
X0006919Y0136681D02*
X0004450Y0136681D01*
X0006302Y0136681D02*
X0006302Y0139150D01*
X0006919Y0139150D02*
X0008153Y0137916D01*
X0006919Y0136681D01*
X0006919Y0139150D02*
X0004450Y0139150D01*
X0005067Y0142998D02*
X0004450Y0143615D01*
X0004450Y0144850D01*
X0005067Y0145467D01*
X0004450Y0146681D02*
X0006919Y0146681D01*
X0008153Y0147916D01*
X0006919Y0149150D01*
X0004450Y0149150D01*
X0006302Y0149150D02*
X0006302Y0146681D01*
X0007536Y0145467D02*
X0008153Y0144850D01*
X0008153Y0143615D01*
X0007536Y0142998D01*
X0006919Y0142998D01*
X0006302Y0143615D01*
X0005684Y0142998D01*
X0005067Y0142998D01*
X0006302Y0143615D02*
X0006302Y0144232D01*
X0004450Y0151815D02*
X0008153Y0151815D01*
X0008153Y0154284D02*
X0004450Y0154284D01*
X0005684Y0153049D01*
X0004450Y0151815D01*
X0004450Y0155498D02*
X0006919Y0155498D01*
X0008153Y0156732D01*
X0006919Y0157967D01*
X0004450Y0157967D01*
X0004450Y0159181D02*
X0005684Y0160416D01*
X0005684Y0159798D02*
X0005684Y0161650D01*
X0005067Y0161815D02*
X0007536Y0161815D01*
X0008153Y0162432D01*
X0008153Y0164284D01*
X0004450Y0164284D01*
X0004450Y0162432D01*
X0005067Y0161815D01*
X0004450Y0161650D02*
X0008153Y0161650D01*
X0008153Y0159798D01*
X0007536Y0159181D01*
X0006302Y0159181D01*
X0005684Y0159798D01*
X0006302Y0157967D02*
X0006302Y0155498D01*
X0008153Y0165498D02*
X0004450Y0165498D01*
X0008153Y0167967D01*
X0004450Y0167967D01*
X0005067Y0169181D02*
X0006302Y0169181D01*
X0006302Y0170416D01*
X0006919Y0171815D02*
X0006919Y0173667D01*
X0006302Y0174284D01*
X0005067Y0174284D01*
X0004450Y0173667D01*
X0004450Y0171815D01*
X0005067Y0171650D02*
X0004450Y0171033D01*
X0004450Y0169798D01*
X0005067Y0169181D01*
X0007536Y0169181D02*
X0008153Y0169798D01*
X0008153Y0171033D01*
X0007536Y0171650D01*
X0005067Y0171650D01*
X0004450Y0175498D02*
X0004450Y0177350D01*
X0005067Y0177967D01*
X0006302Y0177967D01*
X0006919Y0177350D01*
X0006919Y0175498D01*
X0005684Y0179181D02*
X0008153Y0179181D01*
X0005684Y0179181D02*
X0004450Y0180416D01*
X0005684Y0181650D01*
X0008153Y0181650D01*
X0007536Y0114284D02*
X0008153Y0113667D01*
X0008153Y0112432D01*
X0007536Y0111815D01*
X0006919Y0111815D01*
X0006302Y0112432D01*
X0005684Y0111815D01*
X0005067Y0111815D01*
X0006302Y0112432D02*
X0006302Y0113049D01*
D12*
X0011800Y0114300D02*
X0014300Y0111800D01*
X0019300Y0111800D01*
X0021800Y0114300D01*
X0021800Y0119300D01*
X0019300Y0121800D01*
X0021800Y0124300D01*
X0021800Y0129300D01*
X0019300Y0131800D01*
X0014300Y0131800D01*
X0011800Y0129300D01*
X0011800Y0124300D01*
X0014300Y0121800D01*
X0019300Y0121800D01*
X0014300Y0121800D02*
X0011800Y0119300D01*
X0011800Y0114300D01*
X0014300Y0111800D02*
X0011800Y0109300D01*
X0011800Y0104300D01*
X0014300Y0101800D01*
X0019300Y0101800D01*
X0021800Y0099300D01*
X0021800Y0094300D01*
X0019300Y0091800D01*
X0021800Y0089300D01*
X0021800Y0084300D01*
X0019300Y0081800D01*
X0014300Y0081800D01*
X0011800Y0084300D01*
X0011800Y0089300D01*
X0014300Y0091800D01*
X0011800Y0094300D01*
X0011800Y0099300D01*
X0014300Y0101800D01*
X0019300Y0101800D02*
X0021800Y0104300D01*
X0021800Y0109300D01*
X0019300Y0111800D01*
X0019300Y0131800D02*
X0021800Y0134300D01*
X0021800Y0139300D01*
X0019300Y0141800D01*
X0021800Y0144300D01*
X0021800Y0149300D01*
X0019300Y0151800D01*
X0021800Y0154300D01*
X0021800Y0159300D01*
X0019300Y0161800D01*
X0014300Y0161800D01*
X0011800Y0159300D01*
X0011800Y0154300D01*
X0014300Y0151800D01*
X0019300Y0151800D01*
X0014300Y0151800D02*
X0011800Y0149300D01*
X0011800Y0144300D01*
X0014300Y0141800D01*
X0019300Y0141800D01*
X0014300Y0141800D02*
X0011800Y0139300D01*
X0011800Y0134300D01*
X0014300Y0131800D01*
X0014300Y0161800D02*
X0011800Y0164300D01*
X0011800Y0169300D01*
X0014300Y0171800D01*
X0011800Y0174300D01*
X0011800Y0179300D01*
X0014300Y0181800D01*
X0019300Y0181800D01*
X0021800Y0179300D01*
X0021800Y0174300D01*
X0019300Y0171800D01*
X0021800Y0169300D01*
X0021800Y0164300D01*
X0019300Y0161800D01*
X0019300Y0171800D02*
X0014300Y0171800D01*
X0055615Y0105500D02*
X0055827Y0105404D01*
X0056037Y0105303D01*
X0056244Y0105196D01*
X0056448Y0105085D01*
X0056650Y0104968D01*
X0056849Y0104847D01*
X0057044Y0104721D01*
X0057237Y0104590D01*
X0057426Y0104454D01*
X0057612Y0104314D01*
X0057795Y0104169D01*
X0057974Y0104020D01*
X0058149Y0103866D01*
X0058320Y0103708D01*
X0058487Y0103546D01*
X0058651Y0103380D01*
X0058810Y0103210D01*
X0058965Y0103037D01*
X0059116Y0102859D01*
X0059262Y0102678D01*
X0059404Y0102493D01*
X0059541Y0102305D01*
X0059674Y0102114D01*
X0059802Y0101919D01*
X0059925Y0101721D01*
X0060043Y0101521D01*
X0060156Y0101317D01*
X0060265Y0101111D01*
X0060368Y0100902D01*
X0060466Y0100691D01*
X0060559Y0100477D01*
X0060646Y0100261D01*
X0060728Y0100043D01*
X0060805Y0099823D01*
X0060876Y0099602D01*
X0060942Y0099378D01*
X0061003Y0099153D01*
X0061058Y0098927D01*
X0061107Y0098700D01*
X0061151Y0098471D01*
X0061189Y0098241D01*
X0061222Y0098010D01*
X0061248Y0097779D01*
X0061270Y0097547D01*
X0061285Y0097315D01*
X0061295Y0097082D01*
X0061299Y0096849D01*
X0061297Y0096616D01*
X0061290Y0096383D01*
X0061277Y0096151D01*
X0061258Y0095919D01*
X0061234Y0095687D01*
X0061203Y0095456D01*
X0061168Y0095226D01*
X0061126Y0094997D01*
X0061079Y0094769D01*
X0061027Y0094542D01*
X0060969Y0094316D01*
X0060905Y0094092D01*
X0060836Y0093870D01*
X0060761Y0093649D01*
X0060681Y0093430D01*
X0060596Y0093214D01*
X0060506Y0092999D01*
X0060410Y0092787D01*
X0060309Y0092577D01*
X0060203Y0092370D01*
X0060092Y0092165D01*
X0059975Y0091963D01*
X0059854Y0091764D01*
X0059729Y0091568D01*
X0059598Y0091375D01*
X0059463Y0091186D01*
X0059323Y0091000D01*
X0059178Y0090817D01*
X0059029Y0090638D01*
X0058876Y0090462D01*
X0058719Y0090291D01*
X0058557Y0090123D01*
X0058391Y0089959D01*
X0058221Y0089800D01*
X0045379Y0089800D01*
X0045209Y0089959D01*
X0045043Y0090123D01*
X0044881Y0090291D01*
X0044724Y0090462D01*
X0044571Y0090638D01*
X0044422Y0090817D01*
X0044277Y0091000D01*
X0044137Y0091186D01*
X0044002Y0091375D01*
X0043871Y0091568D01*
X0043746Y0091764D01*
X0043625Y0091963D01*
X0043508Y0092165D01*
X0043397Y0092370D01*
X0043291Y0092577D01*
X0043190Y0092787D01*
X0043094Y0092999D01*
X0043004Y0093214D01*
X0042919Y0093430D01*
X0042839Y0093649D01*
X0042764Y0093870D01*
X0042695Y0094092D01*
X0042631Y0094316D01*
X0042573Y0094542D01*
X0042521Y0094769D01*
X0042474Y0094997D01*
X0042432Y0095226D01*
X0042397Y0095456D01*
X0042366Y0095687D01*
X0042342Y0095919D01*
X0042323Y0096151D01*
X0042310Y0096383D01*
X0042303Y0096616D01*
X0042301Y0096849D01*
X0042305Y0097082D01*
X0042315Y0097315D01*
X0042330Y0097547D01*
X0042352Y0097779D01*
X0042378Y0098010D01*
X0042411Y0098241D01*
X0042449Y0098471D01*
X0042493Y0098700D01*
X0042542Y0098927D01*
X0042597Y0099153D01*
X0042658Y0099378D01*
X0042724Y0099602D01*
X0042795Y0099823D01*
X0042872Y0100043D01*
X0042954Y0100261D01*
X0043041Y0100477D01*
X0043134Y0100691D01*
X0043232Y0100902D01*
X0043335Y0101111D01*
X0043444Y0101317D01*
X0043557Y0101521D01*
X0043675Y0101721D01*
X0043798Y0101919D01*
X0043926Y0102114D01*
X0044059Y0102305D01*
X0044196Y0102493D01*
X0044338Y0102678D01*
X0044484Y0102859D01*
X0044635Y0103037D01*
X0044790Y0103210D01*
X0044949Y0103380D01*
X0045113Y0103546D01*
X0045280Y0103708D01*
X0045451Y0103866D01*
X0045626Y0104020D01*
X0045805Y0104169D01*
X0045988Y0104314D01*
X0046174Y0104454D01*
X0046363Y0104590D01*
X0046556Y0104721D01*
X0046751Y0104847D01*
X0046950Y0104968D01*
X0047152Y0105085D01*
X0047356Y0105196D01*
X0047563Y0105303D01*
X0047773Y0105404D01*
X0047985Y0105500D01*
X0070379Y0089800D02*
X0083221Y0089800D01*
X0070379Y0089800D02*
X0070209Y0089959D01*
X0070043Y0090123D01*
X0069881Y0090291D01*
X0069724Y0090462D01*
X0069571Y0090638D01*
X0069422Y0090817D01*
X0069277Y0091000D01*
X0069137Y0091186D01*
X0069002Y0091375D01*
X0068871Y0091568D01*
X0068746Y0091764D01*
X0068625Y0091963D01*
X0068508Y0092165D01*
X0068397Y0092370D01*
X0068291Y0092577D01*
X0068190Y0092787D01*
X0068094Y0092999D01*
X0068004Y0093214D01*
X0067919Y0093430D01*
X0067839Y0093649D01*
X0067764Y0093870D01*
X0067695Y0094092D01*
X0067631Y0094316D01*
X0067573Y0094542D01*
X0067521Y0094769D01*
X0067474Y0094997D01*
X0067432Y0095226D01*
X0067397Y0095456D01*
X0067366Y0095687D01*
X0067342Y0095919D01*
X0067323Y0096151D01*
X0067310Y0096383D01*
X0067303Y0096616D01*
X0067301Y0096849D01*
X0067305Y0097082D01*
X0067315Y0097315D01*
X0067330Y0097547D01*
X0067352Y0097779D01*
X0067378Y0098010D01*
X0067411Y0098241D01*
X0067449Y0098471D01*
X0067493Y0098700D01*
X0067542Y0098927D01*
X0067597Y0099153D01*
X0067658Y0099378D01*
X0067724Y0099602D01*
X0067795Y0099823D01*
X0067872Y0100043D01*
X0067954Y0100261D01*
X0068041Y0100477D01*
X0068134Y0100691D01*
X0068232Y0100902D01*
X0068335Y0101111D01*
X0068444Y0101317D01*
X0068557Y0101521D01*
X0068675Y0101721D01*
X0068798Y0101919D01*
X0068926Y0102114D01*
X0069059Y0102305D01*
X0069196Y0102493D01*
X0069338Y0102678D01*
X0069484Y0102859D01*
X0069635Y0103037D01*
X0069790Y0103210D01*
X0069949Y0103380D01*
X0070113Y0103546D01*
X0070280Y0103708D01*
X0070451Y0103866D01*
X0070626Y0104020D01*
X0070805Y0104169D01*
X0070988Y0104314D01*
X0071174Y0104454D01*
X0071363Y0104590D01*
X0071556Y0104721D01*
X0071751Y0104847D01*
X0071950Y0104968D01*
X0072152Y0105085D01*
X0072356Y0105196D01*
X0072563Y0105303D01*
X0072773Y0105404D01*
X0072985Y0105500D01*
X0080615Y0105500D02*
X0080827Y0105404D01*
X0081037Y0105303D01*
X0081244Y0105196D01*
X0081448Y0105085D01*
X0081650Y0104968D01*
X0081849Y0104847D01*
X0082044Y0104721D01*
X0082237Y0104590D01*
X0082426Y0104454D01*
X0082612Y0104314D01*
X0082795Y0104169D01*
X0082974Y0104020D01*
X0083149Y0103866D01*
X0083320Y0103708D01*
X0083487Y0103546D01*
X0083651Y0103380D01*
X0083810Y0103210D01*
X0083965Y0103037D01*
X0084116Y0102859D01*
X0084262Y0102678D01*
X0084404Y0102493D01*
X0084541Y0102305D01*
X0084674Y0102114D01*
X0084802Y0101919D01*
X0084925Y0101721D01*
X0085043Y0101521D01*
X0085156Y0101317D01*
X0085265Y0101111D01*
X0085368Y0100902D01*
X0085466Y0100691D01*
X0085559Y0100477D01*
X0085646Y0100261D01*
X0085728Y0100043D01*
X0085805Y0099823D01*
X0085876Y0099602D01*
X0085942Y0099378D01*
X0086003Y0099153D01*
X0086058Y0098927D01*
X0086107Y0098700D01*
X0086151Y0098471D01*
X0086189Y0098241D01*
X0086222Y0098010D01*
X0086248Y0097779D01*
X0086270Y0097547D01*
X0086285Y0097315D01*
X0086295Y0097082D01*
X0086299Y0096849D01*
X0086297Y0096616D01*
X0086290Y0096383D01*
X0086277Y0096151D01*
X0086258Y0095919D01*
X0086234Y0095687D01*
X0086203Y0095456D01*
X0086168Y0095226D01*
X0086126Y0094997D01*
X0086079Y0094769D01*
X0086027Y0094542D01*
X0085969Y0094316D01*
X0085905Y0094092D01*
X0085836Y0093870D01*
X0085761Y0093649D01*
X0085681Y0093430D01*
X0085596Y0093214D01*
X0085506Y0092999D01*
X0085410Y0092787D01*
X0085309Y0092577D01*
X0085203Y0092370D01*
X0085092Y0092165D01*
X0084975Y0091963D01*
X0084854Y0091764D01*
X0084729Y0091568D01*
X0084598Y0091375D01*
X0084463Y0091186D01*
X0084323Y0091000D01*
X0084178Y0090817D01*
X0084029Y0090638D01*
X0083876Y0090462D01*
X0083719Y0090291D01*
X0083557Y0090123D01*
X0083391Y0089959D01*
X0083221Y0089800D01*
X0095379Y0089800D02*
X0108221Y0089800D01*
X0095379Y0089800D02*
X0095209Y0089959D01*
X0095043Y0090123D01*
X0094881Y0090291D01*
X0094724Y0090462D01*
X0094571Y0090638D01*
X0094422Y0090817D01*
X0094277Y0091000D01*
X0094137Y0091186D01*
X0094002Y0091375D01*
X0093871Y0091568D01*
X0093746Y0091764D01*
X0093625Y0091963D01*
X0093508Y0092165D01*
X0093397Y0092370D01*
X0093291Y0092577D01*
X0093190Y0092787D01*
X0093094Y0092999D01*
X0093004Y0093214D01*
X0092919Y0093430D01*
X0092839Y0093649D01*
X0092764Y0093870D01*
X0092695Y0094092D01*
X0092631Y0094316D01*
X0092573Y0094542D01*
X0092521Y0094769D01*
X0092474Y0094997D01*
X0092432Y0095226D01*
X0092397Y0095456D01*
X0092366Y0095687D01*
X0092342Y0095919D01*
X0092323Y0096151D01*
X0092310Y0096383D01*
X0092303Y0096616D01*
X0092301Y0096849D01*
X0092305Y0097082D01*
X0092315Y0097315D01*
X0092330Y0097547D01*
X0092352Y0097779D01*
X0092378Y0098010D01*
X0092411Y0098241D01*
X0092449Y0098471D01*
X0092493Y0098700D01*
X0092542Y0098927D01*
X0092597Y0099153D01*
X0092658Y0099378D01*
X0092724Y0099602D01*
X0092795Y0099823D01*
X0092872Y0100043D01*
X0092954Y0100261D01*
X0093041Y0100477D01*
X0093134Y0100691D01*
X0093232Y0100902D01*
X0093335Y0101111D01*
X0093444Y0101317D01*
X0093557Y0101521D01*
X0093675Y0101721D01*
X0093798Y0101919D01*
X0093926Y0102114D01*
X0094059Y0102305D01*
X0094196Y0102493D01*
X0094338Y0102678D01*
X0094484Y0102859D01*
X0094635Y0103037D01*
X0094790Y0103210D01*
X0094949Y0103380D01*
X0095113Y0103546D01*
X0095280Y0103708D01*
X0095451Y0103866D01*
X0095626Y0104020D01*
X0095805Y0104169D01*
X0095988Y0104314D01*
X0096174Y0104454D01*
X0096363Y0104590D01*
X0096556Y0104721D01*
X0096751Y0104847D01*
X0096950Y0104968D01*
X0097152Y0105085D01*
X0097356Y0105196D01*
X0097563Y0105303D01*
X0097773Y0105404D01*
X0097985Y0105500D01*
X0105615Y0105500D02*
X0105827Y0105404D01*
X0106037Y0105303D01*
X0106244Y0105196D01*
X0106448Y0105085D01*
X0106650Y0104968D01*
X0106849Y0104847D01*
X0107044Y0104721D01*
X0107237Y0104590D01*
X0107426Y0104454D01*
X0107612Y0104314D01*
X0107795Y0104169D01*
X0107974Y0104020D01*
X0108149Y0103866D01*
X0108320Y0103708D01*
X0108487Y0103546D01*
X0108651Y0103380D01*
X0108810Y0103210D01*
X0108965Y0103037D01*
X0109116Y0102859D01*
X0109262Y0102678D01*
X0109404Y0102493D01*
X0109541Y0102305D01*
X0109674Y0102114D01*
X0109802Y0101919D01*
X0109925Y0101721D01*
X0110043Y0101521D01*
X0110156Y0101317D01*
X0110265Y0101111D01*
X0110368Y0100902D01*
X0110466Y0100691D01*
X0110559Y0100477D01*
X0110646Y0100261D01*
X0110728Y0100043D01*
X0110805Y0099823D01*
X0110876Y0099602D01*
X0110942Y0099378D01*
X0111003Y0099153D01*
X0111058Y0098927D01*
X0111107Y0098700D01*
X0111151Y0098471D01*
X0111189Y0098241D01*
X0111222Y0098010D01*
X0111248Y0097779D01*
X0111270Y0097547D01*
X0111285Y0097315D01*
X0111295Y0097082D01*
X0111299Y0096849D01*
X0111297Y0096616D01*
X0111290Y0096383D01*
X0111277Y0096151D01*
X0111258Y0095919D01*
X0111234Y0095687D01*
X0111203Y0095456D01*
X0111168Y0095226D01*
X0111126Y0094997D01*
X0111079Y0094769D01*
X0111027Y0094542D01*
X0110969Y0094316D01*
X0110905Y0094092D01*
X0110836Y0093870D01*
X0110761Y0093649D01*
X0110681Y0093430D01*
X0110596Y0093214D01*
X0110506Y0092999D01*
X0110410Y0092787D01*
X0110309Y0092577D01*
X0110203Y0092370D01*
X0110092Y0092165D01*
X0109975Y0091963D01*
X0109854Y0091764D01*
X0109729Y0091568D01*
X0109598Y0091375D01*
X0109463Y0091186D01*
X0109323Y0091000D01*
X0109178Y0090817D01*
X0109029Y0090638D01*
X0108876Y0090462D01*
X0108719Y0090291D01*
X0108557Y0090123D01*
X0108391Y0089959D01*
X0108221Y0089800D01*
X0131800Y0089300D02*
X0131800Y0084300D01*
X0134300Y0081800D01*
X0139300Y0081800D01*
X0141800Y0084300D01*
X0141800Y0089300D01*
X0139300Y0091800D01*
X0134300Y0091800D01*
X0131800Y0089300D01*
X0134300Y0091800D02*
X0131800Y0094300D01*
X0131800Y0099300D01*
X0134300Y0101800D01*
X0139300Y0101800D01*
X0141800Y0099300D01*
X0141800Y0094300D01*
X0139300Y0091800D01*
X0139300Y0081800D02*
X0141800Y0079300D01*
X0141800Y0074300D01*
X0139300Y0071800D01*
X0141800Y0069300D01*
X0141800Y0064300D01*
X0139300Y0061800D01*
X0134300Y0061800D01*
X0131800Y0064300D01*
X0131800Y0069300D01*
X0134300Y0071800D01*
X0131800Y0074300D01*
X0131800Y0079300D01*
X0134300Y0081800D01*
X0134300Y0071800D02*
X0139300Y0071800D01*
X0139300Y0051800D02*
X0134300Y0051800D01*
X0131800Y0049300D01*
X0131800Y0044300D01*
X0134300Y0041800D01*
X0131800Y0039300D01*
X0131800Y0034300D01*
X0134300Y0031800D01*
X0139300Y0031800D01*
X0141800Y0034300D01*
X0141800Y0039300D01*
X0139300Y0041800D01*
X0134300Y0041800D01*
X0139300Y0041800D02*
X0141800Y0044300D01*
X0141800Y0049300D01*
X0139300Y0051800D01*
X0139300Y0031800D02*
X0141800Y0029300D01*
X0141800Y0024300D01*
X0139300Y0021800D01*
X0141800Y0019300D01*
X0141800Y0014300D01*
X0139300Y0011800D01*
X0134300Y0011800D01*
X0131800Y0014300D01*
X0131800Y0019300D01*
X0134300Y0021800D01*
X0131800Y0024300D01*
X0131800Y0029300D01*
X0134300Y0031800D01*
X0134300Y0021800D02*
X0139300Y0021800D01*
X0166800Y0019300D02*
X0166800Y0014300D01*
X0169300Y0011800D01*
X0174300Y0011800D01*
X0176800Y0014300D01*
X0176800Y0019300D01*
X0174300Y0021800D01*
X0169300Y0021800D01*
X0166800Y0019300D01*
X0169300Y0021800D02*
X0166800Y0024300D01*
X0166800Y0029300D01*
X0169300Y0031800D01*
X0166800Y0034300D01*
X0166800Y0039300D01*
X0169300Y0041800D01*
X0166800Y0044300D01*
X0166800Y0049300D01*
X0169300Y0051800D01*
X0174300Y0051800D01*
X0176800Y0049300D01*
X0176800Y0044300D01*
X0174300Y0041800D01*
X0176800Y0039300D01*
X0176800Y0034300D01*
X0174300Y0031800D01*
X0169300Y0031800D01*
X0174300Y0031800D02*
X0176800Y0029300D01*
X0176800Y0024300D01*
X0174300Y0021800D01*
X0174300Y0041800D02*
X0169300Y0041800D01*
X0169300Y0061800D02*
X0166800Y0064300D01*
X0166800Y0069300D01*
X0169300Y0071800D01*
X0166800Y0074300D01*
X0166800Y0079300D01*
X0169300Y0081800D01*
X0166800Y0084300D01*
X0166800Y0089300D01*
X0169300Y0091800D01*
X0166800Y0094300D01*
X0166800Y0099300D01*
X0169300Y0101800D01*
X0174300Y0101800D01*
X0176800Y0099300D01*
X0176800Y0094300D01*
X0174300Y0091800D01*
X0176800Y0089300D01*
X0176800Y0084300D01*
X0174300Y0081800D01*
X0169300Y0081800D01*
X0174300Y0081800D02*
X0176800Y0079300D01*
X0176800Y0074300D01*
X0174300Y0071800D01*
X0176800Y0069300D01*
X0176800Y0064300D01*
X0174300Y0061800D01*
X0169300Y0061800D01*
X0169300Y0071800D02*
X0174300Y0071800D01*
X0174300Y0091800D02*
X0169300Y0091800D01*
X0178800Y0115379D02*
X0178800Y0128221D01*
X0178800Y0115379D02*
X0178641Y0115209D01*
X0178477Y0115043D01*
X0178309Y0114881D01*
X0178138Y0114724D01*
X0177962Y0114571D01*
X0177783Y0114422D01*
X0177600Y0114277D01*
X0177414Y0114137D01*
X0177225Y0114002D01*
X0177032Y0113871D01*
X0176836Y0113746D01*
X0176637Y0113625D01*
X0176435Y0113508D01*
X0176230Y0113397D01*
X0176023Y0113291D01*
X0175813Y0113190D01*
X0175601Y0113094D01*
X0175386Y0113004D01*
X0175170Y0112919D01*
X0174951Y0112839D01*
X0174730Y0112764D01*
X0174508Y0112695D01*
X0174284Y0112631D01*
X0174058Y0112573D01*
X0173831Y0112521D01*
X0173603Y0112474D01*
X0173374Y0112432D01*
X0173144Y0112397D01*
X0172913Y0112366D01*
X0172681Y0112342D01*
X0172449Y0112323D01*
X0172217Y0112310D01*
X0171984Y0112303D01*
X0171751Y0112301D01*
X0171518Y0112305D01*
X0171285Y0112315D01*
X0171053Y0112330D01*
X0170821Y0112352D01*
X0170590Y0112378D01*
X0170359Y0112411D01*
X0170129Y0112449D01*
X0169900Y0112493D01*
X0169673Y0112542D01*
X0169447Y0112597D01*
X0169222Y0112658D01*
X0168998Y0112724D01*
X0168777Y0112795D01*
X0168557Y0112872D01*
X0168339Y0112954D01*
X0168123Y0113041D01*
X0167909Y0113134D01*
X0167698Y0113232D01*
X0167489Y0113335D01*
X0167283Y0113444D01*
X0167079Y0113557D01*
X0166879Y0113675D01*
X0166681Y0113798D01*
X0166486Y0113926D01*
X0166295Y0114059D01*
X0166107Y0114196D01*
X0165922Y0114338D01*
X0165741Y0114484D01*
X0165563Y0114635D01*
X0165390Y0114790D01*
X0165220Y0114949D01*
X0165054Y0115113D01*
X0164892Y0115280D01*
X0164734Y0115451D01*
X0164580Y0115626D01*
X0164431Y0115805D01*
X0164286Y0115988D01*
X0164146Y0116174D01*
X0164010Y0116363D01*
X0163879Y0116556D01*
X0163753Y0116751D01*
X0163632Y0116950D01*
X0163515Y0117152D01*
X0163404Y0117356D01*
X0163297Y0117563D01*
X0163196Y0117773D01*
X0163100Y0117985D01*
X0163100Y0125615D02*
X0163196Y0125827D01*
X0163297Y0126037D01*
X0163404Y0126244D01*
X0163515Y0126448D01*
X0163632Y0126650D01*
X0163753Y0126849D01*
X0163879Y0127044D01*
X0164010Y0127237D01*
X0164146Y0127426D01*
X0164286Y0127612D01*
X0164431Y0127795D01*
X0164580Y0127974D01*
X0164734Y0128149D01*
X0164892Y0128320D01*
X0165054Y0128487D01*
X0165220Y0128651D01*
X0165390Y0128810D01*
X0165563Y0128965D01*
X0165741Y0129116D01*
X0165922Y0129262D01*
X0166107Y0129404D01*
X0166295Y0129541D01*
X0166486Y0129674D01*
X0166681Y0129802D01*
X0166879Y0129925D01*
X0167079Y0130043D01*
X0167283Y0130156D01*
X0167489Y0130265D01*
X0167698Y0130368D01*
X0167909Y0130466D01*
X0168123Y0130559D01*
X0168339Y0130646D01*
X0168557Y0130728D01*
X0168777Y0130805D01*
X0168998Y0130876D01*
X0169222Y0130942D01*
X0169447Y0131003D01*
X0169673Y0131058D01*
X0169900Y0131107D01*
X0170129Y0131151D01*
X0170359Y0131189D01*
X0170590Y0131222D01*
X0170821Y0131248D01*
X0171053Y0131270D01*
X0171285Y0131285D01*
X0171518Y0131295D01*
X0171751Y0131299D01*
X0171984Y0131297D01*
X0172217Y0131290D01*
X0172449Y0131277D01*
X0172681Y0131258D01*
X0172913Y0131234D01*
X0173144Y0131203D01*
X0173374Y0131168D01*
X0173603Y0131126D01*
X0173831Y0131079D01*
X0174058Y0131027D01*
X0174284Y0130969D01*
X0174508Y0130905D01*
X0174730Y0130836D01*
X0174951Y0130761D01*
X0175170Y0130681D01*
X0175386Y0130596D01*
X0175601Y0130506D01*
X0175813Y0130410D01*
X0176023Y0130309D01*
X0176230Y0130203D01*
X0176435Y0130092D01*
X0176637Y0129975D01*
X0176836Y0129854D01*
X0177032Y0129729D01*
X0177225Y0129598D01*
X0177414Y0129463D01*
X0177600Y0129323D01*
X0177783Y0129178D01*
X0177962Y0129029D01*
X0178138Y0128876D01*
X0178309Y0128719D01*
X0178477Y0128557D01*
X0178641Y0128391D01*
X0178800Y0128221D01*
X0178800Y0140379D02*
X0178800Y0153221D01*
X0178800Y0140379D02*
X0178641Y0140209D01*
X0178477Y0140043D01*
X0178309Y0139881D01*
X0178138Y0139724D01*
X0177962Y0139571D01*
X0177783Y0139422D01*
X0177600Y0139277D01*
X0177414Y0139137D01*
X0177225Y0139002D01*
X0177032Y0138871D01*
X0176836Y0138746D01*
X0176637Y0138625D01*
X0176435Y0138508D01*
X0176230Y0138397D01*
X0176023Y0138291D01*
X0175813Y0138190D01*
X0175601Y0138094D01*
X0175386Y0138004D01*
X0175170Y0137919D01*
X0174951Y0137839D01*
X0174730Y0137764D01*
X0174508Y0137695D01*
X0174284Y0137631D01*
X0174058Y0137573D01*
X0173831Y0137521D01*
X0173603Y0137474D01*
X0173374Y0137432D01*
X0173144Y0137397D01*
X0172913Y0137366D01*
X0172681Y0137342D01*
X0172449Y0137323D01*
X0172217Y0137310D01*
X0171984Y0137303D01*
X0171751Y0137301D01*
X0171518Y0137305D01*
X0171285Y0137315D01*
X0171053Y0137330D01*
X0170821Y0137352D01*
X0170590Y0137378D01*
X0170359Y0137411D01*
X0170129Y0137449D01*
X0169900Y0137493D01*
X0169673Y0137542D01*
X0169447Y0137597D01*
X0169222Y0137658D01*
X0168998Y0137724D01*
X0168777Y0137795D01*
X0168557Y0137872D01*
X0168339Y0137954D01*
X0168123Y0138041D01*
X0167909Y0138134D01*
X0167698Y0138232D01*
X0167489Y0138335D01*
X0167283Y0138444D01*
X0167079Y0138557D01*
X0166879Y0138675D01*
X0166681Y0138798D01*
X0166486Y0138926D01*
X0166295Y0139059D01*
X0166107Y0139196D01*
X0165922Y0139338D01*
X0165741Y0139484D01*
X0165563Y0139635D01*
X0165390Y0139790D01*
X0165220Y0139949D01*
X0165054Y0140113D01*
X0164892Y0140280D01*
X0164734Y0140451D01*
X0164580Y0140626D01*
X0164431Y0140805D01*
X0164286Y0140988D01*
X0164146Y0141174D01*
X0164010Y0141363D01*
X0163879Y0141556D01*
X0163753Y0141751D01*
X0163632Y0141950D01*
X0163515Y0142152D01*
X0163404Y0142356D01*
X0163297Y0142563D01*
X0163196Y0142773D01*
X0163100Y0142985D01*
X0163100Y0150615D02*
X0163196Y0150827D01*
X0163297Y0151037D01*
X0163404Y0151244D01*
X0163515Y0151448D01*
X0163632Y0151650D01*
X0163753Y0151849D01*
X0163879Y0152044D01*
X0164010Y0152237D01*
X0164146Y0152426D01*
X0164286Y0152612D01*
X0164431Y0152795D01*
X0164580Y0152974D01*
X0164734Y0153149D01*
X0164892Y0153320D01*
X0165054Y0153487D01*
X0165220Y0153651D01*
X0165390Y0153810D01*
X0165563Y0153965D01*
X0165741Y0154116D01*
X0165922Y0154262D01*
X0166107Y0154404D01*
X0166295Y0154541D01*
X0166486Y0154674D01*
X0166681Y0154802D01*
X0166879Y0154925D01*
X0167079Y0155043D01*
X0167283Y0155156D01*
X0167489Y0155265D01*
X0167698Y0155368D01*
X0167909Y0155466D01*
X0168123Y0155559D01*
X0168339Y0155646D01*
X0168557Y0155728D01*
X0168777Y0155805D01*
X0168998Y0155876D01*
X0169222Y0155942D01*
X0169447Y0156003D01*
X0169673Y0156058D01*
X0169900Y0156107D01*
X0170129Y0156151D01*
X0170359Y0156189D01*
X0170590Y0156222D01*
X0170821Y0156248D01*
X0171053Y0156270D01*
X0171285Y0156285D01*
X0171518Y0156295D01*
X0171751Y0156299D01*
X0171984Y0156297D01*
X0172217Y0156290D01*
X0172449Y0156277D01*
X0172681Y0156258D01*
X0172913Y0156234D01*
X0173144Y0156203D01*
X0173374Y0156168D01*
X0173603Y0156126D01*
X0173831Y0156079D01*
X0174058Y0156027D01*
X0174284Y0155969D01*
X0174508Y0155905D01*
X0174730Y0155836D01*
X0174951Y0155761D01*
X0175170Y0155681D01*
X0175386Y0155596D01*
X0175601Y0155506D01*
X0175813Y0155410D01*
X0176023Y0155309D01*
X0176230Y0155203D01*
X0176435Y0155092D01*
X0176637Y0154975D01*
X0176836Y0154854D01*
X0177032Y0154729D01*
X0177225Y0154598D01*
X0177414Y0154463D01*
X0177600Y0154323D01*
X0177783Y0154178D01*
X0177962Y0154029D01*
X0178138Y0153876D01*
X0178309Y0153719D01*
X0178477Y0153557D01*
X0178641Y0153391D01*
X0178800Y0153221D01*
X0178800Y0165379D02*
X0178800Y0178221D01*
X0178800Y0165379D02*
X0178641Y0165209D01*
X0178477Y0165043D01*
X0178309Y0164881D01*
X0178138Y0164724D01*
X0177962Y0164571D01*
X0177783Y0164422D01*
X0177600Y0164277D01*
X0177414Y0164137D01*
X0177225Y0164002D01*
X0177032Y0163871D01*
X0176836Y0163746D01*
X0176637Y0163625D01*
X0176435Y0163508D01*
X0176230Y0163397D01*
X0176023Y0163291D01*
X0175813Y0163190D01*
X0175601Y0163094D01*
X0175386Y0163004D01*
X0175170Y0162919D01*
X0174951Y0162839D01*
X0174730Y0162764D01*
X0174508Y0162695D01*
X0174284Y0162631D01*
X0174058Y0162573D01*
X0173831Y0162521D01*
X0173603Y0162474D01*
X0173374Y0162432D01*
X0173144Y0162397D01*
X0172913Y0162366D01*
X0172681Y0162342D01*
X0172449Y0162323D01*
X0172217Y0162310D01*
X0171984Y0162303D01*
X0171751Y0162301D01*
X0171518Y0162305D01*
X0171285Y0162315D01*
X0171053Y0162330D01*
X0170821Y0162352D01*
X0170590Y0162378D01*
X0170359Y0162411D01*
X0170129Y0162449D01*
X0169900Y0162493D01*
X0169673Y0162542D01*
X0169447Y0162597D01*
X0169222Y0162658D01*
X0168998Y0162724D01*
X0168777Y0162795D01*
X0168557Y0162872D01*
X0168339Y0162954D01*
X0168123Y0163041D01*
X0167909Y0163134D01*
X0167698Y0163232D01*
X0167489Y0163335D01*
X0167283Y0163444D01*
X0167079Y0163557D01*
X0166879Y0163675D01*
X0166681Y0163798D01*
X0166486Y0163926D01*
X0166295Y0164059D01*
X0166107Y0164196D01*
X0165922Y0164338D01*
X0165741Y0164484D01*
X0165563Y0164635D01*
X0165390Y0164790D01*
X0165220Y0164949D01*
X0165054Y0165113D01*
X0164892Y0165280D01*
X0164734Y0165451D01*
X0164580Y0165626D01*
X0164431Y0165805D01*
X0164286Y0165988D01*
X0164146Y0166174D01*
X0164010Y0166363D01*
X0163879Y0166556D01*
X0163753Y0166751D01*
X0163632Y0166950D01*
X0163515Y0167152D01*
X0163404Y0167356D01*
X0163297Y0167563D01*
X0163196Y0167773D01*
X0163100Y0167985D01*
X0163100Y0175615D02*
X0163196Y0175827D01*
X0163297Y0176037D01*
X0163404Y0176244D01*
X0163515Y0176448D01*
X0163632Y0176650D01*
X0163753Y0176849D01*
X0163879Y0177044D01*
X0164010Y0177237D01*
X0164146Y0177426D01*
X0164286Y0177612D01*
X0164431Y0177795D01*
X0164580Y0177974D01*
X0164734Y0178149D01*
X0164892Y0178320D01*
X0165054Y0178487D01*
X0165220Y0178651D01*
X0165390Y0178810D01*
X0165563Y0178965D01*
X0165741Y0179116D01*
X0165922Y0179262D01*
X0166107Y0179404D01*
X0166295Y0179541D01*
X0166486Y0179674D01*
X0166681Y0179802D01*
X0166879Y0179925D01*
X0167079Y0180043D01*
X0167283Y0180156D01*
X0167489Y0180265D01*
X0167698Y0180368D01*
X0167909Y0180466D01*
X0168123Y0180559D01*
X0168339Y0180646D01*
X0168557Y0180728D01*
X0168777Y0180805D01*
X0168998Y0180876D01*
X0169222Y0180942D01*
X0169447Y0181003D01*
X0169673Y0181058D01*
X0169900Y0181107D01*
X0170129Y0181151D01*
X0170359Y0181189D01*
X0170590Y0181222D01*
X0170821Y0181248D01*
X0171053Y0181270D01*
X0171285Y0181285D01*
X0171518Y0181295D01*
X0171751Y0181299D01*
X0171984Y0181297D01*
X0172217Y0181290D01*
X0172449Y0181277D01*
X0172681Y0181258D01*
X0172913Y0181234D01*
X0173144Y0181203D01*
X0173374Y0181168D01*
X0173603Y0181126D01*
X0173831Y0181079D01*
X0174058Y0181027D01*
X0174284Y0180969D01*
X0174508Y0180905D01*
X0174730Y0180836D01*
X0174951Y0180761D01*
X0175170Y0180681D01*
X0175386Y0180596D01*
X0175601Y0180506D01*
X0175813Y0180410D01*
X0176023Y0180309D01*
X0176230Y0180203D01*
X0176435Y0180092D01*
X0176637Y0179975D01*
X0176836Y0179854D01*
X0177032Y0179729D01*
X0177225Y0179598D01*
X0177414Y0179463D01*
X0177600Y0179323D01*
X0177783Y0179178D01*
X0177962Y0179029D01*
X0178138Y0178876D01*
X0178309Y0178719D01*
X0178477Y0178557D01*
X0178641Y0178391D01*
X0178800Y0178221D01*
X0056300Y0073300D02*
X0056300Y0071800D01*
X0055800Y0071300D01*
X0055800Y0052300D01*
X0056300Y0051800D01*
X0056300Y0050300D01*
X0056298Y0050240D01*
X0056293Y0050179D01*
X0056284Y0050120D01*
X0056271Y0050061D01*
X0056255Y0050002D01*
X0056235Y0049945D01*
X0056212Y0049890D01*
X0056185Y0049835D01*
X0056156Y0049783D01*
X0056123Y0049732D01*
X0056087Y0049683D01*
X0056049Y0049637D01*
X0056007Y0049593D01*
X0055963Y0049551D01*
X0055917Y0049513D01*
X0055868Y0049477D01*
X0055817Y0049444D01*
X0055765Y0049415D01*
X0055710Y0049388D01*
X0055655Y0049365D01*
X0055598Y0049345D01*
X0055539Y0049329D01*
X0055480Y0049316D01*
X0055421Y0049307D01*
X0055360Y0049302D01*
X0055300Y0049300D01*
X0048300Y0049300D01*
X0048240Y0049302D01*
X0048179Y0049307D01*
X0048120Y0049316D01*
X0048061Y0049329D01*
X0048002Y0049345D01*
X0047945Y0049365D01*
X0047890Y0049388D01*
X0047835Y0049415D01*
X0047783Y0049444D01*
X0047732Y0049477D01*
X0047683Y0049513D01*
X0047637Y0049551D01*
X0047593Y0049593D01*
X0047551Y0049637D01*
X0047513Y0049683D01*
X0047477Y0049732D01*
X0047444Y0049783D01*
X0047415Y0049835D01*
X0047388Y0049890D01*
X0047365Y0049945D01*
X0047345Y0050002D01*
X0047329Y0050061D01*
X0047316Y0050120D01*
X0047307Y0050179D01*
X0047302Y0050240D01*
X0047300Y0050300D01*
X0047300Y0051800D01*
X0047800Y0052300D01*
X0047800Y0071300D01*
X0047300Y0071800D01*
X0047300Y0073300D01*
X0047302Y0073360D01*
X0047307Y0073421D01*
X0047316Y0073480D01*
X0047329Y0073539D01*
X0047345Y0073598D01*
X0047365Y0073655D01*
X0047388Y0073710D01*
X0047415Y0073765D01*
X0047444Y0073817D01*
X0047477Y0073868D01*
X0047513Y0073917D01*
X0047551Y0073963D01*
X0047593Y0074007D01*
X0047637Y0074049D01*
X0047683Y0074087D01*
X0047732Y0074123D01*
X0047783Y0074156D01*
X0047835Y0074185D01*
X0047890Y0074212D01*
X0047945Y0074235D01*
X0048002Y0074255D01*
X0048061Y0074271D01*
X0048120Y0074284D01*
X0048179Y0074293D01*
X0048240Y0074298D01*
X0048300Y0074300D01*
X0055300Y0074300D01*
X0055360Y0074298D01*
X0055421Y0074293D01*
X0055480Y0074284D01*
X0055539Y0074271D01*
X0055598Y0074255D01*
X0055655Y0074235D01*
X0055710Y0074212D01*
X0055765Y0074185D01*
X0055817Y0074156D01*
X0055868Y0074123D01*
X0055917Y0074087D01*
X0055963Y0074049D01*
X0056007Y0074007D01*
X0056049Y0073963D01*
X0056087Y0073917D01*
X0056123Y0073868D01*
X0056156Y0073817D01*
X0056185Y0073765D01*
X0056212Y0073710D01*
X0056235Y0073655D01*
X0056255Y0073598D01*
X0056271Y0073539D01*
X0056284Y0073480D01*
X0056293Y0073421D01*
X0056298Y0073360D01*
X0056300Y0073300D01*
X0041300Y0073300D02*
X0041300Y0071800D01*
X0040800Y0071300D01*
X0040800Y0052300D01*
X0041300Y0051800D01*
X0041300Y0050300D01*
X0041298Y0050240D01*
X0041293Y0050179D01*
X0041284Y0050120D01*
X0041271Y0050061D01*
X0041255Y0050002D01*
X0041235Y0049945D01*
X0041212Y0049890D01*
X0041185Y0049835D01*
X0041156Y0049783D01*
X0041123Y0049732D01*
X0041087Y0049683D01*
X0041049Y0049637D01*
X0041007Y0049593D01*
X0040963Y0049551D01*
X0040917Y0049513D01*
X0040868Y0049477D01*
X0040817Y0049444D01*
X0040765Y0049415D01*
X0040710Y0049388D01*
X0040655Y0049365D01*
X0040598Y0049345D01*
X0040539Y0049329D01*
X0040480Y0049316D01*
X0040421Y0049307D01*
X0040360Y0049302D01*
X0040300Y0049300D01*
X0033300Y0049300D01*
X0033240Y0049302D01*
X0033179Y0049307D01*
X0033120Y0049316D01*
X0033061Y0049329D01*
X0033002Y0049345D01*
X0032945Y0049365D01*
X0032890Y0049388D01*
X0032835Y0049415D01*
X0032783Y0049444D01*
X0032732Y0049477D01*
X0032683Y0049513D01*
X0032637Y0049551D01*
X0032593Y0049593D01*
X0032551Y0049637D01*
X0032513Y0049683D01*
X0032477Y0049732D01*
X0032444Y0049783D01*
X0032415Y0049835D01*
X0032388Y0049890D01*
X0032365Y0049945D01*
X0032345Y0050002D01*
X0032329Y0050061D01*
X0032316Y0050120D01*
X0032307Y0050179D01*
X0032302Y0050240D01*
X0032300Y0050300D01*
X0032300Y0051800D01*
X0032800Y0052300D01*
X0032800Y0071300D01*
X0032300Y0071800D01*
X0032300Y0073300D01*
X0032302Y0073360D01*
X0032307Y0073421D01*
X0032316Y0073480D01*
X0032329Y0073539D01*
X0032345Y0073598D01*
X0032365Y0073655D01*
X0032388Y0073710D01*
X0032415Y0073765D01*
X0032444Y0073817D01*
X0032477Y0073868D01*
X0032513Y0073917D01*
X0032551Y0073963D01*
X0032593Y0074007D01*
X0032637Y0074049D01*
X0032683Y0074087D01*
X0032732Y0074123D01*
X0032783Y0074156D01*
X0032835Y0074185D01*
X0032890Y0074212D01*
X0032945Y0074235D01*
X0033002Y0074255D01*
X0033061Y0074271D01*
X0033120Y0074284D01*
X0033179Y0074293D01*
X0033240Y0074298D01*
X0033300Y0074300D01*
X0040300Y0074300D01*
X0040360Y0074298D01*
X0040421Y0074293D01*
X0040480Y0074284D01*
X0040539Y0074271D01*
X0040598Y0074255D01*
X0040655Y0074235D01*
X0040710Y0074212D01*
X0040765Y0074185D01*
X0040817Y0074156D01*
X0040868Y0074123D01*
X0040917Y0074087D01*
X0040963Y0074049D01*
X0041007Y0074007D01*
X0041049Y0073963D01*
X0041087Y0073917D01*
X0041123Y0073868D01*
X0041156Y0073817D01*
X0041185Y0073765D01*
X0041212Y0073710D01*
X0041235Y0073655D01*
X0041255Y0073598D01*
X0041271Y0073539D01*
X0041284Y0073480D01*
X0041293Y0073421D01*
X0041298Y0073360D01*
X0041300Y0073300D01*
X0019300Y0091800D02*
X0014300Y0091800D01*
X0014300Y0051800D02*
X0011800Y0049300D01*
X0011800Y0044300D01*
X0014300Y0041800D01*
X0011800Y0039300D01*
X0011800Y0034300D01*
X0014300Y0031800D01*
X0019300Y0031800D01*
X0021800Y0034300D01*
X0021800Y0039300D01*
X0019300Y0041800D01*
X0014300Y0041800D01*
X0019300Y0041800D02*
X0021800Y0044300D01*
X0021800Y0049300D01*
X0019300Y0051800D01*
X0014300Y0051800D01*
X0014300Y0021800D02*
X0011800Y0019300D01*
X0011800Y0014300D01*
X0014300Y0011800D01*
X0019300Y0011800D01*
X0021800Y0014300D01*
X0024300Y0011800D01*
X0029300Y0011800D01*
X0031800Y0014300D01*
X0031800Y0019300D01*
X0029300Y0021800D01*
X0024300Y0021800D01*
X0021800Y0019300D01*
X0021800Y0014300D01*
X0021800Y0019300D02*
X0019300Y0021800D01*
X0014300Y0021800D01*
X0031800Y0019300D02*
X0034300Y0021800D01*
X0039300Y0021800D01*
X0041800Y0019300D01*
X0044300Y0021800D01*
X0049300Y0021800D01*
X0051800Y0019300D01*
X0054300Y0021800D01*
X0059300Y0021800D01*
X0061800Y0019300D01*
X0064300Y0021800D01*
X0069300Y0021800D01*
X0071800Y0019300D01*
X0071800Y0014300D01*
X0069300Y0011800D01*
X0064300Y0011800D01*
X0061800Y0014300D01*
X0059300Y0011800D01*
X0054300Y0011800D01*
X0051800Y0014300D01*
X0049300Y0011800D01*
X0044300Y0011800D01*
X0041800Y0014300D01*
X0039300Y0011800D01*
X0034300Y0011800D01*
X0031800Y0014300D01*
X0041800Y0014300D02*
X0041800Y0019300D01*
X0051800Y0019300D02*
X0051800Y0014300D01*
X0061800Y0014300D02*
X0061800Y0019300D01*
D13*
X0051800Y0047600D03*
X0036800Y0047600D03*
X0036800Y0076000D03*
X0051800Y0076000D03*
D14*
X0052798Y0064949D02*
X0052798Y0061946D01*
X0050546Y0064198D01*
X0055050Y0064198D01*
X0055050Y0060345D02*
X0053549Y0058843D01*
X0053549Y0059594D02*
X0053549Y0057342D01*
X0055050Y0057342D02*
X0050546Y0057342D01*
X0050546Y0059594D01*
X0051297Y0060345D01*
X0052798Y0060345D01*
X0053549Y0059594D01*
X0038050Y0060553D02*
X0036549Y0059051D01*
X0036549Y0059802D02*
X0036549Y0057550D01*
X0038050Y0057550D02*
X0033546Y0057550D01*
X0033546Y0059802D01*
X0034297Y0060553D01*
X0035798Y0060553D01*
X0036549Y0059802D01*
X0037299Y0062154D02*
X0038050Y0062905D01*
X0038050Y0064406D01*
X0037299Y0065156D01*
X0036549Y0065156D01*
X0035798Y0064406D01*
X0035798Y0063655D01*
X0035798Y0064406D02*
X0035047Y0065156D01*
X0034297Y0065156D01*
X0033546Y0064406D01*
X0033546Y0062905D01*
X0034297Y0062154D01*
X0026746Y0048249D02*
X0026746Y0045246D01*
X0026746Y0046747D02*
X0031250Y0046747D01*
X0031250Y0043645D02*
X0028247Y0043645D01*
X0026746Y0042143D01*
X0028247Y0040642D01*
X0031250Y0040642D01*
X0030499Y0039041D02*
X0029749Y0039041D01*
X0028998Y0038290D01*
X0028998Y0036038D01*
X0029749Y0034437D02*
X0026746Y0034437D01*
X0026746Y0036038D02*
X0026746Y0038290D01*
X0027497Y0039041D01*
X0028247Y0039041D01*
X0028998Y0038290D01*
X0030499Y0039041D02*
X0031250Y0038290D01*
X0031250Y0036038D01*
X0026746Y0036038D01*
X0029749Y0034437D02*
X0031250Y0032936D01*
X0029749Y0031434D01*
X0026746Y0031434D01*
X0028998Y0040642D02*
X0028998Y0043645D01*
X0051750Y0028754D02*
X0053251Y0028754D01*
X0052501Y0028754D02*
X0052501Y0024250D01*
X0053251Y0024250D02*
X0051750Y0024250D01*
X0054819Y0024250D02*
X0054819Y0028754D01*
X0057822Y0024250D01*
X0057822Y0028754D01*
X0059423Y0028754D02*
X0061675Y0028754D01*
X0062426Y0028003D01*
X0062426Y0026502D01*
X0061675Y0025751D01*
X0059423Y0025751D01*
X0059423Y0024250D02*
X0059423Y0028754D01*
X0064027Y0028754D02*
X0064027Y0025001D01*
X0064778Y0024250D01*
X0066279Y0024250D01*
X0067030Y0025001D01*
X0067030Y0028754D01*
X0068631Y0028754D02*
X0071634Y0028754D01*
X0070132Y0028754D02*
X0070132Y0024250D01*
X0114246Y0023934D02*
X0118750Y0023934D01*
X0118750Y0026937D01*
X0118750Y0028538D02*
X0118750Y0031541D01*
X0118750Y0033142D02*
X0118750Y0035394D01*
X0117999Y0036145D01*
X0114997Y0036145D01*
X0114246Y0035394D01*
X0114246Y0033142D01*
X0118750Y0033142D01*
X0116498Y0030039D02*
X0116498Y0028538D01*
X0114246Y0028538D02*
X0114246Y0031541D01*
X0114246Y0028538D02*
X0118750Y0028538D01*
X0118750Y0037746D02*
X0118750Y0040749D01*
X0118750Y0039247D02*
X0114246Y0039247D01*
X0115747Y0037746D01*
X0149246Y0038497D02*
X0149997Y0037746D01*
X0149246Y0038497D02*
X0149246Y0039998D01*
X0149997Y0040749D01*
X0150747Y0040749D01*
X0153750Y0037746D01*
X0153750Y0040749D01*
X0152999Y0036145D02*
X0149997Y0036145D01*
X0149246Y0035394D01*
X0149246Y0033142D01*
X0153750Y0033142D01*
X0153750Y0035394D01*
X0152999Y0036145D01*
X0153750Y0031541D02*
X0153750Y0028538D01*
X0149246Y0028538D01*
X0149246Y0031541D01*
X0151498Y0030039D02*
X0151498Y0028538D01*
X0153750Y0026937D02*
X0153750Y0023934D01*
X0149246Y0023934D01*
X0149246Y0073934D02*
X0153750Y0073934D01*
X0153750Y0076937D01*
X0153750Y0078538D02*
X0153750Y0081541D01*
X0153750Y0083142D02*
X0153750Y0085394D01*
X0152999Y0086145D01*
X0149997Y0086145D01*
X0149246Y0085394D01*
X0149246Y0083142D01*
X0153750Y0083142D01*
X0151498Y0080039D02*
X0151498Y0078538D01*
X0149246Y0078538D02*
X0153750Y0078538D01*
X0149246Y0078538D02*
X0149246Y0081541D01*
X0151498Y0087746D02*
X0151498Y0090749D01*
X0149246Y0089998D02*
X0151498Y0087746D01*
X0153750Y0089998D02*
X0149246Y0089998D01*
X0118750Y0089998D02*
X0118750Y0088497D01*
X0117999Y0087746D01*
X0117999Y0086145D02*
X0114997Y0086145D01*
X0114246Y0085394D01*
X0114246Y0083142D01*
X0118750Y0083142D01*
X0118750Y0085394D01*
X0117999Y0086145D01*
X0114997Y0087746D02*
X0114246Y0088497D01*
X0114246Y0089998D01*
X0114997Y0090749D01*
X0115747Y0090749D01*
X0116498Y0089998D01*
X0117249Y0090749D01*
X0117999Y0090749D01*
X0118750Y0089998D01*
X0116498Y0089998D02*
X0116498Y0089247D01*
X0114246Y0081541D02*
X0114246Y0078538D01*
X0118750Y0078538D01*
X0118750Y0081541D01*
X0116498Y0080039D02*
X0116498Y0078538D01*
X0118750Y0076937D02*
X0118750Y0073934D01*
X0114246Y0073934D01*
X0023960Y0075001D02*
X0023960Y0078003D01*
X0023210Y0078754D01*
X0020958Y0078754D01*
X0020958Y0074250D01*
X0023210Y0074250D01*
X0023960Y0075001D01*
X0019356Y0075001D02*
X0019356Y0078003D01*
X0018606Y0078754D01*
X0016354Y0078754D01*
X0016354Y0074250D01*
X0018606Y0074250D01*
X0019356Y0075001D01*
X0014753Y0074250D02*
X0014753Y0077253D01*
X0013251Y0078754D01*
X0011750Y0077253D01*
X0011750Y0074250D01*
X0011750Y0076502D02*
X0014753Y0076502D01*
M02*
