G75*
%MOIN*%
%OFA0B0*%
%FSLAX25Y25*%
%IPPOS*%
%LPD*%
%AMOC8*
5,1,8,0,0,1.08239X$1,22.5*
%
%ADD10C,0.00000*%
%ADD11OC8,0.05200*%
%ADD12C,0.05543*%
%ADD13C,0.07400*%
%ADD14C,0.06000*%
%ADD15C,0.01600*%
%ADD16C,0.01200*%
%ADD17C,0.02000*%
D10*
X0001800Y0001800D02*
X0001800Y0186761D01*
X0185501Y0186761D01*
X0185501Y0001800D01*
X0001800Y0001800D01*
D11*
X0036800Y0041800D03*
X0051800Y0041800D03*
X0051800Y0081800D03*
X0036800Y0081800D03*
X0046800Y0096800D03*
X0051800Y0104300D03*
X0056800Y0096800D03*
X0071800Y0096800D03*
X0076800Y0104300D03*
X0081800Y0096800D03*
X0096800Y0096800D03*
X0101800Y0104300D03*
X0106800Y0096800D03*
X0164300Y0121800D03*
X0171800Y0116800D03*
X0171800Y0126800D03*
X0171800Y0141800D03*
X0164300Y0146800D03*
X0171800Y0151800D03*
X0171800Y0166800D03*
X0164300Y0171800D03*
X0171800Y0176800D03*
D12*
X0099595Y0061800D03*
X0074005Y0061800D03*
D13*
X0071800Y0116800D03*
X0081800Y0116800D03*
X0091800Y0116800D03*
X0101800Y0116800D03*
X0111800Y0116800D03*
X0121800Y0116800D03*
X0131800Y0116800D03*
X0141800Y0116800D03*
X0151800Y0116800D03*
X0151800Y0176800D03*
X0141800Y0176800D03*
X0131800Y0176800D03*
X0121800Y0176800D03*
X0111800Y0176800D03*
X0101800Y0176800D03*
X0091800Y0176800D03*
X0081800Y0176800D03*
X0071800Y0176800D03*
X0061800Y0176800D03*
X0051800Y0176800D03*
X0041800Y0176800D03*
X0041800Y0116800D03*
X0051800Y0116800D03*
X0061800Y0116800D03*
D14*
X0019800Y0116800D02*
X0013800Y0116800D01*
X0013800Y0106800D02*
X0019800Y0106800D01*
X0019800Y0096800D02*
X0013800Y0096800D01*
X0013800Y0086800D02*
X0019800Y0086800D01*
X0019800Y0126800D02*
X0013800Y0126800D01*
X0013800Y0136800D02*
X0019800Y0136800D01*
X0019800Y0146800D02*
X0013800Y0146800D01*
X0013800Y0156800D02*
X0019800Y0156800D01*
X0019800Y0166800D02*
X0013800Y0166800D01*
X0013800Y0176800D02*
X0019800Y0176800D01*
X0133800Y0096800D02*
X0139800Y0096800D01*
X0139800Y0086800D02*
X0133800Y0086800D01*
X0133800Y0076800D02*
X0139800Y0076800D01*
X0139800Y0066800D02*
X0133800Y0066800D01*
X0133800Y0046800D02*
X0139800Y0046800D01*
X0139800Y0036800D02*
X0133800Y0036800D01*
X0133800Y0026800D02*
X0139800Y0026800D01*
X0139800Y0016800D02*
X0133800Y0016800D01*
X0168800Y0016800D02*
X0174800Y0016800D01*
X0174800Y0026800D02*
X0168800Y0026800D01*
X0168800Y0036800D02*
X0174800Y0036800D01*
X0174800Y0046800D02*
X0168800Y0046800D01*
X0168800Y0066800D02*
X0174800Y0066800D01*
X0174800Y0076800D02*
X0168800Y0076800D01*
X0168800Y0086800D02*
X0174800Y0086800D01*
X0174800Y0096800D02*
X0168800Y0096800D01*
X0066800Y0019800D02*
X0066800Y0013800D01*
X0056800Y0013800D02*
X0056800Y0019800D01*
X0046800Y0019800D02*
X0046800Y0013800D01*
X0036800Y0013800D02*
X0036800Y0019800D01*
X0026800Y0019800D02*
X0026800Y0013800D01*
X0016800Y0013800D02*
X0016800Y0019800D01*
X0013800Y0036800D02*
X0019800Y0036800D01*
X0019800Y0046800D02*
X0013800Y0046800D01*
D15*
X0016600Y0046600D02*
X0009000Y0046600D01*
X0009000Y0046422D01*
X0009118Y0045676D01*
X0009352Y0044957D01*
X0009695Y0044284D01*
X0010139Y0043673D01*
X0010673Y0043139D01*
X0011284Y0042695D01*
X0011957Y0042352D01*
X0012676Y0042118D01*
X0013422Y0042000D01*
X0016600Y0042000D01*
X0016600Y0046600D01*
X0017000Y0046600D01*
X0017000Y0047000D01*
X0016600Y0047000D01*
X0016600Y0051600D01*
X0013422Y0051600D01*
X0012676Y0051482D01*
X0011957Y0051248D01*
X0011284Y0050905D01*
X0010673Y0050461D01*
X0010139Y0049927D01*
X0009695Y0049316D01*
X0009352Y0048643D01*
X0009118Y0047924D01*
X0009000Y0047178D01*
X0009000Y0047000D01*
X0016600Y0047000D01*
X0016600Y0046600D01*
X0016600Y0046447D02*
X0017000Y0046447D01*
X0017000Y0046600D02*
X0017000Y0042000D01*
X0020178Y0042000D01*
X0020924Y0042118D01*
X0021643Y0042352D01*
X0022316Y0042695D01*
X0022927Y0043139D01*
X0023461Y0043673D01*
X0023905Y0044284D01*
X0024248Y0044957D01*
X0024482Y0045676D01*
X0024600Y0046422D01*
X0024600Y0046600D01*
X0017000Y0046600D01*
X0017175Y0046500D02*
X0016800Y0046800D01*
X0017000Y0047000D02*
X0017000Y0051600D01*
X0020178Y0051600D01*
X0020924Y0051482D01*
X0021643Y0051248D01*
X0022316Y0050905D01*
X0022927Y0050461D01*
X0023461Y0049927D01*
X0023905Y0049316D01*
X0024248Y0048643D01*
X0024482Y0047924D01*
X0024600Y0047178D01*
X0024600Y0047000D01*
X0017000Y0047000D01*
X0017175Y0046500D02*
X0026625Y0037050D01*
X0026625Y0025575D01*
X0038775Y0025575D01*
X0046200Y0018150D01*
X0046200Y0016800D01*
X0046800Y0016800D01*
X0047000Y0016600D02*
X0047000Y0017000D01*
X0051600Y0017000D01*
X0051600Y0020178D01*
X0051482Y0020924D01*
X0051248Y0021643D01*
X0050905Y0022316D01*
X0050461Y0022927D01*
X0049927Y0023461D01*
X0049316Y0023905D01*
X0048643Y0024248D01*
X0047924Y0024482D01*
X0047178Y0024600D01*
X0047000Y0024600D01*
X0047000Y0017000D01*
X0046600Y0017000D01*
X0046600Y0024600D01*
X0046422Y0024600D01*
X0045676Y0024482D01*
X0044957Y0024248D01*
X0044284Y0023905D01*
X0043673Y0023461D01*
X0043139Y0022927D01*
X0042695Y0022316D01*
X0042352Y0021643D01*
X0042118Y0020924D01*
X0042100Y0020809D01*
X0042100Y0020854D01*
X0041293Y0022802D01*
X0039802Y0024293D01*
X0037854Y0025100D01*
X0035746Y0025100D01*
X0033798Y0024293D01*
X0032307Y0022802D01*
X0031500Y0020854D01*
X0031500Y0020809D01*
X0031482Y0020924D01*
X0031248Y0021643D01*
X0030905Y0022316D01*
X0030461Y0022927D01*
X0029927Y0023461D01*
X0029316Y0023905D01*
X0028643Y0024248D01*
X0027924Y0024482D01*
X0027178Y0024600D01*
X0027000Y0024600D01*
X0027000Y0017000D01*
X0026600Y0017000D01*
X0026600Y0024600D01*
X0026422Y0024600D01*
X0025676Y0024482D01*
X0024957Y0024248D01*
X0024284Y0023905D01*
X0023673Y0023461D01*
X0023139Y0022927D01*
X0022695Y0022316D01*
X0022352Y0021643D01*
X0022118Y0020924D01*
X0022000Y0020178D01*
X0022000Y0017000D01*
X0026600Y0017000D01*
X0026600Y0016600D01*
X0027000Y0016600D01*
X0027000Y0009000D01*
X0027178Y0009000D01*
X0027924Y0009118D01*
X0028643Y0009352D01*
X0029316Y0009695D01*
X0029927Y0010139D01*
X0030461Y0010673D01*
X0030905Y0011284D01*
X0031248Y0011957D01*
X0031482Y0012676D01*
X0031500Y0012791D01*
X0031500Y0012746D01*
X0032307Y0010798D01*
X0033798Y0009307D01*
X0035746Y0008500D01*
X0037854Y0008500D01*
X0039802Y0009307D01*
X0041293Y0010798D01*
X0042100Y0012746D01*
X0042100Y0012791D01*
X0042118Y0012676D01*
X0042352Y0011957D01*
X0042695Y0011284D01*
X0043139Y0010673D01*
X0043673Y0010139D01*
X0044284Y0009695D01*
X0044957Y0009352D01*
X0045676Y0009118D01*
X0046422Y0009000D01*
X0046600Y0009000D01*
X0046600Y0016600D01*
X0047000Y0016600D01*
X0051600Y0016600D01*
X0051600Y0013422D01*
X0051482Y0012676D01*
X0051248Y0011957D01*
X0050905Y0011284D01*
X0050461Y0010673D01*
X0049927Y0010139D01*
X0049316Y0009695D01*
X0048643Y0009352D01*
X0047924Y0009118D01*
X0047178Y0009000D01*
X0047000Y0009000D01*
X0047000Y0016600D01*
X0046600Y0016600D02*
X0042100Y0016600D01*
X0042100Y0017000D01*
X0046600Y0017000D01*
X0046600Y0016600D01*
X0046600Y0016075D02*
X0047000Y0016075D01*
X0047000Y0017673D02*
X0046600Y0017673D01*
X0046600Y0019272D02*
X0047000Y0019272D01*
X0047000Y0020870D02*
X0046600Y0020870D01*
X0046600Y0022469D02*
X0047000Y0022469D01*
X0047000Y0024068D02*
X0046600Y0024068D01*
X0044603Y0024068D02*
X0040028Y0024068D01*
X0041431Y0022469D02*
X0042806Y0022469D01*
X0042110Y0020870D02*
X0042093Y0020870D01*
X0048997Y0024068D02*
X0053525Y0024068D01*
X0053525Y0023596D02*
X0052561Y0022632D01*
X0051800Y0020795D01*
X0051800Y0012805D01*
X0052561Y0010968D01*
X0053968Y0009561D01*
X0055805Y0008800D01*
X0057795Y0008800D01*
X0059632Y0009561D01*
X0061039Y0010968D01*
X0061800Y0012805D01*
X0061800Y0020795D01*
X0061039Y0022632D01*
X0059632Y0024039D01*
X0059125Y0024249D01*
X0059125Y0030857D01*
X0058699Y0031886D01*
X0053185Y0037400D01*
X0053623Y0037400D01*
X0056200Y0039977D01*
X0056200Y0041800D01*
X0056200Y0043623D01*
X0053623Y0046200D01*
X0051800Y0046200D01*
X0051800Y0041800D01*
X0051800Y0041800D01*
X0056200Y0041800D01*
X0051800Y0041800D01*
X0051800Y0041800D01*
X0051800Y0046200D01*
X0049977Y0046200D01*
X0047400Y0043623D01*
X0047400Y0043185D01*
X0011585Y0079000D01*
X0033095Y0079000D01*
X0034895Y0077200D01*
X0038705Y0077200D01*
X0041400Y0079895D01*
X0041400Y0083705D01*
X0038705Y0086400D01*
X0034895Y0086400D01*
X0032695Y0084200D01*
X0024135Y0084200D01*
X0024218Y0084400D01*
X0028492Y0084400D01*
X0029448Y0084796D01*
X0041900Y0097248D01*
X0041900Y0094770D01*
X0044770Y0091900D01*
X0048830Y0091900D01*
X0051700Y0094770D01*
X0051700Y0098830D01*
X0050830Y0099700D01*
X0053477Y0099700D01*
X0052400Y0098623D01*
X0052400Y0096800D01*
X0056800Y0096800D01*
X0057000Y0096450D01*
X0065100Y0096450D01*
X0069825Y0091725D01*
X0074550Y0091725D01*
X0074550Y0062025D01*
X0074005Y0061800D01*
X0074091Y0061886D02*
X0078576Y0061886D01*
X0078576Y0062160D01*
X0078464Y0062871D01*
X0078241Y0063555D01*
X0077915Y0064196D01*
X0077492Y0064778D01*
X0076983Y0065287D01*
X0076401Y0065710D01*
X0075760Y0066037D01*
X0075075Y0066259D01*
X0074365Y0066372D01*
X0074091Y0066372D01*
X0074091Y0061886D01*
X0074091Y0061714D01*
X0078576Y0061714D01*
X0078576Y0061440D01*
X0078464Y0060729D01*
X0078241Y0060045D01*
X0077915Y0059404D01*
X0077492Y0058822D01*
X0076983Y0058313D01*
X0076401Y0057890D01*
X0075760Y0057563D01*
X0075075Y0057341D01*
X0074365Y0057228D01*
X0074091Y0057228D01*
X0074091Y0061714D01*
X0073919Y0061714D01*
X0073919Y0057228D01*
X0073645Y0057228D01*
X0072934Y0057341D01*
X0072250Y0057563D01*
X0071609Y0057890D01*
X0071026Y0058313D01*
X0070518Y0058822D01*
X0070095Y0059404D01*
X0069768Y0060045D01*
X0069546Y0060729D01*
X0069433Y0061440D01*
X0069433Y0061714D01*
X0073919Y0061714D01*
X0073919Y0061886D01*
X0073919Y0066372D01*
X0073645Y0066372D01*
X0072934Y0066259D01*
X0072250Y0066037D01*
X0071609Y0065710D01*
X0071026Y0065287D01*
X0070518Y0064778D01*
X0070095Y0064196D01*
X0069768Y0063555D01*
X0069546Y0062871D01*
X0069433Y0062160D01*
X0069433Y0061886D01*
X0073919Y0061886D01*
X0074091Y0061886D01*
X0074091Y0062432D02*
X0073919Y0062432D01*
X0073919Y0064030D02*
X0074091Y0064030D01*
X0074091Y0065629D02*
X0073919Y0065629D01*
X0076513Y0065629D02*
X0096676Y0065629D01*
X0096892Y0065845D02*
X0095550Y0064503D01*
X0094824Y0062749D01*
X0094824Y0060851D01*
X0095550Y0059097D01*
X0096892Y0057755D01*
X0098646Y0057028D01*
X0100544Y0057028D01*
X0102298Y0057755D01*
X0103640Y0059097D01*
X0104367Y0060851D01*
X0104367Y0062749D01*
X0103640Y0064503D01*
X0102298Y0065845D01*
X0100544Y0066572D01*
X0098646Y0066572D01*
X0096892Y0065845D01*
X0095354Y0064030D02*
X0077999Y0064030D01*
X0078533Y0062432D02*
X0094824Y0062432D01*
X0094831Y0060833D02*
X0078480Y0060833D01*
X0077792Y0059235D02*
X0095493Y0059235D01*
X0097179Y0057636D02*
X0075903Y0057636D01*
X0074091Y0057636D02*
X0073919Y0057636D01*
X0073919Y0059235D02*
X0074091Y0059235D01*
X0074091Y0060833D02*
X0073919Y0060833D01*
X0072107Y0057636D02*
X0032949Y0057636D01*
X0034547Y0056038D02*
X0123120Y0056038D01*
X0121522Y0057636D02*
X0102012Y0057636D01*
X0103698Y0059235D02*
X0119923Y0059235D01*
X0118325Y0060833D02*
X0104360Y0060833D01*
X0104367Y0062432D02*
X0116726Y0062432D01*
X0115128Y0064030D02*
X0103836Y0064030D01*
X0102515Y0065629D02*
X0113529Y0065629D01*
X0111931Y0067227D02*
X0023357Y0067227D01*
X0021759Y0068826D02*
X0110332Y0068826D01*
X0108734Y0070424D02*
X0020160Y0070424D01*
X0018562Y0072023D02*
X0107135Y0072023D01*
X0105537Y0073621D02*
X0016963Y0073621D01*
X0015365Y0075220D02*
X0103938Y0075220D01*
X0102340Y0076818D02*
X0013766Y0076818D01*
X0012168Y0078417D02*
X0033678Y0078417D01*
X0033306Y0084811D02*
X0029463Y0084811D01*
X0031061Y0086409D02*
X0093525Y0086409D01*
X0093525Y0086344D02*
X0094027Y0085131D01*
X0129331Y0049827D01*
X0129307Y0049802D01*
X0128500Y0047854D01*
X0128500Y0045746D01*
X0129307Y0043798D01*
X0130798Y0042307D01*
X0132022Y0041800D01*
X0130798Y0041293D01*
X0129307Y0039802D01*
X0128500Y0037854D01*
X0128500Y0035746D01*
X0129307Y0033798D01*
X0130798Y0032307D01*
X0132022Y0031800D01*
X0130798Y0031293D01*
X0129307Y0029802D01*
X0128500Y0027854D01*
X0128500Y0025746D01*
X0129307Y0023798D01*
X0130798Y0022307D01*
X0132022Y0021800D01*
X0130798Y0021293D01*
X0129307Y0019802D01*
X0128500Y0017854D01*
X0128500Y0015746D01*
X0129307Y0013798D01*
X0130798Y0012307D01*
X0132746Y0011500D01*
X0140854Y0011500D01*
X0142802Y0012307D01*
X0144293Y0013798D01*
X0145100Y0015746D01*
X0145100Y0017854D01*
X0144293Y0019802D01*
X0142802Y0021293D01*
X0141578Y0021800D01*
X0142802Y0022307D01*
X0144293Y0023798D01*
X0145100Y0025746D01*
X0145100Y0027854D01*
X0144293Y0029802D01*
X0142802Y0031293D01*
X0141578Y0031800D01*
X0142802Y0032307D01*
X0144293Y0033798D01*
X0145100Y0035746D01*
X0145100Y0037854D01*
X0144293Y0039802D01*
X0142802Y0041293D01*
X0141578Y0041800D01*
X0142802Y0042307D01*
X0144293Y0043798D01*
X0145100Y0045746D01*
X0145100Y0047854D01*
X0144293Y0049802D01*
X0142802Y0051293D01*
X0140854Y0052100D01*
X0136392Y0052100D01*
X0100125Y0088367D01*
X0100125Y0093195D01*
X0101700Y0094770D01*
X0101700Y0098830D01*
X0100830Y0099700D01*
X0103477Y0099700D01*
X0102400Y0098623D01*
X0102400Y0096800D01*
X0106800Y0096800D01*
X0106950Y0097125D01*
X0112350Y0102525D01*
X0146100Y0102525D01*
X0157575Y0114000D01*
X0157575Y0122100D01*
X0162300Y0126825D01*
X0171750Y0126825D01*
X0171800Y0126800D01*
X0171800Y0126800D01*
X0167400Y0126800D01*
X0167400Y0128623D01*
X0169977Y0131200D01*
X0170133Y0131200D01*
X0169627Y0131706D01*
X0169125Y0132919D01*
X0169125Y0137545D01*
X0166900Y0139770D01*
X0166900Y0142895D01*
X0166205Y0142200D01*
X0162395Y0142200D01*
X0159700Y0144895D01*
X0159700Y0148705D01*
X0162395Y0151400D01*
X0166205Y0151400D01*
X0167400Y0150205D01*
X0167400Y0151800D01*
X0171800Y0151800D01*
X0171800Y0151800D01*
X0171800Y0147400D01*
X0173623Y0147400D01*
X0176200Y0149977D01*
X0176200Y0150108D01*
X0177900Y0148408D01*
X0177900Y0132767D01*
X0175725Y0134942D01*
X0175725Y0138795D01*
X0176700Y0139770D01*
X0176700Y0143830D01*
X0173830Y0146700D01*
X0169770Y0146700D01*
X0168900Y0145830D01*
X0168900Y0148477D01*
X0169977Y0147400D01*
X0171800Y0147400D01*
X0171800Y0151800D01*
X0171800Y0151800D01*
X0167400Y0151800D01*
X0167400Y0153623D01*
X0169977Y0156200D01*
X0170108Y0156200D01*
X0169627Y0156681D01*
X0169125Y0157894D01*
X0169125Y0162545D01*
X0166900Y0164770D01*
X0166900Y0167895D01*
X0166205Y0167200D01*
X0162395Y0167200D01*
X0159700Y0169895D01*
X0159700Y0173705D01*
X0162395Y0176400D01*
X0166205Y0176400D01*
X0167400Y0175205D01*
X0167400Y0176800D01*
X0171800Y0176800D01*
X0171800Y0176800D01*
X0171800Y0181200D01*
X0173623Y0181200D01*
X0176200Y0178623D01*
X0176200Y0176800D01*
X0171800Y0176800D01*
X0171800Y0176800D01*
X0171800Y0176800D01*
X0171800Y0181200D01*
X0169977Y0181200D01*
X0167400Y0178623D01*
X0167400Y0176800D01*
X0171800Y0176800D01*
X0176200Y0176800D01*
X0176200Y0174977D01*
X0173623Y0172400D01*
X0171800Y0172400D01*
X0171800Y0176800D01*
X0171800Y0176800D01*
X0171800Y0172400D01*
X0169977Y0172400D01*
X0168900Y0173477D01*
X0168900Y0170830D01*
X0169770Y0171700D01*
X0173830Y0171700D01*
X0176700Y0168830D01*
X0176700Y0164770D01*
X0175725Y0163795D01*
X0175725Y0159917D01*
X0183069Y0152573D01*
X0183701Y0151941D01*
X0183701Y0184961D01*
X0067624Y0184961D01*
X0070255Y0182330D01*
X0070666Y0182500D01*
X0072934Y0182500D01*
X0075029Y0181632D01*
X0076632Y0180029D01*
X0076800Y0179624D01*
X0076968Y0180029D01*
X0078571Y0181632D01*
X0080666Y0182500D01*
X0082934Y0182500D01*
X0085029Y0181632D01*
X0086632Y0180029D01*
X0086800Y0179624D01*
X0086968Y0180029D01*
X0088571Y0181632D01*
X0090666Y0182500D01*
X0092934Y0182500D01*
X0095029Y0181632D01*
X0096632Y0180029D01*
X0096800Y0179624D01*
X0096968Y0180029D01*
X0098571Y0181632D01*
X0100666Y0182500D01*
X0102934Y0182500D01*
X0105029Y0181632D01*
X0106632Y0180029D01*
X0106800Y0179624D01*
X0106968Y0180029D01*
X0108571Y0181632D01*
X0110666Y0182500D01*
X0112934Y0182500D01*
X0115029Y0181632D01*
X0116632Y0180029D01*
X0116800Y0179624D01*
X0116968Y0180029D01*
X0118571Y0181632D01*
X0120666Y0182500D01*
X0122934Y0182500D01*
X0125029Y0181632D01*
X0126632Y0180029D01*
X0126800Y0179624D01*
X0126968Y0180029D01*
X0128571Y0181632D01*
X0130666Y0182500D01*
X0132934Y0182500D01*
X0135029Y0181632D01*
X0136632Y0180029D01*
X0136800Y0179624D01*
X0136968Y0180029D01*
X0138571Y0181632D01*
X0140666Y0182500D01*
X0142934Y0182500D01*
X0145029Y0181632D01*
X0146632Y0180029D01*
X0146800Y0179624D01*
X0146968Y0180029D01*
X0148571Y0181632D01*
X0150666Y0182500D01*
X0152934Y0182500D01*
X0155029Y0181632D01*
X0156632Y0180029D01*
X0157500Y0177934D01*
X0157500Y0175666D01*
X0156632Y0173571D01*
X0155029Y0171968D01*
X0152934Y0171100D01*
X0150666Y0171100D01*
X0148571Y0171968D01*
X0146968Y0173571D01*
X0146800Y0173976D01*
X0146632Y0173571D01*
X0145029Y0171968D01*
X0142934Y0171100D01*
X0140666Y0171100D01*
X0138571Y0171968D01*
X0136968Y0173571D01*
X0136800Y0173976D01*
X0136632Y0173571D01*
X0135029Y0171968D01*
X0132934Y0171100D01*
X0130666Y0171100D01*
X0129666Y0171514D01*
X0100323Y0142171D01*
X0099367Y0141775D01*
X0062127Y0141775D01*
X0042852Y0122500D01*
X0042934Y0122500D01*
X0045029Y0121632D01*
X0046632Y0120029D01*
X0046800Y0119624D01*
X0046968Y0120029D01*
X0048571Y0121632D01*
X0050666Y0122500D01*
X0052934Y0122500D01*
X0055029Y0121632D01*
X0056632Y0120029D01*
X0056800Y0119624D01*
X0056968Y0120029D01*
X0058571Y0121632D01*
X0060666Y0122500D01*
X0062934Y0122500D01*
X0065029Y0121632D01*
X0066632Y0120029D01*
X0066919Y0119336D01*
X0067096Y0119683D01*
X0067605Y0120383D01*
X0068217Y0120995D01*
X0068917Y0121504D01*
X0069689Y0121897D01*
X0070512Y0122165D01*
X0071367Y0122300D01*
X0071600Y0122300D01*
X0071600Y0117000D01*
X0072000Y0117000D01*
X0072000Y0122300D01*
X0072233Y0122300D01*
X0073088Y0122165D01*
X0073911Y0121897D01*
X0074683Y0121504D01*
X0075383Y0120995D01*
X0075995Y0120383D01*
X0076504Y0119683D01*
X0076681Y0119336D01*
X0076968Y0120029D01*
X0078571Y0121632D01*
X0080666Y0122500D01*
X0082934Y0122500D01*
X0085029Y0121632D01*
X0086632Y0120029D01*
X0086800Y0119624D01*
X0086968Y0120029D01*
X0088571Y0121632D01*
X0090666Y0122500D01*
X0092934Y0122500D01*
X0095029Y0121632D01*
X0096632Y0120029D01*
X0096800Y0119624D01*
X0096968Y0120029D01*
X0098571Y0121632D01*
X0100666Y0122500D01*
X0102934Y0122500D01*
X0105029Y0121632D01*
X0106632Y0120029D01*
X0106800Y0119624D01*
X0106968Y0120029D01*
X0108571Y0121632D01*
X0110666Y0122500D01*
X0112934Y0122500D01*
X0115029Y0121632D01*
X0116632Y0120029D01*
X0116800Y0119624D01*
X0116968Y0120029D01*
X0118571Y0121632D01*
X0120666Y0122500D01*
X0122934Y0122500D01*
X0125029Y0121632D01*
X0126632Y0120029D01*
X0126800Y0119624D01*
X0126968Y0120029D01*
X0128571Y0121632D01*
X0130666Y0122500D01*
X0132934Y0122500D01*
X0135029Y0121632D01*
X0136632Y0120029D01*
X0136800Y0119624D01*
X0136968Y0120029D01*
X0138571Y0121632D01*
X0140666Y0122500D01*
X0142934Y0122500D01*
X0145029Y0121632D01*
X0146632Y0120029D01*
X0146800Y0119624D01*
X0146968Y0120029D01*
X0148571Y0121632D01*
X0150666Y0122500D01*
X0152934Y0122500D01*
X0155029Y0121632D01*
X0156632Y0120029D01*
X0157500Y0117934D01*
X0157500Y0115666D01*
X0156632Y0113571D01*
X0155029Y0111968D01*
X0152934Y0111100D01*
X0150666Y0111100D01*
X0148571Y0111968D01*
X0146968Y0113571D01*
X0146800Y0113976D01*
X0146632Y0113571D01*
X0145029Y0111968D01*
X0142934Y0111100D01*
X0140666Y0111100D01*
X0138571Y0111968D01*
X0136968Y0113571D01*
X0136800Y0113976D01*
X0136632Y0113571D01*
X0135029Y0111968D01*
X0132934Y0111100D01*
X0130666Y0111100D01*
X0128571Y0111968D01*
X0126968Y0113571D01*
X0126800Y0113976D01*
X0126632Y0113571D01*
X0125029Y0111968D01*
X0122934Y0111100D01*
X0120666Y0111100D01*
X0118571Y0111968D01*
X0116968Y0113571D01*
X0116800Y0113976D01*
X0116632Y0113571D01*
X0115029Y0111968D01*
X0112934Y0111100D01*
X0110666Y0111100D01*
X0108571Y0111968D01*
X0106968Y0113571D01*
X0106800Y0113976D01*
X0106632Y0113571D01*
X0105029Y0111968D01*
X0102934Y0111100D01*
X0100666Y0111100D01*
X0099931Y0111404D01*
X0097623Y0109096D01*
X0096667Y0108700D01*
X0078905Y0108700D01*
X0081400Y0106205D01*
X0081400Y0102395D01*
X0080205Y0101200D01*
X0081800Y0101200D01*
X0083623Y0101200D01*
X0086200Y0098623D01*
X0086200Y0096800D01*
X0081800Y0096800D01*
X0081300Y0096450D01*
X0076575Y0091725D01*
X0074550Y0091725D01*
X0073830Y0091900D02*
X0076700Y0094770D01*
X0076700Y0098830D01*
X0075830Y0099700D01*
X0078477Y0099700D01*
X0077400Y0098623D01*
X0077400Y0096800D01*
X0081800Y0096800D01*
X0081800Y0096800D01*
X0081800Y0096800D01*
X0081800Y0101200D01*
X0081800Y0096800D01*
X0086200Y0096800D01*
X0086200Y0094977D01*
X0083623Y0092400D01*
X0081800Y0092400D01*
X0081800Y0096800D01*
X0081800Y0096800D01*
X0081800Y0096800D01*
X0081800Y0092400D01*
X0079977Y0092400D01*
X0077400Y0094977D01*
X0077400Y0096800D01*
X0081800Y0096800D01*
X0081800Y0097599D02*
X0081800Y0097599D01*
X0081800Y0096001D02*
X0081800Y0096001D01*
X0081800Y0094402D02*
X0081800Y0094402D01*
X0081800Y0092803D02*
X0081800Y0092803D01*
X0084026Y0092803D02*
X0093525Y0092803D01*
X0093525Y0093145D02*
X0093525Y0086344D01*
X0093525Y0088008D02*
X0032660Y0088008D01*
X0034258Y0089606D02*
X0093525Y0089606D01*
X0093525Y0091205D02*
X0035857Y0091205D01*
X0037455Y0092803D02*
X0043867Y0092803D01*
X0042268Y0094402D02*
X0039054Y0094402D01*
X0040652Y0096001D02*
X0041900Y0096001D01*
X0049733Y0092803D02*
X0054574Y0092803D01*
X0054977Y0092400D02*
X0052400Y0094977D01*
X0052400Y0096800D01*
X0056800Y0096800D01*
X0056800Y0096800D01*
X0056800Y0101200D01*
X0058623Y0101200D01*
X0061200Y0098623D01*
X0061200Y0096800D01*
X0056800Y0096800D01*
X0056800Y0096800D01*
X0056800Y0101200D01*
X0055205Y0101200D01*
X0056400Y0102395D01*
X0056400Y0106205D01*
X0053905Y0108700D01*
X0074695Y0108700D01*
X0072200Y0106205D01*
X0072200Y0102395D01*
X0072895Y0101700D01*
X0069770Y0101700D01*
X0066900Y0098830D01*
X0066900Y0094770D01*
X0069770Y0091900D01*
X0073830Y0091900D01*
X0074733Y0092803D02*
X0079574Y0092803D01*
X0077975Y0094402D02*
X0076332Y0094402D01*
X0076700Y0096001D02*
X0077400Y0096001D01*
X0077400Y0097599D02*
X0076700Y0097599D01*
X0076332Y0099198D02*
X0077975Y0099198D01*
X0081800Y0099198D02*
X0081800Y0099198D01*
X0081800Y0100796D02*
X0081800Y0100796D01*
X0081400Y0102395D02*
X0097200Y0102395D01*
X0097895Y0101700D01*
X0094770Y0101700D01*
X0091900Y0098830D01*
X0091900Y0094770D01*
X0093525Y0093145D01*
X0092268Y0094402D02*
X0085625Y0094402D01*
X0086200Y0096001D02*
X0091900Y0096001D01*
X0091900Y0097599D02*
X0086200Y0097599D01*
X0085625Y0099198D02*
X0092268Y0099198D01*
X0093866Y0100796D02*
X0084026Y0100796D01*
X0081400Y0103993D02*
X0097200Y0103993D01*
X0097200Y0102395D02*
X0097200Y0106205D01*
X0099895Y0108900D01*
X0103705Y0108900D01*
X0106400Y0106205D01*
X0106400Y0102395D01*
X0105205Y0101200D01*
X0106800Y0101200D01*
X0106800Y0096800D01*
X0106800Y0096800D01*
X0111200Y0096800D01*
X0111200Y0098623D01*
X0108623Y0101200D01*
X0106800Y0101200D01*
X0106800Y0096800D01*
X0106800Y0096800D01*
X0111200Y0096800D01*
X0111200Y0094977D01*
X0108623Y0092400D01*
X0106800Y0092400D01*
X0106800Y0096800D01*
X0106800Y0096800D01*
X0106800Y0096800D01*
X0106800Y0092400D01*
X0104977Y0092400D01*
X0102400Y0094977D01*
X0102400Y0096800D01*
X0106800Y0096800D01*
X0106800Y0097599D02*
X0106800Y0097599D01*
X0106800Y0096001D02*
X0106800Y0096001D01*
X0106800Y0094402D02*
X0106800Y0094402D01*
X0106800Y0092803D02*
X0106800Y0092803D01*
X0109026Y0092803D02*
X0130301Y0092803D01*
X0130798Y0092307D02*
X0132022Y0091800D01*
X0130798Y0091293D01*
X0129307Y0089802D01*
X0128500Y0087854D01*
X0128500Y0085746D01*
X0129307Y0083798D01*
X0130798Y0082307D01*
X0132022Y0081800D01*
X0130798Y0081293D01*
X0129307Y0079802D01*
X0128500Y0077854D01*
X0128500Y0075746D01*
X0129307Y0073798D01*
X0130798Y0072307D01*
X0132022Y0071800D01*
X0130798Y0071293D01*
X0129307Y0069802D01*
X0128500Y0067854D01*
X0128500Y0065746D01*
X0129307Y0063798D01*
X0130798Y0062307D01*
X0132746Y0061500D01*
X0140854Y0061500D01*
X0142802Y0062307D01*
X0144293Y0063798D01*
X0145100Y0065746D01*
X0145100Y0067854D01*
X0144293Y0069802D01*
X0142802Y0071293D01*
X0141578Y0071800D01*
X0142802Y0072307D01*
X0144293Y0073798D01*
X0145100Y0075746D01*
X0145100Y0077854D01*
X0144293Y0079802D01*
X0142802Y0081293D01*
X0141578Y0081800D01*
X0142802Y0082307D01*
X0144195Y0083700D01*
X0164405Y0083700D01*
X0165798Y0082307D01*
X0167022Y0081800D01*
X0165798Y0081293D01*
X0164307Y0079802D01*
X0163500Y0077854D01*
X0163500Y0075746D01*
X0164307Y0073798D01*
X0165798Y0072307D01*
X0167022Y0071800D01*
X0165798Y0071293D01*
X0164307Y0069802D01*
X0163500Y0067854D01*
X0163500Y0065746D01*
X0164307Y0063798D01*
X0165798Y0062307D01*
X0167746Y0061500D01*
X0175854Y0061500D01*
X0177802Y0062307D01*
X0179293Y0063798D01*
X0180100Y0065746D01*
X0180100Y0067854D01*
X0179293Y0069802D01*
X0177802Y0071293D01*
X0176578Y0071800D01*
X0177802Y0072307D01*
X0179293Y0073798D01*
X0180100Y0075746D01*
X0180100Y0077854D01*
X0179293Y0079802D01*
X0177802Y0081293D01*
X0176578Y0081800D01*
X0177802Y0082307D01*
X0179293Y0083798D01*
X0180100Y0085746D01*
X0180100Y0087854D01*
X0179667Y0088900D01*
X0183701Y0092934D01*
X0183701Y0003600D01*
X0003600Y0003600D01*
X0003600Y0079065D01*
X0036265Y0046400D01*
X0034895Y0046400D01*
X0032200Y0043705D01*
X0032200Y0039895D01*
X0034895Y0037200D01*
X0038705Y0037200D01*
X0041400Y0039895D01*
X0041400Y0041265D01*
X0053525Y0029140D01*
X0053525Y0023596D01*
X0052494Y0022469D02*
X0050794Y0022469D01*
X0051490Y0020870D02*
X0051831Y0020870D01*
X0051800Y0019272D02*
X0051600Y0019272D01*
X0051600Y0017673D02*
X0051800Y0017673D01*
X0051800Y0016075D02*
X0051600Y0016075D01*
X0051600Y0014476D02*
X0051800Y0014476D01*
X0051800Y0012878D02*
X0051514Y0012878D01*
X0050902Y0011279D02*
X0052432Y0011279D01*
X0053848Y0009681D02*
X0049289Y0009681D01*
X0047000Y0009681D02*
X0046600Y0009681D01*
X0046600Y0011279D02*
X0047000Y0011279D01*
X0047000Y0012878D02*
X0046600Y0012878D01*
X0046600Y0014476D02*
X0047000Y0014476D01*
X0042698Y0011279D02*
X0041493Y0011279D01*
X0040176Y0009681D02*
X0044311Y0009681D01*
X0033424Y0009681D02*
X0029289Y0009681D01*
X0030902Y0011279D02*
X0032107Y0011279D01*
X0027000Y0011279D02*
X0026600Y0011279D01*
X0026600Y0009681D02*
X0027000Y0009681D01*
X0026600Y0009000D02*
X0026600Y0016600D01*
X0022000Y0016600D01*
X0022000Y0013422D01*
X0022118Y0012676D01*
X0022352Y0011957D01*
X0022695Y0011284D01*
X0023139Y0010673D01*
X0023673Y0010139D01*
X0024284Y0009695D01*
X0024957Y0009352D01*
X0025676Y0009118D01*
X0026422Y0009000D01*
X0026600Y0009000D01*
X0024311Y0009681D02*
X0019752Y0009681D01*
X0019632Y0009561D02*
X0021039Y0010968D01*
X0021800Y0012805D01*
X0021800Y0020795D01*
X0021039Y0022632D01*
X0019632Y0024039D01*
X0017795Y0024800D01*
X0015805Y0024800D01*
X0013968Y0024039D01*
X0012561Y0022632D01*
X0011800Y0020795D01*
X0011800Y0012805D01*
X0012561Y0010968D01*
X0013968Y0009561D01*
X0015805Y0008800D01*
X0017795Y0008800D01*
X0019632Y0009561D01*
X0021168Y0011279D02*
X0022698Y0011279D01*
X0022086Y0012878D02*
X0021800Y0012878D01*
X0021800Y0014476D02*
X0022000Y0014476D01*
X0022000Y0016075D02*
X0021800Y0016075D01*
X0021800Y0017673D02*
X0022000Y0017673D01*
X0022000Y0019272D02*
X0021800Y0019272D01*
X0021769Y0020870D02*
X0022110Y0020870D01*
X0022806Y0022469D02*
X0021106Y0022469D01*
X0019563Y0024068D02*
X0024603Y0024068D01*
X0026600Y0024068D02*
X0027000Y0024068D01*
X0026625Y0025575D02*
X0026625Y0016800D01*
X0026800Y0016800D01*
X0026600Y0016075D02*
X0027000Y0016075D01*
X0027000Y0017673D02*
X0026600Y0017673D01*
X0026600Y0019272D02*
X0027000Y0019272D01*
X0027000Y0020870D02*
X0026600Y0020870D01*
X0026600Y0022469D02*
X0027000Y0022469D01*
X0028997Y0024068D02*
X0033572Y0024068D01*
X0032169Y0022469D02*
X0030794Y0022469D01*
X0031490Y0020870D02*
X0031507Y0020870D01*
X0027000Y0014476D02*
X0026600Y0014476D01*
X0026600Y0012878D02*
X0027000Y0012878D01*
X0013848Y0009681D02*
X0003600Y0009681D01*
X0003600Y0011279D02*
X0012432Y0011279D01*
X0011800Y0012878D02*
X0003600Y0012878D01*
X0003600Y0014476D02*
X0011800Y0014476D01*
X0011800Y0016075D02*
X0003600Y0016075D01*
X0003600Y0017673D02*
X0011800Y0017673D01*
X0011800Y0019272D02*
X0003600Y0019272D01*
X0003600Y0020870D02*
X0011831Y0020870D01*
X0012494Y0022469D02*
X0003600Y0022469D01*
X0003600Y0024068D02*
X0014037Y0024068D01*
X0012805Y0031800D02*
X0020795Y0031800D01*
X0022632Y0032561D01*
X0024039Y0033968D01*
X0024800Y0035805D01*
X0024800Y0037795D01*
X0024039Y0039632D01*
X0022632Y0041039D01*
X0020795Y0041800D01*
X0012805Y0041800D01*
X0010968Y0041039D01*
X0009561Y0039632D01*
X0008800Y0037795D01*
X0008800Y0035805D01*
X0009561Y0033968D01*
X0010968Y0032561D01*
X0012805Y0031800D01*
X0012178Y0032060D02*
X0003600Y0032060D01*
X0003600Y0030462D02*
X0052204Y0030462D01*
X0053525Y0028863D02*
X0003600Y0028863D01*
X0003600Y0027265D02*
X0053525Y0027265D01*
X0053525Y0025666D02*
X0003600Y0025666D01*
X0003600Y0033659D02*
X0009870Y0033659D01*
X0009027Y0035257D02*
X0003600Y0035257D01*
X0003600Y0036856D02*
X0008800Y0036856D01*
X0009073Y0038454D02*
X0003600Y0038454D01*
X0003600Y0040053D02*
X0009982Y0040053D01*
X0012446Y0041651D02*
X0003600Y0041651D01*
X0003600Y0043250D02*
X0010562Y0043250D01*
X0009407Y0044848D02*
X0003600Y0044848D01*
X0003600Y0046447D02*
X0009000Y0046447D01*
X0009158Y0048045D02*
X0003600Y0048045D01*
X0003600Y0049644D02*
X0009933Y0049644D01*
X0011945Y0051242D02*
X0003600Y0051242D01*
X0003600Y0052841D02*
X0029824Y0052841D01*
X0028226Y0054439D02*
X0003600Y0054439D01*
X0003600Y0056038D02*
X0026627Y0056038D01*
X0025029Y0057636D02*
X0003600Y0057636D01*
X0003600Y0059235D02*
X0023430Y0059235D01*
X0021832Y0060833D02*
X0003600Y0060833D01*
X0003600Y0062432D02*
X0020233Y0062432D01*
X0018635Y0064030D02*
X0003600Y0064030D01*
X0003600Y0065629D02*
X0017036Y0065629D01*
X0015438Y0067227D02*
X0003600Y0067227D01*
X0003600Y0068826D02*
X0013839Y0068826D01*
X0012241Y0070424D02*
X0003600Y0070424D01*
X0003600Y0072023D02*
X0010642Y0072023D01*
X0009044Y0073621D02*
X0003600Y0073621D01*
X0003600Y0075220D02*
X0007445Y0075220D01*
X0005847Y0076818D02*
X0003600Y0076818D01*
X0003600Y0078417D02*
X0004248Y0078417D01*
X0005025Y0081600D02*
X0005025Y0165300D01*
X0016500Y0176775D01*
X0016800Y0176800D01*
X0017175Y0177450D01*
X0034050Y0177450D01*
X0039450Y0182850D01*
X0065775Y0182850D01*
X0071175Y0177450D01*
X0071800Y0176800D01*
X0075939Y0180722D02*
X0077661Y0180722D01*
X0080232Y0182320D02*
X0073368Y0182320D01*
X0068666Y0183919D02*
X0183701Y0183919D01*
X0183701Y0182320D02*
X0153368Y0182320D01*
X0155939Y0180722D02*
X0169499Y0180722D01*
X0167901Y0179123D02*
X0157007Y0179123D01*
X0157500Y0177525D02*
X0167400Y0177525D01*
X0167400Y0175926D02*
X0166679Y0175926D01*
X0168900Y0172729D02*
X0169648Y0172729D01*
X0169201Y0171131D02*
X0168900Y0171131D01*
X0171800Y0172729D02*
X0171800Y0172729D01*
X0171800Y0174328D02*
X0171800Y0174328D01*
X0171800Y0175926D02*
X0171800Y0175926D01*
X0171800Y0177525D02*
X0171800Y0177525D01*
X0171800Y0179123D02*
X0171800Y0179123D01*
X0171800Y0180722D02*
X0171800Y0180722D01*
X0174101Y0180722D02*
X0183701Y0180722D01*
X0183701Y0179123D02*
X0175699Y0179123D01*
X0176200Y0177525D02*
X0183701Y0177525D01*
X0183701Y0175926D02*
X0176200Y0175926D01*
X0175550Y0174328D02*
X0183701Y0174328D01*
X0183701Y0172729D02*
X0173952Y0172729D01*
X0174399Y0171131D02*
X0183701Y0171131D01*
X0183701Y0169532D02*
X0175998Y0169532D01*
X0176700Y0167934D02*
X0183701Y0167934D01*
X0183701Y0166335D02*
X0176700Y0166335D01*
X0176666Y0164737D02*
X0183701Y0164737D01*
X0183701Y0163138D02*
X0175725Y0163138D01*
X0175725Y0161539D02*
X0183701Y0161539D01*
X0183701Y0159941D02*
X0175725Y0159941D01*
X0177299Y0158342D02*
X0183701Y0158342D01*
X0183701Y0156744D02*
X0178898Y0156744D01*
X0180496Y0155145D02*
X0183701Y0155145D01*
X0183701Y0153547D02*
X0182095Y0153547D01*
X0183693Y0151948D02*
X0183701Y0151948D01*
X0177557Y0148751D02*
X0174974Y0148751D01*
X0171800Y0148751D02*
X0171800Y0148751D01*
X0171800Y0150350D02*
X0171800Y0150350D01*
X0168900Y0147153D02*
X0177900Y0147153D01*
X0177900Y0145554D02*
X0174975Y0145554D01*
X0176574Y0143956D02*
X0177900Y0143956D01*
X0177900Y0142357D02*
X0176700Y0142357D01*
X0176700Y0140759D02*
X0177900Y0140759D01*
X0177900Y0139160D02*
X0176090Y0139160D01*
X0175725Y0137562D02*
X0177900Y0137562D01*
X0177900Y0135963D02*
X0175725Y0135963D01*
X0176302Y0134365D02*
X0177900Y0134365D01*
X0169945Y0131168D02*
X0051520Y0131168D01*
X0053118Y0132766D02*
X0169188Y0132766D01*
X0169125Y0134365D02*
X0054717Y0134365D01*
X0056315Y0135963D02*
X0169125Y0135963D01*
X0169109Y0137562D02*
X0057914Y0137562D01*
X0059512Y0139160D02*
X0167510Y0139160D01*
X0166900Y0140759D02*
X0061111Y0140759D01*
X0051198Y0150350D02*
X0023321Y0150350D01*
X0023996Y0149675D02*
X0022632Y0151039D01*
X0020795Y0151800D01*
X0022632Y0152561D01*
X0024039Y0153968D01*
X0024800Y0155805D01*
X0024800Y0157795D01*
X0024039Y0159632D01*
X0022632Y0161039D01*
X0020795Y0161800D01*
X0012805Y0161800D01*
X0010968Y0161039D01*
X0009561Y0159632D01*
X0008800Y0157795D01*
X0008800Y0155805D01*
X0009561Y0153968D01*
X0010968Y0152561D01*
X0012805Y0151800D01*
X0020795Y0151800D01*
X0012805Y0151800D01*
X0010968Y0151039D01*
X0009561Y0149632D01*
X0008800Y0147795D01*
X0008800Y0145805D01*
X0009561Y0143968D01*
X0010968Y0142561D01*
X0012805Y0141800D01*
X0010968Y0141039D01*
X0009561Y0139632D01*
X0008800Y0137795D01*
X0008800Y0135805D01*
X0009561Y0133968D01*
X0010968Y0132561D01*
X0012805Y0131800D01*
X0020795Y0131800D01*
X0022632Y0132561D01*
X0024039Y0133968D01*
X0024800Y0135805D01*
X0024800Y0137795D01*
X0024039Y0139632D01*
X0022632Y0141039D01*
X0020795Y0141800D01*
X0012805Y0141800D01*
X0020795Y0141800D01*
X0022632Y0142561D01*
X0024039Y0143968D01*
X0024249Y0144475D01*
X0049373Y0144475D01*
X0034323Y0129425D01*
X0024125Y0129425D01*
X0024039Y0129632D01*
X0022632Y0131039D01*
X0020795Y0131800D01*
X0012805Y0131800D01*
X0010968Y0131039D01*
X0009561Y0129632D01*
X0008800Y0127795D01*
X0008800Y0125805D01*
X0009561Y0123968D01*
X0010968Y0122561D01*
X0012805Y0121800D01*
X0010968Y0121039D01*
X0009561Y0119632D01*
X0008800Y0117795D01*
X0008800Y0115805D01*
X0009561Y0113968D01*
X0009826Y0113703D01*
X0007825Y0111702D01*
X0007825Y0164140D01*
X0009178Y0165493D01*
X0009352Y0164957D01*
X0009695Y0164284D01*
X0010139Y0163673D01*
X0010673Y0163139D01*
X0011284Y0162695D01*
X0011957Y0162352D01*
X0012676Y0162118D01*
X0013422Y0162000D01*
X0016600Y0162000D01*
X0016600Y0166600D01*
X0017000Y0166600D01*
X0017000Y0167000D01*
X0016600Y0167000D01*
X0016600Y0171600D01*
X0015285Y0171600D01*
X0015485Y0171800D01*
X0020795Y0171800D01*
X0022632Y0172561D01*
X0024039Y0173968D01*
X0024321Y0174650D01*
X0034607Y0174650D01*
X0035636Y0175076D01*
X0036137Y0175577D01*
X0036968Y0173571D01*
X0038571Y0171968D01*
X0040666Y0171100D01*
X0042934Y0171100D01*
X0045029Y0171968D01*
X0046632Y0173571D01*
X0046919Y0174264D01*
X0047096Y0173917D01*
X0047605Y0173217D01*
X0048217Y0172605D01*
X0048917Y0172096D01*
X0049689Y0171703D01*
X0050512Y0171435D01*
X0051367Y0171300D01*
X0051600Y0171300D01*
X0051600Y0176600D01*
X0052000Y0176600D01*
X0052000Y0171300D01*
X0052233Y0171300D01*
X0053088Y0171435D01*
X0053911Y0171703D01*
X0054683Y0172096D01*
X0055383Y0172605D01*
X0055995Y0173217D01*
X0056504Y0173917D01*
X0056681Y0174264D01*
X0056968Y0173571D01*
X0058571Y0171968D01*
X0060666Y0171100D01*
X0062934Y0171100D01*
X0065029Y0171968D01*
X0066632Y0173571D01*
X0066800Y0173976D01*
X0066968Y0173571D01*
X0068571Y0171968D01*
X0070666Y0171100D01*
X0071948Y0171100D01*
X0050523Y0149675D01*
X0023996Y0149675D01*
X0021153Y0151948D02*
X0052796Y0151948D01*
X0054395Y0153547D02*
X0023618Y0153547D01*
X0024527Y0155145D02*
X0055994Y0155145D01*
X0057592Y0156744D02*
X0024800Y0156744D01*
X0024573Y0158342D02*
X0059191Y0158342D01*
X0060789Y0159941D02*
X0023730Y0159941D01*
X0021423Y0161539D02*
X0062388Y0161539D01*
X0063986Y0163138D02*
X0022926Y0163138D01*
X0022927Y0163139D02*
X0023461Y0163673D01*
X0023905Y0164284D01*
X0024248Y0164957D01*
X0024482Y0165676D01*
X0024600Y0166422D01*
X0024600Y0166600D01*
X0017000Y0166600D01*
X0017000Y0162000D01*
X0020178Y0162000D01*
X0020924Y0162118D01*
X0021643Y0162352D01*
X0022316Y0162695D01*
X0022927Y0163139D01*
X0024136Y0164737D02*
X0065585Y0164737D01*
X0067183Y0166335D02*
X0024586Y0166335D01*
X0024600Y0167000D02*
X0024600Y0167178D01*
X0024482Y0167924D01*
X0024248Y0168643D01*
X0023905Y0169316D01*
X0023461Y0169927D01*
X0022927Y0170461D01*
X0022316Y0170905D01*
X0021643Y0171248D01*
X0020924Y0171482D01*
X0020178Y0171600D01*
X0017000Y0171600D01*
X0017000Y0167000D01*
X0024600Y0167000D01*
X0024479Y0167934D02*
X0068782Y0167934D01*
X0070380Y0169532D02*
X0023748Y0169532D01*
X0021874Y0171131D02*
X0040592Y0171131D01*
X0043008Y0171131D02*
X0060592Y0171131D01*
X0063008Y0171131D02*
X0070592Y0171131D01*
X0067810Y0172729D02*
X0065790Y0172729D01*
X0057810Y0172729D02*
X0055507Y0172729D01*
X0052000Y0172729D02*
X0051600Y0172729D01*
X0051600Y0174328D02*
X0052000Y0174328D01*
X0052000Y0175926D02*
X0051600Y0175926D01*
X0051600Y0176775D02*
X0051800Y0176800D01*
X0051600Y0176775D02*
X0042150Y0167325D01*
X0017175Y0167325D01*
X0016800Y0166800D01*
X0016600Y0166335D02*
X0017000Y0166335D01*
X0017000Y0164737D02*
X0016600Y0164737D01*
X0016600Y0163138D02*
X0017000Y0163138D01*
X0017000Y0167934D02*
X0016600Y0167934D01*
X0016600Y0169532D02*
X0017000Y0169532D01*
X0017000Y0171131D02*
X0016600Y0171131D01*
X0009464Y0164737D02*
X0008421Y0164737D01*
X0007825Y0163138D02*
X0010674Y0163138D01*
X0012177Y0161539D02*
X0007825Y0161539D01*
X0007825Y0159941D02*
X0009870Y0159941D01*
X0009027Y0158342D02*
X0007825Y0158342D01*
X0007825Y0156744D02*
X0008800Y0156744D01*
X0009073Y0155145D02*
X0007825Y0155145D01*
X0007825Y0153547D02*
X0009982Y0153547D01*
X0007825Y0151948D02*
X0012447Y0151948D01*
X0010279Y0150350D02*
X0007825Y0150350D01*
X0007825Y0148751D02*
X0009196Y0148751D01*
X0008800Y0147153D02*
X0007825Y0147153D01*
X0007825Y0145554D02*
X0008904Y0145554D01*
X0009573Y0143956D02*
X0007825Y0143956D01*
X0007825Y0142357D02*
X0011460Y0142357D01*
X0010688Y0140759D02*
X0007825Y0140759D01*
X0007825Y0139160D02*
X0009366Y0139160D01*
X0008800Y0137562D02*
X0007825Y0137562D01*
X0007825Y0135963D02*
X0008800Y0135963D01*
X0009397Y0134365D02*
X0007825Y0134365D01*
X0007825Y0132766D02*
X0010763Y0132766D01*
X0011279Y0131168D02*
X0007825Y0131168D01*
X0007825Y0129569D02*
X0009535Y0129569D01*
X0008873Y0127971D02*
X0007825Y0127971D01*
X0007825Y0126372D02*
X0008800Y0126372D01*
X0009227Y0124774D02*
X0007825Y0124774D01*
X0007825Y0123175D02*
X0010354Y0123175D01*
X0012266Y0121577D02*
X0007825Y0121577D01*
X0007825Y0119978D02*
X0009907Y0119978D01*
X0009042Y0118380D02*
X0007825Y0118380D01*
X0007825Y0116781D02*
X0008800Y0116781D01*
X0009058Y0115183D02*
X0007825Y0115183D01*
X0007825Y0113584D02*
X0009707Y0113584D01*
X0008109Y0111986D02*
X0007825Y0111986D01*
X0012805Y0121800D02*
X0020795Y0121800D01*
X0022632Y0121039D01*
X0024039Y0119632D01*
X0024800Y0117795D01*
X0024800Y0115852D01*
X0033173Y0124225D01*
X0024145Y0124225D01*
X0024039Y0123968D01*
X0022632Y0122561D01*
X0020795Y0121800D01*
X0012805Y0121800D01*
X0021334Y0121577D02*
X0030525Y0121577D01*
X0032123Y0123175D02*
X0023246Y0123175D01*
X0023693Y0119978D02*
X0028926Y0119978D01*
X0027328Y0118380D02*
X0024558Y0118380D01*
X0024800Y0116781D02*
X0025729Y0116781D01*
X0024065Y0129569D02*
X0034467Y0129569D01*
X0036066Y0131168D02*
X0022321Y0131168D01*
X0022837Y0132766D02*
X0037664Y0132766D01*
X0039263Y0134365D02*
X0024203Y0134365D01*
X0024800Y0135963D02*
X0040861Y0135963D01*
X0042460Y0137562D02*
X0024800Y0137562D01*
X0024234Y0139160D02*
X0044058Y0139160D01*
X0045657Y0140759D02*
X0022912Y0140759D01*
X0022140Y0142357D02*
X0047255Y0142357D01*
X0048854Y0143956D02*
X0024027Y0143956D01*
X0043527Y0123175D02*
X0159700Y0123175D01*
X0159700Y0123705D02*
X0159700Y0119895D01*
X0162395Y0117200D01*
X0166205Y0117200D01*
X0166900Y0117895D01*
X0166900Y0114770D01*
X0169770Y0111900D01*
X0173830Y0111900D01*
X0173850Y0111920D01*
X0173850Y0103217D01*
X0172733Y0102100D01*
X0167746Y0102100D01*
X0165798Y0101293D01*
X0164930Y0100425D01*
X0143670Y0100425D01*
X0142802Y0101293D01*
X0140854Y0102100D01*
X0132746Y0102100D01*
X0130798Y0101293D01*
X0129307Y0099802D01*
X0128500Y0097854D01*
X0128500Y0095746D01*
X0129307Y0093798D01*
X0130798Y0092307D01*
X0130710Y0091205D02*
X0100125Y0091205D01*
X0100125Y0092803D02*
X0104574Y0092803D01*
X0102975Y0094402D02*
X0101332Y0094402D01*
X0101700Y0096001D02*
X0102400Y0096001D01*
X0102400Y0097599D02*
X0101700Y0097599D01*
X0101332Y0099198D02*
X0102975Y0099198D01*
X0106800Y0099198D02*
X0106800Y0099198D01*
X0106800Y0100796D02*
X0106800Y0100796D01*
X0106400Y0102395D02*
X0173028Y0102395D01*
X0173850Y0103993D02*
X0106400Y0103993D01*
X0106400Y0105592D02*
X0173850Y0105592D01*
X0173850Y0107190D02*
X0105415Y0107190D01*
X0103817Y0108789D02*
X0173850Y0108789D01*
X0173850Y0110387D02*
X0098914Y0110387D01*
X0099783Y0108789D02*
X0096881Y0108789D01*
X0098185Y0107190D02*
X0080415Y0107190D01*
X0081400Y0105592D02*
X0097200Y0105592D01*
X0105047Y0111986D02*
X0108553Y0111986D01*
X0106962Y0113584D02*
X0106638Y0113584D01*
X0106653Y0119978D02*
X0106947Y0119978D01*
X0108516Y0121577D02*
X0105084Y0121577D01*
X0098516Y0121577D02*
X0095084Y0121577D01*
X0096653Y0119978D02*
X0096947Y0119978D01*
X0088516Y0121577D02*
X0085084Y0121577D01*
X0086653Y0119978D02*
X0086947Y0119978D01*
X0078516Y0121577D02*
X0074540Y0121577D01*
X0076289Y0119978D02*
X0076947Y0119978D01*
X0072000Y0119978D02*
X0071600Y0119978D01*
X0071600Y0118380D02*
X0072000Y0118380D01*
X0072000Y0121577D02*
X0071600Y0121577D01*
X0069060Y0121577D02*
X0065084Y0121577D01*
X0066653Y0119978D02*
X0067311Y0119978D01*
X0058516Y0121577D02*
X0055084Y0121577D01*
X0056653Y0119978D02*
X0056947Y0119978D01*
X0048516Y0121577D02*
X0045084Y0121577D01*
X0046653Y0119978D02*
X0046947Y0119978D01*
X0045126Y0124774D02*
X0160768Y0124774D01*
X0159700Y0123705D02*
X0162395Y0126400D01*
X0166205Y0126400D01*
X0167400Y0125205D01*
X0167400Y0126800D01*
X0171800Y0126800D01*
X0171800Y0122400D01*
X0173623Y0122400D01*
X0173850Y0122627D01*
X0173850Y0121680D01*
X0173830Y0121700D01*
X0169770Y0121700D01*
X0168900Y0120830D01*
X0168900Y0123477D01*
X0169977Y0122400D01*
X0171800Y0122400D01*
X0171800Y0126800D01*
X0171800Y0126800D01*
X0171800Y0126372D02*
X0171800Y0126372D01*
X0171800Y0124774D02*
X0171800Y0124774D01*
X0171800Y0123175D02*
X0171800Y0123175D01*
X0169202Y0123175D02*
X0168900Y0123175D01*
X0168900Y0121577D02*
X0169647Y0121577D01*
X0167400Y0126372D02*
X0166233Y0126372D01*
X0167400Y0127971D02*
X0048323Y0127971D01*
X0049921Y0129569D02*
X0168347Y0129569D01*
X0162367Y0126372D02*
X0046724Y0126372D01*
X0055415Y0107190D02*
X0073185Y0107190D01*
X0072200Y0105592D02*
X0056400Y0105592D01*
X0056400Y0103993D02*
X0072200Y0103993D01*
X0072200Y0102395D02*
X0056400Y0102395D01*
X0056800Y0100796D02*
X0056800Y0100796D01*
X0056800Y0099198D02*
X0056800Y0099198D01*
X0056800Y0097599D02*
X0056800Y0097599D01*
X0056800Y0096800D02*
X0056800Y0096800D01*
X0061200Y0096800D01*
X0061200Y0094977D01*
X0058623Y0092400D01*
X0056800Y0092400D01*
X0056800Y0096800D01*
X0056800Y0096800D01*
X0056800Y0092400D01*
X0054977Y0092400D01*
X0056800Y0092803D02*
X0056800Y0092803D01*
X0056800Y0094402D02*
X0056800Y0094402D01*
X0056800Y0096001D02*
X0056800Y0096001D01*
X0059026Y0092803D02*
X0068867Y0092803D01*
X0067268Y0094402D02*
X0060625Y0094402D01*
X0061200Y0096001D02*
X0066900Y0096001D01*
X0066900Y0097599D02*
X0061200Y0097599D01*
X0060625Y0099198D02*
X0067268Y0099198D01*
X0068866Y0100796D02*
X0059026Y0100796D01*
X0052975Y0099198D02*
X0051332Y0099198D01*
X0051700Y0097599D02*
X0052400Y0097599D01*
X0052400Y0096001D02*
X0051700Y0096001D01*
X0051332Y0094402D02*
X0052975Y0094402D01*
X0053705Y0086400D02*
X0049895Y0086400D01*
X0047200Y0083705D01*
X0047200Y0079895D01*
X0049895Y0077200D01*
X0053705Y0077200D01*
X0056400Y0079895D01*
X0056400Y0083705D01*
X0053705Y0086400D01*
X0055294Y0084811D02*
X0094347Y0084811D01*
X0095946Y0083212D02*
X0056400Y0083212D01*
X0056400Y0081614D02*
X0097544Y0081614D01*
X0099143Y0080015D02*
X0056400Y0080015D01*
X0054922Y0078417D02*
X0100741Y0078417D01*
X0105279Y0083212D02*
X0129892Y0083212D01*
X0128887Y0084811D02*
X0103681Y0084811D01*
X0102082Y0086409D02*
X0128500Y0086409D01*
X0128564Y0088008D02*
X0100484Y0088008D01*
X0100125Y0089606D02*
X0129226Y0089606D01*
X0129057Y0094402D02*
X0110625Y0094402D01*
X0111200Y0096001D02*
X0128500Y0096001D01*
X0128500Y0097599D02*
X0111200Y0097599D01*
X0110625Y0099198D02*
X0129056Y0099198D01*
X0130301Y0100796D02*
X0109026Y0100796D01*
X0115047Y0111986D02*
X0118553Y0111986D01*
X0116962Y0113584D02*
X0116638Y0113584D01*
X0116653Y0119978D02*
X0116947Y0119978D01*
X0118516Y0121577D02*
X0115084Y0121577D01*
X0125084Y0121577D02*
X0128516Y0121577D01*
X0126947Y0119978D02*
X0126653Y0119978D01*
X0126638Y0113584D02*
X0126962Y0113584D01*
X0128553Y0111986D02*
X0125047Y0111986D01*
X0135047Y0111986D02*
X0138553Y0111986D01*
X0136962Y0113584D02*
X0136638Y0113584D01*
X0136653Y0119978D02*
X0136947Y0119978D01*
X0138516Y0121577D02*
X0135084Y0121577D01*
X0145084Y0121577D02*
X0148516Y0121577D01*
X0146947Y0119978D02*
X0146653Y0119978D01*
X0146638Y0113584D02*
X0146962Y0113584D01*
X0148553Y0111986D02*
X0145047Y0111986D01*
X0155047Y0111986D02*
X0169685Y0111986D01*
X0168086Y0113584D02*
X0156638Y0113584D01*
X0157300Y0115183D02*
X0166900Y0115183D01*
X0166900Y0116781D02*
X0157500Y0116781D01*
X0157315Y0118380D02*
X0161215Y0118380D01*
X0159700Y0119978D02*
X0156653Y0119978D01*
X0155084Y0121577D02*
X0159700Y0121577D01*
X0162237Y0142357D02*
X0100509Y0142357D01*
X0102108Y0143956D02*
X0160639Y0143956D01*
X0159700Y0145554D02*
X0103706Y0145554D01*
X0105305Y0147153D02*
X0159700Y0147153D01*
X0159746Y0148751D02*
X0106903Y0148751D01*
X0108502Y0150350D02*
X0161345Y0150350D01*
X0167255Y0150350D02*
X0167400Y0150350D01*
X0167400Y0151948D02*
X0110100Y0151948D01*
X0111699Y0153547D02*
X0167400Y0153547D01*
X0168923Y0155145D02*
X0113297Y0155145D01*
X0114896Y0156744D02*
X0169601Y0156744D01*
X0169125Y0158342D02*
X0116494Y0158342D01*
X0118093Y0159941D02*
X0169125Y0159941D01*
X0169125Y0161539D02*
X0119691Y0161539D01*
X0121290Y0163138D02*
X0168532Y0163138D01*
X0166934Y0164737D02*
X0122888Y0164737D01*
X0124487Y0166335D02*
X0166900Y0166335D01*
X0161661Y0167934D02*
X0126085Y0167934D01*
X0127684Y0169532D02*
X0160063Y0169532D01*
X0159700Y0171131D02*
X0153008Y0171131D01*
X0155790Y0172729D02*
X0159700Y0172729D01*
X0160322Y0174328D02*
X0156946Y0174328D01*
X0157500Y0175926D02*
X0161921Y0175926D01*
X0150592Y0171131D02*
X0143008Y0171131D01*
X0140592Y0171131D02*
X0133008Y0171131D01*
X0130592Y0171131D02*
X0129282Y0171131D01*
X0135790Y0172729D02*
X0137810Y0172729D01*
X0145790Y0172729D02*
X0147810Y0172729D01*
X0147661Y0180722D02*
X0145939Y0180722D01*
X0143368Y0182320D02*
X0150232Y0182320D01*
X0140232Y0182320D02*
X0133368Y0182320D01*
X0130232Y0182320D02*
X0123368Y0182320D01*
X0125939Y0180722D02*
X0127661Y0180722D01*
X0120232Y0182320D02*
X0113368Y0182320D01*
X0115939Y0180722D02*
X0117661Y0180722D01*
X0110232Y0182320D02*
X0103368Y0182320D01*
X0100232Y0182320D02*
X0093368Y0182320D01*
X0095939Y0180722D02*
X0097661Y0180722D01*
X0090232Y0182320D02*
X0083368Y0182320D01*
X0085939Y0180722D02*
X0087661Y0180722D01*
X0105939Y0180722D02*
X0107661Y0180722D01*
X0135939Y0180722D02*
X0137661Y0180722D01*
X0166363Y0142357D02*
X0166900Y0142357D01*
X0165301Y0100796D02*
X0143299Y0100796D01*
X0143708Y0083212D02*
X0164892Y0083212D01*
X0166572Y0081614D02*
X0142028Y0081614D01*
X0144080Y0080015D02*
X0164520Y0080015D01*
X0163733Y0078417D02*
X0144867Y0078417D01*
X0145100Y0076818D02*
X0163500Y0076818D01*
X0163718Y0075220D02*
X0144882Y0075220D01*
X0144117Y0073621D02*
X0164483Y0073621D01*
X0166484Y0072023D02*
X0142116Y0072023D01*
X0143671Y0070424D02*
X0164929Y0070424D01*
X0163902Y0068826D02*
X0144698Y0068826D01*
X0145100Y0067227D02*
X0163500Y0067227D01*
X0163548Y0065629D02*
X0145052Y0065629D01*
X0144389Y0064030D02*
X0164211Y0064030D01*
X0165673Y0062432D02*
X0142927Y0062432D01*
X0134053Y0054439D02*
X0183701Y0054439D01*
X0183701Y0052841D02*
X0135651Y0052841D01*
X0132454Y0056038D02*
X0183701Y0056038D01*
X0183701Y0057636D02*
X0130856Y0057636D01*
X0129257Y0059235D02*
X0183701Y0059235D01*
X0183701Y0060833D02*
X0127659Y0060833D01*
X0126060Y0062432D02*
X0130673Y0062432D01*
X0129211Y0064030D02*
X0124462Y0064030D01*
X0122863Y0065629D02*
X0128548Y0065629D01*
X0128500Y0067227D02*
X0121265Y0067227D01*
X0119666Y0068826D02*
X0128902Y0068826D01*
X0129929Y0070424D02*
X0118068Y0070424D01*
X0116469Y0072023D02*
X0131484Y0072023D01*
X0129483Y0073621D02*
X0114871Y0073621D01*
X0113272Y0075220D02*
X0128718Y0075220D01*
X0128500Y0076818D02*
X0111673Y0076818D01*
X0110075Y0078417D02*
X0128733Y0078417D01*
X0129520Y0080015D02*
X0108476Y0080015D01*
X0106878Y0081614D02*
X0131572Y0081614D01*
X0124719Y0054439D02*
X0036146Y0054439D01*
X0037744Y0052841D02*
X0126317Y0052841D01*
X0127916Y0051242D02*
X0039343Y0051242D01*
X0040941Y0049644D02*
X0129241Y0049644D01*
X0128579Y0048045D02*
X0042540Y0048045D01*
X0044138Y0046447D02*
X0128500Y0046447D01*
X0128872Y0044848D02*
X0054974Y0044848D01*
X0056200Y0043250D02*
X0129855Y0043250D01*
X0131662Y0041651D02*
X0056200Y0041651D01*
X0056200Y0040053D02*
X0129557Y0040053D01*
X0128748Y0038454D02*
X0054677Y0038454D01*
X0053729Y0036856D02*
X0128500Y0036856D01*
X0128702Y0035257D02*
X0055328Y0035257D01*
X0056926Y0033659D02*
X0129446Y0033659D01*
X0131394Y0032060D02*
X0058525Y0032060D01*
X0059125Y0030462D02*
X0129966Y0030462D01*
X0128918Y0028863D02*
X0059125Y0028863D01*
X0059125Y0027265D02*
X0128500Y0027265D01*
X0128533Y0025666D02*
X0059125Y0025666D01*
X0059563Y0024068D02*
X0064603Y0024068D01*
X0064284Y0023905D02*
X0063673Y0023461D01*
X0063139Y0022927D01*
X0062695Y0022316D01*
X0062352Y0021643D01*
X0062118Y0020924D01*
X0062000Y0020178D01*
X0062000Y0017000D01*
X0066600Y0017000D01*
X0066600Y0024600D01*
X0066422Y0024600D01*
X0065676Y0024482D01*
X0064957Y0024248D01*
X0064284Y0023905D01*
X0062806Y0022469D02*
X0061106Y0022469D01*
X0061769Y0020870D02*
X0062110Y0020870D01*
X0062000Y0019272D02*
X0061800Y0019272D01*
X0061800Y0017673D02*
X0062000Y0017673D01*
X0062000Y0016600D02*
X0062000Y0013422D01*
X0062118Y0012676D01*
X0062352Y0011957D01*
X0062695Y0011284D01*
X0063139Y0010673D01*
X0063673Y0010139D01*
X0064284Y0009695D01*
X0064957Y0009352D01*
X0065676Y0009118D01*
X0066422Y0009000D01*
X0066600Y0009000D01*
X0066600Y0016600D01*
X0067000Y0016600D01*
X0067000Y0017000D01*
X0071600Y0017000D01*
X0071600Y0020178D01*
X0071482Y0020924D01*
X0071248Y0021643D01*
X0070905Y0022316D01*
X0070461Y0022927D01*
X0069927Y0023461D01*
X0069316Y0023905D01*
X0068643Y0024248D01*
X0067924Y0024482D01*
X0067178Y0024600D01*
X0067000Y0024600D01*
X0067000Y0017000D01*
X0066600Y0017000D01*
X0066600Y0016600D01*
X0062000Y0016600D01*
X0062000Y0016075D02*
X0061800Y0016075D01*
X0061800Y0014476D02*
X0062000Y0014476D01*
X0062086Y0012878D02*
X0061800Y0012878D01*
X0061168Y0011279D02*
X0062698Y0011279D01*
X0064311Y0009681D02*
X0059752Y0009681D01*
X0056800Y0016800D02*
X0056325Y0016800D01*
X0056325Y0030300D01*
X0005025Y0081600D01*
X0024956Y0065629D02*
X0071497Y0065629D01*
X0070010Y0064030D02*
X0026554Y0064030D01*
X0028153Y0062432D02*
X0069476Y0062432D01*
X0069529Y0060833D02*
X0029752Y0060833D01*
X0031350Y0059235D02*
X0070218Y0059235D01*
X0051800Y0044848D02*
X0051800Y0044848D01*
X0051800Y0043250D02*
X0051800Y0043250D01*
X0048626Y0044848D02*
X0045737Y0044848D01*
X0047335Y0043250D02*
X0047400Y0043250D01*
X0044211Y0038454D02*
X0039959Y0038454D01*
X0041400Y0040053D02*
X0042613Y0040053D01*
X0045810Y0036856D02*
X0024800Y0036856D01*
X0024573Y0035257D02*
X0047408Y0035257D01*
X0049007Y0033659D02*
X0023730Y0033659D01*
X0021422Y0032060D02*
X0050605Y0032060D01*
X0036219Y0046447D02*
X0024600Y0046447D01*
X0024442Y0048045D02*
X0034620Y0048045D01*
X0033022Y0049644D02*
X0023667Y0049644D01*
X0021655Y0051242D02*
X0031423Y0051242D01*
X0033343Y0044848D02*
X0024193Y0044848D01*
X0023038Y0043250D02*
X0032200Y0043250D01*
X0032200Y0041651D02*
X0021154Y0041651D01*
X0023618Y0040053D02*
X0032200Y0040053D01*
X0033641Y0038454D02*
X0024527Y0038454D01*
X0017000Y0043250D02*
X0016600Y0043250D01*
X0016600Y0044848D02*
X0017000Y0044848D01*
X0017000Y0048045D02*
X0016600Y0048045D01*
X0016600Y0049644D02*
X0017000Y0049644D01*
X0017000Y0051242D02*
X0016600Y0051242D01*
X0039922Y0078417D02*
X0048678Y0078417D01*
X0047200Y0080015D02*
X0041400Y0080015D01*
X0041400Y0081614D02*
X0047200Y0081614D01*
X0047200Y0083212D02*
X0041400Y0083212D01*
X0040294Y0084811D02*
X0048306Y0084811D01*
X0066600Y0024068D02*
X0067000Y0024068D01*
X0067000Y0022469D02*
X0066600Y0022469D01*
X0066600Y0020870D02*
X0067000Y0020870D01*
X0067000Y0019272D02*
X0066600Y0019272D01*
X0066600Y0017673D02*
X0067000Y0017673D01*
X0067000Y0016600D02*
X0071600Y0016600D01*
X0071600Y0013422D01*
X0071482Y0012676D01*
X0071248Y0011957D01*
X0070905Y0011284D01*
X0070461Y0010673D01*
X0069927Y0010139D01*
X0069316Y0009695D01*
X0068643Y0009352D01*
X0067924Y0009118D01*
X0067178Y0009000D01*
X0067000Y0009000D01*
X0067000Y0016600D01*
X0067000Y0016075D02*
X0066600Y0016075D01*
X0066600Y0014476D02*
X0067000Y0014476D01*
X0067000Y0012878D02*
X0066600Y0012878D01*
X0066600Y0011279D02*
X0067000Y0011279D01*
X0067000Y0009681D02*
X0066600Y0009681D01*
X0069289Y0009681D02*
X0183701Y0009681D01*
X0183701Y0011279D02*
X0070902Y0011279D01*
X0071514Y0012878D02*
X0130227Y0012878D01*
X0129026Y0014476D02*
X0071600Y0014476D01*
X0071600Y0016075D02*
X0128500Y0016075D01*
X0128500Y0017673D02*
X0071600Y0017673D01*
X0071600Y0019272D02*
X0129087Y0019272D01*
X0130375Y0020870D02*
X0071490Y0020870D01*
X0070794Y0022469D02*
X0130636Y0022469D01*
X0129195Y0024068D02*
X0068997Y0024068D01*
X0003600Y0008082D02*
X0183701Y0008082D01*
X0183701Y0006484D02*
X0003600Y0006484D01*
X0003600Y0004885D02*
X0183701Y0004885D01*
X0183701Y0012878D02*
X0178373Y0012878D01*
X0177802Y0012307D02*
X0179293Y0013798D01*
X0180100Y0015746D01*
X0180100Y0017854D01*
X0179293Y0019802D01*
X0177802Y0021293D01*
X0176578Y0021800D01*
X0177802Y0022307D01*
X0179293Y0023798D01*
X0180100Y0025746D01*
X0180100Y0027854D01*
X0179293Y0029802D01*
X0177802Y0031293D01*
X0176578Y0031800D01*
X0177802Y0032307D01*
X0179293Y0033798D01*
X0180100Y0035746D01*
X0180100Y0037854D01*
X0179293Y0039802D01*
X0177802Y0041293D01*
X0176578Y0041800D01*
X0177802Y0042307D01*
X0179293Y0043798D01*
X0180100Y0045746D01*
X0180100Y0047854D01*
X0179293Y0049802D01*
X0177802Y0051293D01*
X0175854Y0052100D01*
X0167746Y0052100D01*
X0165798Y0051293D01*
X0164307Y0049802D01*
X0163500Y0047854D01*
X0163500Y0045746D01*
X0164307Y0043798D01*
X0165798Y0042307D01*
X0167022Y0041800D01*
X0165798Y0041293D01*
X0164307Y0039802D01*
X0163500Y0037854D01*
X0163500Y0035746D01*
X0164307Y0033798D01*
X0165798Y0032307D01*
X0167022Y0031800D01*
X0165798Y0031293D01*
X0164307Y0029802D01*
X0163500Y0027854D01*
X0163500Y0025746D01*
X0164307Y0023798D01*
X0165798Y0022307D01*
X0167022Y0021800D01*
X0165798Y0021293D01*
X0164307Y0019802D01*
X0163500Y0017854D01*
X0163500Y0015746D01*
X0164307Y0013798D01*
X0165798Y0012307D01*
X0167746Y0011500D01*
X0175854Y0011500D01*
X0177802Y0012307D01*
X0179574Y0014476D02*
X0183701Y0014476D01*
X0183701Y0016075D02*
X0180100Y0016075D01*
X0180100Y0017673D02*
X0183701Y0017673D01*
X0183701Y0019272D02*
X0179513Y0019272D01*
X0178225Y0020870D02*
X0183701Y0020870D01*
X0183701Y0022469D02*
X0177964Y0022469D01*
X0179405Y0024068D02*
X0183701Y0024068D01*
X0183701Y0025666D02*
X0180067Y0025666D01*
X0180100Y0027265D02*
X0183701Y0027265D01*
X0183701Y0028863D02*
X0179682Y0028863D01*
X0178634Y0030462D02*
X0183701Y0030462D01*
X0183701Y0032060D02*
X0177206Y0032060D01*
X0179154Y0033659D02*
X0183701Y0033659D01*
X0183701Y0035257D02*
X0179898Y0035257D01*
X0180100Y0036856D02*
X0183701Y0036856D01*
X0183701Y0038454D02*
X0179852Y0038454D01*
X0179043Y0040053D02*
X0183701Y0040053D01*
X0183701Y0041651D02*
X0176938Y0041651D01*
X0178745Y0043250D02*
X0183701Y0043250D01*
X0183701Y0044848D02*
X0179728Y0044848D01*
X0180100Y0046447D02*
X0183701Y0046447D01*
X0183701Y0048045D02*
X0180021Y0048045D01*
X0179359Y0049644D02*
X0183701Y0049644D01*
X0183701Y0051242D02*
X0177853Y0051242D01*
X0177927Y0062432D02*
X0183701Y0062432D01*
X0183701Y0064030D02*
X0179389Y0064030D01*
X0180052Y0065629D02*
X0183701Y0065629D01*
X0183701Y0067227D02*
X0180100Y0067227D01*
X0179698Y0068826D02*
X0183701Y0068826D01*
X0183701Y0070424D02*
X0178671Y0070424D01*
X0177116Y0072023D02*
X0183701Y0072023D01*
X0183701Y0073621D02*
X0179117Y0073621D01*
X0179882Y0075220D02*
X0183701Y0075220D01*
X0183701Y0076818D02*
X0180100Y0076818D01*
X0179867Y0078417D02*
X0183701Y0078417D01*
X0183701Y0080015D02*
X0179080Y0080015D01*
X0177028Y0081614D02*
X0183701Y0081614D01*
X0183701Y0083212D02*
X0178708Y0083212D01*
X0179713Y0084811D02*
X0183701Y0084811D01*
X0183701Y0086409D02*
X0180100Y0086409D01*
X0180036Y0088008D02*
X0183701Y0088008D01*
X0183701Y0089606D02*
X0180373Y0089606D01*
X0181972Y0091205D02*
X0183701Y0091205D01*
X0183701Y0092803D02*
X0183570Y0092803D01*
X0165747Y0051242D02*
X0142853Y0051242D01*
X0144359Y0049644D02*
X0164241Y0049644D01*
X0163579Y0048045D02*
X0145021Y0048045D01*
X0145100Y0046447D02*
X0163500Y0046447D01*
X0163872Y0044848D02*
X0144728Y0044848D01*
X0143745Y0043250D02*
X0164855Y0043250D01*
X0166662Y0041651D02*
X0141938Y0041651D01*
X0144043Y0040053D02*
X0164557Y0040053D01*
X0163748Y0038454D02*
X0144852Y0038454D01*
X0145100Y0036856D02*
X0163500Y0036856D01*
X0163702Y0035257D02*
X0144898Y0035257D01*
X0144154Y0033659D02*
X0164446Y0033659D01*
X0166394Y0032060D02*
X0142206Y0032060D01*
X0143634Y0030462D02*
X0164966Y0030462D01*
X0163918Y0028863D02*
X0144682Y0028863D01*
X0145100Y0027265D02*
X0163500Y0027265D01*
X0163533Y0025666D02*
X0145067Y0025666D01*
X0144405Y0024068D02*
X0164195Y0024068D01*
X0165636Y0022469D02*
X0142964Y0022469D01*
X0143225Y0020870D02*
X0165375Y0020870D01*
X0164087Y0019272D02*
X0144513Y0019272D01*
X0145100Y0017673D02*
X0163500Y0017673D01*
X0163500Y0016075D02*
X0145100Y0016075D01*
X0144574Y0014476D02*
X0164026Y0014476D01*
X0165227Y0012878D02*
X0143373Y0012878D01*
X0048093Y0172729D02*
X0045790Y0172729D01*
X0037810Y0172729D02*
X0022800Y0172729D01*
X0024188Y0174328D02*
X0036654Y0174328D01*
D16*
X0051600Y0147075D02*
X0017175Y0147075D01*
X0016800Y0146800D01*
X0017175Y0126825D02*
X0016800Y0126800D01*
X0017175Y0126825D02*
X0035400Y0126825D01*
X0079275Y0170700D01*
X0095475Y0170700D01*
X0101550Y0176775D01*
X0101800Y0176800D01*
X0109650Y0176775D02*
X0079950Y0147075D01*
X0059700Y0147075D01*
X0024600Y0111975D01*
X0011775Y0111975D01*
X0008400Y0108600D01*
X0008400Y0084975D01*
X0011775Y0081600D01*
X0036750Y0081600D01*
X0036800Y0081800D01*
X0027975Y0087000D02*
X0052275Y0111300D01*
X0096150Y0111300D01*
X0101550Y0116700D01*
X0101800Y0116800D01*
X0098850Y0144375D02*
X0131250Y0176775D01*
X0131800Y0176800D01*
X0111800Y0176800D02*
X0111675Y0176775D01*
X0109650Y0176775D01*
X0081800Y0176800D02*
X0081300Y0176775D01*
X0051600Y0147075D01*
X0061050Y0144375D02*
X0098850Y0144375D01*
X0061050Y0144375D02*
X0023925Y0107250D01*
X0017175Y0107250D01*
X0016800Y0106800D01*
X0017175Y0087000D02*
X0016800Y0086800D01*
X0017175Y0087000D02*
X0027975Y0087000D01*
D17*
X0096825Y0087000D02*
X0136650Y0047175D01*
X0136800Y0046800D01*
X0171800Y0086800D02*
X0172425Y0086325D01*
X0181200Y0095100D01*
X0181200Y0149775D01*
X0172425Y0158550D01*
X0172425Y0166650D01*
X0171800Y0166800D01*
X0171800Y0141800D02*
X0172425Y0141675D01*
X0172425Y0133575D01*
X0177150Y0128850D01*
X0177150Y0101850D01*
X0172425Y0097125D01*
X0171800Y0096800D01*
X0171075Y0097125D01*
X0137325Y0097125D01*
X0136800Y0096800D01*
X0137325Y0087000D02*
X0136800Y0086800D01*
X0137325Y0087000D02*
X0171075Y0087000D01*
X0171800Y0086800D01*
X0096825Y0087000D02*
X0096825Y0096450D01*
X0096800Y0096800D01*
M02*
