G75*
%MOIN*%
%OFA0B0*%
%FSLAX25Y25*%
%IPPOS*%
%LPD*%
%AMOC8*
5,1,8,0,0,1.08239X$1,22.5*
%
%ADD10C,0.00000*%
%ADD11C,0.00600*%
D10*
X0001800Y0001800D02*
X0001800Y0186761D01*
X0185501Y0186761D01*
X0185501Y0001800D01*
X0001800Y0001800D01*
D11*
X0103179Y0132100D02*
X0102111Y0133168D01*
X0102111Y0134235D01*
X0103179Y0135303D01*
X0106382Y0135303D01*
X0106382Y0133168D01*
X0105314Y0132100D01*
X0103179Y0132100D01*
X0106382Y0135303D02*
X0104246Y0137438D01*
X0102111Y0138505D01*
X0102085Y0142600D02*
X0099949Y0142600D01*
X0101017Y0142600D02*
X0101017Y0149005D01*
X0102085Y0149005D01*
X0104260Y0145803D02*
X0104260Y0144735D01*
X0108530Y0144735D01*
X0108530Y0143668D02*
X0108530Y0145803D01*
X0107462Y0146870D01*
X0105327Y0146870D01*
X0104260Y0145803D01*
X0105327Y0142600D02*
X0107462Y0142600D01*
X0108530Y0143668D01*
X0110692Y0142600D02*
X0112827Y0142600D01*
X0111759Y0142600D02*
X0111759Y0146870D01*
X0112827Y0146870D01*
X0115002Y0145803D02*
X0115002Y0142600D01*
X0117137Y0142600D02*
X0117137Y0145803D01*
X0116070Y0146870D01*
X0115002Y0145803D01*
X0117137Y0145803D02*
X0118205Y0146870D01*
X0119273Y0146870D01*
X0119273Y0142600D01*
X0121448Y0142600D02*
X0125718Y0142600D01*
X0125718Y0149005D01*
X0121448Y0149005D01*
X0123583Y0145803D02*
X0125718Y0145803D01*
X0124650Y0138505D02*
X0122515Y0138505D01*
X0121448Y0137438D01*
X0121448Y0136370D01*
X0125718Y0132100D01*
X0121448Y0132100D01*
X0119273Y0135303D02*
X0115002Y0135303D01*
X0112827Y0136370D02*
X0110692Y0138505D01*
X0110692Y0132100D01*
X0112827Y0132100D02*
X0108557Y0132100D01*
X0111759Y0149005D02*
X0111759Y0150073D01*
X0111759Y0153100D02*
X0108557Y0153100D01*
X0108557Y0156303D01*
X0109624Y0157370D01*
X0111759Y0157370D01*
X0111759Y0155235D02*
X0108557Y0155235D01*
X0106382Y0153100D02*
X0106382Y0157370D01*
X0103179Y0157370D01*
X0102111Y0156303D01*
X0102111Y0153100D01*
X0099936Y0154168D02*
X0099936Y0156303D01*
X0098868Y0157370D01*
X0095666Y0157370D01*
X0095666Y0159505D02*
X0095666Y0153100D01*
X0098868Y0153100D01*
X0099936Y0154168D01*
X0093491Y0154168D02*
X0093491Y0156303D01*
X0092423Y0157370D01*
X0090288Y0157370D01*
X0089220Y0156303D01*
X0089220Y0155235D01*
X0093491Y0155235D01*
X0093491Y0154168D02*
X0092423Y0153100D01*
X0090288Y0153100D01*
X0087045Y0153100D02*
X0087045Y0157370D01*
X0083842Y0157370D01*
X0082775Y0156303D01*
X0082775Y0153100D01*
X0087072Y0147938D02*
X0088139Y0149005D01*
X0091342Y0149005D01*
X0091342Y0142600D01*
X0088139Y0142600D01*
X0087072Y0143668D01*
X0087072Y0147938D01*
X0084897Y0145803D02*
X0083829Y0146870D01*
X0081694Y0146870D01*
X0080626Y0145803D01*
X0080626Y0144735D01*
X0084897Y0144735D01*
X0084897Y0143668D02*
X0084897Y0145803D01*
X0084897Y0143668D02*
X0083829Y0142600D01*
X0081694Y0142600D01*
X0078451Y0142600D02*
X0075248Y0142600D01*
X0074181Y0143668D01*
X0074181Y0145803D01*
X0075248Y0146870D01*
X0078451Y0146870D01*
X0078451Y0140465D01*
X0072006Y0142600D02*
X0072006Y0146870D01*
X0072006Y0144735D02*
X0069870Y0146870D01*
X0068803Y0146870D01*
X0066634Y0145803D02*
X0066634Y0143668D01*
X0065567Y0142600D01*
X0063432Y0142600D01*
X0062364Y0143668D01*
X0062364Y0145803D01*
X0063432Y0146870D01*
X0065567Y0146870D01*
X0066634Y0145803D01*
X0060189Y0145803D02*
X0059121Y0144735D01*
X0056986Y0144735D01*
X0055918Y0143668D01*
X0056986Y0142600D01*
X0060189Y0142600D01*
X0060189Y0145803D02*
X0059121Y0146870D01*
X0055918Y0146870D01*
X0053743Y0146870D02*
X0051608Y0146870D01*
X0052676Y0147938D02*
X0052676Y0143668D01*
X0051608Y0142600D01*
X0051595Y0153100D02*
X0048392Y0153100D01*
X0047324Y0154168D01*
X0048392Y0155235D01*
X0050527Y0155235D01*
X0051595Y0156303D01*
X0050527Y0157370D01*
X0047324Y0157370D01*
X0045149Y0156303D02*
X0044082Y0157370D01*
X0040879Y0157370D01*
X0041947Y0155235D02*
X0044082Y0155235D01*
X0045149Y0156303D01*
X0045149Y0153100D02*
X0041947Y0153100D01*
X0040879Y0154168D01*
X0041947Y0155235D01*
X0038704Y0154168D02*
X0037636Y0153100D01*
X0034433Y0153100D01*
X0032258Y0153100D02*
X0032258Y0159505D01*
X0031191Y0157370D02*
X0029056Y0157370D01*
X0027988Y0156303D01*
X0027988Y0153100D01*
X0025813Y0154168D02*
X0025813Y0156303D01*
X0024745Y0157370D01*
X0022610Y0157370D01*
X0021542Y0156303D01*
X0021542Y0155235D01*
X0025813Y0155235D01*
X0025813Y0154168D02*
X0024745Y0153100D01*
X0022610Y0153100D01*
X0031191Y0157370D02*
X0032258Y0156303D01*
X0034433Y0157370D02*
X0037636Y0157370D01*
X0038704Y0156303D01*
X0038704Y0154168D01*
X0053770Y0155235D02*
X0058040Y0155235D01*
X0058040Y0154168D02*
X0058040Y0156303D01*
X0056973Y0157370D01*
X0054838Y0157370D01*
X0053770Y0156303D01*
X0053770Y0155235D01*
X0054838Y0153100D02*
X0056973Y0153100D01*
X0058040Y0154168D01*
X0060202Y0153100D02*
X0062337Y0153100D01*
X0061270Y0153100D02*
X0061270Y0157370D01*
X0062337Y0157370D01*
X0064506Y0157370D02*
X0065573Y0157370D01*
X0067709Y0155235D01*
X0067709Y0153100D02*
X0067709Y0157370D01*
X0069884Y0158438D02*
X0069884Y0154168D01*
X0070951Y0153100D01*
X0074154Y0153100D01*
X0074154Y0159505D01*
X0070951Y0159505D01*
X0069884Y0158438D01*
X0061270Y0159505D02*
X0061270Y0160573D01*
X0084923Y0162532D02*
X0085991Y0161465D01*
X0087058Y0161465D01*
X0084923Y0162532D02*
X0084923Y0167870D01*
X0089194Y0167870D02*
X0089194Y0164668D01*
X0088126Y0163600D01*
X0084923Y0163600D01*
X0091369Y0164668D02*
X0091369Y0166803D01*
X0092436Y0167870D01*
X0095639Y0167870D01*
X0095639Y0170005D02*
X0095639Y0163600D01*
X0092436Y0163600D01*
X0091369Y0164668D01*
X0104260Y0163600D02*
X0107462Y0163600D01*
X0108530Y0164668D01*
X0108530Y0166803D01*
X0107462Y0167870D01*
X0104260Y0167870D01*
X0104260Y0170005D02*
X0104260Y0163600D01*
X0110705Y0165735D02*
X0114976Y0165735D01*
X0114976Y0164668D02*
X0114976Y0166803D01*
X0113908Y0167870D01*
X0111773Y0167870D01*
X0110705Y0166803D01*
X0110705Y0165735D01*
X0111773Y0163600D02*
X0113908Y0163600D01*
X0114976Y0164668D01*
X0117151Y0163600D02*
X0117151Y0166803D01*
X0118218Y0167870D01*
X0121421Y0167870D01*
X0121421Y0163600D01*
X0123596Y0163600D02*
X0126799Y0163600D01*
X0127867Y0164668D01*
X0127867Y0166803D01*
X0126799Y0167870D01*
X0123596Y0167870D01*
X0123596Y0162532D01*
X0124664Y0161465D01*
X0125731Y0161465D01*
X0130028Y0163600D02*
X0132164Y0163600D01*
X0131096Y0163600D02*
X0131096Y0167870D01*
X0132164Y0167870D01*
X0134339Y0167870D02*
X0137541Y0167870D01*
X0138609Y0166803D01*
X0137541Y0165735D01*
X0135406Y0165735D01*
X0134339Y0164668D01*
X0135406Y0163600D01*
X0138609Y0163600D01*
X0140784Y0165735D02*
X0145055Y0165735D01*
X0145055Y0164668D02*
X0145055Y0166803D01*
X0143987Y0167870D01*
X0141852Y0167870D01*
X0140784Y0166803D01*
X0140784Y0165735D01*
X0141852Y0163600D02*
X0143987Y0163600D01*
X0145055Y0164668D01*
X0147230Y0164668D02*
X0147230Y0168938D01*
X0148297Y0170005D01*
X0151500Y0170005D01*
X0151500Y0163600D01*
X0148297Y0163600D01*
X0147230Y0164668D01*
X0147230Y0159505D02*
X0151500Y0159505D01*
X0149365Y0159505D02*
X0149365Y0153100D01*
X0145055Y0153100D02*
X0145055Y0159505D01*
X0143987Y0157370D02*
X0141852Y0157370D01*
X0140784Y0156303D01*
X0140784Y0153100D01*
X0138609Y0154168D02*
X0138609Y0156303D01*
X0137541Y0157370D01*
X0135406Y0157370D01*
X0134339Y0156303D01*
X0134339Y0155235D01*
X0138609Y0155235D01*
X0138609Y0154168D02*
X0137541Y0153100D01*
X0135406Y0153100D01*
X0132164Y0154168D02*
X0132164Y0156303D01*
X0131096Y0157370D01*
X0128961Y0157370D01*
X0127893Y0156303D01*
X0127893Y0154168D01*
X0128961Y0153100D01*
X0131096Y0153100D01*
X0132164Y0154168D01*
X0134339Y0149005D02*
X0134339Y0142600D01*
X0137541Y0142600D01*
X0138609Y0143668D01*
X0138609Y0145803D01*
X0137541Y0146870D01*
X0134339Y0146870D01*
X0140784Y0145803D02*
X0140784Y0142600D01*
X0140784Y0145803D02*
X0141852Y0146870D01*
X0145055Y0146870D01*
X0145055Y0142600D01*
X0147230Y0142600D02*
X0147230Y0145803D01*
X0148297Y0146870D01*
X0150432Y0146870D01*
X0150432Y0144735D02*
X0147230Y0144735D01*
X0147230Y0142600D02*
X0150432Y0142600D01*
X0151500Y0143668D01*
X0150432Y0144735D01*
X0149365Y0138505D02*
X0149365Y0132100D01*
X0151500Y0132100D02*
X0147230Y0132100D01*
X0145055Y0133168D02*
X0143987Y0132100D01*
X0141852Y0132100D01*
X0140784Y0133168D01*
X0140784Y0134235D01*
X0141852Y0135303D01*
X0142919Y0135303D01*
X0141852Y0135303D02*
X0140784Y0136370D01*
X0140784Y0137438D01*
X0141852Y0138505D01*
X0143987Y0138505D01*
X0145055Y0137438D01*
X0149365Y0138505D02*
X0151500Y0136370D01*
X0138609Y0135303D02*
X0134339Y0135303D01*
X0132164Y0133168D02*
X0132164Y0137438D01*
X0131096Y0138505D01*
X0128961Y0138505D01*
X0127893Y0137438D01*
X0132164Y0133168D01*
X0131096Y0132100D01*
X0128961Y0132100D01*
X0127893Y0133168D01*
X0127893Y0137438D01*
X0125718Y0137438D02*
X0124650Y0138505D01*
X0117137Y0153100D02*
X0115002Y0155235D01*
X0115002Y0159505D01*
X0111759Y0155235D02*
X0112827Y0154168D01*
X0111759Y0153100D01*
X0117137Y0153100D02*
X0119273Y0155235D01*
X0119273Y0159505D01*
X0131096Y0170005D02*
X0131096Y0171073D01*
X0135406Y0160573D02*
X0137541Y0159505D01*
X0143987Y0157370D02*
X0145055Y0156303D01*
M02*
