G75*
%MOIN*%
%OFA0B0*%
%FSLAX25Y25*%
%IPPOS*%
%LPD*%
%AMOC8*
5,1,8,0,0,1.08239X$1,22.5*
%
%ADD10C,0.00000*%
%ADD11OC8,0.05600*%
%ADD12C,0.05943*%
%ADD13C,0.07800*%
%ADD14C,0.06400*%
D10*
X0001800Y0001800D02*
X0001800Y0186761D01*
X0185501Y0186761D01*
X0185501Y0001800D01*
X0001800Y0001800D01*
D11*
X0036800Y0041800D03*
X0051800Y0041800D03*
X0051800Y0081800D03*
X0036800Y0081800D03*
X0046800Y0096800D03*
X0051800Y0104300D03*
X0056800Y0096800D03*
X0071800Y0096800D03*
X0076800Y0104300D03*
X0081800Y0096800D03*
X0096800Y0096800D03*
X0101800Y0104300D03*
X0106800Y0096800D03*
X0164300Y0121800D03*
X0171800Y0116800D03*
X0171800Y0126800D03*
X0171800Y0141800D03*
X0164300Y0146800D03*
X0171800Y0151800D03*
X0171800Y0166800D03*
X0164300Y0171800D03*
X0171800Y0176800D03*
D12*
X0099595Y0061800D03*
X0074005Y0061800D03*
D13*
X0071800Y0116800D03*
X0081800Y0116800D03*
X0091800Y0116800D03*
X0101800Y0116800D03*
X0111800Y0116800D03*
X0121800Y0116800D03*
X0131800Y0116800D03*
X0141800Y0116800D03*
X0151800Y0116800D03*
X0151800Y0176800D03*
X0141800Y0176800D03*
X0131800Y0176800D03*
X0121800Y0176800D03*
X0111800Y0176800D03*
X0101800Y0176800D03*
X0091800Y0176800D03*
X0081800Y0176800D03*
X0071800Y0176800D03*
X0061800Y0176800D03*
X0051800Y0176800D03*
X0041800Y0176800D03*
X0041800Y0116800D03*
X0051800Y0116800D03*
X0061800Y0116800D03*
D14*
X0019800Y0116800D02*
X0013800Y0116800D01*
X0013800Y0106800D02*
X0019800Y0106800D01*
X0019800Y0096800D02*
X0013800Y0096800D01*
X0013800Y0086800D02*
X0019800Y0086800D01*
X0019800Y0126800D02*
X0013800Y0126800D01*
X0013800Y0136800D02*
X0019800Y0136800D01*
X0019800Y0146800D02*
X0013800Y0146800D01*
X0013800Y0156800D02*
X0019800Y0156800D01*
X0019800Y0166800D02*
X0013800Y0166800D01*
X0013800Y0176800D02*
X0019800Y0176800D01*
X0133800Y0096800D02*
X0139800Y0096800D01*
X0139800Y0086800D02*
X0133800Y0086800D01*
X0133800Y0076800D02*
X0139800Y0076800D01*
X0139800Y0066800D02*
X0133800Y0066800D01*
X0133800Y0046800D02*
X0139800Y0046800D01*
X0139800Y0036800D02*
X0133800Y0036800D01*
X0133800Y0026800D02*
X0139800Y0026800D01*
X0139800Y0016800D02*
X0133800Y0016800D01*
X0168800Y0016800D02*
X0174800Y0016800D01*
X0174800Y0026800D02*
X0168800Y0026800D01*
X0168800Y0036800D02*
X0174800Y0036800D01*
X0174800Y0046800D02*
X0168800Y0046800D01*
X0168800Y0066800D02*
X0174800Y0066800D01*
X0174800Y0076800D02*
X0168800Y0076800D01*
X0168800Y0086800D02*
X0174800Y0086800D01*
X0174800Y0096800D02*
X0168800Y0096800D01*
X0066800Y0019800D02*
X0066800Y0013800D01*
X0056800Y0013800D02*
X0056800Y0019800D01*
X0046800Y0019800D02*
X0046800Y0013800D01*
X0036800Y0013800D02*
X0036800Y0019800D01*
X0026800Y0019800D02*
X0026800Y0013800D01*
X0016800Y0013800D02*
X0016800Y0019800D01*
X0013800Y0036800D02*
X0019800Y0036800D01*
X0019800Y0046800D02*
X0013800Y0046800D01*
M02*
